version 1
nodes
0 "m3bone_root" -1
1 "bone" 0
2 "bone_20" 1
3 "bone_19" 2
4 "Head Ref" 3
5 "bone_15" 2
6 "bone_14" 5
7 "bone_13" 6
8 "Hand Left Ref" 7
9 "bone_15111" 2
10 "bone_17" 9
11 "bone_18" 10
12 "bone_5" 11
13 "bone_2" 12
14 "bone_24999" 13
15 "Weapon Ref" 14
16 "Hand Right Ref" 11
17 "Chest Ref" 2
18 "bone_25" 1
19 "bone_23" 18
20 "bone_24" 1
21 "bone_7" 20
22 "bone_9" 21
23 "bone_11" 22
24 "Foot Left Ref" 23
25 "bone_6" 20
26 "bone_8" 25
27 "bone_10" 26
28 "Foot Right Ref" 27
29 "OverHead Ref" 0
30 "Origin Ref" 0
31 "_M3_Anim_Data" -1
32 "syamemaru2" -1
33 "syamemaru1" -1
34 "syamemaru3" -1
35 "syamemaru4" -1
end
skeleton
time 0
0  0.000000 0.000000 0.000000  0.000000 0.000000 -0.000000
1  -0.853093 -0.026367 105.461967  0.017498 0.017429 -0.017127
2  0.076076 0.018686 0.486752  0.000000 0.017402 0.000000
3  0.681924 3.061768 25.766731  -0.000008 0.017402 -0.000000
4  -0.270206 4.643921 15.082965  0.000000 -0.000000 -0.000000
5  7.861995 1.690552 20.553329  -0.000000 0.017402 -0.000000
6  5.961567 5.877563 -14.357306  0.000000 0.017403 -0.000000
7  10.132450 7.521423 -13.339906  -0.000000 0.017401 0.000001
8  7.071617 2.633332 -1.343444  -0.000000 -0.000000 -0.000000
9  -7.215014 2.908783 21.442219  0.000000 0.017402 -0.000000
10  -2.914595 -15.412414 -6.310869  0.000000 0.017403 -0.000000
11  1.915933 -8.833005 13.424037  -0.000008 0.017401 -0.000001
12  5.659708 -11.449341 9.057154  -0.000000 0.017402 0.000000
13  1.189925 10.695251 -2.939754  0.000000 0.034800 0.000000
14  -2.124492 -24.104856 6.023605  0.000000 0.017402 -0.000000
15  2.792171 -5.421343 -1.263818  -0.000000 0.000000 0.000000
16  -0.160955 2.270951 5.513714  -0.000000 -0.000000 0.000000
17  0.783688 1.087372 11.560611  -0.000000 0.000000 -0.000000
18  -0.017061 -0.034563 -0.655077  0.000000 0.017402 0.000000
19  -0.669090 -0.281067 -16.582537  0.000000 0.017402 -0.000000
20  -0.054112 -0.368334 -0.391035  0.000000 0.000000 0.000000
21  2.926264 -1.135559 -24.857817  -0.000000 0.034800 -0.000000
22  0.176165 3.421204 -19.465670  -0.000000 0.017402 0.000000
23  0.214583 3.945678 -14.796891  -0.000000 0.017402 -0.000000
24  -0.127800 3.995606 -4.361926  -0.000000 0.000000 0.000000
25  -5.848765 -2.970825 -24.100025  0.000000 0.017402 0.000000
26  0.392181 -8.798156 -12.680974  -0.000000 0.017402 -0.000000
27  1.845343 7.302796 -12.204830  -0.000000 0.017402 0.000000
28  -0.506196 5.050751 -3.130151  0.000000 -0.000000 0.000000
29  0.000009 0.000000 206.122971  0.000000 -0.000000 0.000000
30  0.000000 -0.000000 -0.000000  0.000000 -0.000000 -0.000000
31  0.000000 0.000000 0.000000  0.000000 0.000000 -0.000000
32  0.000000 0.000000 0.000000  0.000000 0.000000 -0.000000
33  0.000000 0.000000 0.000000  0.000000 0.000000 -0.000000
34  0.000000 0.000000 0.000000  0.000000 0.000000 -0.000000
35  0.000000 0.000000 0.000000  0.000000 0.000000 -0.000000
end
triangles
anime/map/merlin.vmat
0 20.000118 -54.499893 144.999786 0.598986 0.653432 0.462863 0.546875 0.285645 2 14 1.000000 1 0.000001
0 -1.679686 -36.500076 148.000076 0.598987 0.653432 0.462862 0.562500 0.242676 3 14 0.498039 13 0.501961 4 0.000001
0 -1.898386 -50.249992 166.999908 0.598987 0.653432 0.462862 0.562500 0.285645 2 14 1.000000 8 0.000001
anime/map/merlin.vmat
0 -2.453094 7.374993 28.124994 -0.021909 0.481812 0.876001 0.519043 0.121582 2 23 1.000000 12 0.000001
0 2.562508 4.562490 29.624893 -0.021908 0.481812 0.876000 0.546875 0.168457 2 23 1.000000 15 0.000001
0 7.562510 7.749991 28.000092 -0.021908 0.481812 0.876000 0.577637 0.121582 2 23 1.000000 16 0.000001
anime/map/merlin.vmat
0 -12.937483 10.062449 139.999466 -0.865582 -0.272033 -0.420436 0.023285 0.449219 2 3 1.000000 17 0.000001
0 -6.687483 -4.062558 136.000168 -0.865582 -0.272033 -0.420436 0.033386 0.402344 2 3 1.000000 20 0.000001
0 -9.937483 -3.359459 141.999878 -0.865583 -0.272031 -0.420434 0.028885 0.449219 2 3 1.000000 21 0.000001
anime/map/merlin.vmat
0 -7.593682 3.874947 135.000656 -0.559665 0.022464 -0.828414 0.025391 0.394531 2 3 1.000000 24 0.000001
0 -12.937483 10.062449 139.999466 -0.599469 0.119974 -0.791356 0.023285 0.449219 2 3 1.000000 25 0.000001
0 -0.310477 6.468748 133.000259 -0.604368 0.549403 -0.576971 0.027588 0.390625 2 3 1.000000 28 0.000001
anime/map/merlin.vmat
0 -2.796879 3.671847 133.000259 -0.718214 0.000080 -0.695823 0.037598 0.386719 2 3 1.000000 29 0.000001
0 -0.417978 1.210845 133.000259 -0.656373 -0.519624 -0.546959 0.027588 0.382812 2 3 1.000000 30 0.000001
0 -7.593682 3.874947 135.000656 -0.559712 0.022394 -0.828384 0.025391 0.394531 2 3 1.000000 31 0.000001
anime/map/merlin.vmat
0 -0.417978 1.210845 133.000259 -0.656373 -0.519624 -0.546959 0.027588 0.382812 2 3 1.000000 32 0.000001
0 -2.796879 3.671847 133.000259 -0.718214 0.000080 -0.695823 0.037598 0.386719 2 3 1.000000 33 0.000001
0 -2.859380 2.640548 129.000061 -0.993464 -0.108277 0.036134 0.037598 0.359863 3 3 0.498039 2 0.501961 34 0.000001
anime/map/merlin.vmat
0 -0.490179 0.179646 129.000061 -0.720730 -0.671031 0.173973 0.027588 0.352051 3 3 0.498039 2 0.501961 35 0.000001
0  -0.417978 1.210845 133.000259  -0.656373 -0.519624 -0.546959  0.027588 0.382812 1 3 1.000000
0  -2.859380 2.640548 129.000061  -0.993464 -0.108277 0.036134  0.037598 0.359863 2 3 0.498039 2 0.501961
anime/map/merlin.vmat
0  -0.386678 5.312449 129.000061  -0.729340 0.653896 -0.201202  0.027588 0.359863 2 3 0.498039 2 0.501961
0  -2.859380 2.640548 129.000061  -0.993448 -0.108423 0.036138  0.037598 0.359863 2 3 0.498039 2 0.501961
0  -0.310477 6.468748 133.000259  -0.604389 0.549473 -0.576883  0.027588 0.390625 1 3 1.000000
anime/map/merlin.vmat
0  -2.859380 2.640548 129.000061  -0.993444 -0.108448 0.036175  0.037598 0.359863 2 3 0.498039 2 0.501961
0  -2.796879 3.671847 133.000259  -0.718245 -0.000006 -0.695790  0.037598 0.386719 1 3 1.000000
0  -0.310477 6.468748 133.000259  -0.656365 0.546972 -0.519621  0.027588 0.390625 1 3 1.000000
anime/map/merlin.vmat
0  -7.593682 3.874947 135.000656  -0.559675 0.022433 -0.828408  0.025391 0.394531 1 3 1.000000
0  -0.310477 6.468748 133.000259  -0.656365 0.546972 -0.519621  0.027588 0.390625 1 3 1.000000
0  -2.796879 3.671847 133.000259  -0.718245 -0.000006 -0.695790  0.037598 0.386719 1 3 1.000000
anime/map/merlin.vmat
0  -12.937483 10.062449 139.999466  -0.599530 0.119823 -0.791332  0.023285 0.449219 1 3 1.000000
0  -7.593682 3.874947 135.000656  -0.559764 0.022303 -0.828352  0.025391 0.394531 1 3 1.000000
0  -6.687483 -4.062558 136.000168  -0.520785 -0.630429 -0.575624  0.033386 0.402344 1 3 1.000000
anime/map/merlin.vmat
0  -0.539079 -5.406259 133.999664  -0.022511 -0.585341 -0.810475  0.093750 0.386719 1 3 1.000000
0  -7.593682 3.874947 135.000656  -0.559764 0.022303 -0.828352  0.025391 0.394531 1 3 1.000000
0  -0.417978 1.210845 133.000259  -0.656446 -0.519614 -0.546883  0.027588 0.382812 1 3 1.000000
anime/map/merlin.vmat
0  -6.687483 -4.062558 136.000168  -0.520785 -0.630429 -0.575624  0.033386 0.402344 1 3 1.000000
0  -7.593682 3.874947 135.000656  -0.559764 0.022303 -0.828352  0.025391 0.394531 1 3 1.000000
0  -0.539079 -5.406259 133.999664  -0.022511 -0.585341 -0.810475  0.093750 0.386719 1 3 1.000000
anime/map/merlin.vmat
0  -0.417978 1.210845 133.000259  0.285951 -0.153962 -0.945795  0.160156 0.382812 1 3 1.000000
0  6.906328 3.562443 135.000656  0.524152 -0.000093 -0.851624  0.161987 0.394531 1 3 1.000000
0  -0.539079 -5.406259 133.999664  -0.022511 -0.585341 -0.810475  0.093750 0.386719 1 3 1.000000
anime/map/merlin.vmat
0  -6.687483 -4.062558 136.000168  -0.520785 -0.630429 -0.575624  0.033386 0.402344 1 3 1.000000
0  -0.539079 -5.406259 133.999664  -0.022511 -0.585341 -0.810475  0.093750 0.386719 1 3 1.000000
0  -0.527279 -7.593762 138.000565  -0.037868 -0.984644 -0.170417  0.093750 0.410645 1 3 1.000000
anime/map/merlin.vmat
0  -0.539079 -5.406259 133.999664  -0.022511 -0.585341 -0.810475  0.093750 0.386719 1 3 1.000000
0  6.906328 3.562443 135.000656  0.524152 -0.000093 -0.851624  0.161987 0.394531 1 3 1.000000
0  5.718825 -4.312561 136.000168  0.549444 -0.576905 -0.604394  0.154297 0.402344 1 3 1.000000
anime/map/merlin.vmat
0  -0.539079 -5.406259 133.999664  -0.022511 -0.585341 -0.810475  0.093750 0.386719 1 3 1.000000
0  5.718825 -4.312561 136.000168  0.549444 -0.576905 -0.604394  0.154297 0.402344 1 3 1.000000
0  -0.527279 -7.593762 138.000565  -0.037868 -0.984644 -0.170417  0.093750 0.410645 1 3 1.000000
anime/map/merlin.vmat
0  -9.937483 -3.359459 141.999878  -0.694658 -0.717846 0.046342  0.028885 0.449219 1 3 1.000000
0  -6.687483 -4.062558 136.000168  -0.520785 -0.630429 -0.575624  0.033386 0.402344 1 3 1.000000
0  -0.527279 -7.593762 138.000565  -0.037868 -0.984644 -0.170417  0.093750 0.410645 1 3 1.000000
anime/map/merlin.vmat
0  12.625034 9.562443 139.999466  0.939872 -0.179060 -0.290824  0.164062 0.449219 1 3 1.000000
0  5.718825 -4.312561 136.000168  0.549444 -0.576905 -0.604394  0.154297 0.402344 1 3 1.000000
0  6.906328 3.562443 135.000656  0.524152 -0.000093 -0.851624  0.161987 0.394531 1 3 1.000000
anime/map/merlin.vmat
0  -0.310477 6.468748 133.000259  0.630466 0.520815 -0.575555  0.160156 0.390625 1 3 1.000000
0  6.906328 3.562443 135.000656  0.524089 0.000086 -0.851663  0.161987 0.394531 1 3 1.000000
0  2.062524 3.562445 133.000259  0.683775 -0.022800 -0.729337  0.150391 0.386719 1 3 1.000000
anime/map/merlin.vmat
0  1.992223 2.546847 129.000061  0.988101 -0.149209 0.037321  0.150391 0.359863 2 3 0.498039 2 0.501961
0  -0.310477 6.468748 133.000259  0.630466 0.520815 -0.575555  0.160156 0.390625 1 3 1.000000
0  2.062524 3.562445 133.000259  0.683775 -0.022800 -0.729337  0.150391 0.386719 1 3 1.000000
anime/map/merlin.vmat
0  -0.386678 5.312449 129.000061  0.737321 0.635619 -0.228792  0.160156 0.359863 2 3 0.498039 2 0.501961
0  -0.310477 6.468748 133.000259  0.630466 0.520815 -0.575555  0.160156 0.390625 1 3 1.000000
0  1.992223 2.546847 129.000061  0.988101 -0.149209 0.037321  0.150391 0.359863 2 3 0.498039 2 0.501961
anime/map/merlin.vmat
0  12.625034 9.562443 139.999466  0.939872 -0.179060 -0.290824  0.164062 0.449219 1 3 1.000000
0  9.187529 -3.765663 141.999878  0.738718 -0.667242 -0.095315  0.159180 0.449219 1 3 1.000000
0  5.718825 -4.312561 136.000168  0.549444 -0.576905 -0.604394  0.154297 0.402344 1 3 1.000000
anime/map/merlin.vmat
0  9.187529 -3.765663 141.999878  0.738718 -0.667242 -0.095315  0.159180 0.449219 1 3 1.000000
0  -0.527279 -7.593762 138.000565  -0.037868 -0.984644 -0.170417  0.093750 0.410645 1 3 1.000000
0  5.718825 -4.312561 136.000168  0.549444 -0.576905 -0.604394  0.154297 0.402344 1 3 1.000000
anime/map/merlin.vmat
0  12.625036 12.124940 150.000076  0.977343 -0.210793 0.019179  0.164062 0.517822 1 3 1.000000
0  9.187529 -3.765663 141.999878  0.738718 -0.667242 -0.095315  0.159180 0.449219 1 3 1.000000
0  12.625034 9.562443 139.999466  0.939872 -0.179060 -0.290824  0.164062 0.449219 1 3 1.000000
anime/map/merlin.vmat
0  9.187529 -3.765663 141.999878  0.738718 -0.667242 -0.095315  0.159180 0.449219 1 3 1.000000
0  12.625036 12.124940 150.000076  0.977343 -0.210793 0.019179  0.164062 0.517822 1 3 1.000000
0  10.312531 -1.281268 155.000381  0.715705 -0.691857 0.095398  0.156250 0.541016 1 3 1.000000
anime/map/merlin.vmat
0  9.187529 -3.765663 141.999878  0.738718 -0.667242 -0.095315  0.159180 0.449219 1 3 1.000000
0  10.312531 -1.281268 155.000381  0.715705 -0.691857 0.095398  0.156250 0.541016 1 3 1.000000
0  -0.206075 -4.031368 157.000778  -0.038477 -0.980586 0.192275  0.093750 0.543213 1 3 1.000000
anime/map/merlin.vmat
0  9.187529 -3.765663 141.999878  0.738718 -0.667242 -0.095315  0.159180 0.449219 1 3 1.000000
0  -0.460878 -7.343864 142.999374  -0.036700 -0.991034 0.128473  0.093750 0.449219 1 3 1.000000
0  -0.527279 -7.593762 138.000565  -0.037868 -0.984644 -0.170417  0.093750 0.410645 1 3 1.000000
anime/map/merlin.vmat
0  9.187529 -3.765663 141.999878  0.738718 -0.667242 -0.095315  0.159180 0.449219 1 3 1.000000
0  -0.206075 -4.031368 157.000778  -0.038477 -0.980586 0.192275  0.093750 0.543213 1 3 1.000000
0  -0.460878 -7.343864 142.999374  -0.036700 -0.991034 0.128473  0.093750 0.449219 1 3 1.000000
anime/map/merlin.vmat
0  -9.937483 -3.359459 141.999878  -0.694658 -0.717846 0.046342  0.028885 0.449219 1 3 1.000000
0  -0.527279 -7.593762 138.000565  -0.037868 -0.984644 -0.170417  0.093750 0.410645 1 3 1.000000
0  -0.460878 -7.343864 142.999374  -0.036700 -0.991034 0.128473  0.093750 0.449219 1 3 1.000000
anime/map/merlin.vmat
0  -9.937483 -3.359459 141.999878  -0.694658 -0.717846 0.046342  0.028885 0.449219 1 3 1.000000
0  -0.460878 -7.343864 142.999374  -0.036700 -0.991034 0.128473  0.093750 0.449219 1 3 1.000000
0  -0.206075 -4.031368 157.000778  -0.038477 -0.980586 0.192275  0.093750 0.543213 1 3 1.000000
anime/map/merlin.vmat
0  -9.937483 -3.359459 141.999878  -0.694658 -0.717846 0.046342  0.028885 0.449219 1 3 1.000000
0  -0.206075 -4.031368 157.000778  -0.038477 -0.980586 0.192275  0.093750 0.543213 1 3 1.000000
0  -10.624981 -0.847764 155.999878  -0.738719 -0.667241 0.095314  0.031677 0.541016 1 3 1.000000
anime/map/merlin.vmat
0  -9.937483 -3.359459 141.999878  -0.694658 -0.717846 0.046342  0.028885 0.449219 1 3 1.000000
0  -10.624981 -0.847764 155.999878  -0.738719 -0.667241 0.095314  0.031677 0.541016 1 3 1.000000
0  -12.499981 12.624946 150.000076  -0.984644 -0.170415 0.037872  0.023285 0.517822 1 3 1.000000
anime/map/merlin.vmat
0  -12.499981 12.624946 150.000076  -0.984644 -0.170415 0.037872  0.023285 0.517822 1 3 1.000000
0  -12.937483 10.062449 139.999466  -0.976686 -0.199321 0.079723  0.023285 0.449219 1 3 1.000000
0  -9.937483 -3.359459 141.999878  -0.694658 -0.717846 0.046342  0.028885 0.449219 1 3 1.000000
anime/map/merlin.vmat
0  6.906328 3.562443 135.000656  0.524043 0.000061 -0.851692  0.161987 0.394531 1 3 1.000000
0  -0.310477 6.468748 133.000259  0.630407 0.520759 -0.575672  0.160156 0.390625 1 3 1.000000
0  12.625034 9.562443 139.999466  0.939868 -0.178973 -0.290891  0.164062 0.449219 1 3 1.000000
anime/map/merlin.vmat
0  2.062524 3.562445 133.000259  0.683763 -0.022744 -0.729349  0.150391 0.386719 1 3 1.000000
0  6.906328 3.562443 135.000656  0.524067 -0.000062 -0.851677  0.161987 0.394531 1 3 1.000000
0  -0.417978 1.210845 133.000259  0.681508 -0.728408 -0.070486  0.160156 0.382812 1 3 1.000000
anime/map/merlin.vmat
0  -0.417978 1.210845 133.000259  0.681508 -0.728408 -0.070486  0.160156 0.382812 1 3 1.000000
0  1.992223 2.546847 129.000061  0.988127 -0.149060 0.037240  0.150391 0.359863 2 3 0.498039 2 0.501961
0  2.062524 3.562445 133.000259  0.683763 -0.022744 -0.729349  0.150391 0.386719 1 3 1.000000
anime/map/merlin.vmat
0  -0.490179 0.179646 129.000061  0.679902 -0.705097 0.201423  0.160156 0.352051 2 3 0.498039 2 0.501961
0  1.992223 2.546847 129.000061  0.988127 -0.149060 0.037240  0.150391 0.359863 2 3 0.498039 2 0.501961
0  -0.417978 1.210845 133.000259  0.681508 -0.728408 -0.070486  0.160156 0.382812 1 3 1.000000
anime/map/merlin.vmat
0  -3.015583 -6.500060 136.000183  -0.737322 0.228817 0.635609  0.565918 0.281738 1 13 1.000000
0  -1.679686 -36.500076 148.000076  -0.630481 0.520712 0.575633  0.581543 0.242676 2 14 0.498039 13 0.501961
0  -1.132781 -6.218862 138.000580  -0.737322 0.228816 0.635609  0.581543 0.281738 1 13 1.000000
anime/map/merlin.vmat
0  -8.249990 -37.500076 142.000076  -0.656344 0.519620 0.546999  0.565918 0.242676 2 14 0.498039 13 0.501961
0  -1.679686 -36.500076 148.000076  -0.630431 0.520793 0.575613  0.581543 0.242676 2 14 0.498039 13 0.501961
0  -3.015583 -6.500060 136.000183  -0.695964 0.257762 0.670218  0.565918 0.281738 1 13 1.000000
anime/map/merlin.vmat
0  -8.249990 -37.500076 142.000076  -0.656344 0.519620 0.546999  0.565918 0.242676 2 14 0.498039 13 0.501961
0  -1.898386 -50.249992 166.999908  -0.595460 0.676663 0.433076  0.581543 0.203125 1 14 1.000000
0  -1.679686 -36.500076 148.000076  -0.630431 0.520793 0.575613  0.581543 0.242676 2 14 0.498039 13 0.501961
anime/map/merlin.vmat
0  -24.000004 -53.749882 144.999786  -0.598989 0.653438 0.462851  0.565918 0.203125 1 14 1.000000
0  -1.898386 -50.249992 166.999908  -0.595460 0.676663 0.433076  0.581543 0.203125 1 14 1.000000
0  -8.249990 -37.500076 142.000076  -0.656344 0.519620 0.546999  0.565918 0.242676 2 14 0.498039 13 0.501961
anime/map/merlin.vmat
0  -8.437488 -4.937544 105.000328  -0.998073 0.034403 0.051643  0.800781 0.164551 1 18 1.000000
0  -7.093785 -2.687551 122.500061  -0.998566 -0.016933 0.050781  0.796875 0.214844 2 2 0.498039 9 0.501961
0  -8.249986 5.531261 105.000328  -0.998567 0.016929 0.050767  0.831543 0.164551 1 18 1.000000
anime/map/merlin.vmat
0  -7.093785 -2.687551 122.500061  -0.998566 -0.016933 0.050781  0.796875 0.214844 2 2 0.498039 9 0.501961
0  -7.374983 4.749953 123.000061  -0.998073 -0.034413 0.051627  0.827637 0.214844 2 2 0.498039 9 0.501961
0  -8.249986 5.531261 105.000328  -0.998567 0.016929 0.050767  0.831543 0.164551 1 18 1.000000
anime/map/merlin.vmat
0  -3.718782 -14.000066 147.000168  0.912428 -0.210543 -0.350923  0.656250 0.705322 1 11 1.000000
0  -6.874988 -28.500072 147.000153  0.912427 -0.210546 -0.350923  0.722656 0.705322 1 11 1.000000
0  -8.624987 -12.375058 133.000244  0.912431 -0.210538 -0.350918  0.656250 0.638916 1 11 1.000000
anime/map/merlin.vmat
0  -8.624987 -12.375058 133.000244  0.912431 -0.210538 -0.350918  0.656250 0.638916 1 11 1.000000
0  -6.874988 -28.500072 147.000153  0.912427 -0.210546 -0.350923  0.722656 0.705322 1 11 1.000000
0  -11.749992 -26.874966 133.000229  0.912428 -0.210543 -0.350922  0.722656 0.638916 1 11 1.000000
anime/map/merlin.vmat
0  34.750038 28.499966 98.500145  -0.238850 0.173706 -0.955394  0.671875 0.615234 1 7 1.000000
0  41.999847 14.249959 94.000229  -0.260081 0.151704 -0.953595  0.734375 0.615234 1 7 1.000000
0  20.500032 20.624863 100.499748  -0.260065 0.151712 -0.953598  0.671875 0.552734 1 7 1.000000
anime/map/merlin.vmat
0  20.500032 20.624863 100.499748  -0.260065 0.151712 -0.953598  0.671875 0.552734 1 7 1.000000
0  41.999847 14.249959 94.000229  -0.260081 0.151704 -0.953595  0.734375 0.615234 1 7 1.000000
0  27.750036 6.406258 96.499634  -0.255555 0.127768 -0.958315  0.734375 0.552734 1 7 1.000000
anime/map/merlin.vmat
0  -10.312473 19.749941 169.000305  -0.022695 -0.771739 0.635534  0.636230 0.176270 1 3 1.000000
0  11.250039 19.249838 169.000305  -0.022693 -0.771739 0.635535  0.742188 0.176270 1 3 1.000000
0  -9.812468 33.249939 186.000214  -0.022694 -0.771739 0.635534  0.636230 0.281738 1 3 1.000000
anime/map/merlin.vmat
0  -9.812468 33.249939 186.000214  -0.022694 -0.771739 0.635534  0.636230 0.281738 1 3 1.000000
0  11.250039 19.249838 169.000305  -0.022693 -0.771739 0.635535  0.742188 0.176270 1 3 1.000000
0  11.750045 32.749836 186.000214  -0.022696 -0.771739 0.635534  0.742188 0.281738 1 3 1.000000
anime/map/merlin.vmat
0  -3.015583 -6.500060 136.000183  -0.750950 -0.022752 -0.659968  0.515137 0.203125 1 13 1.000000
0  -1.148382 -6.875060 133.999680  0.090483 -0.054176 -0.994423  0.531250 0.203125 1 13 1.000000
0  -8.249990 -37.500076 142.000076  -0.635652 0.228750 -0.737306  0.515137 0.242676 2 14 0.498039 13 0.501961
anime/map/merlin.vmat
0  -8.249990 -37.500076 142.000076  -0.635616 0.228832 -0.737312  0.515137 0.242676 2 14 0.498039 13 0.501961
0  -1.148382 -6.875060 133.999680  -0.694676 -0.046311 -0.717831  0.531250 0.203125 1 13 1.000000
0  -1.749989 -38.750072 136.000061  -0.020263 0.303986 -0.952461  0.531250 0.242676 2 14 0.498039 13 0.501961
anime/map/merlin.vmat
0  -1.148382 -6.875060 133.999680  0.090311 -0.054286 -0.994433  0.531250 0.203125 1 13 1.000000
0  0.738320 -6.593861 136.000183  0.989823 0.130780 0.056091  0.546875 0.203125 1 13 1.000000
0  -1.749989 -38.750072 136.000061  -0.020379 0.303970 -0.952464  0.531250 0.242676 2 14 0.498039 13 0.501961
anime/map/merlin.vmat
0  -8.249990 -37.500076 142.000076  -0.635616 0.228832 -0.737312  0.515137 0.242676 2 14 0.498039 13 0.501961
0  -1.749989 -38.750072 136.000061  -0.020263 0.303986 -0.952461  0.531250 0.242676 2 14 0.498039 13 0.501961
0  -24.000004 -53.749882 144.999786  -0.595452 0.433075 -0.676671  0.515137 0.285645 1 14 1.000000
anime/map/merlin.vmat
0  -24.000004 -53.749882 144.999786  -0.595452 0.433075 -0.676671  0.515137 0.285645 1 14 1.000000
0  -1.749989 -38.750072 136.000061  -0.020263 0.303986 -0.952461  0.531250 0.242676 2 14 0.498039 13 0.501961
0  -2.124995 -58.000278 123.500160  -0.000004 0.524083 -0.851667  0.531250 0.285645 1 14 1.000000
anime/map/merlin.vmat
0  0.738320 -6.593861 136.000183  0.989846 0.130685 0.055916  0.546875 0.203125 1 13 1.000000
0  -1.132781 -6.218862 138.000580  0.713293 0.229259 0.662309  0.562500 0.203125 1 13 1.000000
0  4.843717 -37.750076 142.000076  0.871548 0.481649 -0.091755  0.546875 0.242676 2 14 0.498039 13 0.501961
anime/map/merlin.vmat
0  -1.749989 -38.750072 136.000061  -0.020263 0.303986 -0.952461  0.531250 0.242676 2 14 0.498039 13 0.501961
0  4.843717 -37.750076 142.000076  0.871548 0.481649 -0.091755  0.546875 0.242676 2 14 0.498039 13 0.501961
0  -2.124995 -58.000278 123.500160  -0.000004 0.524083 -0.851667  0.531250 0.285645 1 14 1.000000
anime/map/merlin.vmat
0  -1.749989 -38.750072 136.000061  -0.020263 0.303986 -0.952461  0.531250 0.242676 2 14 0.498039 13 0.501961
0  0.738320 -6.593861 136.000183  0.681449 -0.070470 -0.728465  0.546875 0.203125 1 13 1.000000
0  4.843717 -37.750076 142.000076  0.871548 0.481649 -0.091755  0.546875 0.242676 2 14 0.498039 13 0.501961
anime/map/merlin.vmat
0  -2.124995 -58.000278 123.500160  -0.000004 0.524083 -0.851667  0.531250 0.285645 1 14 1.000000
0  4.843717 -37.750076 142.000076  0.871548 0.481649 -0.091755  0.546875 0.242676 2 14 0.498039 13 0.501961
0  20.000118 -54.499893 144.999786  0.681171 0.517683 -0.517697  0.546875 0.285645 1 14 1.000000
anime/map/merlin.vmat
0  4.843717 -37.750076 142.000076  0.871548 0.481649 -0.091755  0.546875 0.242676 2 14 0.498039 13 0.501961
0  -1.132781 -6.218862 138.000580  0.713293 0.229259 0.662309  0.562500 0.203125 1 13 1.000000
0  -1.679686 -36.500076 148.000076  0.642135 0.374559 0.668856  0.562500 0.242676 2 14 0.498039 13 0.501961
anime/map/merlin.vmat
0  4.843717 -37.750076 142.000076  0.871548 0.481649 -0.091755  0.546875 0.242676 2 14 0.498039 13 0.501961
0  -1.679686 -36.500076 148.000076  0.642135 0.374559 0.668856  0.562500 0.242676 2 14 0.498039 13 0.501961
0  20.000118 -54.499893 144.999786  0.681171 0.517683 -0.517697  0.546875 0.285645 1 14 1.000000
anime/map/merlin.vmat
0  -0.427678 6.999953 123.500145  0.328446 0.944300 0.020529  0.839355 0.214844 1 2 1.000000
0  6.406326 4.468650 122.500061  0.328441 0.944302 0.020520  0.863281 0.214844 2 5 0.498039 2 0.501961
0  -0.675781 7.468661 104.499832  0.019236 0.977340 0.210800  0.839355 0.164551 1 18 1.000000
anime/map/merlin.vmat
0  -0.675781 7.468661 104.499832  0.019236 0.977340 0.210800  0.839355 0.164551 1 18 1.000000
0  6.406326 4.468650 122.500061  0.328441 0.944302 0.020520  0.863281 0.214844 2 5 0.498039 2 0.501961
0  6.812523 5.218658 105.000328  0.295862 0.933019 0.204796  0.859375 0.164551 1 18 1.000000
anime/map/merlin.vmat
0  -0.675781 7.468661 104.499832  0.019236 0.977340 0.210800  0.839355 0.164551 1 18 1.000000
0  6.812523 5.218658 105.000328  0.295862 0.933019 0.204796  0.859375 0.164551 1 18 1.000000
0  -0.769483 14.249971 87.000328  0.021576 0.902642 0.429850  0.839355 0.085938 1 18 1.000000
anime/map/merlin.vmat
0  6.812523 5.218658 105.000328  0.295862 0.933019 0.204796  0.859375 0.164551 1 18 1.000000
0  18.250124 5.499963 87.500023  0.360404 0.823766 0.437627  0.897949 0.105957 1 18 1.000000
0  -0.769483 14.249971 87.000328  0.021576 0.902642 0.429850  0.839355 0.085938 1 18 1.000000
anime/map/merlin.vmat
0  18.250124 5.499963 87.500023  0.360404 0.823766 0.437627  0.897949 0.105957 1 18 1.000000
0  33.499931 13.874974 65.000198  0.309349 0.799080 0.515533  0.940918 0.051270 1 19 1.000000
0  -0.769483 14.249971 87.000328  0.021576 0.902642 0.429850  0.839355 0.085938 1 18 1.000000
anime/map/merlin.vmat
0  33.499931 13.874974 65.000198  0.309349 0.799080 0.515533  0.940918 0.051270 1 19 1.000000
0  -0.785184 28.624889 63.999916  0.022186 0.861140 0.507884  0.839355 0.019531 1 19 1.000000
0  -0.769483 14.249971 87.000328  0.021576 0.902642 0.429850  0.839355 0.085938 1 18 1.000000
anime/map/merlin.vmat
0  7.562525 -3.000054 122.500061  -0.923265 -0.207734 -0.323155  0.897949 0.164551 2 5 0.498039 2 0.501961
0  6.406326 4.468650 122.500061  -0.945800 -0.153970 -0.285931  0.878418 0.172363 2 5 0.498039 2 0.501961
0  9.625027 10.312457 110.000061  -0.788676 -0.254412 -0.559701  0.901855 0.140625 2 6 0.498039 5 0.501961
anime/map/merlin.vmat
0  9.625027 10.312457 110.000061  -0.788676 -0.254412 -0.559701  0.901855 0.140625 2 6 0.498039 5 0.501961
0  11.812526 4.218654 110.000053  -0.794349 -0.281862 -0.538110  0.910156 0.144531 2 6 0.498039 5 0.501961
0  7.562525 -3.000054 122.500061  -0.923265 -0.207734 -0.323155  0.897949 0.164551 2 5 0.498039 2 0.501961
anime/map/merlin.vmat
0  9.625027 10.312457 110.000061  -0.788676 -0.254412 -0.559701  0.901855 0.140625 2 6 0.498039 5 0.501961
0  20.875034 16.999964 95.999939  -0.752594 -0.200689 -0.627157  0.917969 0.113770 1 6 1.000000
0  11.812526 4.218654 110.000053  -0.794349 -0.281862 -0.538110  0.910156 0.144531 2 6 0.498039 5 0.501961
anime/map/merlin.vmat
0  11.812526 4.218654 110.000053  -0.794349 -0.281862 -0.538110  0.910156 0.144531 2 6 0.498039 5 0.501961
0  20.875034 16.999964 95.999939  -0.752594 -0.200689 -0.627157  0.917969 0.113770 1 6 1.000000
0  23.374931 9.874961 94.999741  -0.766641 -0.173117 -0.618297  0.933594 0.121582 1 6 1.000000
anime/map/merlin.vmat
0  -2.109398 -36.249947 66.000381  -0.022260 -0.845278 0.533862  0.839355 0.019531 1 19 1.000000
0  33.000225 -11.125039 65.000183  0.511642 -0.727078 0.457800  0.940918 0.051270 1 19 1.000000
0  18.000023 -8.375044 87.999725  0.485065 -0.727606 0.485079  0.897949 0.105957 1 18 1.000000
anime/map/merlin.vmat
0  -1.484391 -21.125048 88.500214  -0.022398 -0.828376 0.559724  0.839355 0.085938 1 18 1.000000
0  -2.109398 -36.249947 66.000381  -0.022260 -0.845278 0.533862  0.839355 0.019531 1 19 1.000000
0  18.000023 -8.375044 87.999725  0.485065 -0.727606 0.485079  0.897949 0.105957 1 18 1.000000
anime/map/merlin.vmat
0  -1.484391 -21.125048 88.500214  -0.022398 -0.828376 0.559724  0.839355 0.085938 1 18 1.000000
0  18.000023 -8.375044 87.999725  0.485065 -0.727606 0.485079  0.897949 0.105957 1 18 1.000000
0  6.593820 -5.250048 105.000328  0.297688 -0.868249 0.396894  0.859375 0.164551 1 18 1.000000
anime/map/merlin.vmat
0  -0.972685 -7.031347 105.000328  -0.021407 -0.902663 0.429816  0.839355 0.164551 1 18 1.000000
0  -1.484391 -21.125048 88.500214  -0.022398 -0.828376 0.559724  0.839355 0.085938 1 18 1.000000
0  6.593820 -5.250048 105.000328  0.297688 -0.868249 0.396894  0.859375 0.164551 1 18 1.000000
anime/map/merlin.vmat
0  -0.972685 -7.031347 105.000328  -0.021407 -0.902663 0.429816  0.839355 0.164551 1 18 1.000000
0  6.593820 -5.250048 105.000328  0.297688 -0.868249 0.396894  0.859375 0.164551 1 18 1.000000
0  -0.699181 -5.218753 122.499847  -0.060448 -0.968368 0.242093  0.839355 0.214844 1 2 1.000000
anime/map/merlin.vmat
0  6.593820 -5.250048 105.000328  0.297688 -0.868249 0.396894  0.859375 0.164551 1 18 1.000000
0  7.562525 -3.000054 122.500061  0.296004 -0.951435 0.084572  0.863281 0.214844 2 5 0.498039 2 0.501961
0  -0.699181 -5.218753 122.499847  -0.060448 -0.968368 0.242093  0.839355 0.214844 1 2 1.000000
anime/map/merlin.vmat
0  7.562525 -3.000054 122.500061  0.296004 -0.951435 0.084572  0.863281 0.214844 2 5 0.498039 2 0.501961
0  6.343826 -1.007856 129.000061  0.110570 -0.928771 0.353779  0.859375 0.238770 2 5 0.498039 2 0.501961
0  -0.699181 -5.218753 122.499847  -0.060448 -0.968368 0.242093  0.839355 0.214844 1 2 1.000000
anime/map/merlin.vmat
0  6.343826 -1.007856 129.000061  0.110570 -0.928771 0.353779  0.859375 0.238770 2 5 0.498039 2 0.501961
0  -0.523379 -1.867255 130.000351  -0.022566 -0.791645 0.610565  0.839355 0.238770 1 2 1.000000
0  -0.699181 -5.218753 122.499847  -0.060448 -0.968368 0.242093  0.839355 0.214844 1 2 1.000000
anime/map/merlin.vmat
0  6.343826 -1.007856 129.000061  0.110570 -0.928771 0.353779  0.859375 0.238770 2 5 0.498039 2 0.501961
0  7.562525 -3.000054 122.500061  0.296004 -0.951435 0.084572  0.863281 0.214844 2 5 0.498039 2 0.501961
0  11.687527 -1.976657 126.999763  0.629073 -0.601593 0.492295  0.875000 0.234863 1 5 1.000000
anime/map/merlin.vmat
0  11.687527 -1.976657 126.999763  0.629073 -0.601593 0.492295  0.875000 0.234863 1 5 1.000000
0  7.562525 -3.000054 122.500061  0.296004 -0.951435 0.084572  0.863281 0.214844 2 5 0.498039 2 0.501961
0  11.812526 4.218654 110.000053  0.508827 -0.814108 -0.279861  0.886230 0.207031 2 6 0.498039 5 0.501961
anime/map/merlin.vmat
0  -0.523379 -1.867255 130.000351  -0.022611 -0.791581 0.610646  0.839355 0.238770 1 2 1.000000
0  6.343826 -1.007856 129.000061  0.327420 -0.109147 0.938554  0.859375 0.238770 2 5 0.498039 2 0.501961
0  3.156324 1.820246 130.999847  0.347411 -0.086851 0.933682  0.851562 0.253906 1 2 1.000000
anime/map/merlin.vmat
0  6.468827 5.281147 129.000061  0.487934 0.704737 0.515040  0.867188 0.269531 2 5 0.498039 2 0.501961
0  3.156324 1.820246 130.999847  0.347411 -0.086851 0.933682  0.851562 0.253906 1 2 1.000000
0  6.343826 -1.007856 129.000061  0.327420 -0.109147 0.938554  0.859375 0.238770 2 5 0.498039 2 0.501961
anime/map/merlin.vmat
0  3.156324 1.820246 130.999847  0.347411 -0.086851 0.933682  0.851562 0.253906 1 2 1.000000
0  6.468827 5.281147 129.000061  0.487934 0.704737 0.515040  0.867188 0.269531 2 5 0.498039 2 0.501961
0  -0.316377 7.312449 130.999847  0.043473 0.910253 0.411765  0.835449 0.277344 1 2 1.000000
anime/map/merlin.vmat
0  -0.316377 7.312449 130.999847  0.043473 0.910253 0.411765  0.835449 0.277344 1 2 1.000000
0  6.468827 5.281147 129.000061  0.487934 0.704737 0.515040  0.867188 0.269531 2 5 0.498039 2 0.501961
0  -0.427678 6.999953 123.500145  0.017578 0.996020 -0.087376  0.835449 0.301270 1 2 1.000000
anime/map/merlin.vmat
0  -0.427678 6.999953 123.500145  0.017578 0.996020 -0.087376  0.835449 0.301270 1 2 1.000000
0  6.468827 5.281147 129.000061  0.487934 0.704737 0.515040  0.867188 0.269531 2 5 0.498039 2 0.501961
0  6.406326 4.468650 122.500061  0.387467 0.911682 -0.136769  0.867188 0.289551 2 5 0.498039 2 0.501961
anime/map/merlin.vmat
0  6.406326 4.468650 122.500061  0.387467 0.911682 -0.136769  0.867188 0.289551 2 5 0.498039 2 0.501961
0  6.468827 5.281147 129.000061  0.487934 0.704737 0.515040  0.867188 0.269531 2 5 0.498039 2 0.501961
0  11.125028 2.515546 127.500259  0.744581 0.256716 0.616194  0.882324 0.269531 1 5 1.000000
anime/map/merlin.vmat
0  6.468827 5.281147 129.000061  0.487934 0.704737 0.515040  0.867188 0.269531 2 5 0.498039 2 0.501961
0  6.343826 -1.007856 129.000061  0.327420 -0.109147 0.938554  0.859375 0.238770 2 5 0.498039 2 0.501961
0  11.125028 2.515546 127.500259  0.744581 0.256716 0.616194  0.882324 0.269531 1 5 1.000000
anime/map/merlin.vmat
0  11.125028 2.515546 127.500259  0.744581 0.256716 0.616194  0.882324 0.269531 1 5 1.000000
0  6.343826 -1.007856 129.000061  0.327420 -0.109147 0.938554  0.859375 0.238770 2 5 0.498039 2 0.501961
0  11.687527 -1.976657 126.999763  0.628992 -0.601688 0.492281  0.875000 0.234863 1 5 1.000000
anime/map/merlin.vmat
0  11.125028 2.515546 127.500259  0.744581 0.256716 0.616194  0.882324 0.269531 1 5 1.000000
0  11.687527 -1.976657 126.999763  0.628992 -0.601688 0.492281  0.875000 0.234863 1 5 1.000000
0  15.000029 4.843652 113.000053  0.800128 -0.581924 0.145465  0.925781 0.219238 2 6 0.498039 5 0.501961
anime/map/merlin.vmat
0  11.687527 -1.976657 126.999763  0.628992 -0.601688 0.492281  0.875000 0.234863 1 5 1.000000
0  11.812526 4.218654 110.000053  0.345118 -0.920334 -0.184064  0.910156 0.210938 2 6 0.498039 5 0.501961
0  15.000029 4.843652 113.000053  0.800128 -0.581924 0.145465  0.925781 0.219238 2 6 0.498039 5 0.501961
anime/map/merlin.vmat
0  15.000029 4.843652 113.000053  0.800128 -0.581924 0.145465  0.925781 0.219238 2 6 0.498039 5 0.501961
0  14.562531 9.812455 114.000061  0.861167 -0.022082 0.507843  0.933594 0.230957 2 6 0.498039 5 0.501961
0  11.125028 2.515546 127.500259  0.744581 0.256716 0.616194  0.882324 0.269531 1 5 1.000000
anime/map/merlin.vmat
0  23.374931 9.874961 94.999741  0.301437 -0.947390 -0.107644  0.944824 0.160645 1 6 1.000000
0  15.000029 4.843652 113.000053  0.800128 -0.581924 0.145465  0.925781 0.219238 2 6 0.498039 5 0.501961
0  11.812526 4.218654 110.000053  0.345118 -0.920334 -0.184064  0.910156 0.210938 2 6 0.498039 5 0.501961
anime/map/merlin.vmat
0  15.000029 4.843652 113.000053  0.800128 -0.581924 0.145465  0.925781 0.219238 2 6 0.498039 5 0.501961
0  26.125038 17.874865 101.000237  0.717832 0.046307 0.694675  0.980469 0.184082 1 6 1.000000
0  14.562531 9.812455 114.000061  0.861167 -0.022082 0.507843  0.933594 0.230957 2 6 0.498039 5 0.501961
anime/map/merlin.vmat
0  28.000135 10.812458 99.500336  0.676661 -0.595466 0.433070  0.960449 0.160645 1 6 1.000000
0  15.000029 4.843652 113.000053  0.800128 -0.581924 0.145465  0.925781 0.219238 2 6 0.498039 5 0.501961
0  23.374931 9.874961 94.999741  0.301437 -0.947390 -0.107644  0.944824 0.160645 1 6 1.000000
anime/map/merlin.vmat
0  28.000135 10.812458 99.500336  0.676661 -0.595466 0.433070  0.960449 0.160645 1 6 1.000000
0  26.125038 17.874865 101.000237  0.717832 0.046307 0.694675  0.980469 0.184082 1 6 1.000000
0  15.000029 4.843652 113.000053  0.800128 -0.581924 0.145465  0.925781 0.219238 2 6 0.498039 5 0.501961
anime/map/merlin.vmat
0  2.515613 13.812489 48.000011  0.020527 -0.944295 0.328459  0.546875 0.035645 1 23 1.000000
0  -3.046892 11.437490 41.000000  0.020542 -0.944306 0.328428  0.515137 0.070312 1 23 1.000000
0  8.000014 11.624988 40.250000  0.020522 -0.944295 0.328459  0.577637 0.074219 1 23 1.000000
anime/map/merlin.vmat
0  -3.046892 11.437490 41.000000  0.020542 -0.944306 0.328428  0.515137 0.070312 1 23 1.000000
0  -2.453094 7.374993 28.124994  0.020542 -0.944305 0.328429  0.519043 0.121582 1 23 1.000000
0  8.000014 11.624988 40.250000  0.020522 -0.944295 0.328459  0.577637 0.074219 1 23 1.000000
anime/map/merlin.vmat
0  -2.453094 7.374993 28.124994  0.020542 -0.944305 0.328429  0.519043 0.121582 1 23 1.000000
0  7.562510 7.749991 28.000092  0.020538 -0.944303 0.328436  0.577637 0.121582 1 23 1.000000
0  8.000014 11.624988 40.250000  0.020522 -0.944295 0.328459  0.577637 0.074219 1 23 1.000000
anime/map/merlin.vmat
0  -5.499992 3.671878 61.000114  0.057830 0.983137 -0.173485  0.546875 0.035645 1 27 1.000000
0  0.660210 2.218679 54.250008  0.057831 0.983136 -0.173494  0.515137 0.070312 1 27 1.000000
0  -10.312497 2.578082 52.500206  0.057832 0.983133 -0.173511  0.577637 0.074219 1 27 1.000000
anime/map/merlin.vmat
0  0.660210 2.218679 54.250008  0.057831 0.983136 -0.173494  0.515137 0.070312 1 27 1.000000
0  1.250008 -0.035617 40.750099  0.068686 0.847270 -0.526703  0.519043 0.121582 1 27 1.000000
0  -10.312497 2.578082 52.500206  0.057832 0.983133 -0.173511  0.577637 0.074219 1 27 1.000000
anime/map/merlin.vmat
0  1.250008 -0.035617 40.750099  0.068686 0.847270 -0.526703  0.519043 0.121582 1 27 1.000000
0  -8.687498 0.412086 40.000198  0.068702 0.847281 -0.526683  0.577637 0.121582 1 27 1.000000
0  -10.312497 2.578082 52.500206  0.057832 0.983133 -0.173511  0.577637 0.074219 1 27 1.000000
anime/map/merlin.vmat
0  1.250008 -0.035617 40.750099  0.068686 0.847270 -0.526703  0.519043 0.121582 1 27 1.000000
0  -3.874997 -3.000018 41.500099  0.041832 -0.334716 -0.941390  0.546875 0.168457 1 27 1.000000
0  -8.687498 0.412086 40.000198  0.068702 0.847281 -0.526683  0.577637 0.121582 1 27 1.000000
anime/map/merlin.vmat
0  12.437531 -5.781368 147.000183  0.627158 -0.752598 0.200671  0.306396 0.453125 1 3 1.000000
0  15.562535 -0.933670 155.999878  0.661693 -0.735218 0.147027  0.323975 0.531494 1 3 1.000000
0  5.250026 -11.500070 147.999680  0.300705 -0.925243 0.231305  0.275391 0.449219 1 3 1.000000
anime/map/merlin.vmat
0  5.250026 -11.500070 147.999680  0.300705 -0.925243 0.231305  0.275391 0.449219 1 3 1.000000
0  15.562535 -0.933670 155.999878  0.661693 -0.735218 0.147027  0.323975 0.531494 1 3 1.000000
0  7.031330 -8.625072 160.000671  0.345122 -0.920331 0.184069  0.282959 0.547119 1 3 1.000000
anime/map/merlin.vmat
0  -6.781182 -11.187568 147.999680  -0.429435 -0.882702 0.190849  0.239258 0.449219 1 3 1.000000
0  5.250026 -11.500070 147.999680  0.300705 -0.925243 0.231305  0.275391 0.449219 1 3 1.000000
0  7.031330 -8.625072 160.000671  0.345122 -0.920331 0.184069  0.282959 0.547119 1 3 1.000000
anime/map/merlin.vmat
0  -6.781182 -11.187568 147.999680  -0.429435 -0.882702 0.190849  0.239258 0.449219 1 3 1.000000
0  7.031330 -8.625072 160.000671  0.345122 -0.920331 0.184069  0.282959 0.547119 1 3 1.000000
0  -7.656180 -7.875070 161.000183  -0.457997 -0.867785 0.192840  0.235352 0.548828 1 3 1.000000
anime/map/merlin.vmat
0  -15.874985 1.390538 157.000778  -0.770473 -0.626001 0.120396  0.191284 0.537109 1 3 1.000000
0  -6.781182 -11.187568 147.999680  -0.429435 -0.882702 0.190849  0.239258 0.449219 1 3 1.000000
0  -7.656180 -7.875070 161.000183  -0.457997 -0.867785 0.192840  0.235352 0.548828 1 3 1.000000
anime/map/merlin.vmat
0  -13.499986 -3.421961 146.000778  -0.770464 -0.626015 0.120376  0.206055 0.449219 1 3 1.000000
0  -6.781182 -11.187568 147.999680  -0.429435 -0.882702 0.190849  0.239258 0.449219 1 3 1.000000
0  -15.874985 1.390538 157.000778  -0.770473 -0.626001 0.120396  0.191284 0.537109 1 3 1.000000
anime/map/merlin.vmat
0  -0.427678 6.999953 123.500145  -0.322251 0.946654 0.000028  0.839355 0.214844 1 2 1.000000
0  -0.675781 7.468661 104.499832  0.019060 0.977339 0.210821  0.839355 0.164551 1 18 1.000000
0  -7.374983 4.749953 123.000061  -0.303955 0.952470 0.020296  0.863281 0.214844 2 2 0.498039 9 0.501961
anime/map/merlin.vmat
0  -0.675781 7.468661 104.499832  0.019060 0.977339 0.210821  0.839355 0.164551 1 18 1.000000
0  -8.249986 5.531261 105.000328  -0.269068 0.941742 0.201803  0.859375 0.164551 1 18 1.000000
0  -7.374983 4.749953 123.000061  -0.303955 0.952470 0.020296  0.863281 0.214844 2 2 0.498039 9 0.501961
anime/map/merlin.vmat
0  -0.675781 7.468661 104.499832  0.019060 0.977339 0.210821  0.839355 0.164551 1 18 1.000000
0  -0.769483 14.249971 87.000328  0.021397 0.902645 0.429853  0.839355 0.085938 1 18 1.000000
0  -8.249986 5.531261 105.000328  -0.269068 0.941742 0.201803  0.859375 0.164551 1 18 1.000000
anime/map/merlin.vmat
0  -8.249986 5.531261 105.000328  -0.269068 0.941742 0.201803  0.859375 0.164551 1 18 1.000000
0  -0.769483 14.249971 87.000328  0.021397 0.902645 0.429853  0.839355 0.085938 1 18 1.000000
0  -20.249895 6.312472 87.999725  -0.330524 0.839014 0.432214  0.897949 0.105957 1 18 1.000000
anime/map/merlin.vmat
0  -20.249895 6.312472 87.999725  -0.330524 0.839014 0.432214  0.897949 0.105957 1 18 1.000000
0  -0.769483 14.249971 87.000328  0.021397 0.902645 0.429853  0.839355 0.085938 1 18 1.000000
0  -35.749813 15.312490 66.000412  -0.306881 0.818358 0.485916  0.940918 0.051270 1 19 1.000000
anime/map/merlin.vmat
0  -35.749813 15.312490 66.000412  -0.306881 0.818358 0.485916  0.940918 0.051270 1 19 1.000000
0  -0.769483 14.249971 87.000328  0.021397 0.902645 0.429853  0.839355 0.085938 1 18 1.000000
0  -0.785184 28.624889 63.999916  0.021990 0.861148 0.507879  0.839355 0.019531 1 19 1.000000
anime/map/merlin.vmat
0  -7.093785 -2.687551 122.500061  0.847292 0.068702 -0.526665  0.897949 0.164551 2 2 0.498039 9 0.501961
0  -10.124989 -13.437552 116.000046  0.827853 -0.250863 -0.501724  0.901855 0.140625 2 10 0.498039 9 0.501961
0  -7.374983 4.749953 123.000061  0.838109 0.045308 -0.543618  0.878418 0.172363 2 2 0.498039 9 0.501961
anime/map/merlin.vmat
0  -10.124989 -13.437552 116.000046  0.827853 -0.250863 -0.501724  0.901855 0.140625 2 10 0.498039 9 0.501961
0  -7.093785 -2.687551 122.500061  0.847292 0.068702 -0.526665  0.897949 0.164551 2 2 0.498039 9 0.501961
0  -6.968787 -12.437556 121.000046  0.814149 -0.279788 -0.508803  0.910156 0.144531 2 10 0.498039 9 0.501961
anime/map/merlin.vmat
0  -10.124989 -13.437552 116.000046  0.827853 -0.250863 -0.501724  0.901855 0.140625 2 10 0.498039 9 0.501961
0  -6.968787 -12.437556 121.000046  0.814149 -0.279788 -0.508803  0.910156 0.144531 2 10 0.498039 9 0.501961
0  -11.874990 -26.874968 132.000732  0.520812 -0.630421 -0.575607  0.917969 0.113770 1 10 1.000000
anime/map/merlin.vmat
0  -11.874990 -26.874968 132.000732  0.520812 -0.630421 -0.575607  0.917969 0.113770 1 10 1.000000
0  -6.968787 -12.437556 121.000046  0.814149 -0.279788 -0.508803  0.910156 0.144531 2 10 0.498039 9 0.501961
0  -5.406184 -23.000067 133.000229  0.462851 -0.653440 -0.598987  0.933594 0.121582 1 10 1.000000
anime/map/merlin.vmat
0  -8.249986 5.531261 105.000328  -0.828368 0.022378 0.559737  0.831543 0.164551 1 18 1.000000
0  -20.249895 6.312472 87.999725  -0.820515 0.045579 0.569805  0.827637 0.121582 1 18 1.000000
0  -8.437488 -4.937544 105.000328  -0.828386 0.022389 0.559710  0.800781 0.164551 1 18 1.000000
anime/map/merlin.vmat
0  -8.437488 -4.937544 105.000328  -0.828386 0.022389 0.559710  0.800781 0.164551 1 18 1.000000
0  -20.249895 6.312472 87.999725  -0.820515 0.045579 0.569805  0.827637 0.121582 1 18 1.000000
0  -20.499996 -7.593735 88.500221  -0.820503 0.045563 0.569823  0.772949 0.117676 1 18 1.000000
anime/map/merlin.vmat
0  -20.249895 6.312472 87.999725  -0.820515 0.045579 0.569805  0.827637 0.121582 1 18 1.000000
0  -35.749813 15.312490 66.000412  -0.828389 0.022389 0.559706  0.831543 0.051270 1 19 1.000000
0  -20.499996 -7.593735 88.500221  -0.820503 0.045563 0.569823  0.772949 0.117676 1 18 1.000000
anime/map/merlin.vmat
0  -20.499996 -7.593735 88.500221  -0.820503 0.045563 0.569823  0.772949 0.117676 1 18 1.000000
0  -35.749813 15.312490 66.000412  -0.828389 0.022389 0.559706  0.831543 0.051270 1 19 1.000000
0  -36.249916 -9.687524 66.000397  -0.828382 0.022388 0.559716  0.738281 0.051270 1 19 1.000000
anime/map/merlin.vmat
0  -2.109398 -36.249947 66.000381  -0.022243 -0.845275 0.533868  0.839355 0.019531 1 19 1.000000
0  -20.499996 -7.593735 88.500221  -0.541323 -0.703735 0.460138  0.897949 0.105957 1 18 1.000000
0  -36.249916 -9.687524 66.000397  -0.566725 -0.701681 0.431817  0.940918 0.051270 1 19 1.000000
anime/map/merlin.vmat
0  -1.484391 -21.125048 88.500214  -0.022419 -0.828368 0.559735  0.839355 0.085938 1 18 1.000000
0  -20.499996 -7.593735 88.500221  -0.541323 -0.703735 0.460138  0.897949 0.105957 1 18 1.000000
0  -2.109398 -36.249947 66.000381  -0.022243 -0.845275 0.533868  0.839355 0.019531 1 19 1.000000
anime/map/merlin.vmat
0  -1.484391 -21.125048 88.500214  -0.022419 -0.828368 0.559735  0.839355 0.085938 1 18 1.000000
0  -8.437488 -4.937544 105.000328  -0.356631 -0.840651 0.407579  0.859375 0.164551 1 18 1.000000
0  -20.499996 -7.593735 88.500221  -0.541323 -0.703735 0.460138  0.897949 0.105957 1 18 1.000000
anime/map/merlin.vmat
0  -0.972685 -7.031347 105.000328  -0.021568 -0.902650 0.429834  0.839355 0.164551 1 18 1.000000
0  -8.437488 -4.937544 105.000328  -0.356631 -0.840651 0.407579  0.859375 0.164551 1 18 1.000000
0  -1.484391 -21.125048 88.500214  -0.022419 -0.828368 0.559735  0.839355 0.085938 1 18 1.000000
anime/map/merlin.vmat
0  -0.972685 -7.031347 105.000328  -0.021568 -0.902650 0.429834  0.839355 0.164551 1 18 1.000000
0  -0.699181 -5.218753 122.499847  -0.060629 -0.968354 0.242105  0.839355 0.214844 1 2 1.000000
0  -8.437488 -4.937544 105.000328  -0.356631 -0.840651 0.407579  0.859375 0.164551 1 18 1.000000
anime/map/merlin.vmat
0  -8.437488 -4.937544 105.000328  -0.356631 -0.840651 0.407579  0.859375 0.164551 1 18 1.000000
0  -0.699181 -5.218753 122.499847  -0.060629 -0.968354 0.242105  0.839355 0.214844 1 2 1.000000
0  -7.093785 -2.687551 122.500061  0.139833 -0.885638 0.442823  0.863281 0.214844 2 2 0.498039 9 0.501961
anime/map/merlin.vmat
0  -7.093785 -2.687551 122.500061  0.139833 -0.885638 0.442823  0.863281 0.214844 2 2 0.498039 9 0.501961
0  -0.699181 -5.218753 122.499847  -0.060629 -0.968354 0.242105  0.839355 0.214844 1 2 1.000000
0  -7.343683 -0.730552 129.000061  -0.119903 -0.599527 0.791322  0.859375 0.238770 2 2 0.498039 9 0.501961
anime/map/merlin.vmat
0  -7.343683 -0.730552 129.000061  -0.119903 -0.599527 0.791322  0.859375 0.238770 2 2 0.498039 9 0.501961
0  -0.699181 -5.218753 122.499847  -0.060629 -0.968354 0.242105  0.839355 0.214844 1 2 1.000000
0  -0.523379 -1.867255 130.000351  -0.022693 -0.791568 0.610659  0.839355 0.238770 1 2 1.000000
anime/map/merlin.vmat
0  -0.523379 -1.867255 130.000351  -0.022693 -0.791568 0.610659  0.839355 0.238770 1 2 1.000000
0  -3.999980 1.968747 130.999847  -0.285952 -0.153958 0.945795  0.851562 0.253906 1 2 1.000000
0  -7.343683 -0.730552 129.000061  -0.119903 -0.599527 0.791322  0.859375 0.238770 2 2 0.498039 9 0.501961
anime/map/merlin.vmat
0  -10.062485 -1.546952 129.000168  -0.138343 -0.415030 0.899228  0.875000 0.234863 1 9 1.000000
0  -6.968787 -12.437556 121.000046  0.897906 -0.043801 0.438003  0.886230 0.207031 2 10 0.498039 9 0.501961
0  -7.093785 -2.687551 122.500061  0.139833 -0.885638 0.442823  0.863281 0.214844 2 2 0.498039 9 0.501961
anime/map/merlin.vmat
0  -7.343683 -0.730552 129.000061  -0.119903 -0.599527 0.791322  0.859375 0.238770 2 2 0.498039 9 0.501961
0  -10.062485 -1.546952 129.000168  -0.138343 -0.415030 0.899228  0.875000 0.234863 1 9 1.000000
0  -7.093785 -2.687551 122.500061  0.139833 -0.885638 0.442823  0.863281 0.214844 2 2 0.498039 9 0.501961
anime/map/merlin.vmat
0  -7.218782 5.562450 130.000061  -0.472878 0.788113 0.394036  0.867188 0.269531 2 2 0.498039 9 0.501961
0  -7.343683 -0.730552 129.000061  -0.119903 -0.599527 0.791322  0.859375 0.238770 2 2 0.498039 9 0.501961
0  -3.999980 1.968747 130.999847  -0.285952 -0.153958 0.945795  0.851562 0.253906 1 2 1.000000
anime/map/merlin.vmat
0  -3.999980 1.968747 130.999847  -0.285952 -0.153958 0.945795  0.851562 0.253906 1 2 1.000000
0  -0.316377 7.312449 130.999847  0.043246 0.910266 0.411759  0.835449 0.277344 1 2 1.000000
0  -7.218782 5.562450 130.000061  -0.472878 0.788113 0.394036  0.867188 0.269531 2 2 0.498039 9 0.501961
anime/map/merlin.vmat
0  -0.316377 7.312449 130.999847  0.043246 0.910266 0.411759  0.835449 0.277344 1 2 1.000000
0  -0.427678 6.999953 123.500145  0.017362 0.996026 -0.087360  0.835449 0.301270 1 2 1.000000
0  -7.218782 5.562450 130.000061  -0.472878 0.788113 0.394036  0.867188 0.269531 2 2 0.498039 9 0.501961
anime/map/merlin.vmat
0  -0.427678 6.999953 123.500145  0.017362 0.996026 -0.087360  0.835449 0.301270 1 2 1.000000
0  -7.374983 4.749953 123.000061  -0.380607 0.917936 -0.111943  0.867188 0.289551 2 2 0.498039 9 0.501961
0  -7.218782 5.562450 130.000061  -0.472878 0.788113 0.394036  0.867188 0.269531 2 2 0.498039 9 0.501961
anime/map/merlin.vmat
0  -7.374983 4.749953 123.000061  -0.380607 0.917936 -0.111943  0.867188 0.289551 2 2 0.498039 9 0.501961
0  -11.999987 2.687450 129.000168  -0.494381 0.222487 0.840290  0.882324 0.269531 1 9 1.000000
0  -7.218782 5.562450 130.000061  -0.472878 0.788113 0.394036  0.867188 0.269531 2 2 0.498039 9 0.501961
anime/map/merlin.vmat
0  -7.218782 5.562450 130.000061  -0.118001 -0.137684 0.983422  0.867188 0.269531 2 2 0.498039 9 0.501961
0  -11.999987 2.687450 129.000168  -0.494345 0.222426 0.840327  0.882324 0.269531 1 9 1.000000
0  -7.343683 -0.730552 129.000061  -0.119903 -0.599527 0.791322  0.859375 0.238770 2 2 0.498039 9 0.501961
anime/map/merlin.vmat
0  -11.999987 2.687450 129.000168  -0.494345 0.222426 0.840327  0.882324 0.269531 1 9 1.000000
0  -10.062485 -1.546952 129.000168  -0.138343 -0.415030 0.899228  0.875000 0.234863 1 9 1.000000
0  -7.343683 -0.730552 129.000061  -0.119903 -0.599527 0.791322  0.859375 0.238770 2 2 0.498039 9 0.501961
anime/map/merlin.vmat
0  -11.999987 2.687450 129.000168  -0.494345 0.222426 0.840327  0.882324 0.269531 1 9 1.000000
0  -10.124988 -11.687554 124.000053  -0.107662 0.301451 0.947384  0.925781 0.219238 2 10 0.498039 9 0.501961
0  -10.062485 -1.546952 129.000168  -0.138343 -0.415030 0.899228  0.875000 0.234863 1 9 1.000000
anime/map/merlin.vmat
0  -10.062485 -1.546952 129.000168  -0.138343 -0.415030 0.899228  0.875000 0.234863 1 9 1.000000
0  -10.124988 -11.687554 124.000053  -0.107662 0.301451 0.947384  0.925781 0.219238 2 10 0.498039 9 0.501961
0  -6.968787 -12.437556 121.000046  0.677449 0.286607 0.677436  0.910156 0.210938 2 10 0.498039 9 0.501961
anime/map/merlin.vmat
0  -10.124988 -11.687554 124.000053  -0.107662 0.301451 0.947384  0.925781 0.219238 2 10 0.498039 9 0.501961
0  -11.999987 2.687450 129.000168  -0.494345 0.222426 0.840327  0.882324 0.269531 1 9 1.000000
0  -13.687492 -14.125054 119.000046  -0.855090 0.326948 0.402401  0.933594 0.230957 2 10 0.498039 9 0.501961
anime/map/merlin.vmat
0  -6.968787 -12.437556 121.000046  0.677449 0.286607 0.677436  0.910156 0.210938 2 10 0.498039 9 0.501961
0  -10.124988 -11.687554 124.000053  -0.107662 0.301451 0.947384  0.925781 0.219238 2 10 0.498039 9 0.501961
0  -5.406184 -23.000067 133.000229  0.808898 0.530835 0.252780  0.944824 0.160645 1 10 1.000000
anime/map/merlin.vmat
0  -13.687492 -14.125054 119.000046  -0.855090 0.326948 0.402401  0.933594 0.230957 2 10 0.498039 9 0.501961
0  -15.499991 -21.125067 135.000626  -0.527594 0.765008 0.369333  0.980469 0.184082 1 10 1.000000
0  -10.124988 -11.687554 124.000053  -0.107662 0.301451 0.947384  0.925781 0.219238 2 10 0.498039 9 0.501961
anime/map/merlin.vmat
0  -5.406184 -23.000067 133.000229  0.808898 0.530835 0.252780  0.944824 0.160645 1 10 1.000000
0  -10.124988 -11.687554 124.000053  -0.107662 0.301451 0.947384  0.925781 0.219238 2 10 0.498039 9 0.501961
0  -8.812486 -18.000065 136.000153  0.272021 0.865590 0.420427  0.960449 0.160645 1 10 1.000000
anime/map/merlin.vmat
0  -10.124988 -11.687554 124.000053  -0.107662 0.301451 0.947384  0.925781 0.219238 2 10 0.498039 9 0.501961
0  -15.499991 -21.125067 135.000626  -0.527594 0.765008 0.369333  0.980469 0.184082 1 10 1.000000
0  -8.812486 -18.000065 136.000153  0.272021 0.865590 0.420427  0.960449 0.160645 1 10 1.000000
anime/map/merlin.vmat
0  7.562525 -3.000054 122.500061  0.994505 0.104685 0.000001  0.796875 0.214844 2 5 0.498039 2 0.501961
0  6.812523 5.218658 105.000328  0.959808 0.019996 0.279943  0.831543 0.164551 1 18 1.000000
0  6.406326 4.468650 122.500061  0.985717 0.167379 0.018603  0.827637 0.214844 2 5 0.498039 2 0.501961
anime/map/merlin.vmat
0  6.593820 -5.250048 105.000328  0.946653 -0.000006 0.322256  0.800781 0.164551 1 18 1.000000
0  6.812523 5.218658 105.000328  0.959808 0.019996 0.279943  0.831543 0.164551 1 18 1.000000
0  7.562525 -3.000054 122.500061  0.994505 0.104685 0.000001  0.796875 0.214844 2 5 0.498039 2 0.501961
anime/map/merlin.vmat
0  6.812523 5.218658 105.000328  0.959808 0.019996 0.279943  0.831543 0.164551 1 18 1.000000
0  6.593820 -5.250048 105.000328  0.946653 -0.000006 0.322256  0.800781 0.164551 1 18 1.000000
0  18.250124 5.499963 87.500023  0.828383 0.022386 0.559715  0.827637 0.105957 1 18 1.000000
anime/map/merlin.vmat
0  6.593820 -5.250048 105.000328  0.946653 -0.000006 0.322256  0.800781 0.164551 1 18 1.000000
0  18.000023 -8.375044 87.999725  0.818182 0.000002 0.574959  0.772949 0.121582 1 18 1.000000
0  18.250124 5.499963 87.500023  0.828383 0.022386 0.559715  0.827637 0.105957 1 18 1.000000
anime/map/merlin.vmat
0  18.250124 5.499963 87.500023  0.828383 0.022386 0.559715  0.827637 0.105957 1 18 1.000000
0  18.000023 -8.375044 87.999725  0.818182 0.000002 0.574959  0.772949 0.121582 1 18 1.000000
0  33.499931 13.874974 65.000198  0.818201 -0.000003 0.574932  0.831543 0.051270 1 19 1.000000
anime/map/merlin.vmat
0  18.000023 -8.375044 87.999725  0.818182 0.000002 0.574959  0.772949 0.121582 1 18 1.000000
0  33.000225 -11.125039 65.000183  0.818209 -0.000012 0.574921  0.738281 0.051270 1 19 1.000000
0  33.499931 13.874974 65.000198  0.818201 -0.000003 0.574932  0.831543 0.051270 1 19 1.000000
anime/map/merlin.vmat
0  -19.625084 9.124945 150.999573  -0.990871 -0.112176 -0.074779  0.372803 0.578125 1 3 1.000000
0  -11.562488 -8.250057 132.000763  -0.925342 -0.378549 -0.021026  0.318359 0.434082 1 3 1.000000
0  -15.874985 1.390538 157.000778  -0.906725 -0.421722 -0.000008  0.341797 0.592041 1 3 1.000000
anime/map/merlin.vmat
0  -16.249989 5.406154 126.000267  -0.964846 0.125866 -0.230716  0.380859 0.418457 1 3 1.000000
0  -11.562488 -8.250057 132.000763  -0.925342 -0.378549 -0.021026  0.318359 0.434082 1 3 1.000000
0  -19.625084 9.124945 150.999573  -0.990871 -0.112176 -0.074779  0.372803 0.578125 1 3 1.000000
anime/map/merlin.vmat
0  -19.625084 9.124945 150.999573  -0.990871 -0.112176 -0.074779  0.372803 0.578125 1 3 1.000000
0  -10.499979 23.874954 141.999893  -0.845512 0.472507 -0.248688  0.433594 0.543213 1 3 1.000000
0  -16.249989 5.406154 126.000267  -0.964846 0.125866 -0.230716  0.380859 0.418457 1 3 1.000000
anime/map/merlin.vmat
0  -16.249989 5.406154 126.000267  -0.964846 0.125866 -0.230716  0.380859 0.418457 1 3 1.000000
0  -10.499979 23.874954 141.999893  -0.845512 0.472507 -0.248688  0.433594 0.543213 1 3 1.000000
0  -7.124980 15.624958 123.500175  -0.742780 0.557088 -0.371391  0.435303 0.418457 1 3 1.000000
anime/map/merlin.vmat
0  9.500025 -10.125064 132.000763  0.871562 -0.481626 -0.091738  0.318359 0.434082 1 3 1.000000
0  20.500036 6.906236 150.999573  0.966555 -0.210100 -0.147070  0.372803 0.578125 1 3 1.000000
0  15.562535 -0.933670 155.999878  0.835417 -0.549617 0.000001  0.341797 0.592041 1 3 1.000000
anime/map/merlin.vmat
0  15.250031 2.812445 126.499969  0.967819 -0.000005 -0.251647  0.380859 0.418457 1 3 1.000000
0  20.500036 6.906236 150.999573  0.966555 -0.210100 -0.147070  0.372803 0.578125 1 3 1.000000
0  9.500025 -10.125064 132.000763  0.871562 -0.481626 -0.091738  0.318359 0.434082 1 3 1.000000
anime/map/merlin.vmat
0  15.250031 2.812445 126.499969  0.967819 -0.000005 -0.251647  0.380859 0.418457 1 3 1.000000
0  11.187534 23.500050 141.000488  0.566736 0.701695 -0.431781  0.433594 0.543213 1 3 1.000000
0  20.500036 6.906236 150.999573  0.966555 -0.210100 -0.147070  0.372803 0.578125 1 3 1.000000
anime/map/merlin.vmat
0  8.187529 15.312455 123.500175  0.481589 0.749135 -0.454828  0.435303 0.418457 1 3 1.000000
0  11.187534 23.500050 141.000488  0.566736 0.701695 -0.431781  0.433594 0.543213 1 3 1.000000
0  15.250031 2.812445 126.499969  0.967819 -0.000005 -0.251647  0.380859 0.418457 1 3 1.000000
anime/map/merlin.vmat
0  8.187529 15.312455 123.500175  0.481589 0.749135 -0.454828  0.435303 0.418457 1 3 1.000000
0  -7.124980 15.624958 123.500175  0.000006 0.894432 -0.447204  0.497803 0.422363 1 3 1.000000
0  11.187534 23.500050 141.000488  0.566736 0.701695 -0.431781  0.433594 0.543213 1 3 1.000000
anime/map/merlin.vmat
0  11.187534 23.500050 141.000488  0.566736 0.701695 -0.431781  0.433594 0.543213 1 3 1.000000
0  -7.124980 15.624958 123.500175  0.000006 0.894432 -0.447204  0.497803 0.422363 1 3 1.000000
0  -10.499979 23.874954 141.999893  -0.021284 0.914480 -0.404070  0.503418 0.547119 1 3 1.000000
anime/map/merlin.vmat
0  13.750041 33.499851 147.999695  -0.840344 -0.222443 0.494308  0.710449 0.457031 1 3 1.000000
0  11.312534 23.999950 139.999481  -0.396802 0.297720 0.868281  0.710449 0.488770 1 3 1.000000
0  26.750046 13.499932 160.000671  -0.899224 0.415073 0.138241  0.679688 0.457031 1 3 1.000000
anime/map/merlin.vmat
0  26.750046 13.499932 160.000671  -0.840329 -0.222446 0.494333  0.679688 0.457031 1 3 1.000000
0  11.312534 23.999950 139.999481  -0.396856 0.297704 0.868261  0.710449 0.488770 1 3 1.000000
0  22.250038 7.187436 150.000076  -0.397101 0.502887 0.767734  0.679688 0.488770 1 3 1.000000
anime/map/merlin.vmat
0  22.250038 7.187436 150.000076  -0.397101 0.502887 0.767734  0.679688 0.488770 1 3 1.000000
0  11.312534 23.999950 139.999481  -0.396856 0.297704 0.868261  0.710449 0.488770 1 3 1.000000
0  0.597734 22.999939 175.000107  0.720816 0.643554 0.257417  0.694824 0.519531 1 3 1.000000
anime/map/merlin.vmat
0  26.750046 13.499932 160.000671  -0.899206 0.415096 0.138288  0.679688 0.457031 1 3 1.000000
0  22.250038 7.187436 150.000076  -0.397063 0.503032 0.767658  0.679688 0.488770 1 3 1.000000
0  13.250036 -6.031279 172.000198  -0.470743 0.870894 -0.141224  0.644043 0.457031 1 3 1.000000
anime/map/merlin.vmat
0  10.875031 -9.187575 160.000671  -0.198936 0.795773 0.571987  0.644043 0.488770 1 3 1.000000
0  22.250038 7.187436 150.000076  -0.397063 0.503032 0.767658  0.679688 0.488770 1 3 1.000000
0  0.597734 22.999939 175.000107  0.705344 -0.070534 0.705347  0.664062 0.519531 1 3 1.000000
anime/map/merlin.vmat
0  13.250036 -6.031279 172.000198  -0.470743 0.870894 -0.141224  0.644043 0.457031 1 3 1.000000
0  22.250038 7.187436 150.000076  -0.397063 0.503032 0.767658  0.679688 0.488770 1 3 1.000000
0  10.875031 -9.187575 160.000671  -0.198936 0.795773 0.571987  0.644043 0.488770 1 3 1.000000
anime/map/merlin.vmat
0  -11.437483 -8.750069 160.000671  0.199938 0.774758 0.599812  0.613281 0.488770 1 3 1.000000
0  13.250036 -6.031279 172.000198  -0.470743 0.870894 -0.141224  0.644043 0.457031 1 3 1.000000
0  10.875031 -9.187575 160.000671  -0.198936 0.795773 0.571987  0.644043 0.488770 1 3 1.000000
anime/map/merlin.vmat
0  -11.437483 -8.750069 160.000671  0.199938 0.774758 0.599812  0.613281 0.488770 1 3 1.000000
0  10.875031 -9.187575 160.000671  -0.198936 0.795773 0.571987  0.644043 0.488770 1 3 1.000000
0  0.597734 22.999939 175.000107  -0.021265 -0.404076 0.914478  0.628418 0.519531 1 3 1.000000
anime/map/merlin.vmat
0  -13.312481 -5.468872 172.000198  0.486649 0.851635 -0.194654  0.613281 0.457031 1 3 1.000000
0  13.250036 -6.031279 172.000198  -0.470743 0.870894 -0.141224  0.644043 0.457031 1 3 1.000000
0  -11.437483 -8.750069 160.000671  0.199938 0.774758 0.599812  0.613281 0.488770 1 3 1.000000
anime/map/merlin.vmat
0  -22.374887 8.124945 150.000076  0.424446 0.477487 0.769319  0.581543 0.488770 1 3 1.000000
0  -13.312481 -5.468872 172.000198  0.486649 0.851635 -0.194654  0.613281 0.457031 1 3 1.000000
0  -11.437483 -8.750069 160.000671  0.199938 0.774758 0.599812  0.613281 0.488770 1 3 1.000000
anime/map/merlin.vmat
0  -22.374887 8.124945 150.000076  0.424446 0.477487 0.769319  0.581543 0.488770 1 3 1.000000
0  -11.437483 -8.750069 160.000671  0.199938 0.774758 0.599812  0.613281 0.488770 1 3 1.000000
0  0.597734 22.999939 175.000107  -0.717829 -0.046290 0.694679  0.597656 0.519531 1 3 1.000000
anime/map/merlin.vmat
0  -26.374989 14.624947 161.000183  0.953596 0.151720 0.260068  0.581543 0.457031 1 3 1.000000
0  -13.312481 -5.468872 172.000198  0.486649 0.851635 -0.194654  0.613281 0.457031 1 3 1.000000
0  -22.374887 8.124945 150.000076  0.424446 0.477487 0.769319  0.581543 0.488770 1 3 1.000000
anime/map/merlin.vmat
0  -10.999978 24.500055 139.999481  0.189302 0.168224 0.967401  0.546875 0.488770 1 3 1.000000
0  -26.374989 14.624947 161.000183  0.953596 0.151720 0.260068  0.581543 0.457031 1 3 1.000000
0  -22.374887 8.124945 150.000076  0.424446 0.477487 0.769319  0.581543 0.488770 1 3 1.000000
anime/map/merlin.vmat
0  -10.999978 24.500055 139.999481  0.189302 0.168224 0.967401  0.546875 0.488770 1 3 1.000000
0  -22.374887 8.124945 150.000076  0.424446 0.477487 0.769319  0.581543 0.488770 1 3 1.000000
0  0.597734 22.999939 175.000107  -0.713272 0.662318 0.229298  0.565918 0.519531 1 3 1.000000
anime/map/merlin.vmat
0  -12.812477 33.999958 149.000595  0.460126 -0.541330 0.703737  0.546875 0.457031 1 3 1.000000
0  -26.374989 14.624947 161.000183  0.953596 0.151720 0.260068  0.581543 0.457031 1 3 1.000000
0  -10.999978 24.500055 139.999481  0.189302 0.168224 0.967401  0.546875 0.488770 1 3 1.000000
anime/map/merlin.vmat
0  11.312534 23.999950 139.999481  0.017754 0.106509 0.994153  0.515137 0.488770 1 3 1.000000
0  -12.812477 33.999958 149.000595  0.460126 -0.541330 0.703737  0.546875 0.457031 1 3 1.000000
0  -10.999978 24.500055 139.999481  0.189302 0.168224 0.967401  0.546875 0.488770 1 3 1.000000
anime/map/merlin.vmat
0  11.312534 23.999950 139.999481  0.017754 0.106509 0.994153  0.515137 0.488770 1 3 1.000000
0  -10.999978 24.500055 139.999481  0.189302 0.168224 0.967401  0.546875 0.488770 1 3 1.000000
0  0.597734 22.999939 175.000107  0.016631 0.999307 0.033302  0.531250 0.519531 1 3 1.000000
anime/map/merlin.vmat
0  13.750041 33.499851 147.999695  0.000005 -0.624702 0.780863  0.515137 0.457031 1 3 1.000000
0  -12.812477 33.999958 149.000595  0.460126 -0.541330 0.703737  0.546875 0.457031 1 3 1.000000
0  11.312534 23.999950 139.999481  0.017754 0.106509 0.994153  0.515137 0.488770 1 3 1.000000
anime/map/merlin.vmat
0  -7.374983 4.749953 123.000061  -0.782716 0.339207 -0.521818  0.886230 0.176270 2 2 0.498039 9 0.501961
0  -13.687492 -14.125054 119.000046  -0.677426 -0.286598 -0.677462  0.917969 0.164551 2 10 0.498039 9 0.501961
0  -11.999987 2.687450 129.000168  -0.805535 0.363790 -0.467728  0.901855 0.187500 1 9 1.000000
anime/map/merlin.vmat
0  -13.687492 -14.125054 119.000046  -0.677426 -0.286598 -0.677462  0.917969 0.164551 2 10 0.498039 9 0.501961
0  -7.374983 4.749953 123.000061  -0.782716 0.339207 -0.521818  0.886230 0.176270 2 2 0.498039 9 0.501961
0  -10.124989 -13.437552 116.000046  -0.659952 -0.022761 -0.750963  0.910156 0.156738 2 10 0.498039 9 0.501961
anime/map/merlin.vmat
0  -11.874990 -26.874968 132.000732  -0.836316 -0.456172 -0.304108  0.929688 0.140625 1 10 1.000000
0  -13.687492 -14.125054 119.000046  -0.677426 -0.286598 -0.677462  0.917969 0.164551 2 10 0.498039 9 0.501961
0  -10.124989 -13.437552 116.000046  -0.659952 -0.022761 -0.750963  0.910156 0.156738 2 10 0.498039 9 0.501961
anime/map/merlin.vmat
0  -15.499991 -21.125067 135.000626  -0.877000 -0.414135 -0.243645  0.940918 0.152344 1 10 1.000000
0  -13.687492 -14.125054 119.000046  -0.677426 -0.286598 -0.677462  0.917969 0.164551 2 10 0.498039 9 0.501961
0  -11.874990 -26.874968 132.000732  -0.836316 -0.456172 -0.304108  0.929688 0.140625 1 10 1.000000
anime/map/merlin.vmat
0  6.406326 4.468650 122.500061  -0.138339 0.899225 0.415039  0.886230 0.176270 2 5 0.498039 2 0.501961
0  11.125028 2.515546 127.500259  -0.114495 0.893079 0.435088  0.901855 0.187500 1 5 1.000000
0  14.562531 9.812455 114.000061  -0.207725 0.923261 0.323171  0.917969 0.164551 2 6 0.498039 5 0.501961
anime/map/merlin.vmat
0  14.562531 9.812455 114.000061  -0.207725 0.923261 0.323171  0.917969 0.164551 2 6 0.498039 5 0.501961
0  9.625027 10.312457 110.000061  -0.181584 0.930613 0.317784  0.910156 0.156738 2 6 0.498039 5 0.501961
0  6.406326 4.468650 122.500061  -0.138339 0.899225 0.415039  0.886230 0.176270 2 5 0.498039 2 0.501961
anime/map/merlin.vmat
0  14.562531 9.812455 114.000061  -0.207725 0.923261 0.323171  0.917969 0.164551 2 6 0.498039 5 0.501961
0  20.875034 16.999964 95.999939  -0.328436 0.914924 0.234615  0.929688 0.140625 1 6 1.000000
0  9.625027 10.312457 110.000061  -0.181584 0.930613 0.317784  0.910156 0.156738 2 6 0.498039 5 0.501961
anime/map/merlin.vmat
0  26.125038 17.874865 101.000237  -0.379119 0.900433 0.213281  0.940918 0.152344 1 6 1.000000
0  20.875034 16.999964 95.999939  -0.328436 0.914924 0.234615  0.929688 0.140625 1 6 1.000000
0  14.562531 9.812455 114.000061  -0.207725 0.923261 0.323171  0.917969 0.164551 2 6 0.498039 5 0.501961
anime/map/merlin.vmat
0  -1.078087 -0.773434 80.000313  0.999730 -0.016494 -0.016383  0.486084 0.210938 1 22 1.000000
0  2.406214 -4.812537 79.499817  -0.036185 0.993457 0.108323  0.474365 0.207031 1 22 1.000000
0  -1.132789 1.749976 60.500004  0.964447 -0.261210 -0.040152  0.488281 0.121582 1 22 1.000000
anime/map/merlin.vmat
0  5.593717 -0.535235 80.000313  -0.999868 -0.016225 -0.000018  0.455078 0.210938 1 22 1.000000
0  5.687514 2.093674 60.500004  -0.999748 -0.015933 0.015805  0.456787 0.121582 1 22 1.000000
0  2.406214 -4.812537 79.499817  -0.036026 0.993455 0.108390  0.474365 0.207031 1 22 1.000000
anime/map/merlin.vmat
0  -1.132789 1.749976 60.500004  0.964445 -0.261212 -0.040179  0.488281 0.121582 1 22 1.000000
0  2.312511 -2.390627 59.999805  -0.037281 0.988108 0.149170  0.476562 0.117676 1 22 1.000000
0  -1.187491 5.624985 44.250103  0.861752 0.478850 0.167593  0.489990 0.039551 1 23 1.000000
anime/map/merlin.vmat
0  2.406214 -4.812537 79.499817  -0.036026 0.993455 0.108390  0.474365 0.207031 1 22 1.000000
0  5.687514 2.093674 60.500004  -0.999748 -0.015933 0.015805  0.456787 0.121582 1 22 1.000000
0  2.312511 -2.390627 59.999805  -0.037281 0.988108 0.149170  0.476562 0.117676 1 22 1.000000
anime/map/merlin.vmat
0  -1.132789 1.749976 60.500004  0.760834 0.641942 0.095092  0.488281 0.121582 1 22 1.000000
0  2.406214 -4.812537 79.499817  -0.036026 0.993455 0.108390  0.474365 0.207031 1 22 1.000000
0  2.312511 -2.390627 59.999805  -0.037281 0.988108 0.149170  0.476562 0.117676 1 22 1.000000
anime/map/merlin.vmat
0  5.781312 5.937483 44.250103  -0.845103 0.507167 0.169063  0.458984 0.039551 1 23 1.000000
0  2.312511 -2.390627 59.999805  -0.037281 0.988108 0.149170  0.476562 0.117676 1 22 1.000000
0  5.687514 2.093674 60.500004  -0.999748 -0.015933 0.015805  0.456787 0.121582 1 22 1.000000
anime/map/merlin.vmat
0  -1.187491 5.624985 44.250103  0.861752 0.478850 0.167593  0.489990 0.039551 1 23 1.000000
0  2.312511 -2.390627 59.999805  -0.037281 0.988108 0.149170  0.476562 0.117676 1 22 1.000000
0  2.093709 4.437486 40.000195  -0.041289 0.949915 0.309770  0.478271 0.031738 1 23 1.000000
anime/map/merlin.vmat
0  2.093709 4.437486 40.000195  -0.041289 0.949915 0.309770  0.478271 0.031738 1 23 1.000000
0  2.312511 -2.390627 59.999805  -0.037281 0.988108 0.149170  0.476562 0.117676 1 22 1.000000
0  5.781312 5.937483 44.250103  -0.845103 0.507167 0.169063  0.458984 0.039551 1 23 1.000000
anime/map/merlin.vmat
0  -2.453094 7.374993 28.124994  0.635556 0.771721 0.022718  0.687500 0.125000 1 23 1.000000
0  -3.046892 11.437490 41.000000  0.958958 0.271006 -0.083395  0.687500 0.066406 1 23 1.000000
0  -1.187491 5.624985 44.250103  0.880127 0.268958 -0.391201  0.660156 0.074219 1 23 1.000000
anime/map/merlin.vmat
0  -1.187491 5.624985 44.250103  0.880127 0.268958 -0.391201  0.660156 0.074219 1 23 1.000000
0  2.562508 4.562490 29.624893  -0.051633 0.998075 0.034355  0.640137 0.144531 1 23 1.000000
0  -2.453094 7.374993 28.124994  0.635556 0.771721 0.022718  0.687500 0.125000 1 23 1.000000
anime/map/merlin.vmat
0  2.093709 4.437486 40.000195  0.353335 0.935266 0.020788  0.640137 0.094238 1 23 1.000000
0  2.562508 4.562490 29.624893  -0.051633 0.998075 0.034355  0.640137 0.144531 1 23 1.000000
0  -1.187491 5.624985 44.250103  0.880127 0.268958 -0.391201  0.660156 0.074219 1 23 1.000000
anime/map/merlin.vmat
0  -3.046892 11.437490 41.000000  0.781964 -0.094772 -0.616076  0.687500 0.066406 1 23 1.000000
0  2.515613 13.812489 48.000011  -0.039031 -0.214684 -0.975903  0.640137 0.039551 1 23 1.000000
0  -1.187491 5.624985 44.250103  0.880128 0.268908 -0.391234  0.660156 0.074219 1 23 1.000000
anime/map/merlin.vmat
0  2.515613 13.812489 48.000011  -0.039031 -0.214684 -0.975903  0.640137 0.039551 1 23 1.000000
0  3.140612 8.374983 49.499912  -0.179007 -0.290895 -0.939860  0.640137 0.070312 1 23 1.000000
0  -1.187491 5.624985 44.250103  0.880128 0.268908 -0.391234  0.660156 0.074219 1 23 1.000000
anime/map/merlin.vmat
0  2.515613 13.812489 48.000011  -0.039031 -0.214684 -0.975903  0.640137 0.039551 1 23 1.000000
0  5.781312 5.937483 44.250103  -0.916445 0.258480 -0.305479  0.625000 0.074219 1 23 1.000000
0  3.140612 8.374983 49.499912  -0.179007 -0.290895 -0.939860  0.640137 0.070312 1 23 1.000000
anime/map/merlin.vmat
0  5.781312 5.937483 44.250103  -0.916445 0.258480 -0.305479  0.625000 0.074219 1 23 1.000000
0  2.562508 4.562490 29.624893  -0.051655 0.998071 0.034432  0.640137 0.144531 1 23 1.000000
0  2.093709 4.437486 40.000195  -0.378542 0.925345 -0.021012  0.640137 0.094238 1 23 1.000000
anime/map/merlin.vmat
0  5.781312 5.937483 44.250103  -0.916445 0.258480 -0.305479  0.625000 0.074219 1 23 1.000000
0  2.515613 13.812489 48.000011  -0.039031 -0.214684 -0.975903  0.640137 0.039551 1 23 1.000000
0  8.000014 11.624988 40.250000  -0.948086 0.176409 -0.264598  0.589355 0.066406 1 23 1.000000
anime/map/merlin.vmat
0  7.562510 7.749991 28.000092  -0.672680 0.739933 0.000019  0.597656 0.121582 1 23 1.000000
0  2.562508 4.562490 29.624893  -0.051655 0.998071 0.034432  0.640137 0.144531 1 23 1.000000
0  5.781312 5.937483 44.250103  -0.916445 0.258480 -0.305479  0.625000 0.074219 1 23 1.000000
anime/map/merlin.vmat
0  5.781312 5.937483 44.250103  -0.916445 0.258480 -0.305479  0.625000 0.074219 1 23 1.000000
0  8.000014 11.624988 40.250000  -0.948086 0.176409 -0.264598  0.589355 0.066406 1 23 1.000000
0  7.562510 7.749991 28.000092  -0.672680 0.739933 0.000019  0.597656 0.121582 1 23 1.000000
anime/map/merlin.vmat
0  -1.078087 -0.773434 80.000313  0.999733 -0.016290 -0.016401  0.486084 0.210938 1 22 1.000000
0  -1.132789 1.749976 60.500004  0.964445 -0.261212 -0.040177  0.488281 0.121582 1 22 1.000000
0  2.609416 2.859367 80.000313  -0.036708 -0.991037 -0.128445  0.474365 0.207031 1 22 1.000000
anime/map/merlin.vmat
0  5.593717 -0.535235 80.000313  -0.999871 -0.016041 -0.000039  0.455078 0.210938 1 22 1.000000
0  2.609416 2.859367 80.000313  -0.036708 -0.991037 -0.128445  0.474365 0.207031 1 22 1.000000
0  5.687514 2.093674 60.500004  -0.999750 -0.015797 0.015842  0.456787 0.121582 1 22 1.000000
anime/map/merlin.vmat
0  2.609416 2.859367 80.000313  -0.036708 -0.991037 -0.128445  0.474365 0.207031 1 22 1.000000
0  -1.132789 1.749976 60.500004  0.964445 -0.261212 -0.040177  0.488281 0.121582 1 22 1.000000
0  2.812513 5.499977 61.000111  -0.077254 -0.984967 -0.154506  0.476562 0.113770 1 22 1.000000
anime/map/merlin.vmat
0  5.687514 2.093674 60.500004  -0.999750 -0.015797 0.015842  0.456787 0.121582 1 22 1.000000
0  2.609416 2.859367 80.000313  -0.036708 -0.991037 -0.128445  0.474365 0.207031 1 22 1.000000
0  2.812513 5.499977 61.000111  -0.077254 -0.984967 -0.154506  0.476562 0.113770 1 22 1.000000
anime/map/merlin.vmat
0  -1.132789 1.749976 60.500004  0.964445 -0.261212 -0.040177  0.488281 0.121582 1 22 1.000000
0  -1.187491 5.624985 44.250103  0.861802 0.478788 0.167508  0.489990 0.039551 1 23 1.000000
0  2.812513 5.499977 61.000111  -0.077254 -0.984967 -0.154506  0.476562 0.113770 1 22 1.000000
anime/map/merlin.vmat
0  5.687514 2.093674 60.500004  -0.999750 -0.015797 0.015842  0.456787 0.121582 1 22 1.000000
0  2.812513 5.499977 61.000111  -0.077254 -0.984967 -0.154506  0.476562 0.113770 1 22 1.000000
0  5.781312 5.937483 44.250103  -0.845208 0.507031 0.168947  0.458984 0.039551 1 23 1.000000
anime/map/merlin.vmat
0  2.812513 5.499977 61.000111  -0.077254 -0.984967 -0.154506  0.476562 0.113770 1 22 1.000000
0  -1.187491 5.624985 44.250103  0.861802 0.478788 0.167508  0.489990 0.039551 1 23 1.000000
0  3.140612 8.374983 49.499912  -0.170988 -0.961810 -0.213741  0.478271 0.031738 1 23 1.000000
anime/map/merlin.vmat
0  5.781312 5.937483 44.250103  -0.845208 0.507031 0.168947  0.458984 0.039551 1 23 1.000000
0  2.812513 5.499977 61.000111  -0.077254 -0.984967 -0.154506  0.476562 0.113770 1 22 1.000000
0  3.140612 8.374983 49.499912  -0.170988 -0.961810 -0.213741  0.478271 0.031738 1 23 1.000000
anime/map/merlin.vmat
0  -3.343689 -3.500035 81.500237  0.981146 0.176620 -0.078469  0.486084 0.210938 1 26 1.000000
0  -2.624993 -12.687535 67.500320  0.975899 -0.214699 0.039058  0.488281 0.121582 1 26 1.000000
0  -6.937490 0.156168 80.500038  0.022388 0.828390 -0.559704  0.474365 0.207031 1 26 1.000000
anime/map/merlin.vmat
0  -9.999991 -3.203133 80.999840  -0.971816 0.186069 -0.144745  0.455078 0.210938 1 26 1.000000
0  -6.937490 0.156168 80.500038  0.022388 0.828390 -0.559704  0.474365 0.207031 1 26 1.000000
0  -9.374997 -12.312531 66.500122  -0.970555 -0.206581 -0.123881  0.456787 0.121582 1 26 1.000000
anime/map/merlin.vmat
0  -6.937490 0.156168 80.500038  0.022388 0.828390 -0.559704  0.474365 0.207031 1 26 1.000000
0  -2.624993 -12.687535 67.500320  0.975899 -0.214699 0.039058  0.488281 0.121582 1 26 1.000000
0  -6.468794 -8.937531 66.500130  -0.114096 0.988907 0.095103  0.476562 0.113770 1 26 1.000000
anime/map/merlin.vmat
0  -9.374997 -12.312531 66.500122  -0.970555 -0.206581 -0.123881  0.456787 0.121582 1 26 1.000000
0  -6.937490 0.156168 80.500038  0.022388 0.828390 -0.559704  0.474365 0.207031 1 26 1.000000
0  -6.468794 -8.937531 66.500130  -0.114096 0.988907 0.095103  0.476562 0.113770 1 26 1.000000
anime/map/merlin.vmat
0  -2.624993 -12.687535 67.500320  0.975899 -0.214699 0.039058  0.488281 0.121582 1 26 1.000000
0  -1.437492 -3.937525 56.250011  0.962018 -0.265999 -0.061359  0.489990 0.039551 1 27 1.000000
0  -6.468794 -8.937531 66.500130  -0.114096 0.988907 0.095103  0.476562 0.113770 1 26 1.000000
anime/map/merlin.vmat
0  -9.374997 -12.312531 66.500122  -0.970555 -0.206581 -0.123881  0.456787 0.121582 1 26 1.000000
0  -6.468794 -8.937531 66.500130  -0.114096 0.988907 0.095103  0.476562 0.113770 1 26 1.000000
0  -8.374996 -3.593823 56.000111  -0.926270 -0.277747 -0.254716  0.458984 0.039551 1 27 1.000000
anime/map/merlin.vmat
0  -6.468794 -8.937531 66.500130  -0.114096 0.988907 0.095103  0.476562 0.113770 1 26 1.000000
0  -1.437492 -3.937525 56.250011  0.962018 -0.265999 -0.061359  0.489990 0.039551 1 27 1.000000
0  -6.093695 -3.109425 59.500111  -0.199940 0.774756 0.599815  0.478271 0.031738 1 27 1.000000
anime/map/merlin.vmat
0  -8.374996 -3.593823 56.000111  -0.926270 -0.277747 -0.254716  0.458984 0.039551 1 27 1.000000
0  -6.468794 -8.937531 66.500130  -0.114096 0.988907 0.095103  0.476562 0.113770 1 26 1.000000
0  -6.093695 -3.109425 59.500111  -0.199940 0.774756 0.599815  0.478271 0.031738 1 27 1.000000
anime/map/merlin.vmat
0  -3.343689 -3.500035 81.500237  0.981152 0.176594 -0.078457  0.486084 0.210938 1 26 1.000000
0  -6.906292 -7.500036 81.500237  -0.093833 -0.821105 0.563012  0.474365 0.207031 1 26 1.000000
0  -2.624993 -12.687535 67.500320  0.975901 -0.214694 0.039034  0.488281 0.121582 1 26 1.000000
anime/map/merlin.vmat
0  -9.999991 -3.203133 80.999840  -0.971792 0.186176 -0.144769  0.455078 0.210938 1 26 1.000000
0  -9.374997 -12.312531 66.500122  -0.970562 -0.206506 -0.123957  0.456787 0.121582 1 26 1.000000
0  -6.906292 -7.500036 81.500237  -0.093833 -0.821105 0.563012  0.474365 0.207031 1 26 1.000000
anime/map/merlin.vmat
0  -2.624993 -12.687535 67.500320  0.975901 -0.214694 0.039034  0.488281 0.121582 1 26 1.000000
0  -6.906292 -7.500036 81.500237  -0.093833 -0.821105 0.563012  0.474365 0.207031 1 26 1.000000
0  -6.156296 -16.750034 67.500320  -0.049939 -0.998752 0.000003  0.476562 0.117676 1 26 1.000000
anime/map/merlin.vmat
0  -6.906292 -7.500036 81.500237  -0.093833 -0.821105 0.563012  0.474365 0.207031 1 26 1.000000
0  -9.374997 -12.312531 66.500122  -0.970562 -0.206506 -0.123957  0.456787 0.121582 1 26 1.000000
0  -6.156296 -16.750034 67.500320  -0.049939 -0.998752 0.000003  0.476562 0.117676 1 26 1.000000
anime/map/merlin.vmat
0  -2.624993 -12.687535 67.500320  0.975901 -0.214694 0.039034  0.488281 0.121582 1 26 1.000000
0  -6.156296 -16.750034 67.500320  -0.049939 -0.998752 0.000003  0.476562 0.117676 1 26 1.000000
0  -1.437492 -3.937525 56.250011  0.961991 -0.266083 -0.061424  0.489990 0.039551 1 27 1.000000
anime/map/merlin.vmat
0  -8.374996 -3.593823 56.000111  -0.926237 -0.277882 -0.254687  0.458984 0.039551 1 27 1.000000
0  -6.156296 -16.750034 67.500320  -0.049939 -0.998752 0.000003  0.476562 0.117676 1 26 1.000000
0  -9.374997 -12.312531 66.500122  -0.970562 -0.206506 -0.123957  0.456787 0.121582 1 26 1.000000
anime/map/merlin.vmat
0  -1.437492 -3.937525 56.250011  0.961991 -0.266083 -0.061424  0.489990 0.039551 1 27 1.000000
0  -6.156296 -16.750034 67.500320  -0.049939 -0.998752 0.000003  0.476562 0.117676 1 26 1.000000
0  -4.312495 -4.531222 51.750206  0.022638 -0.791579 -0.610647  0.478271 0.031738 1 27 1.000000
anime/map/merlin.vmat
0  -4.312495 -4.531222 51.750206  0.022638 -0.791579 -0.610647  0.478271 0.031738 1 27 1.000000
0  -6.156296 -16.750034 67.500320  -0.049939 -0.998752 0.000003  0.476562 0.117676 1 26 1.000000
0  -8.374996 -3.593823 56.000111  -0.926237 -0.277882 -0.254687  0.458984 0.039551 1 27 1.000000
anime/map/merlin.vmat
0  -8.374996 -3.593823 56.000111  -0.905510 -0.333704 0.262094  0.625000 0.074219 1 27 1.000000
0  -10.312497 2.578082 52.500206  -0.966551 -0.210113 0.147080  0.589355 0.066406 1 27 1.000000
0  -8.687498 0.412086 40.000198  -0.661690 -0.735220 -0.147030  0.597656 0.121582 1 27 1.000000
anime/map/merlin.vmat
0  -8.687498 0.412086 40.000198  -0.661690 -0.735220 -0.147030  0.597656 0.121582 1 27 1.000000
0  -3.874997 -3.000018 41.500099  -0.037878 -0.984645 -0.170406  0.640137 0.144531 1 27 1.000000
0  -8.374996 -3.593823 56.000111  -0.905510 -0.333704 0.262094  0.625000 0.074219 1 27 1.000000
anime/map/merlin.vmat
0  -8.374996 -3.593823 56.000111  -0.905510 -0.333704 0.262094  0.625000 0.074219 1 27 1.000000
0  -5.499992 3.671878 61.000114  -0.135331 -0.096683 0.986072  0.640137 0.039551 1 27 1.000000
0  -10.312497 2.578082 52.500206  -0.966551 -0.210113 0.147080  0.589355 0.066406 1 27 1.000000
anime/map/merlin.vmat
0  -8.374996 -3.593823 56.000111  -0.905510 -0.333704 0.262094  0.625000 0.074219 1 27 1.000000
0  -3.874997 -3.000018 41.500099  -0.037878 -0.984645 -0.170406  0.640137 0.144531 1 27 1.000000
0  -4.312495 -4.531222 51.750206  0.000034 -0.989585 -0.143948  0.640137 0.094238 1 27 1.000000
anime/map/merlin.vmat
0  -5.499992 3.671878 61.000114  -0.135331 -0.096683 0.986072  0.640137 0.039551 1 27 1.000000
0  -8.374996 -3.593823 56.000111  -0.905510 -0.333704 0.262094  0.625000 0.074219 1 27 1.000000
0  -6.093695 -3.109425 59.500111  -0.264585 -0.176390 0.948094  0.640137 0.070312 1 27 1.000000
anime/map/merlin.vmat
0  -4.312495 -4.531222 51.750206  0.000034 -0.989585 -0.143948  0.640137 0.094238 1 27 1.000000
0  -3.874997 -3.000018 41.500099  -0.037878 -0.984645 -0.170406  0.640137 0.144531 1 27 1.000000
0  -1.437492 -3.937525 56.250011  0.788125 -0.394057 0.472840  0.660156 0.074219 1 27 1.000000
anime/map/merlin.vmat
0  -5.499992 3.671878 61.000114  -0.135331 -0.096683 0.986072  0.640137 0.039551 1 27 1.000000
0  -6.093695 -3.109425 59.500111  -0.264585 -0.176390 0.948094  0.640137 0.070312 1 27 1.000000
0  -1.437492 -3.937525 56.250011  0.788125 -0.394057 0.472840  0.660156 0.074219 1 27 1.000000
anime/map/merlin.vmat
0  -1.437492 -3.937525 56.250011  0.788125 -0.394057 0.472840  0.660156 0.074219 1 27 1.000000
0  -3.874997 -3.000018 41.500099  -0.037878 -0.984645 -0.170406  0.640137 0.144531 1 27 1.000000
0  1.250008 -0.035617 40.750099  0.631682 -0.772043 -0.070189  0.687500 0.125000 1 27 1.000000
anime/map/merlin.vmat
0  0.660210 2.218679 54.250008  0.908949 -0.186460 0.372886  0.687500 0.066406 1 27 1.000000
0  -5.499992 3.671878 61.000114  -0.135331 -0.096683 0.986072  0.640137 0.039551 1 27 1.000000
0  -1.437492 -3.937525 56.250011  0.788125 -0.394057 0.472840  0.660156 0.074219 1 27 1.000000
anime/map/merlin.vmat
0  1.250008 -0.035617 40.750099  0.631682 -0.772043 -0.070189  0.687500 0.125000 1 27 1.000000
0  0.660210 2.218679 54.250008  0.908949 -0.186460 0.372886  0.687500 0.066406 1 27 1.000000
0  -1.437492 -3.937525 56.250011  0.788125 -0.394057 0.472840  0.660156 0.074219 1 27 1.000000
end
