version 1
nodes
0 "m3bone_root" -1
1 "bone" 0
2 "bone_20" 1
3 "bone_19" 2
4 "Head Ref" 3
5 "bone_15" 2
6 "bone_14" 5
7 "bone_13" 6
8 "Hand Left Ref" 7
9 "bone_15111" 2
10 "bone_17" 9
11 "bone_18" 10
12 "bone_5" 11
13 "bone_2" 12
14 "bone_24999" 13
15 "Weapon Ref" 14
16 "Hand Right Ref" 11
17 "Chest Ref" 2
18 "bone_25" 1
19 "bone_23" 18
20 "bone_24" 1
21 "bone_7" 20
22 "bone_9" 21
23 "bone_11" 22
24 "Foot Left Ref" 23
25 "bone_6" 20
26 "bone_8" 25
27 "bone_10" 26
28 "Foot Right Ref" 27
29 "OverHead Ref" 0
30 "Origin Ref" 0
31 "_M3_Anim_Data" -1
32 "syamemaru2" -1
33 "syamemaru1" -1
34 "syamemaru3" -1
35 "syamemaru4" -1
end
skeleton
time 0
0  0.000000 0.000000 0.000000  0.000000 0.000000 0.000244
1  -0.853095 -0.026367 105.001045  0.017462 0.017414 -0.017113
2  0.076050 0.018672 0.486563  0.000000 0.017350 0.000000
3  0.681925 3.061767 25.766752  -0.000008 0.017350 -0.000000
4  -0.270204 4.643917 15.082966  0.000000 -0.000000 -0.000000
5  7.861997 1.690549 20.553320  -0.000000 0.017350 -0.000000
6  5.961566 5.877565 -14.357297  0.000000 0.017351 -0.000000
7  10.132455 7.521424 -13.339898  -0.000000 0.017349 0.000001
8  7.071621 2.633330 -1.343427  -0.000000 -0.000000 -0.000000
9  -7.215014 2.908782 21.442223  0.000000 0.017350 -0.000000
10  -2.914597 -15.412416 -6.310909  0.000000 0.017351 -0.000000
11  1.915931 -8.833016 13.424075  -0.000008 0.017349 -0.000001
12  5.659714 -11.449338 9.057100  -0.000000 0.017350 0.000000
13  1.189935 10.695256 -2.939718  0.000000 0.034787 0.000000
14  -2.124489 -24.104866 6.023557  0.000000 0.017350 -0.000000
15  2.792169 -5.421335 -1.263836  -0.000000 0.000000 0.000000
16  -0.160952 2.270948 5.513734  -0.000000 -0.000000 0.000000
17  0.783688 1.087372 11.560631  0.000000 0.000000 0.000000
18  -0.017059 -0.034536 -0.654792  0.000000 0.017350 0.000000
19  -0.669090 -0.281067 -16.582523  0.000000 0.017350 -0.000000
20  -0.054107 -0.368182 -0.390878  0.109679 0.001792 0.002000
21  2.926264 -1.135557 -24.857801  -0.000000 0.034787 -0.000000
22  0.176164 3.421207 -19.465683  -0.000000 0.017350 0.000000
23  0.214477 3.945335 -14.796875  -0.000000 0.017350 -0.000000
24  -0.127800 3.995607 -4.361933  -0.000000 -0.000000 0.000000
25  -5.848764 -2.970824 -24.100029  0.000000 0.017350 0.000000
26  0.392178 -8.798161 -12.680973  0.000000 0.017349 -0.000000
27  1.845340 7.302800 -12.204823  -0.000000 0.017350 0.000000
28  -0.506195 5.050750 -3.130173  -0.000000 -0.000000 0.000000
29  0.000009 -0.000000 206.122971  0.000000 -0.000000 0.000000
30  0.000000 0.000000 -0.000000  0.000000 -0.000000 0.000000
31  0.000000 0.000000 0.000000  0.000000 0.000000 0.000244
32  0.000000 0.000000 0.000000  0.000000 0.000000 0.000244
33  0.000000 0.000000 0.000000  0.000000 0.000000 0.000244
34  0.000000 0.000000 0.000000  0.000000 0.000000 0.000244
35  0.000000 0.000000 0.000000  0.000000 0.000000 0.000244
time 1
0  0.000000 0.000000 0.000000  0.000000 0.000000 0.000244
1  -0.853095 -0.026367 105.001045  0.017462 0.017414 -0.017113
2  0.076050 0.018672 0.486563  0.000000 0.017350 0.000000
3  0.681925 3.061767 25.766752  -0.000008 0.017350 -0.000000
4  -0.270204 4.643917 15.082966  0.000000 -0.000000 -0.000000
5  7.861997 1.690549 20.553320  -0.000000 0.017350 -0.000000
6  5.961566 5.877565 -14.357297  0.000000 0.017351 -0.000000
7  10.132455 7.521424 -13.339898  -0.000000 0.017349 0.000001
8  7.071621 2.633330 -1.343427  -0.000000 -0.000000 -0.000000
9  -7.215014 2.908782 21.442223  0.000000 0.017350 -0.000000
10  -2.914597 -15.412416 -6.310909  0.000000 0.017351 -0.000000
11  1.915931 -8.833016 13.424075  -0.000008 0.017349 -0.000001
12  5.659714 -11.449338 9.057100  -0.000000 0.017350 0.000000
13  1.189935 10.695256 -2.939718  0.000000 0.034787 0.000000
14  -2.124489 -24.104866 6.023557  0.000000 0.017350 -0.000000
15  2.792169 -5.421335 -1.263836  -0.000000 0.000000 0.000000
16  -0.160952 2.270948 5.513734  -0.000000 -0.000000 0.000000
17  0.783688 1.087372 11.560631  0.000000 0.000000 0.000000
18  -0.017059 -0.034536 -0.654792  0.000000 0.017350 0.000000
19  -0.669090 -0.281067 -16.582523  0.000000 0.017350 -0.000000
20  -0.054107 -0.368182 -0.390878  0.109679 0.001792 0.002000
21  2.926264 -1.135557 -24.857801  -0.000000 0.034787 -0.000000
22  0.176164 3.421207 -19.465683  -0.000000 0.017350 0.000000
23  0.214477 3.945335 -14.796875  -0.000000 0.017350 -0.000000
24  -0.127800 3.995607 -4.361933  -0.000000 -0.000000 0.000000
25  -5.848764 -2.970824 -24.100029  0.000000 0.017350 0.000000
26  0.392178 -8.798161 -12.680973  0.000000 0.017349 -0.000000
27  1.845340 7.302800 -12.204823  -0.000000 0.017350 0.000000
28  -0.506195 5.050750 -3.130173  -0.000000 -0.000000 0.000000
29  0.000009 -0.000000 206.122971  0.000000 -0.000000 0.000000
30  0.000000 0.000000 -0.000000  0.000000 -0.000000 0.000000
31  0.000000 0.000000 0.000000  0.000000 0.000000 0.000244
32  0.000000 0.000000 0.000000  0.000000 0.000000 0.000244
33  0.000000 0.000000 0.000000  0.000000 0.000000 0.000244
34  0.000000 0.000000 0.000000  0.000000 0.000000 0.000244
35  0.000000 0.000000 0.000000  0.000000 0.000000 0.000244
time 2
0  0.000000 0.000000 0.000000  0.000000 0.000000 0.000244
1  -0.853095 -0.026367 105.001045  0.017462 0.017414 -0.017113
2  0.076050 0.018672 0.486563  0.000000 0.017350 0.000000
3  0.681925 3.061767 25.766752  -0.000008 0.017350 -0.000000
4  -0.270204 4.643917 15.082966  0.000000 -0.000000 -0.000000
5  7.861997 1.690549 20.553320  -0.000000 0.017350 -0.000000
6  5.961566 5.877565 -14.357297  0.000000 0.017351 -0.000000
7  10.132455 7.521424 -13.339898  -0.000000 0.017349 0.000001
8  7.071621 2.633330 -1.343427  -0.000000 -0.000000 -0.000000
9  -7.215014 2.908782 21.442223  0.000000 0.017350 -0.000000
10  -2.914597 -15.412416 -6.310909  0.000000 0.017351 -0.000000
11  1.915931 -8.833016 13.424075  -0.000008 0.017349 -0.000001
12  5.659714 -11.449338 9.057100  -0.000000 0.017350 0.000000
13  1.189935 10.695256 -2.939718  0.000000 0.034787 0.000000
14  -2.124489 -24.104866 6.023557  0.000000 0.017350 -0.000000
15  2.792167 -5.421335 -1.263836  -0.000000 0.000000 0.000000
16  -0.160952 2.270948 5.513734  -0.000000 -0.000000 0.000000
17  0.783688 1.087372 11.560631  0.000000 0.000000 0.000000
18  -0.017059 -0.034536 -0.654792  0.000000 0.017350 0.000000
19  -0.669090 -0.281067 -16.582523  0.000000 0.017350 -0.000000
20  -0.054107 -0.368182 -0.390878  0.109679 0.001792 0.002000
21  2.926264 -1.135557 -24.857801  -0.000000 0.034787 -0.000000
22  0.176164 3.421207 -19.465683  -0.000000 0.017350 0.000000
23  0.214477 3.945335 -14.796875  -0.000000 0.017350 -0.000000
24  -0.127800 3.995607 -4.361933  -0.000000 -0.000000 0.000000
25  -5.848764 -2.970824 -24.100029  0.000000 0.017350 0.000000
26  0.392178 -8.798161 -12.680973  0.000000 0.017349 -0.000000
27  1.845340 7.302800 -12.204823  -0.000000 0.017350 0.000000
28  -0.506195 5.050750 -3.130173  -0.000000 -0.000000 0.000000
29  0.000009 -0.000000 206.122971  0.000000 -0.000000 0.000000
30  0.000000 0.000000 -0.000000  0.000000 -0.000000 0.000000
31  0.000000 0.000000 0.000000  0.000000 0.000000 0.000244
32  0.000000 0.000000 0.000000  0.000000 0.000000 0.000244
33  0.000000 0.000000 0.000000  0.000000 0.000000 0.000244
34  0.000000 0.000000 0.000000  0.000000 0.000000 0.000244
35  0.000000 0.000000 0.000000  0.000000 0.000000 0.000244
time 3
0  0.000000 0.000000 0.000000  0.000000 0.000000 0.000244
1  -0.853095 -0.026367 105.001045  0.017462 0.017414 -0.017113
2  0.076050 0.018672 0.486563  0.000000 0.017350 0.000000
3  0.681925 3.061767 25.766752  -0.000008 0.017350 -0.000000
4  -0.270204 4.643917 15.082966  0.000000 -0.000000 -0.000000
5  7.861997 1.690549 20.553320  -0.000000 0.017350 -0.000000
6  5.961566 5.877565 -14.357297  0.000000 0.017351 -0.000000
7  10.132455 7.521424 -13.339898  -0.000000 0.017349 0.000001
8  7.071621 2.633330 -1.343427  -0.000000 -0.000000 -0.000000
9  -7.215014 2.908782 21.442223  0.000000 0.017350 -0.000000
10  -2.914597 -15.412416 -6.310909  0.000000 0.017351 -0.000000
11  1.915931 -8.833016 13.424075  -0.000008 0.017349 -0.000001
12  5.659714 -11.449338 9.057100  -0.000000 0.017350 0.000000
13  1.189935 10.695256 -2.939718  0.000000 0.034787 0.000000
14  -2.124489 -24.104866 6.023557  0.000000 0.017350 -0.000000
15  2.792167 -5.421335 -1.263836  -0.000000 0.000000 0.000000
16  -0.160952 2.270948 5.513734  -0.000000 -0.000000 0.000000
17  0.783688 1.087372 11.560631  0.000000 0.000000 0.000000
18  -0.017059 -0.034536 -0.654792  0.000000 0.017350 0.000000
19  -0.669090 -0.281067 -16.582523  0.000000 0.017350 -0.000000
20  -0.054107 -0.368182 -0.390878  0.109679 0.001792 0.002000
21  2.926264 -1.135557 -24.857801  -0.000000 0.034787 -0.000000
22  0.176164 3.421207 -19.465683  -0.000000 0.017350 0.000000
23  0.214477 3.945335 -14.796875  -0.000000 0.017350 -0.000000
24  -0.127800 3.995607 -4.361933  -0.000000 -0.000000 0.000000
25  -5.848764 -2.970824 -24.100029  0.000000 0.017350 0.000000
26  0.392178 -8.798161 -12.680973  0.000000 0.017349 -0.000000
27  1.845340 7.302800 -12.204823  -0.000000 0.017350 0.000000
28  -0.506195 5.050750 -3.130173  -0.000000 -0.000000 0.000000
29  0.000009 -0.000000 206.122971  0.000000 -0.000000 0.000000
30  0.000000 0.000000 -0.000000  0.000000 -0.000000 0.000000
31  0.000000 0.000000 0.000000  0.000000 0.000000 0.000244
32  0.000000 0.000000 0.000000  0.000000 0.000000 0.000244
33  0.000000 0.000000 0.000000  0.000000 0.000000 0.000244
34  0.000000 0.000000 0.000000  0.000000 0.000000 0.000244
35  0.000000 0.000000 0.000000  0.000000 0.000000 0.000244
time 4
0  0.000000 0.000000 0.000000  0.000000 0.000000 0.000244
1  -0.853095 -0.026367 105.001045  0.059341 0.017926 -0.016222
2  0.076050 0.018672 0.486565  -0.148115 0.013623 -0.004213
3  0.681926 3.061769 25.766718  -0.000008 0.017350 -0.000000
4  -0.270204 4.643916 15.082965  -0.000000 -0.000000 -0.000000
5  7.861997 1.690548 20.553316  -0.185725 0.011306 -0.007988
6  5.961566 5.877568 -14.357306  -0.000000 0.017351 0.000000
7  10.132453 7.521426 -13.339897  -0.000000 0.017349 0.000001
8  7.071623 2.633333 -1.343426  -0.000000 -0.000000 -0.000000
9  -7.215013 2.908783 21.442205  -0.014335 0.017086 -0.000727
10  -2.914598 -15.412413 -6.310894  0.000000 0.017351 0.000000
11  1.915931 -8.833014 13.424055  -0.000008 0.017349 -0.000001
12  5.659714 -11.449340 9.057104  -0.000000 0.017350 0.000000
13  1.189936 10.695258 -2.939713  0.000000 0.034787 0.000000
14  -2.302952 -25.190092 6.478454  -0.000000 0.017350 -0.000000
15  2.789747 -5.405774 -1.262766  -0.000000 0.000000 0.000000
16  -0.160952 2.270948 5.513742  -0.000000 -0.000000 0.000000
17  0.783688 1.087373 11.560611  -0.000000 0.000000 -0.000000
18  -0.017059 -0.034535 -0.654790  0.000000 0.017350 0.000000
19  -0.669091 -0.281067 -16.582535  0.000000 0.017350 -0.000000
20  -0.054107 -0.368182 -0.390881  0.109679 0.001792 0.002000
21  2.926264 -1.135561 -24.857807  0.000000 0.034787 -0.000000
22  0.176164 3.421205 -19.465681  -0.000000 0.017350 0.000000
23  0.214477 3.945337 -14.796881  -0.000000 0.017350 -0.000000
24  -0.127800 3.995606 -4.361930  -0.000000 0.000000 0.000000
25  -5.848764 -2.970825 -24.100023  0.000000 0.017350 0.000000
26  0.392179 -8.798158 -12.680969  0.000000 0.017349 -0.000000
27  1.845342 7.302799 -12.204825  -0.000000 0.017350 0.000000
28  -0.506195 5.050748 -3.130164  -0.000000 -0.000000 0.000000
29  0.000009 -0.000000 206.122971  0.000000 -0.000000 0.000000
30  0.000000 0.000000 -0.000000  0.000000 -0.000000 0.000000
31  0.000000 0.000000 0.000000  0.000000 0.000000 0.000244
32  0.000000 0.000000 0.000000  0.000000 0.000000 0.000244
33  0.000000 0.000000 0.000000  0.000000 0.000000 0.000244
34  0.000000 0.000000 0.000000  0.000000 0.000000 0.000244
35  0.000000 0.000000 0.000000  0.000000 0.000000 0.000244
time 5
0  0.000000 0.000000 0.000000  0.000000 0.000000 0.000244
1  -0.853095 -0.026367 105.001045  0.163977 0.019253 -0.014008
2  0.076050 0.018672 0.486577  -0.423396 0.006751 -0.012134
3  0.681926 3.061767 25.766747  -0.000008 0.017350 -0.000000
4  -0.270205 4.643915 15.082977  0.000000 -0.000000 -0.000000
5  7.861998 1.690547 20.553339  -0.530701 0.000013 -0.022992
6  5.961567 5.877556 -14.357315  0.000000 0.017351 -0.000000
7  10.132454 7.521424 -13.339904  -0.000000 0.017349 0.000001
8  7.071622 2.633324 -1.343434  0.000000 -0.000000 0.000000
9  -7.215014 2.908780 21.442225  -0.050351 0.016338 -0.002657
10  -2.914596 -15.412414 -6.310896  -0.000000 0.017351 0.000000
11  1.915933 -8.833015 13.424056  -0.000008 0.017349 -0.000001
12  5.659713 -11.449342 9.057075  -0.000000 0.017350 0.000000
13  1.189934 10.695259 -2.939710  0.000000 0.034787 0.000000
14  -2.749123 -27.903168 7.615779  0.000000 0.017350 -0.000000
15  2.783679 -5.366887 -1.260005  -0.000000 0.000000 0.000000
16  -0.160954 2.270945 5.513710  0.000000 -0.000000 0.000000
17  0.783688 1.087372 11.560632  -0.000000 0.000000 -0.000000
18  -0.017059 -0.034536 -0.654785  0.000000 0.017350 0.000000
19  -0.669091 -0.281068 -16.582535  -0.000000 0.017350 -0.000000
20  -0.054107 -0.368181 -0.390872  0.109679 0.001792 0.002000
21  2.926264 -1.135558 -24.857798  0.000000 0.034787 -0.000000
22  0.176164 3.421206 -19.465685  -0.000000 0.017350 0.000000
23  0.214477 3.945337 -14.796877  -0.000000 0.017350 -0.000000
24  -0.127800 3.995608 -4.361928  -0.000000 0.000000 0.000000
25  -5.848763 -2.970824 -24.100027  0.000000 0.017350 0.000000
26  0.392178 -8.798160 -12.680978  0.000000 0.017349 -0.000000
27  1.845341 7.302802 -12.204828  -0.000000 0.017350 0.000000
28  -0.506193 5.050747 -3.130167  0.000000 -0.000000 0.000000
29  0.000009 -0.000000 206.122971  0.000000 -0.000000 0.000000
30  0.000000 0.000000 -0.000000  0.000000 -0.000000 0.000000
31  0.000000 0.000000 0.000000  0.000000 0.000000 0.000244
32  0.000000 0.000000 0.000000  0.000000 0.000000 0.000244
33  0.000000 0.000000 0.000000  0.000000 0.000000 0.000244
34  0.000000 0.000000 0.000000  0.000000 0.000000 0.000244
35  0.000000 0.000000 0.000000  0.000000 0.000000 0.000244
time 6
0  0.000000 0.000000 0.000000  0.000000 0.000000 0.000244
1  -0.853095 -0.026367 105.001045  0.300118 0.020992 -0.011231
2  0.076050 0.018673 0.486576  -0.571615 0.003019 -0.016362
3  0.681926 3.061772 25.766741  -0.000008 0.017350 -0.000000
4  -0.270205 4.643915 15.082983  0.000000 -0.000000 -0.000000
5  7.861998 1.690554 20.553320  -0.716370 -0.006075 -0.031000
6  5.961567 5.877556 -14.357307  0.000000 0.017351 0.000000
7  10.132453 7.521439 -13.339892  -0.000000 0.017349 0.000001
8  7.071623 2.633332 -1.343426  0.000000 -0.000000 -0.000000
9  -7.215014 2.908786 21.442207  -0.097101 0.015305 -0.005151
10  -2.914596 -15.412413 -6.310898  0.000000 0.017351 0.000000
11  1.915931 -8.833008 13.424039  -0.000008 0.017349 -0.000001
12  5.659714 -11.449338 9.057082  -0.000000 0.017350 0.000000
13  1.189935 10.695253 -2.939711  -0.000000 0.034787 0.000000
14  -3.329136 -31.430161 9.094197  -0.000000 0.017350 -0.000000
15  2.775807 -5.316279 -1.256412  -0.000000 0.000000 0.000000
16  -0.160953 2.270948 5.513721  -0.000000 -0.000000 0.000000
17  0.783688 1.087374 11.560627  0.000000 0.000000 0.000000
18  -0.017059 -0.034536 -0.654789  0.000000 0.017350 0.000000
19  -0.669091 -0.281068 -16.582535  -0.000000 0.017350 -0.000000
20  -0.054107 -0.368184 -0.390880  0.109679 0.001792 0.002000
21  2.926264 -1.135557 -24.857801  0.000000 0.034787 -0.000000
22  0.176165 3.421211 -19.465689  0.000000 0.017350 0.000000
23  0.214477 3.945342 -14.796871  0.000000 0.017350 -0.000000
24  -0.127801 3.995608 -4.361922  0.000000 0.000000 0.000000
25  -5.848763 -2.970821 -24.100029  0.000000 0.017350 0.000000
26  0.392179 -8.798158 -12.680966  -0.000000 0.017349 -0.000000
27  1.845341 7.302803 -12.204825  0.000000 0.017350 0.000000
28  -0.506194 5.050746 -3.130167  -0.000000 -0.000000 0.000000
29  0.000009 -0.000000 206.122971  0.000000 -0.000000 0.000000
30  0.000000 0.000000 -0.000000  0.000000 -0.000000 0.000000
31  0.000000 0.000000 0.000000  0.000000 0.000000 0.000244
32  0.000000 0.000000 0.000000  0.000000 0.000000 0.000244
33  0.000000 0.000000 0.000000  0.000000 0.000000 0.000244
34  0.000000 0.000000 0.000000  0.000000 0.000000 0.000244
35  0.000000 0.000000 0.000000  0.000000 0.000000 0.000244
time 7
0  0.000000 0.000000 0.000000  0.000000 0.000000 0.000244
1  -0.853095 -0.026367 105.001045  0.436181 0.022728 -0.008402
2  0.076050 0.018676 0.486583  -0.417925 0.007193 -0.011849
3  0.681926 3.061767 25.766750  -0.000008 0.017350 -0.000000
4  -0.270206 4.643918 15.082981  0.000000 -0.000000 -0.000000
5  7.861997 1.690550 20.553329  -0.711674 -0.005861 -0.030882
6  5.961567 5.877560 -14.357306  0.000000 0.017351 0.000000
7  10.132454 7.521431 -13.339901  -0.000000 0.017349 0.000001
8  7.071623 2.633322 -1.343420  0.000000 -0.000000 -0.000000
9  -7.215012 2.908783 21.442230  -0.143901 0.014336 -0.007611
10  -2.914596 -15.412414 -6.310901  -0.000000 0.017351 0.000000
11  1.915933 -8.833013 13.424058  -0.000008 0.017349 -0.000001
12  5.659715 -11.449340 9.057107  -0.000000 0.017350 0.000000
13  1.189937 10.695255 -2.939734  0.000000 0.034787 0.000000
14  -3.909161 -34.957165 10.572714  0.000000 0.017350 -0.000000
15  2.767928 -5.265683 -1.252857  -0.000000 0.000000 0.000000
16  -0.160953 2.270950 5.513748  -0.000000 -0.000000 0.000000
17  0.783689 1.087372 11.560635  -0.000000 0.000000 -0.000000
18  -0.017059 -0.034531 -0.654781  0.000000 0.017350 0.000000
19  -0.669090 -0.281069 -16.582533  -0.000000 0.017350 -0.000000
20  -0.054107 -0.368174 -0.390863  0.109679 0.001792 0.002000
21  2.926264 -1.135566 -24.857796  -0.000000 0.034787 -0.000000
22  0.176165 3.421208 -19.465681  -0.000000 0.017350 0.000000
23  0.214477 3.945335 -14.796872  0.000000 0.017350 -0.000000
24  -0.127800 3.995603 -4.361933  -0.000000 0.000000 0.000000
25  -5.848763 -2.970834 -24.100021  -0.000000 0.017350 0.000000
26  0.392180 -8.798157 -12.680970  -0.000000 0.017349 -0.000000
27  1.845340 7.302803 -12.204832  -0.000000 0.017350 0.000000
28  -0.506194 5.050745 -3.130172  0.000000 -0.000000 0.000000
29  0.000009 -0.000000 206.122971  0.000000 -0.000000 0.000000
30  0.000000 0.000000 -0.000000  0.000000 -0.000000 0.000000
31  0.000000 0.000000 0.000000  0.000000 0.000000 0.000244
32  0.000000 0.000000 0.000000  0.000000 0.000000 0.000244
33  0.000000 0.000000 0.000000  0.000000 0.000000 0.000244
34  0.000000 0.000000 0.000000  0.000000 0.000000 0.000244
35  0.000000 0.000000 0.000000  0.000000 0.000000 0.000244
time 8
0  0.000000 0.000000 0.000000  0.000000 0.000000 0.000244
1  -0.853095 -0.026367 105.001045  0.540838 0.024116 -0.006214
2  0.076051 0.018665 0.486556  -0.132451 0.015073 -0.003595
3  0.681925 3.061766 25.766739  -0.000008 0.017350 -0.000000
4  -0.270204 4.643915 15.082955  0.000000 -0.000000 -0.000000
5  7.861998 1.690544 20.553312  -0.700273 -0.005264 -0.030517
6  5.961566 5.877568 -14.357305  0.000000 0.017351 0.000000
7  10.132452 7.521423 -13.339895  -0.000000 0.017349 0.000001
8  7.071622 2.633331 -1.343425  -0.000000 -0.000000 -0.000000
9  -7.215014 2.908780 21.442207  -0.179852 0.013612 -0.009548
10  -2.914597 -15.412417 -6.310893  0.000000 0.017351 -0.000000
11  1.915931 -8.833013 13.424039  -0.000008 0.017349 -0.000001
12  5.659714 -11.449339 9.057085  -0.000000 0.017350 0.000000
13  1.189934 10.695259 -2.939743  -0.000000 0.034787 0.000000
14  -4.355322 -37.670216 11.709986  0.000000 0.017350 -0.000000
15  2.761872 -5.226779 -1.250123  -0.000000 0.000000 0.000000
16  -0.160954 2.270951 5.513728  -0.000000 -0.000000 0.000000
17  0.783688 1.087369 11.560624  -0.000000 0.000000 -0.000000
18  -0.017058 -0.034539 -0.654795  -0.000000 0.017350 0.000000
19  -0.669091 -0.281062 -16.582521  -0.000000 0.017350 -0.000000
20  -0.054107 -0.368184 -0.390882  0.109679 0.001792 0.002000
21  2.926263 -1.135562 -24.857798  -0.000000 0.034787 -0.000000
22  0.176165 3.421208 -19.465681  -0.000000 0.017350 0.000000
23  0.214477 3.945336 -14.796876  -0.000000 0.017350 -0.000000
24  -0.127801 3.995602 -4.361926  0.000000 0.000000 0.000000
25  -5.848763 -2.970825 -24.100019  -0.000000 0.017350 0.000000
26  0.392180 -8.798156 -12.680966  0.000000 0.017349 -0.000000
27  1.845341 7.302801 -12.204830  -0.000000 0.017350 0.000000
28  -0.506194 5.050755 -3.130173  -0.000000 -0.000000 0.000000
29  0.000009 -0.000000 206.122971  0.000000 -0.000000 0.000000
30  0.000000 0.000000 -0.000000  0.000000 -0.000000 0.000000
31  0.000000 0.000000 0.000000  0.000000 0.000000 0.000244
32  0.000000 0.000000 0.000000  0.000000 0.000000 0.000244
33  0.000000 0.000000 0.000000  0.000000 0.000000 0.000244
34  0.000000 0.000000 0.000000  0.000000 0.000000 0.000244
35  0.000000 0.000000 0.000000  0.000000 0.000000 0.000244
time 9
0  0.000000 0.000000 0.000000  0.000000 0.000000 0.000244
1  -0.853095 -0.026367 105.001045  0.582717 0.024687 -0.005393
2  0.076050 0.018677 0.486569  0.021157 0.019328 0.000809
3  0.681926 3.061776 25.766756  -0.000008 0.017350 -0.000000
4  -0.270205 4.643915 15.082958  -0.000000 -0.000000 -0.000000
5  7.861998 1.690554 20.553328  -0.686695 -0.004690 -0.030042
6  5.961568 5.877564 -14.357314  0.000000 0.017351 -0.000000
7  10.132456 7.521425 -13.339890  -0.000000 0.017349 0.000001
8  7.071621 2.633332 -1.343417  -0.000000 -0.000000 -0.000000
9  -7.215014 2.908786 21.442217  -0.194248 0.013305 -0.010316
10  -2.914597 -15.412420 -6.310894  -0.000000 0.017351 0.000000
11  1.915932 -8.833015 13.424061  -0.000008 0.017349 -0.000001
12  5.659714 -11.449341 9.057100  -0.000000 0.017350 0.000000
13  1.189934 10.695255 -2.939722  0.000000 0.034787 0.000000
14  -4.533796 -38.755436 12.164888  0.000000 0.017350 -0.000000
15  2.759453 -5.211221 -1.249009  -0.000000 0.000000 0.000000
16  -0.160953 2.270947 5.513737  0.000000 -0.000000 0.000000
17  0.783688 1.087374 11.560640  -0.000000 0.000000 -0.000000
18  -0.017059 -0.034536 -0.654797  0.000000 0.017350 0.000000
19  -0.669091 -0.281068 -16.582529  -0.000000 0.017350 -0.000000
20  -0.054107 -0.368178 -0.390878  0.109679 0.001792 0.002000
21  2.926264 -1.135556 -24.857788  0.000000 0.034787 -0.000000
22  0.176165 3.421211 -19.465685  -0.000000 0.017350 0.000000
23  0.214476 3.945331 -14.796870  -0.000000 0.017350 -0.000000
24  -0.127800 3.995609 -4.361928  0.000000 0.000000 0.000000
25  -5.848763 -2.970821 -24.100016  0.000000 0.017350 0.000000
26  0.392180 -8.798161 -12.680964  0.000000 0.017349 -0.000000
27  1.845341 7.302801 -12.204833  0.000000 0.017350 0.000000
28  -0.506194 5.050747 -3.130172  -0.000000 -0.000000 0.000000
29  0.000009 -0.000000 206.122971  0.000000 -0.000000 0.000000
30  0.000000 0.000000 -0.000000  0.000000 -0.000000 0.000000
31  0.000000 0.000000 0.000000  0.000000 0.000000 0.000244
32  0.000000 0.000000 0.000000  0.000000 0.000000 0.000244
33  0.000000 0.000000 0.000000  0.000000 0.000000 0.000244
34  0.000000 0.000000 0.000000  0.000000 0.000000 0.000244
35  0.000000 0.000000 0.000000  0.000000 0.000000 0.000244
time 10
0  0.000000 0.000000 0.000000  0.000000 0.000000 0.000244
1  -0.853095 -0.026367 105.001045  0.582717 0.024687 -0.005393
2  0.076050 0.018677 0.486569  0.021157 0.019328 0.000809
3  0.681926 3.061776 25.766756  -0.000008 0.017350 -0.000000
4  -0.270205 4.643915 15.082958  -0.000000 -0.000000 -0.000000
5  7.861998 1.690554 20.553328  -0.675345 -0.004132 -0.029746
6  5.961568 5.877565 -14.357304  0.000000 0.017351 -0.000000
7  10.132453 7.521426 -13.339899  -0.000000 0.017349 0.000001
8  7.071622 2.633331 -1.343416  0.000000 -0.000000 -0.000000
9  -7.215014 2.908786 21.442217  -0.194248 0.013305 -0.010316
10  -2.914597 -15.412420 -6.310894  -0.000000 0.017351 0.000000
11  1.915932 -8.833015 13.424061  -0.000008 0.017349 -0.000001
12  5.659714 -11.449341 9.057100  -0.000000 0.017350 0.000000
13  1.189934 10.695255 -2.939722  0.000000 0.034787 0.000000
14  -4.533795 -38.755444 12.164918  0.000000 0.017350 -0.000000
15  4.302776 -8.152984 -1.947558  -0.000000 0.000000 0.000000
16  -0.160953 2.270947 5.513737  0.000000 -0.000000 0.000000
17  0.783688 1.087374 11.560640  -0.000000 0.000000 -0.000000
18  -0.017059 -0.034536 -0.654797  0.000000 0.017350 0.000000
19  -0.669091 -0.281068 -16.582529  -0.000000 0.017350 -0.000000
20  -0.054107 -0.368178 -0.390878  0.109679 0.001792 0.002000
21  2.926264 -1.135556 -24.857788  0.000000 0.034787 -0.000000
22  0.176165 3.421211 -19.465685  -0.000000 0.017350 0.000000
23  0.214476 3.945331 -14.796870  -0.000000 0.017350 -0.000000
24  -0.127800 3.995609 -4.361928  0.000000 0.000000 0.000000
25  -5.848763 -2.970821 -24.100016  0.000000 0.017350 0.000000
26  0.392180 -8.798161 -12.680964  0.000000 0.017349 -0.000000
27  1.845341 7.302801 -12.204833  0.000000 0.017350 0.000000
28  -0.506194 5.050747 -3.130172  -0.000000 -0.000000 0.000000
29  0.000009 -0.000000 206.122971  0.000000 -0.000000 0.000000
30  0.000000 0.000000 -0.000000  0.000000 -0.000000 0.000000
31  0.000000 0.000000 0.000000  0.000000 0.000000 0.000244
32  0.000000 0.000000 0.000000  0.000000 0.000000 0.000244
33  0.000000 0.000000 0.000000  0.000000 0.000000 0.000244
34  0.000000 0.000000 0.000000  0.000000 0.000000 0.000244
35  0.000000 0.000000 0.000000  0.000000 0.000000 0.000244
time 11
0  0.000000 0.000000 0.000000  0.000000 0.000000 0.000244
1  -0.853095 -0.026367 105.001045  0.582717 0.024687 -0.005393
2  0.076050 0.018677 0.486569  0.021157 0.019328 0.000809
3  0.681926 3.061776 25.766756  -0.000008 0.017350 -0.000000
4  -0.270205 4.643915 15.082958  -0.000000 -0.000000 -0.000000
5  7.861998 1.690554 20.553328  -0.670592 -0.003895 -0.029540
6  5.961567 5.877567 -14.357299  0.000000 0.017351 0.000000
7  10.132453 7.521425 -13.339902  -0.000000 0.017349 0.000001
8  7.071620 2.633330 -1.343431  0.000000 0.000000 -0.000000
9  -7.215014 2.908786 21.442217  -0.194248 0.013305 -0.010316
10  -2.914597 -15.412420 -6.310894  -0.000000 0.017351 0.000000
11  1.915932 -8.833015 13.424061  -0.000008 0.017349 -0.000001
12  5.659714 -11.449341 9.057100  -0.000000 0.017350 0.000000
13  1.189934 10.695255 -2.939722  0.000000 0.034787 0.000000
14  -4.533796 -38.755444 12.164917  0.000000 0.017350 -0.000000
15  5.846100 -11.094753 -2.646104  -0.000000 0.000000 0.000000
16  -0.160953 2.270947 5.513737  0.000000 -0.000000 0.000000
17  0.783688 1.087374 11.560640  -0.000000 0.000000 -0.000000
18  -0.017059 -0.034536 -0.654797  0.000000 0.017350 0.000000
19  -0.669091 -0.281068 -16.582529  -0.000000 0.017350 -0.000000
20  -0.054107 -0.368178 -0.390878  0.109679 0.001792 0.002000
21  2.926264 -1.135556 -24.857788  0.000000 0.034787 -0.000000
22  0.176165 3.421211 -19.465685  -0.000000 0.017350 0.000000
23  0.214476 3.945331 -14.796870  -0.000000 0.017350 -0.000000
24  -0.127800 3.995609 -4.361928  0.000000 0.000000 0.000000
25  -5.848763 -2.970821 -24.100016  0.000000 0.017350 0.000000
26  0.392180 -8.798161 -12.680964  0.000000 0.017349 -0.000000
27  1.845341 7.302801 -12.204833  0.000000 0.017350 0.000000
28  -0.506194 5.050747 -3.130172  -0.000000 -0.000000 0.000000
29  0.000009 -0.000000 206.122971  0.000000 -0.000000 0.000000
30  0.000000 0.000000 -0.000000  0.000000 -0.000000 0.000000
31  0.000000 0.000000 0.000000  0.000000 0.000000 0.000244
32  0.000000 0.000000 0.000000  0.000000 0.000000 0.000244
33  0.000000 0.000000 0.000000  0.000000 0.000000 0.000244
34  0.000000 0.000000 0.000000  0.000000 0.000000 0.000244
35  0.000000 0.000000 0.000000  0.000000 0.000000 0.000244
time 12
0  0.000000 0.000000 0.000000  0.000000 0.000000 0.000244
1  -0.853095 -0.026367 105.001045  0.579472 0.024596 -0.005458
2  0.076050 0.018677 0.486580  0.000519 0.018904 0.000091
3  0.681926 3.061761 25.766747  -0.000008 0.017350 -0.000000
4  -0.270204 4.643915 15.082959  0.000000 -0.000000 -0.000000
5  7.861998 1.690540 20.553318  -0.677997 -0.004282 -0.029793
6  5.961567 5.877566 -14.357309  0.000000 0.017351 -0.000000
7  10.132454 7.521427 -13.339898  -0.000000 0.017349 0.000001
8  7.071621 2.633332 -1.343428  -0.000000 0.000000 -0.000000
9  -7.215013 2.908772 21.442211  -0.192946 0.013320 -0.010221
10  -2.914598 -15.412411 -6.310894  -0.000000 0.017351 -0.000000
11  1.915933 -8.833014 13.424065  -0.000008 0.017349 -0.000001
12  5.659712 -11.449343 9.057108  -0.000000 0.017350 0.000000
13  1.189935 10.695254 -2.939701  -0.000000 0.034787 0.000000
14  -4.533790 -38.755428 12.164922  -0.000000 0.017350 -0.000000
15  4.302776 -8.152975 -1.947588  -0.000000 0.000000 0.000000
16  -0.160955 2.270950 5.513738  0.000000 -0.000000 0.000000
17  0.783688 1.087364 11.560622  0.000000 0.000000 0.000000
18  -0.017059 -0.034542 -0.654793  -0.000000 0.017350 0.000000
19  -0.669090 -0.281063 -16.582529  0.000000 0.017350 -0.000000
20  -0.054107 -0.368180 -0.390875  0.109679 0.001792 0.002000
21  2.926264 -1.135561 -24.857801  -0.000000 0.034787 -0.000000
22  0.176165 3.421212 -19.465685  -0.000000 0.017350 0.000000
23  0.214477 3.945333 -14.796880  -0.000000 0.017350 -0.000000
24  -0.127800 3.995613 -4.361926  0.000000 -0.000000 0.000000
25  -5.848763 -2.970826 -24.100035  -0.000000 0.017350 0.000000
26  0.392180 -8.798163 -12.680971  -0.000000 0.017349 -0.000000
27  1.845341 7.302804 -12.204831  0.000000 0.017350 0.000000
28  -0.506194 5.050746 -3.130172  -0.000000 -0.000000 0.000000
29  0.000009 -0.000000 206.122971  0.000000 -0.000000 0.000000
30  0.000000 0.000000 -0.000000  0.000000 -0.000000 0.000000
31  0.000000 0.000000 0.000000  0.000000 0.000000 0.000244
32  0.000000 0.000000 0.000000  0.000000 0.000000 0.000244
33  0.000000 0.000000 0.000000  0.000000 0.000000 0.000244
34  0.000000 0.000000 0.000000  0.000000 0.000000 0.000244
35  0.000000 0.000000 0.000000  0.000000 0.000000 0.000244
time 13
0  0.000000 0.000000 0.000000  0.000000 0.000000 0.000244
1  -0.853095 -0.026367 105.001045  0.563992 0.024601 -0.005814
2  0.076050 0.018673 0.486578  -0.020031 0.018468 -0.000530
3  0.681925 3.061764 25.766747  -0.000008 0.017350 -0.000000
4  -0.270203 4.643909 15.082950  -0.000000 -0.000000 -0.000000
5  7.861998 1.690541 20.553308  -0.685320 -0.004670 -0.030045
6  5.961567 5.877564 -14.357311  0.000000 0.017351 -0.000000
7  10.132453 7.521427 -13.339895  -0.000000 0.017349 0.000001
8  7.071621 2.633329 -1.343413  0.000000 -0.000000 -0.000000
9  -7.215014 2.908776 21.442215  -0.187482 0.013458 -0.009935
10  -2.914596 -15.412409 -6.310891  0.000000 0.017351 -0.000000
11  1.915931 -8.833018 13.424050  -0.000008 0.017349 -0.000001
12  5.659713 -11.449338 9.057116  -0.000000 0.017350 0.000000
13  1.189936 10.695256 -2.939720  -0.000000 0.034787 0.000000
14  -4.533796 -38.755444 12.164904  0.000000 0.017350 -0.000000
15  2.759450 -5.211216 -1.249040  -0.000000 0.000000 0.000000
16  -0.160953 2.270952 5.513734  -0.000000 -0.000000 0.000000
17  0.783688 1.087372 11.560627  0.000000 0.000000 0.000000
18  -0.017059 -0.034538 -0.654788  0.000000 0.017350 0.000000
19  -0.669090 -0.281077 -16.582533  -0.000000 0.017350 -0.000000
20  -0.054107 -0.368183 -0.390873  0.109679 0.001792 0.002000
21  2.926264 -1.135555 -24.857792  0.000000 0.034787 -0.000000
22  0.176165 3.421206 -19.465687  0.000000 0.017350 0.000000
23  0.214477 3.945328 -14.796874  -0.000000 0.017350 -0.000000
24  -0.127800 3.995607 -4.361931  -0.000000 -0.000000 0.000000
25  -5.848764 -2.970818 -24.100018  0.000000 0.017350 0.000000
26  0.392180 -8.798162 -12.680966  0.000000 0.017349 -0.000000
27  1.845342 7.302798 -12.204827  -0.000000 0.017350 0.000000
28  -0.506195 5.050756 -3.130160  0.000000 -0.000000 0.000000
29  0.000009 -0.000000 206.122971  0.000000 -0.000000 0.000000
30  0.000000 0.000000 -0.000000  0.000000 -0.000000 0.000000
31  0.000000 0.000000 0.000000  0.000000 0.000000 0.000244
32  0.000000 0.000000 0.000000  0.000000 0.000000 0.000244
33  0.000000 0.000000 0.000000  0.000000 0.000000 0.000244
34  0.000000 0.000000 0.000000  0.000000 0.000000 0.000244
35  0.000000 0.000000 0.000000  0.000000 0.000000 0.000244
time 14
0  0.000000 0.000000 0.000000  0.000000 0.000000 0.000244
1  -0.853095 -0.026367 105.001045  0.538060 0.024509 -0.006405
2  0.076050 0.018667 0.486565  -0.019945 0.018381 -0.000529
3  0.681925 3.061765 25.766752  -0.000008 0.017350 -0.000000
4  -0.270204 4.643907 15.082958  -0.000000 -0.000000 -0.000000
5  7.861997 1.690547 20.553324  -0.680832 -0.004516 -0.029811
6  5.961569 5.877566 -14.357308  0.000000 0.017351 -0.000000
7  10.132453 7.521426 -13.339911  -0.000000 0.017349 0.000001
8  7.071621 2.633332 -1.343407  -0.000000 -0.000000 -0.000000
9  -7.215015 2.908784 21.442225  -0.178551 0.013626 -0.009453
10  -2.914596 -15.412416 -6.310894  -0.000000 0.017351 0.000000
11  1.915931 -8.833013 13.424051  -0.000008 0.017349 -0.000001
12  5.659715 -11.449348 9.057096  -0.000000 0.017350 0.000000
13  1.189936 10.695251 -2.939725  -0.000000 0.034787 0.000000
14  -4.517922 -38.658951 12.124465  0.000000 0.017350 -0.000000
15  2.759449 -5.211235 -1.249014  -0.000000 0.000000 0.000000
16  -0.160954 2.270947 5.513736  -0.000000 -0.000000 0.000000
17  0.783688 1.087374 11.560637  0.000000 0.000000 -0.000000
18  -0.017059 -0.034536 -0.654791  -0.000000 0.017350 0.000000
19  -0.669091 -0.281071 -16.582544  -0.000000 0.017350 -0.000000
20  -0.054107 -0.368183 -0.390883  0.109679 0.001792 0.002000
21  2.926263 -1.135562 -24.857790  0.000000 0.034787 -0.000000
22  0.176164 3.421209 -19.465673  0.000000 0.017350 0.000000
23  0.214476 3.945327 -14.796880  -0.000000 0.017350 -0.000000
24  -0.127801 3.995608 -4.361935  -0.000000 0.000000 0.000000
25  -5.848763 -2.970828 -24.100016  0.000000 0.017350 0.000000
26  0.392180 -8.798157 -12.680977  -0.000000 0.017349 -0.000000
27  1.845342 7.302802 -12.204827  -0.000000 0.017350 0.000000
28  -0.506194 5.050752 -3.130170  -0.000000 -0.000000 0.000000
29  0.000009 -0.000000 206.122971  0.000000 -0.000000 0.000000
30  0.000000 0.000000 -0.000000  0.000000 -0.000000 0.000000
31  0.000000 0.000000 0.000000  0.000000 0.000000 0.000244
32  0.000000 0.000000 0.000000  0.000000 0.000000 0.000244
33  0.000000 0.000000 0.000000  0.000000 0.000000 0.000244
34  0.000000 0.000000 0.000000  0.000000 0.000000 0.000244
35  0.000000 0.000000 0.000000  0.000000 0.000000 0.000244
time 15
0  0.000000 0.000000 0.000000  0.000000 0.000000 0.000244
1  -0.853095 -0.026367 105.001045  0.509811 0.024293 -0.006961
2  0.076050 0.018669 0.486571  -0.019513 0.018295 -0.000524
3  0.681926 3.061769 25.766758  -0.000008 0.017350 -0.000000
4  -0.270204 4.643909 15.082966  0.000000 -0.000000 -0.000000
5  7.861998 1.690549 20.553324  -0.667847 -0.004043 -0.029297
6  5.961567 5.877567 -14.357306  0.000000 0.017351 0.000000
7  10.132452 7.521426 -13.339890  -0.000000 0.017349 0.000001
8  7.071622 2.633333 -1.343427  0.000000 -0.000000 -0.000000
9  -7.215014 2.908782 21.442213  -0.168845 0.013881 -0.008971
10  -2.914595 -15.412417 -6.310902  0.000000 0.017351 0.000000
11  1.915933 -8.833012 13.424047  -0.000008 0.017349 -0.000001
12  5.659715 -11.449346 9.057074  -0.000000 0.017350 0.000000
13  1.189936 10.695254 -2.939710  0.000000 0.034787 0.000000
14  -4.472397 -38.382099 12.008401  0.000000 0.017350 -0.000000
15  2.759475 -5.211400 -1.249045  -0.000000 0.000000 0.000000
16  -0.160954 2.270948 5.513724  -0.000000 -0.000000 0.000000
17  0.783688 1.087373 11.560629  -0.000000 0.000000 0.000000
18  -0.017059 -0.034536 -0.654789  0.000000 0.017350 0.000000
19  -0.669091 -0.281068 -16.582544  -0.000000 0.017350 -0.000000
20  -0.054107 -0.368182 -0.390876  0.109679 0.001792 0.002000
21  2.926264 -1.135558 -24.857794  -0.000000 0.034787 -0.000000
22  0.176165 3.421203 -19.465689  -0.000000 0.017350 0.000000
23  0.214477 3.945342 -14.796871  -0.000000 0.017350 0.000000
24  -0.127801 3.995606 -4.361932  -0.000000 0.000000 0.000000
25  -5.848763 -2.970825 -24.100023  -0.000000 0.017350 0.000000
26  0.392180 -8.798162 -12.680971  0.000000 0.017349 -0.000000
27  1.845343 7.302797 -12.204817  0.000000 0.017350 0.000000
28  -0.506194 5.050745 -3.130164  0.000000 -0.000000 0.000000
29  0.000009 -0.000000 206.122971  0.000000 -0.000000 0.000000
30  0.000000 0.000000 -0.000000  0.000000 -0.000000 0.000000
31  0.000000 0.000000 0.000000  0.000000 0.000000 0.000244
32  0.000000 0.000000 0.000000  0.000000 0.000000 0.000244
33  0.000000 0.000000 0.000000  0.000000 0.000000 0.000244
34  0.000000 0.000000 0.000000  0.000000 0.000000 0.000244
35  0.000000 0.000000 0.000000  0.000000 0.000000 0.000244
time 16
0  0.000000 0.000000 0.000000  0.000000 0.000000 0.000244
1  -0.853095 -0.026367 105.001045  0.479533 0.024058 -0.007537
2  0.076050 0.018680 0.486588  -0.018909 0.018295 -0.000518
3  0.681925 3.061769 25.766754  -0.000008 0.017350 -0.000000
4  -0.270205 4.643914 15.082982  0.000000 -0.000000 -0.000000
5  7.861997 1.690553 20.553333  -0.647330 -0.003412 -0.028355
6  5.961568 5.877567 -14.357315  0.000000 0.017351 0.000000
7  10.132454 7.521423 -13.339889  -0.000000 0.017349 0.000001
8  7.071623 2.633331 -1.343416  0.000000 -0.000000 -0.000000
9  -7.215014 2.908785 21.442217  -0.158448 0.014054 -0.008389
10  -2.914596 -15.412416 -6.310906  0.000000 0.017351 0.000000
11  1.915930 -8.833015 13.424041  -0.000008 0.017349 -0.000001
12  5.659715 -11.449340 9.057109  -0.000000 0.017350 0.000000
13  1.189934 10.695259 -2.939720  -0.000000 0.034787 0.000000
14  -4.400335 -37.943905 11.824713  0.000000 0.017350 -0.000000
15  2.759543 -5.211804 -1.249072  -0.000000 0.000000 0.000000
16  -0.160952 2.270952 5.513740  -0.000000 -0.000000 0.000000
17  0.783688 1.087378 11.560636  0.000000 0.000000 -0.000000
18  -0.017059 -0.034532 -0.654778  0.000000 0.017350 0.000000
19  -0.669090 -0.281061 -16.582516  0.000000 0.017350 -0.000000
20  -0.054107 -0.368177 -0.390859  0.109679 0.001792 0.002000
21  2.926264 -1.135556 -24.857790  0.000000 0.034787 -0.000000
22  0.176165 3.421209 -19.465683  0.000000 0.017350 0.000000
23  0.214476 3.945333 -14.796875  -0.000000 0.017350 -0.000000
24  -0.127801 3.995603 -4.361933  0.000000 0.000000 0.000000
25  -5.848763 -2.970823 -24.100018  0.000000 0.017350 0.000000
26  0.392178 -8.798162 -12.680966  0.000000 0.017349 -0.000000
27  1.845341 7.302798 -12.204823  -0.000000 0.017350 -0.000000
28  -0.506195 5.050748 -3.130165  0.000000 -0.000000 0.000000
29  0.000009 -0.000000 206.122971  0.000000 -0.000000 0.000000
30  0.000000 0.000000 -0.000000  0.000000 -0.000000 0.000000
31  0.000000 0.000000 0.000000  0.000000 0.000000 0.000244
32  0.000000 0.000000 0.000000  0.000000 0.000000 0.000244
33  0.000000 0.000000 0.000000  0.000000 0.000000 0.000244
34  0.000000 0.000000 0.000000  0.000000 0.000000 0.000244
35  0.000000 0.000000 0.000000  0.000000 0.000000 0.000244
time 17
0  0.000000 0.000000 0.000000  0.000000 0.000000 0.000244
1  -0.853095 -0.026367 105.001045  0.447595 0.023739 -0.008230
2  0.076050 0.018672 0.486581  -0.018132 0.018209 -0.000510
3  0.681926 3.061762 25.766750  -0.000008 0.017350 -0.000000
4  -0.270204 4.643913 15.082961  0.000000 -0.000000 -0.000000
5  7.861998 1.690549 20.553331  -0.620174 -0.002550 -0.027192
6  5.961567 5.877565 -14.357298  0.000000 0.017351 0.000000
7  10.132452 7.521427 -13.339896  -0.000000 0.017349 0.000001
8  7.071621 2.633329 -1.343422  0.000000 -0.000000 -0.000000
9  -7.215014 2.908780 21.442223  -0.147451 0.014310 -0.007808
10  -2.914595 -15.412412 -6.310892  0.000000 0.017351 -0.000000
11  1.915929 -8.833015 13.424063  -0.000008 0.017349 -0.000001
12  5.659714 -11.449344 9.057094  -0.000000 0.017350 0.000000
13  1.189934 10.695254 -2.939700  -0.000000 0.034787 0.000000
14  -4.304858 -37.363338 11.581307  0.000000 0.017350 -0.000000
15  2.759678 -5.212659 -1.249124  -0.000000 0.000000 0.000000
16  -0.160954 2.270949 5.513719  -0.000000 -0.000000 0.000000
17  0.783689 1.087367 11.560633  0.000000 0.000000 0.000000
18  -0.017059 -0.034535 -0.654780  0.000000 0.017350 0.000000
19  -0.669091 -0.281072 -16.582525  0.000000 0.017350 -0.000000
20  -0.054107 -0.368183 -0.390876  0.109679 0.001792 0.002000
21  2.926264 -1.135563 -24.857809  -0.000000 0.034787 -0.000000
22  0.176165 3.421204 -19.465687  -0.000000 0.017350 0.000000
23  0.214477 3.945343 -14.796880  -0.000000 0.017350 -0.000000
24  -0.127800 3.995609 -4.361933  -0.000000 0.000000 0.000000
25  -5.848763 -2.970829 -24.100027  -0.000000 0.017350 0.000000
26  0.392179 -8.798156 -12.680978  -0.000000 0.017349 -0.000000
27  1.845339 7.302801 -12.204821  0.000000 0.017350 0.000000
28  -0.506195 5.050746 -3.130163  0.000000 -0.000000 0.000000
29  0.000009 -0.000000 206.122971  0.000000 -0.000000 0.000000
30  0.000000 0.000000 -0.000000  0.000000 -0.000000 0.000000
31  0.000000 0.000000 0.000000  0.000000 0.000000 0.000244
32  0.000000 0.000000 0.000000  0.000000 0.000000 0.000244
33  0.000000 0.000000 0.000000  0.000000 0.000000 0.000244
34  0.000000 0.000000 0.000000  0.000000 0.000000 0.000244
35  0.000000 0.000000 0.000000  0.000000 0.000000 0.000244
time 18
0  0.000000 0.000000 0.000000  0.000000 0.000000 0.000244
1  -0.853095 -0.026367 105.001045  0.414449 0.023315 -0.008947
2  0.076050 0.018670 0.486579  -0.017183 0.018209 -0.000502
3  0.681925 3.061775 25.766764  -0.000008 0.017350 -0.000000
4  -0.270204 4.643920 15.082953  -0.000000 -0.000000 -0.000000
5  7.861998 1.690552 20.553328  -0.587273 -0.001487 -0.025793
6  5.961569 5.877566 -14.357302  0.000000 0.017351 0.000000
7  10.132456 7.521427 -13.339915  -0.000000 0.017349 0.000001
8  7.071624 2.633331 -1.343428  0.000000 -0.000000 -0.000000
9  -7.215014 2.908789 21.442226  -0.136111 0.014562 -0.007222
10  -2.914597 -15.412416 -6.310899  0.000000 0.017351 -0.000000
11  1.915932 -8.833017 13.424051  -0.000008 0.017349 -0.000001
12  5.659714 -11.449342 9.057101  -0.000000 0.017350 0.000000
13  1.189937 10.695259 -2.939714  -0.000000 0.034787 0.000000
14  -4.189087 -36.659348 11.286250  -0.000000 0.017350 -0.000000
15  2.759896 -5.214049 -1.249245  -0.000000 0.000000 0.000000
16  -0.160954 2.270949 5.513737  0.000000 -0.000000 0.000000
17  0.783688 1.087378 11.560640  0.000000 0.000000 -0.000000
18  -0.017059 -0.034541 -0.654793  0.000000 0.017350 0.000000
19  -0.669090 -0.281063 -16.582523  0.000000 0.017350 -0.000000
20  -0.054108 -0.368183 -0.390870  0.109679 0.001792 0.002000
21  2.926264 -1.135552 -24.857788  0.000000 0.034787 -0.000000
22  0.176164 3.421213 -19.465691  -0.000000 0.017350 0.000000
23  0.214476 3.945331 -14.796881  -0.000000 0.017350 -0.000000
24  -0.127801 3.995598 -4.361929  -0.000000 0.000000 0.000000
25  -5.848763 -2.970822 -24.100021  0.000000 0.017350 0.000000
26  0.392179 -8.798160 -12.680971  0.000000 0.017349 -0.000000
27  1.845341 7.302802 -12.204827  0.000000 0.017350 -0.000000
28  -0.506194 5.050746 -3.130171  -0.000000 -0.000000 0.000000
29  0.000009 -0.000000 206.122971  0.000000 -0.000000 0.000000
30  0.000000 0.000000 -0.000000  0.000000 -0.000000 0.000000
31  0.000000 0.000000 0.000000  0.000000 0.000000 0.000244
32  0.000000 0.000000 0.000000  0.000000 0.000000 0.000244
33  0.000000 0.000000 0.000000  0.000000 0.000000 0.000244
34  0.000000 0.000000 0.000000  0.000000 0.000000 0.000244
35  0.000000 0.000000 0.000000  0.000000 0.000000 0.000244
time 19
0  0.000000 0.000000 0.000000  0.000000 0.000000 0.000244
1  -0.853095 -0.026367 105.001045  0.380364 0.022954 -0.009646
2  0.076050 0.018670 0.486571  -0.016059 0.018210 -0.000405
3  0.681926 3.061764 25.766745  -0.000008 0.017350 -0.000000
4  -0.270204 4.643915 15.082949  -0.000000 -0.000000 -0.000000
5  7.861997 1.690549 20.553322  -0.549422 -0.000257 -0.024142
6  5.961568 5.877567 -14.357305  0.000000 0.017351 0.000000
7  10.132455 7.521424 -13.339898  -0.000000 0.017349 0.000001
8  7.071620 2.633332 -1.343423  0.000000 0.000000 -0.000000
9  -7.215013 2.908777 21.442207  -0.124430 0.014808 -0.006631
10  -2.914596 -15.412416 -6.310896  -0.000000 0.017351 -0.000000
11  1.915933 -8.833017 13.424062  -0.000008 0.017349 -0.000001
12  5.659712 -11.449344 9.057096  -0.000000 0.017350 0.000000
13  1.189936 10.695259 -2.939698  -0.000000 0.034787 0.000000
14  -4.056148 -35.850971 10.947390  0.000000 0.017350 -0.000000
15  2.760210 -5.216111 -1.249342  -0.000000 0.000000 0.000000
16  -0.160955 2.270945 5.513713  -0.000000 -0.000000 0.000000
17  0.783689 1.087367 11.560619  -0.000000 0.000000 -0.000000
18  -0.017059 -0.034541 -0.654793  0.000000 0.017350 0.000000
19  -0.669091 -0.281066 -16.582539  -0.000000 0.017350 -0.000000
20  -0.054107 -0.368181 -0.390873  0.109679 0.001792 0.002000
21  2.926264 -1.135560 -24.857803  -0.000000 0.034787 -0.000000
22  0.176165 3.421205 -19.465683  0.000000 0.017350 0.000000
23  0.214477 3.945333 -14.796877  -0.000000 0.017350 -0.000000
24  -0.127800 3.995604 -4.361928  0.000000 0.000000 0.000000
25  -5.848763 -2.970828 -24.100033  0.000000 0.017350 0.000000
26  0.392179 -8.798161 -12.680980  0.000000 0.017349 -0.000000
27  1.845341 7.302798 -12.204824  0.000000 0.017350 0.000000
28  -0.506195 5.050749 -3.130175  -0.000000 -0.000000 0.000000
29  0.000009 -0.000000 206.122971  0.000000 -0.000000 0.000000
30  0.000000 0.000000 -0.000000  0.000000 -0.000000 0.000000
31  0.000000 0.000000 0.000000  0.000000 0.000000 0.000244
32  0.000000 0.000000 0.000000  0.000000 0.000000 0.000244
33  0.000000 0.000000 0.000000  0.000000 0.000000 0.000244
34  0.000000 0.000000 0.000000  0.000000 0.000000 0.000244
35  0.000000 0.000000 0.000000  0.000000 0.000000 0.000244
time 20
0  0.000000 0.000000 0.000000  0.000000 0.000000 0.000244
1  -0.853095 -0.026367 105.001045  0.345777 0.022488 -0.010356
2  0.076050 0.018676 0.486578  -0.014851 0.018124 -0.000394
3  0.681926 3.061764 25.766739  -0.000008 0.017350 -0.000000
4  -0.270204 4.643911 15.082950  0.000000 -0.000000 -0.000000
5  7.861998 1.690551 20.553326  -0.507668 0.001101 -0.022223
6  5.961567 5.877563 -14.357308  0.000000 0.017351 0.000000
7  10.132453 7.521428 -13.339910  -0.000000 0.017349 0.000001
8  7.071623 2.633333 -1.343428  -0.000000 0.000000 -0.000000
9  -7.215014 2.908780 21.442213  -0.112579 0.015053 -0.005949
10  -2.914595 -15.412417 -6.310896  -0.000000 0.017351 0.000000
11  1.915931 -8.833014 13.424058  -0.000008 0.017349 -0.000001
12  5.659713 -11.449339 9.057112  -0.000000 0.017350 0.000000
13  1.189933 10.695255 -2.939720  0.000000 0.034787 0.000000
14  -3.909154 -34.957150 10.572687  -0.000000 0.017350 -0.000000
15  2.760655 -5.218994 -1.249574  -0.000000 0.000000 0.000000
16  -0.160954 2.270954 5.513755  -0.000000 -0.000000 0.000000
17  0.783688 1.087373 11.560632  -0.000000 0.000000 0.000000
18  -0.017059 -0.034533 -0.654790  0.000000 0.017350 0.000000
19  -0.669091 -0.281068 -16.582531  0.000000 0.017350 -0.000000
20  -0.054107 -0.368176 -0.390874  0.109679 0.001792 0.002000
21  2.926264 -1.135558 -24.857792  -0.000000 0.034787 -0.000000
22  0.176165 3.421211 -19.465689  0.000000 0.017350 0.000000
23  0.214477 3.945333 -14.796873  -0.000000 0.017350 -0.000000
24  -0.127800 3.995607 -4.361929  -0.000000 0.000000 0.000000
25  -5.848763 -2.970824 -24.100021  -0.000000 0.017350 0.000000
26  0.392180 -8.798162 -12.680980  -0.000000 0.017349 -0.000000
27  1.845341 7.302792 -12.204823  0.000000 0.017350 0.000000
28  -0.506195 5.050754 -3.130163  0.000000 -0.000000 0.000000
29  0.000009 -0.000000 206.122971  0.000000 -0.000000 0.000000
30  0.000000 0.000000 -0.000000  0.000000 -0.000000 0.000000
31  0.000000 0.000000 0.000000  0.000000 0.000000 0.000244
32  0.000000 0.000000 0.000000  0.000000 0.000000 0.000244
33  0.000000 0.000000 0.000000  0.000000 0.000000 0.000244
34  0.000000 0.000000 0.000000  0.000000 0.000000 0.000244
35  0.000000 0.000000 0.000000  0.000000 0.000000 0.000244
time 21
0  0.000000 0.000000 0.000000  0.000000 0.000000 0.000244
1  -0.853095 -0.026367 105.001045  0.311121 0.022005 -0.011054
2  0.076050 0.018674 0.486571  -0.013556 0.018125 -0.000382
3  0.681925 3.061762 25.766743  -0.000008 0.017350 -0.000000
4  -0.270205 4.643917 15.082974  0.000000 -0.000000 -0.000000
5  7.861996 1.690547 20.553312  -0.462679 0.002496 -0.020275
6  5.961568 5.877564 -14.357300  0.000000 0.017351 0.000000
7  10.132454 7.521424 -13.339895  -0.000000 0.017349 0.000001
8  7.071620 2.633330 -1.343415  0.000000 -0.000000 -0.000000
9  -7.215015 2.908779 21.442217  -0.100646 0.015287 -0.005351
10  -2.914596 -15.412411 -6.310900  0.000000 0.017351 -0.000000
11  1.915933 -8.833014 13.424042  -0.000008 0.017349 -0.000001
12  5.659717 -11.449339 9.057105  -0.000000 0.017350 0.000000
13  1.189934 10.695257 -2.939720  0.000000 0.034787 0.000000
14  -3.751246 -33.996906 10.170165  0.000000 0.017350 -0.000000
15  2.761262 -5.222833 -1.249851  0.000000 0.000000 0.000000
16  -0.160950 2.270950 5.513727  -0.000000 -0.000000 0.000000
17  0.783687 1.087367 11.560624  -0.000000 0.000000 0.000000
18  -0.017059 -0.034533 -0.654789  0.000000 0.017350 0.000000
19  -0.669090 -0.281072 -16.582535  0.000000 0.017350 -0.000000
20  -0.054107 -0.368183 -0.390883  0.109679 0.001792 0.002000
21  2.926264 -1.135564 -24.857807  0.000000 0.034787 -0.000000
22  0.176165 3.421210 -19.465668  0.000000 0.017350 0.000000
23  0.214477 3.945333 -14.796868  0.000000 0.017350 0.000000
24  -0.127800 3.995605 -4.361930  0.000000 0.000000 0.000000
25  -5.848763 -2.970831 -24.100039  0.000000 0.017350 0.000000
26  0.392179 -8.798164 -12.680972  0.000000 0.017349 -0.000000
27  1.845342 7.302798 -12.204826  -0.000000 0.017350 0.000000
28  -0.506194 5.050748 -3.130172  -0.000000 -0.000000 0.000000
29  0.000009 -0.000000 206.122971  0.000000 -0.000000 0.000000
30  0.000000 0.000000 -0.000000  0.000000 -0.000000 0.000000
31  0.000000 0.000000 0.000000  0.000000 0.000000 0.000244
32  0.000000 0.000000 0.000000  0.000000 0.000000 0.000244
33  0.000000 0.000000 0.000000  0.000000 0.000000 0.000244
34  0.000000 0.000000 0.000000  0.000000 0.000000 0.000244
35  0.000000 0.000000 0.000000  0.000000 0.000000 0.000244
time 22
0  0.000000 0.000000 0.000000  0.000000 0.000000 0.000244
1  -0.853095 -0.026367 105.001045  0.276646 0.021504 -0.011735
2  0.076050 0.018668 0.486565  -0.012174 0.018125 -0.000283
3  0.681926 3.061768 25.766745  -0.000008 0.017350 -0.000000
4  -0.270204 4.643917 15.082948  0.000000 -0.000000 -0.000000
5  7.861998 1.690552 20.553320  -0.415545 0.004009 -0.018224
6  5.961567 5.877563 -14.357306  0.000000 0.017351 0.000000
7  10.132454 7.521428 -13.339895  -0.000000 0.017349 0.000001
8  7.071621 2.633330 -1.343427  -0.000000 -0.000000 -0.000000
9  -7.215014 2.908787 21.442225  -0.088802 0.015518 -0.004664
10  -2.914596 -15.412417 -6.310900  -0.000000 0.017351 0.000000
11  1.915934 -8.833016 13.424045  -0.000008 0.017349 -0.000001
12  5.659713 -11.449334 9.057091  -0.000000 0.017350 0.000000
13  1.189935 10.695255 -2.939700  -0.000000 0.034787 0.000000
14  -3.585521 -32.989189 9.747775  0.000000 0.017350 -0.000000
15  2.762020 -5.227755 -1.250206  -0.000000 0.000000 0.000000
16  -0.160955 2.270949 5.513723  -0.000000 -0.000000 0.000000
17  0.783688 1.087373 11.560626  -0.000000 0.000000 0.000000
18  -0.017059 -0.034537 -0.654793  0.000000 0.017350 0.000000
19  -0.669090 -0.281069 -16.582533  -0.000000 0.017350 -0.000000
20  -0.054107 -0.368185 -0.390878  0.109679 0.001792 0.002000
21  2.926264 -1.135555 -24.857790  -0.000000 0.034787 -0.000000
22  0.176165 3.421208 -19.465683  0.000000 0.017350 0.000000
23  0.214477 3.945337 -14.796871  0.000000 0.017350 -0.000000
24  -0.127800 3.995609 -4.361927  0.000000 0.000000 0.000000
25  -5.848764 -2.970822 -24.100023  0.000000 0.017350 0.000000
26  0.392179 -8.798158 -12.680973  -0.000000 0.017349 -0.000000
27  1.845341 7.302798 -12.204828  0.000000 0.017350 0.000000
28  -0.506195 5.050750 -3.130169  0.000000 -0.000000 0.000000
29  0.000009 -0.000000 206.122971  0.000000 -0.000000 0.000000
30  0.000000 0.000000 -0.000000  0.000000 -0.000000 0.000000
31  0.000000 0.000000 0.000000  0.000000 0.000000 0.000244
32  0.000000 0.000000 0.000000  0.000000 0.000000 0.000244
33  0.000000 0.000000 0.000000  0.000000 0.000000 0.000244
34  0.000000 0.000000 0.000000  0.000000 0.000000 0.000244
35  0.000000 0.000000 0.000000  0.000000 0.000000 0.000244
time 23
0  0.000000 0.000000 0.000000  0.000000 0.000000 0.000244
1  -0.853095 -0.026367 105.001045  0.242776 0.021087 -0.012472
2  0.076050 0.018670 0.486568  -0.010706 0.018126 -0.000270
3  0.681926 3.061764 25.766754  -0.000008 0.017350 -0.000000
4  -0.270204 4.643909 15.082926  -0.000000 -0.000000 -0.000000
5  7.861999 1.690545 20.553328  -0.367061 0.005538 -0.016041
6  5.961568 5.877566 -14.357306  0.000000 0.017351 0.000000
7  10.132453 7.521424 -13.339900  -0.000000 0.017349 0.000001
8  7.071620 2.633331 -1.343431  -0.000000 -0.000000 -0.000000
9  -7.215014 2.908781 21.442223  -0.077221 0.015737 -0.004063
10  -2.914597 -15.412415 -6.310905  0.000000 0.017351 0.000000
11  1.915933 -8.833019 13.424049  -0.000008 0.017349 -0.000001
12  5.659717 -11.449338 9.057118  -0.000000 0.017350 0.000000
13  1.189935 10.695256 -2.939716  0.000000 0.034787 0.000000
14  -3.415125 -31.952997 9.313431  -0.000000 0.017350 -0.000000
15  2.762980 -5.233909 -1.250620  0.000000 0.000000 0.000000
16  -0.160950 2.270949 5.513745  -0.000000 -0.000000 0.000000
17  0.783688 1.087370 11.560636  -0.000000 0.000000 0.000000
18  -0.017059 -0.034535 -0.654785  0.000000 0.017350 0.000000
19  -0.669091 -0.281064 -16.582527  -0.000000 0.017350 -0.000000
20  -0.054107 -0.368183 -0.390881  0.109679 0.001792 0.002000
21  2.926264 -1.135557 -24.857792  -0.000000 0.034787 -0.000000
22  0.176165 3.421209 -19.465687  -0.000000 0.017350 0.000000
23  0.214477 3.945343 -14.796868  -0.000000 0.017350 -0.000000
24  -0.127800 3.995608 -4.361929  -0.000000 0.000000 0.000000
25  -5.848764 -2.970822 -24.100016  -0.000000 0.017350 0.000000
26  0.392179 -8.798157 -12.680970  0.000000 0.017349 -0.000000
27  1.845342 7.302800 -12.204827  0.000000 0.017350 0.000000
28  -0.506193 5.050753 -3.130165  0.000000 -0.000000 0.000000
29  0.000009 -0.000000 206.122971  0.000000 -0.000000 0.000000
30  0.000000 0.000000 -0.000000  0.000000 -0.000000 0.000000
31  0.000000 0.000000 0.000000  0.000000 0.000000 0.000244
32  0.000000 0.000000 0.000000  0.000000 0.000000 0.000244
33  0.000000 0.000000 0.000000  0.000000 0.000000 0.000244
34  0.000000 0.000000 0.000000  0.000000 0.000000 0.000244
35  0.000000 0.000000 0.000000  0.000000 0.000000 0.000244
time 24
0  0.000000 0.000000 0.000000  0.000000 0.000000 0.000244
1  -0.853095 -0.026367 105.001045  0.209931 0.020564 -0.013110
2  0.076050 0.018675 0.486563  -0.009325 0.018126 -0.000257
3  0.681926 3.061769 25.766747  -0.000008 0.017350 -0.000000
4  -0.270205 4.643920 15.082956  0.000000 -0.000000 -0.000000
5  7.861998 1.690552 20.553326  -0.318182 0.007123 -0.013907
6  5.961568 5.877567 -14.357307  0.000000 0.017351 0.000000
7  10.132453 7.521425 -13.339898  -0.000000 0.017349 0.000001
8  7.071621 2.633330 -1.343428  0.000000 -0.000000 -0.000000
9  -7.215014 2.908784 21.442217  -0.065902 0.016036 -0.003465
10  -2.914597 -15.412418 -6.310891  0.000000 0.017351 0.000000
11  1.915930 -8.833016 13.424044  -0.000008 0.017349 -0.000001
12  5.659714 -11.449340 9.057097  -0.000000 0.017350 0.000000
13  1.189934 10.695256 -2.939710  0.000000 0.034787 0.000000
14  -3.243157 -30.907320 8.875051  0.000000 0.017350 -0.000000
15  2.764149 -5.241409 -1.251113  -0.000000 0.000000 0.000000
16  -0.160954 2.270948 5.513752  -0.000000 -0.000000 0.000000
17  0.783688 1.087374 11.560632  0.000000 0.000000 0.000000
18  -0.017059 -0.034533 -0.654793  0.000000 0.017350 0.000000
19  -0.669091 -0.281069 -16.582548  0.000000 0.017350 -0.000000
20  -0.054108 -0.368178 -0.390877  0.109679 0.001792 0.002000
21  2.926264 -1.135558 -24.857809  -0.000000 0.034787 -0.000000
22  0.176165 3.421207 -19.465693  -0.000000 0.017350 0.000000
23  0.214477 3.945339 -14.796870  0.000000 0.017350 -0.000000
24  -0.127801 3.995608 -4.361931  0.000000 0.000000 0.000000
25  -5.848763 -2.970825 -24.100033  0.000000 0.017350 0.000000
26  0.392179 -8.798162 -12.680976  0.000000 0.017349 -0.000000
27  1.845341 7.302798 -12.204828  -0.000000 0.017350 0.000000
28  -0.506194 5.050747 -3.130169  0.000000 -0.000000 0.000000
29  0.000009 -0.000000 206.122971  0.000000 -0.000000 0.000000
30  0.000000 0.000000 -0.000000  0.000000 -0.000000 0.000000
31  0.000000 0.000000 0.000000  0.000000 0.000000 0.000244
32  0.000000 0.000000 0.000000  0.000000 0.000000 0.000244
33  0.000000 0.000000 0.000000  0.000000 0.000000 0.000244
34  0.000000 0.000000 0.000000  0.000000 0.000000 0.000244
35  0.000000 0.000000 0.000000  0.000000 0.000000 0.000244
time 25
0  0.000000 0.000000 0.000000  0.000000 0.000000 0.000244
1  -0.853095 -0.026367 105.001045  0.178357 0.020041 -0.013808
2  0.076050 0.018671 0.486580  -0.007856 0.018040 -0.000157
3  0.681926 3.061763 25.766748  -0.000008 0.017350 -0.000000
4  -0.270205 4.643917 15.082958  -0.000000 -0.000000 -0.000000
5  7.861997 1.690548 20.553339  -0.269752 0.008677 -0.011805
6  5.961567 5.877566 -14.357299  0.000000 0.017351 0.000000
7  10.132452 7.521427 -13.339884  -0.000000 0.017349 0.000001
8  7.071623 2.633330 -1.343427  0.000000 -0.000000 -0.000000
9  -7.215013 2.908779 21.442226  -0.055102 0.016241 -0.002866
10  -2.914596 -15.412416 -6.310893  -0.000000 0.017351 -0.000000
11  1.915932 -8.833014 13.424049  -0.000008 0.017349 -0.000001
12  5.659714 -11.449341 9.057105  -0.000000 0.017350 0.000000
13  1.189936 10.695255 -2.939722  0.000000 0.034787 0.000000
14  -3.072759 -29.871132 8.440693  0.000000 0.017350 -0.000000
15  2.765556 -5.250425 -1.251755  -0.000000 0.000000 0.000000
16  -0.160954 2.270951 5.513740  -0.000000 -0.000000 0.000000
17  0.783689 1.087371 11.560642  -0.000000 0.000000 0.000000
18  -0.017059 -0.034536 -0.654780  0.000000 0.017350 -0.000000
19  -0.669091 -0.281066 -16.582523  0.000000 0.017350 -0.000000
20  -0.054107 -0.368183 -0.390872  0.109679 0.001792 0.002000
21  2.926264 -1.135554 -24.857794  0.000000 0.034787 -0.000000
22  0.176165 3.421206 -19.465689  -0.000000 0.017350 0.000000
23  0.214477 3.945337 -14.796883  0.000000 0.017350 -0.000000
24  -0.127800 3.995603 -4.361928  0.000000 0.000000 0.000000
25  -5.848763 -2.970821 -24.100018  0.000000 0.017350 0.000000
26  0.392180 -8.798160 -12.680967  -0.000000 0.017349 -0.000000
27  1.845341 7.302798 -12.204828  0.000000 0.017350 0.000000
28  -0.506194 5.050749 -3.130170  0.000000 -0.000000 0.000000
29  0.000009 -0.000000 206.122971  0.000000 -0.000000 0.000000
30  0.000000 0.000000 -0.000000  0.000000 -0.000000 0.000000
31  0.000000 0.000000 0.000000  0.000000 0.000000 0.000244
32  0.000000 0.000000 0.000000  0.000000 0.000000 0.000244
33  0.000000 0.000000 0.000000  0.000000 0.000000 0.000244
34  0.000000 0.000000 0.000000  0.000000 0.000000 0.000244
35  0.000000 0.000000 0.000000  0.000000 0.000000 0.000244
time 26
0  0.000000 0.000000 0.000000  0.000000 0.000000 0.000244
1  -0.853095 -0.026367 105.001045  0.148559 0.019594 -0.014382
2  0.076050 0.018672 0.486563  -0.006475 0.018040 -0.000145
3  0.681926 3.061763 25.766727  -0.000008 0.017350 -0.000000
4  -0.270205 4.643917 15.082952  -0.000000 -0.000000 -0.000000
5  7.861998 1.690547 20.553314  -0.222607 0.010202 -0.009739
6  5.961566 5.877565 -14.357303  0.000000 0.017351 -0.000000
7  10.132454 7.521424 -13.339894  -0.000000 0.017349 0.000001
8  7.071621 2.633331 -1.343410  -0.000000 -0.000000 -0.000000
9  -7.215013 2.908779 21.442205  -0.044909 0.016438 -0.002355
10  -2.914596 -15.412415 -6.310903  -0.000000 0.017351 0.000000
11  1.915933 -8.833014 13.424044  -0.000008 0.017349 -0.000001
12  5.659714 -11.449337 9.057082  -0.000000 0.017350 0.000000
13  1.189935 10.695258 -2.939711  0.000000 0.034787 0.000000
14  -2.907037 -28.863420 8.018319  0.000000 0.017350 -0.000000
15  2.767214 -5.261069 -1.252557  -0.000000 0.000000 0.000000
16  -0.160953 2.270949 5.513713  -0.000000 -0.000000 0.000000
17  0.783689 1.087369 11.560620  -0.000000 0.000000 0.000000
18  -0.017059 -0.034536 -0.654791  0.000000 0.017350 0.000000
19  -0.669090 -0.281067 -16.582523  -0.000000 0.017350 -0.000000
20  -0.054107 -0.368181 -0.390876  0.109679 0.001792 0.002000
21  2.926264 -1.135558 -24.857790  -0.000000 0.034787 -0.000000
22  0.176165 3.421204 -19.465679  -0.000000 0.017350 0.000000
23  0.214477 3.945333 -14.796879  -0.000000 0.017350 -0.000000
24  -0.127800 3.995605 -4.361934  -0.000000 0.000000 0.000000
25  -5.848764 -2.970821 -24.100016  -0.000000 0.017350 0.000000
26  0.392179 -8.798162 -12.680976  -0.000000 0.017349 -0.000000
27  1.845342 7.302800 -12.204831  0.000000 0.017350 0.000000
28  -0.506194 5.050751 -3.130162  0.000000 -0.000000 0.000000
29  0.000009 -0.000000 206.122971  0.000000 -0.000000 0.000000
30  0.000000 0.000000 -0.000000  0.000000 -0.000000 0.000000
31  0.000000 0.000000 0.000000  0.000000 0.000000 0.000244
32  0.000000 0.000000 0.000000  0.000000 0.000000 0.000244
33  0.000000 0.000000 0.000000  0.000000 0.000000 0.000244
34  0.000000 0.000000 0.000000  0.000000 0.000000 0.000244
35  0.000000 0.000000 0.000000  0.000000 0.000000 0.000244
time 27
0  0.000000 0.000000 0.000000  0.000000 0.000000 0.000244
1  -0.853095 -0.026367 105.001045  0.120871 0.019150 -0.014926
2  0.076050 0.018671 0.486566  -0.005180 0.017954 -0.000133
3  0.681925 3.061767 25.766741  -0.000008 0.017350 -0.000000
4  -0.270205 4.643918 15.082973  -0.000000 -0.000000 -0.000000
5  7.861997 1.690549 20.553314  -0.177664 0.011611 -0.007794
6  5.961566 5.877565 -14.357293  0.000000 0.017351 0.000000
7  10.132456 7.521426 -13.339912  -0.000000 0.017349 0.000001
8  7.071623 2.633331 -1.343428  0.000000 -0.000000 -0.000000
9  -7.215014 2.908782 21.442217  -0.035408 0.016629 -0.001849
10  -2.914596 -15.412413 -6.310887  0.000000 0.017351 -0.000000
11  1.915933 -8.833014 13.424059  -0.000008 0.017349 -0.000001
12  5.659716 -11.449343 9.057093  -0.000000 0.017350 0.000000
13  1.189936 10.695256 -2.939707  0.000000 0.034787 0.000000
14  -2.749124 -27.903164 7.615757  0.000000 0.017350 -0.000000
15  2.769142 -5.273473 -1.253392  -0.000000 0.000000 0.000000
16  -0.160953 2.270949 5.513724  -0.000000 -0.000000 0.000000
17  0.783688 1.087371 11.560621  0.000000 0.000000 0.000000
18  -0.017059 -0.034535 -0.654788  0.000000 0.017350 0.000000
19  -0.669091 -0.281067 -16.582537  -0.000000 0.017350 -0.000000
20  -0.054107 -0.368181 -0.390874  0.109679 0.001792 0.002000
21  2.926264 -1.135561 -24.857801  -0.000000 0.034787 -0.000000
22  0.176165 3.421207 -19.465679  0.000000 0.017350 0.000000
23  0.214477 3.945335 -14.796873  -0.000000 0.017350 -0.000000
24  -0.127801 3.995606 -4.361923  0.000000 0.000000 0.000000
25  -5.848764 -2.970825 -24.100025  -0.000000 0.017350 0.000000
26  0.392180 -8.798162 -12.680984  -0.000000 0.017349 -0.000000
27  1.845341 7.302798 -12.204827  -0.000000 0.017350 0.000000
28  -0.506194 5.050750 -3.130168  0.000000 -0.000000 0.000000
29  0.000009 -0.000000 206.122971  0.000000 -0.000000 0.000000
30  0.000000 0.000000 -0.000000  0.000000 -0.000000 0.000000
31  0.000000 0.000000 0.000000  0.000000 0.000000 0.000244
32  0.000000 0.000000 0.000000  0.000000 0.000000 0.000244
33  0.000000 0.000000 0.000000  0.000000 0.000000 0.000244
34  0.000000 0.000000 0.000000  0.000000 0.000000 0.000244
35  0.000000 0.000000 0.000000  0.000000 0.000000 0.000244
time 28
0  0.000000 0.000000 0.000000  0.000000 0.000000 0.000244
1  -0.853095 -0.026367 105.001045  0.095712 0.018715 -0.015437
2  0.076050 0.018672 0.486563  -0.003971 0.017954 -0.000036
3  0.681926 3.061768 25.766747  -0.000008 0.017350 -0.000000
4  -0.270205 4.643918 15.082974  0.000000 -0.000000 -0.000000
5  7.861998 1.690549 20.553316  -0.135836 0.013008 -0.005903
6  5.961567 5.877565 -14.357308  0.000000 0.017351 0.000000
7  10.132452 7.521425 -13.339899  -0.000000 0.017349 0.000001
8  7.071619 2.633332 -1.343410  0.000000 -0.000000 -0.000000
9  -7.215014 2.908782 21.442211  -0.026771 0.016815 -0.001347
10  -2.914596 -15.412414 -6.310896  -0.000000 0.017351 0.000000
11  1.915931 -8.833017 13.424053  -0.000008 0.017349 -0.000001
12  5.659714 -11.449343 9.057079  -0.000000 0.017350 0.000000
13  1.189934 10.695257 -2.939716  0.000000 0.034787 0.000000
14  -2.602135 -27.009361 7.241097  0.000000 0.017350 -0.000000
15  2.771378 -5.287792 -1.254451  -0.000000 0.000000 0.000000
16  -0.160952 2.270948 5.513709  -0.000000 -0.000000 0.000000
17  0.783689 1.087373 11.560623  -0.000000 0.000000 -0.000000
18  -0.017059 -0.034535 -0.654789  0.000000 0.017350 0.000000
19  -0.669090 -0.281067 -16.582541  0.000000 0.017350 -0.000000
20  -0.054107 -0.368182 -0.390879  0.109679 0.001792 0.002000
21  2.926264 -1.135560 -24.857803  -0.000000 0.034787 -0.000000
22  0.176165 3.421206 -19.465681  -0.000000 0.017350 0.000000
23  0.214477 3.945337 -14.796878  -0.000000 0.017350 -0.000000
24  -0.127800 3.995607 -4.361924  -0.000000 0.000000 0.000000
25  -5.848763 -2.970826 -24.100027  -0.000000 0.017350 0.000000
26  0.392179 -8.798158 -12.680967  0.000000 0.017349 -0.000000
27  1.845341 7.302799 -12.204838  -0.000000 0.017350 0.000000
28  -0.506193 5.050750 -3.130171  0.000000 -0.000000 0.000000
29  0.000009 -0.000000 206.122971  0.000000 -0.000000 0.000000
30  0.000000 0.000000 -0.000000  0.000000 -0.000000 0.000000
31  0.000000 0.000000 0.000000  0.000000 0.000000 0.000244
32  0.000000 0.000000 0.000000  0.000000 0.000000 0.000244
33  0.000000 0.000000 0.000000  0.000000 0.000000 0.000244
34  0.000000 0.000000 0.000000  0.000000 0.000000 0.000244
35  0.000000 0.000000 0.000000  0.000000 0.000000 0.000244
time 29
0  0.000000 0.000000 0.000000  0.000000 0.000000 0.000244
1  -0.853095 -0.026367 105.001045  0.073332 0.018378 -0.015911
2  0.076050 0.018672 0.486580  -0.002849 0.017868 -0.000025
3  0.681925 3.061768 25.766750  -0.000008 0.017350 -0.000000
4  -0.270205 4.643919 15.082966  0.000000 -0.000000 -0.000000
5  7.861998 1.690550 20.553316  -0.098042 0.014224 -0.004241
6  5.961568 5.877565 -14.357307  0.000000 0.017351 0.000000
7  10.132454 7.521424 -13.339890  -0.000000 0.017349 0.000001
8  7.071624 2.633332 -1.343425  -0.000000 0.000000 -0.000000
9  -7.215014 2.908783 21.442217  -0.019085 0.016996 -0.000939
10  -2.914596 -15.412415 -6.310894  0.000000 0.017351 -0.000000
11  1.915932 -8.833014 13.424041  -0.000008 0.017349 -0.000001
12  5.659713 -11.449337 9.057108  -0.000000 0.017350 0.000000
13  1.189936 10.695260 -2.939726  0.000000 0.034787 0.000000
14  -2.469196 -26.200970 6.902210  0.000000 0.017350 -0.000000
15  2.773917 -5.304139 -1.255606  -0.000000 0.000000 0.000000
16  -0.160953 2.270947 5.513724  -0.000000 -0.000000 0.000000
17  0.783688 1.087373 11.560621  -0.000000 0.000000 0.000000
18  -0.017059 -0.034535 -0.654789  0.000000 0.017350 0.000000
19  -0.669090 -0.281067 -16.582523  0.000000 0.017350 -0.000000
20  -0.054107 -0.368181 -0.390868  0.109679 0.001792 0.002000
21  2.926264 -1.135559 -24.857775  -0.000000 0.034787 -0.000000
22  0.176165 3.421206 -19.465683  0.000000 0.017350 0.000000
23  0.214477 3.945337 -14.796874  -0.000000 0.017350 -0.000000
24  -0.127801 3.995607 -4.361931  -0.000000 0.000000 0.000000
25  -5.848763 -2.970824 -24.100004  0.000000 0.017350 0.000000
26  0.392179 -8.798162 -12.680964  0.000000 0.017349 -0.000000
27  1.845343 7.302800 -12.204828  -0.000000 0.017350 0.000000
28  -0.506195 5.050751 -3.130167  0.000000 -0.000000 0.000000
29  0.000009 -0.000000 206.122971  0.000000 -0.000000 0.000000
30  0.000000 0.000000 -0.000000  0.000000 -0.000000 0.000000
31  0.000000 0.000000 0.000000  0.000000 0.000000 0.000244
32  0.000000 0.000000 0.000000  0.000000 0.000000 0.000244
33  0.000000 0.000000 0.000000  0.000000 0.000000 0.000244
34  0.000000 0.000000 0.000000  0.000000 0.000000 0.000244
35  0.000000 0.000000 0.000000  0.000000 0.000000 0.000244
time 30
0  0.000000 0.000000 0.000000  0.000000 0.000000 0.000244
1  -0.853095 -0.026367 105.001045  0.054244 0.018060 -0.016349
2  0.076050 0.018672 0.486571  -0.001899 0.017781 -0.000017
3  0.681925 3.061767 25.766750  -0.000008 0.017350 -0.000000
4  -0.270204 4.643917 15.082952  0.000000 -0.000000 -0.000000
5  7.861997 1.690550 20.553337  -0.065118 0.015280 -0.002830
6  5.961568 5.877564 -14.357309  0.000000 0.017351 -0.000000
7  10.132454 7.521425 -13.339897  -0.000000 0.017349 0.000001
8  7.071623 2.633332 -1.343433  0.000000 -0.000000 -0.000000
9  -7.215014 2.908783 21.442232  -0.012522 0.017087 -0.000625
10  -2.914596 -15.412415 -6.310893  0.000000 0.017351 -0.000000
11  1.915934 -8.833016 13.424038  -0.000008 0.017349 -0.000001
12  5.659711 -11.449337 9.057106  -0.000000 0.017350 0.000000
13  1.189935 10.695258 -2.939702  0.000000 0.034787 0.000000
14  -2.353427 -25.496990 6.607096  0.000000 0.017350 -0.000000
15  2.776807 -5.322695 -1.256917  -0.000000 0.000000 0.000000
16  -0.160955 2.270950 5.513730  -0.000000 -0.000000 0.000000
17  0.783688 1.087372 11.560644  -0.000000 0.000000 -0.000000
18  -0.017059 -0.034536 -0.654786  0.000000 0.017350 0.000000
19  -0.669091 -0.281067 -16.582535  0.000000 0.017350 -0.000000
20  -0.054108 -0.368182 -0.390877  0.109679 0.001792 0.002000
21  2.926264 -1.135560 -24.857784  0.000000 0.034787 -0.000000
22  0.176165 3.421208 -19.465677  0.000000 0.017350 0.000000
23  0.214477 3.945334 -14.796875  -0.000000 0.017350 -0.000000
24  -0.127800 3.995607 -4.361926  -0.000000 0.000000 0.000000
25  -5.848764 -2.970826 -24.100016  0.000000 0.017350 0.000000
26  0.392180 -8.798158 -12.680957  0.000000 0.017349 -0.000000
27  1.845342 7.302800 -12.204833  -0.000000 0.017350 0.000000
28  -0.506194 5.050752 -3.130167  0.000000 -0.000000 0.000000
29  0.000009 -0.000000 206.122971  0.000000 -0.000000 0.000000
30  0.000000 0.000000 -0.000000  0.000000 -0.000000 0.000000
31  0.000000 0.000000 0.000000  0.000000 0.000000 0.000244
32  0.000000 0.000000 0.000000  0.000000 0.000000 0.000244
33  0.000000 0.000000 0.000000  0.000000 0.000000 0.000244
34  0.000000 0.000000 0.000000  0.000000 0.000000 0.000244
35  0.000000 0.000000 0.000000  0.000000 0.000000 0.000244
time 31
0  0.000000 0.000000 0.000000  0.000000 0.000000 0.000244
1  -0.853095 -0.026367 105.001045  0.038701 0.017763 -0.016665
2  0.076050 0.018672 0.486582  -0.001036 0.017695 -0.000009
3  0.681926 3.061767 25.766748  -0.000008 0.017350 -0.000000
4  -0.270205 4.643918 15.082975  0.000000 -0.000000 -0.000000
5  7.861998 1.690550 20.553329  -0.037909 0.016114 -0.001601
6  5.961566 5.877564 -14.357303  0.000000 0.017351 -0.000000
7  10.132454 7.521424 -13.339901  -0.000000 0.017349 0.000001
8  7.071623 2.633331 -1.343426  -0.000000 -0.000000 -0.000000
9  -7.215013 2.908783 21.442219  -0.007254 0.017176 -0.000321
10  -2.914597 -15.412416 -6.310898  0.000000 0.017351 0.000000
11  1.915931 -8.833014 13.424063  -0.000008 0.017349 -0.000001
12  5.659716 -11.449337 9.057083  -0.000000 0.017350 0.000000
13  1.189935 10.695259 -2.939717  0.000000 0.034787 0.000000
14  -2.257954 -24.916409 6.363723  0.000000 0.017350 -0.000000
15  2.780058 -5.343539 -1.258371  -0.000000 0.000000 0.000000
16  -0.160952 2.270948 5.513720  -0.000000 -0.000000 0.000000
17  0.783689 1.087372 11.560629  -0.000000 0.000000 -0.000000
18  -0.017059 -0.034536 -0.654791  0.000000 0.017350 0.000000
19  -0.669090 -0.281067 -16.582539  0.000000 0.017350 -0.000000
20  -0.054107 -0.368182 -0.390877  0.109679 0.001792 0.002000
21  2.926264 -1.135559 -24.857788  -0.000000 0.034787 -0.000000
22  0.176164 3.421206 -19.465681  0.000000 0.017350 0.000000
23  0.214477 3.945337 -14.796875  -0.000000 0.017350 -0.000000
24  -0.127800 3.995603 -4.361925  0.000000 0.000000 0.000000
25  -5.848764 -2.970826 -24.100018  -0.000000 0.017350 0.000000
26  0.392178 -8.798160 -12.680971  0.000000 0.017349 -0.000000
27  1.845340 7.302800 -12.204822  -0.000000 0.017350 0.000000
28  -0.506193 5.050750 -3.130170  0.000000 -0.000000 0.000000
29  0.000009 -0.000000 206.122971  0.000000 -0.000000 0.000000
30  0.000000 0.000000 -0.000000  0.000000 -0.000000 0.000000
31  0.000000 0.000000 0.000000  0.000000 0.000000 0.000244
32  0.000000 0.000000 0.000000  0.000000 0.000000 0.000244
33  0.000000 0.000000 0.000000  0.000000 0.000000 0.000244
34  0.000000 0.000000 0.000000  0.000000 0.000000 0.000244
35  0.000000 0.000000 0.000000  0.000000 0.000000 0.000244
time 32
0  0.000000 0.000000 0.000000  0.000000 0.000000 0.000244
1  -0.853095 -0.026367 105.001045  0.027132 0.017581 -0.016855
2  0.076050 0.018672 0.486576  -0.000432 0.017609 -0.000004
3  0.681926 3.061767 25.766727  -0.000008 0.017350 -0.000000
4  -0.270205 4.643919 15.082976  0.000000 -0.000000 -0.000000
5  7.861998 1.690550 20.553322  -0.017443 0.016826 -0.000751
6  5.961567 5.877564 -14.357296  0.000000 0.017351 0.000000
7  10.132455 7.521425 -13.339896  -0.000000 0.017349 0.000001
8  7.071622 2.633331 -1.343434  -0.000000 -0.000000 -0.000000
9  -7.215014 2.908783 21.442213  -0.003281 0.017263 -0.000115
10  -2.914595 -15.412415 -6.310902  0.000000 0.017351 0.000000
11  1.915929 -8.833016 13.424066  -0.000008 0.017349 -0.000001
12  5.659713 -11.449337 9.057091  -0.000000 0.017350 0.000000
13  1.189934 10.695259 -2.939739  0.000000 0.034787 0.000000
14  -2.185883 -24.478214 6.180058  0.000000 0.017350 -0.000000
15  2.783686 -5.366848 -1.259973  -0.000000 0.000000 0.000000
16  -0.160953 2.270949 5.513723  -0.000000 -0.000000 0.000000
17  0.783688 1.087372 11.560619  -0.000000 0.000000 0.000000
18  -0.017058 -0.034536 -0.654786  0.000000 0.017350 0.000000
19  -0.669090 -0.281067 -16.582537  0.000000 0.017350 -0.000000
20  -0.054107 -0.368182 -0.390867  0.109679 0.001792 0.002000
21  2.926264 -1.135556 -24.857794  -0.000000 0.034787 -0.000000
22  0.176165 3.421206 -19.465691  0.000000 0.017350 0.000000
23  0.214477 3.945333 -14.796880  -0.000000 0.017350 -0.000000
24  -0.127800 3.995605 -4.361926  0.000000 0.000000 0.000000
25  -5.848764 -2.970823 -24.100025  -0.000000 0.017350 0.000000
26  0.392180 -8.798160 -12.680976  0.000000 0.017349 -0.000000
27  1.845342 7.302799 -12.204832  -0.000000 0.017350 0.000000
28  -0.506195 5.050751 -3.130170  0.000000 -0.000000 0.000000
29  0.000009 -0.000000 206.122971  0.000000 -0.000000 0.000000
30  0.000000 0.000000 -0.000000  0.000000 -0.000000 0.000000
31  0.000000 0.000000 0.000000  0.000000 0.000000 0.000244
32  0.000000 0.000000 0.000000  0.000000 0.000000 0.000244
33  0.000000 0.000000 0.000000  0.000000 0.000000 0.000244
34  0.000000 0.000000 0.000000  0.000000 0.000000 0.000244
35  0.000000 0.000000 0.000000  0.000000 0.000000 0.000244
time 33
0  0.000000 0.000000 0.000000  0.000000 0.000000 0.000244
1  -0.853095 -0.026367 105.001045  0.019966 0.017435 -0.017005
2  0.076050 0.018672 0.486579  -0.000086 0.017522 -0.000001
3  0.681926 3.061767 25.766726  -0.000008 0.017350 -0.000000
4  -0.270205 4.643918 15.082981  0.000000 -0.000000 -0.000000
5  7.861998 1.690550 20.553316  -0.004490 0.017177 -0.000125
6  5.961568 5.877564 -14.357298  0.000000 0.017351 -0.000000
7  10.132454 7.521426 -13.339900  -0.000000 0.017349 0.000001
8  7.071623 2.633333 -1.343421  -0.000000 -0.000000 -0.000000
9  -7.215014 2.908783 21.442217  -0.000777 0.017350 -0.000007
10  -2.914598 -15.412415 -6.310902  0.000000 0.017351 0.000000
11  1.915932 -8.833015 13.424043  -0.000008 0.017349 -0.000001
12  5.659711 -11.449332 9.057097  -0.000000 0.017350 0.000000
13  1.189934 10.695255 -2.939723  0.000000 0.034787 0.000000
14  -2.140365 -24.201359 6.064020  0.000000 0.017350 -0.000000
15  2.787713 -5.392732 -1.261830  -0.000000 0.000000 0.000000
16  -0.160954 2.270951 5.513726  -0.000000 -0.000000 0.000000
17  0.783688 1.087372 11.560615  -0.000000 0.000000 0.000000
18  -0.017059 -0.034536 -0.654776  0.000000 0.017350 -0.000000
19  -0.669090 -0.281067 -16.582537  0.000000 0.017350 -0.000000
20  -0.054107 -0.368182 -0.390865  0.109679 0.001792 0.002000
21  2.926264 -1.135557 -24.857798  -0.000000 0.034787 -0.000000
22  0.176164 3.421209 -19.465677  0.000000 0.017350 0.000000
23  0.214477 3.945335 -14.796877  -0.000000 0.017350 -0.000000
24  -0.127800 3.995609 -4.361927  -0.000000 -0.000000 0.000000
25  -5.848764 -2.970823 -24.100023  0.000000 0.017350 0.000000
26  0.392180 -8.798159 -12.680978  -0.000000 0.017349 -0.000000
27  1.845341 7.302800 -12.204827  -0.000000 0.017350 0.000000
28  -0.506194 5.050750 -3.130161  0.000000 -0.000000 0.000000
29  0.000009 -0.000000 206.122971  0.000000 -0.000000 0.000000
30  0.000000 0.000000 -0.000000  0.000000 -0.000000 0.000000
31  0.000000 0.000000 0.000000  0.000000 0.000000 0.000244
32  0.000000 0.000000 0.000000  0.000000 0.000000 0.000244
33  0.000000 0.000000 0.000000  0.000000 0.000000 0.000244
34  0.000000 0.000000 0.000000  0.000000 0.000000 0.000244
35  0.000000 0.000000 0.000000  0.000000 0.000000 0.000244
time 34
0  0.000000 0.000000 0.000000  0.000000 0.000000 0.000244
1  -0.853095 -0.026367 105.001045  0.017462 0.017414 -0.017113
2  0.076050 0.018672 0.486563  0.000000 0.017350 0.000000
3  0.681925 3.061767 25.766752  -0.000008 0.017350 -0.000000
4  -0.270204 4.643917 15.082966  0.000000 -0.000000 -0.000000
5  7.861997 1.690549 20.553320  -0.000000 0.017350 -0.000000
6  5.961566 5.877565 -14.357297  0.000000 0.017351 -0.000000
7  10.132455 7.521424 -13.339898  -0.000000 0.017349 0.000001
8  7.071621 2.633330 -1.343427  -0.000000 -0.000000 -0.000000
9  -7.215014 2.908782 21.442223  0.000000 0.017350 -0.000000
10  -2.914597 -15.412416 -6.310909  0.000000 0.017351 -0.000000
11  1.915931 -8.833016 13.424075  -0.000008 0.017349 -0.000001
12  5.659714 -11.449338 9.057100  -0.000000 0.017350 0.000000
13  1.189935 10.695256 -2.939718  0.000000 0.034787 0.000000
14  -2.124489 -24.104866 6.023557  0.000000 0.017350 -0.000000
15  2.792167 -5.421335 -1.263836  -0.000000 0.000000 0.000000
16  -0.160952 2.270948 5.513734  -0.000000 -0.000000 0.000000
17  0.783688 1.087372 11.560631  0.000000 0.000000 0.000000
18  -0.017059 -0.034536 -0.654792  0.000000 0.017350 0.000000
19  -0.669090 -0.281067 -16.582523  0.000000 0.017350 -0.000000
20  -0.054107 -0.368182 -0.390878  0.109679 0.001792 0.002000
21  2.926264 -1.135557 -24.857801  -0.000000 0.034787 -0.000000
22  0.176164 3.421207 -19.465683  -0.000000 0.017350 0.000000
23  0.214477 3.945335 -14.796875  -0.000000 0.017350 -0.000000
24  -0.127800 3.995607 -4.361933  -0.000000 -0.000000 0.000000
25  -5.848764 -2.970824 -24.100029  0.000000 0.017350 0.000000
26  0.392178 -8.798161 -12.680973  0.000000 0.017349 -0.000000
27  1.845340 7.302800 -12.204823  -0.000000 0.017350 0.000000
28  -0.506195 5.050750 -3.130173  -0.000000 -0.000000 0.000000
29  0.000009 -0.000000 206.122971  0.000000 -0.000000 0.000000
30  0.000000 0.000000 -0.000000  0.000000 -0.000000 0.000000
31  0.000000 0.000000 0.000000  0.000000 0.000000 0.000244
32  0.000000 0.000000 0.000000  0.000000 0.000000 0.000244
33  0.000000 0.000000 0.000000  0.000000 0.000000 0.000244
34  0.000000 0.000000 0.000000  0.000000 0.000000 0.000244
35  0.000000 0.000000 0.000000  0.000000 0.000000 0.000244
end
