version 1
nodes
0 "m3bone_root" -1
1 "bone" 0
2 "bone_20" 1
3 "bone_19" 2
4 "Head Ref" 3
5 "bone_15" 2
6 "bone_14" 5
7 "bone_13" 6
8 "Hand Left Ref" 7
9 "bone_15111" 2
10 "bone_17" 9
11 "bone_18" 10
12 "bone_5" 11
13 "bone_2" 12
14 "bone_24999" 13
15 "Weapon Ref" 14
16 "Hand Right Ref" 11
17 "Chest Ref" 2
18 "bone_25" 1
19 "bone_23" 18
20 "bone_24" 1
21 "bone_7" 20
22 "bone_9" 21
23 "bone_11" 22
24 "Foot Left Ref" 23
25 "bone_6" 20
26 "bone_8" 25
27 "bone_10" 26
28 "Foot Right Ref" 27
29 "OverHead Ref" 0
30 "Origin Ref" 0
31 "_M3_Anim_Data" -1
32 "syamemaru2" -1
33 "syamemaru1" -1
34 "syamemaru3" -1
35 "syamemaru4" -1
end
skeleton
time 0
0  0.000000 0.000000 0.000000  0.000000 0.000000 0.000244
1  -0.853095 -0.026367 105.001045  0.017462 0.017414 -0.017113
2  0.076050 0.018672 0.486563  0.000000 0.017350 0.000000
3  0.681923 3.061770 25.766768  -0.000008 0.017350 -0.000000
4  -0.270204 4.643921 15.082966  0.000000 -0.000000 -0.000000
5  7.861995 1.690550 20.553318  -0.000000 0.017350 -0.000000
6  5.961565 5.877567 -14.357297  0.000000 0.017351 -0.000000
7  10.132448 7.521424 -13.339914  -0.000000 0.017349 0.000001
8  7.071617 2.633333 -1.343421  -0.000000 -0.000000 -0.000000
9  -7.215013 2.908782 21.442223  0.000000 0.017350 -0.000000
10  -2.914598 -15.412427 -6.310909  0.000000 0.017351 -0.000000
11  1.915929 -8.833021 13.424090  -0.000008 0.017349 -0.000001
12  5.659710 -11.449347 9.057100  -0.000000 0.017350 0.000000
13  1.189936 10.695263 -2.939703  0.000000 0.034787 0.000000
14  -2.124493 -24.104885 6.023572  0.000000 0.017350 -0.000000
15  2.759446 -5.211220 -1.249023  -0.000000 0.000000 0.000000
16  -0.160954 2.270954 5.513734  -0.000000 -0.000000 0.000000
17  0.783687 1.087372 11.560631  0.000000 0.000000 0.000000
18  -0.017059 -0.034536 -0.654792  0.000000 0.017350 0.000000
19  -0.669090 -0.281067 -16.582523  0.000000 0.017350 -0.000000
20  -0.054107 -0.368182 -0.390878  0.109679 0.001792 0.002000
21  2.926265 -1.135557 -24.857801  -0.000000 0.034787 -0.000000
22  0.176164 3.421205 -19.465685  -0.000000 0.017350 0.000000
23  0.214476 3.945335 -14.796871  -0.000000 0.017350 -0.000000
24  -0.127800 3.995609 -4.361937  -0.000000 -0.000000 0.000000
25  -5.848765 -2.970825 -24.100029  0.000000 0.017350 0.000000
26  0.392177 -8.798159 -12.680973  0.000000 0.017349 -0.000000
27  1.845341 7.302798 -12.204811  -0.000000 0.017350 0.000000
28  -0.506195 5.050750 -3.130177  -0.000000 -0.000000 0.000000
29  0.000009 -0.000000 206.122971  0.000000 -0.000000 0.000000
30  0.000000 0.000000 -0.000000  0.000000 -0.000000 0.000000
31  0.000000 0.000000 0.000000  0.000000 0.000000 0.000244
32  0.000000 0.000000 0.000000  0.000000 0.000000 0.000244
33  0.000000 0.000000 0.000000  0.000000 0.000000 0.000244
34  0.000000 0.000000 0.000000  0.000000 0.000000 0.000244
35  0.000000 0.000000 0.000000  0.000000 0.000000 0.000244
time 1
0  0.000000 0.000000 0.000000  0.000000 0.000000 0.000244
1  -0.853095 -0.026367 105.001045  -0.049879 0.016462 -0.018544
2  0.076050 0.018671 0.486580  -0.105818 0.014403 -0.003875
3  0.681924 3.061773 25.766726  -0.213923 0.009840 -0.008610
4  -0.270205 4.643920 15.082979  0.000000 -0.000000 -0.000000
5  7.861995 1.690549 20.553324  0.072786 0.020244 0.008598
6  5.961566 5.877568 -14.357284  0.000000 0.017351 -0.000000
7  10.132449 7.521426 -13.339934  -0.000000 0.017349 0.000001
8  7.071616 2.633332 -1.343410  -0.000000 -0.000000 -0.000000
9  -7.215012 2.908782 21.442211  0.163590 0.017898 0.009868
10  -2.914597 -15.412427 -6.310906  -0.047247 0.015378 -0.003299
11  1.915930 -8.833019 13.424069  0.109849 0.017247 0.010198
12  5.659709 -11.449345 9.057093  -0.000000 0.017350 0.000000
13  1.189932 10.695266 -2.939675  0.000000 0.034787 0.000000
14  -2.124495 -24.104877 6.023590  0.000000 0.017350 -0.000000
15  2.759453 -5.211220 -1.249009  -0.000000 0.000000 0.000000
16  -0.160954 2.270953 5.513720  -0.000000 -0.000000 0.000000
17  0.783687 1.087372 11.560623  0.000000 0.000000 0.000000
18  -0.017059 -0.034536 -0.654779  0.083094 0.018614 0.003193
19  -0.669090 -0.281067 -16.582533  -0.081627 0.015380 -0.004170
20  -0.054107 -0.368182 -0.390867  0.109679 0.001792 0.002000
21  2.926264 -1.135558 -24.857794  -0.176795 0.029027 -0.007859
22  0.176165 3.421205 -19.465689  -0.000000 0.017350 0.000000
23  0.214477 3.945336 -14.796879  -0.000000 0.017350 -0.000000
24  -0.127799 3.995608 -4.361940  0.000000 0.000000 0.000000
25  -5.848765 -2.970825 -24.100018  0.158538 0.018720 0.006336
26  0.392180 -8.798159 -12.680965  -0.000000 0.017349 -0.000000
27  1.845341 7.302798 -12.204825  -0.000000 0.017350 0.000000
28  -0.506195 5.050749 -3.130167  0.000000 -0.000000 0.000000
29  0.000009 -0.000000 206.122971  0.000000 -0.000000 0.000000
30  0.000000 0.000000 -0.000000  0.000000 -0.000000 0.000000
31  0.000000 0.000000 0.000000  0.000000 0.000000 0.000244
32  0.000000 0.000000 0.000000  0.000000 0.000000 0.000244
33  0.000000 0.000000 0.000000  0.000000 0.000000 0.000244
34  0.000000 0.000000 0.000000  0.000000 0.000000 0.000244
35  0.000000 0.000000 0.000000  0.000000 0.000000 0.000244
time 2
0  0.000000 0.000000 0.000000  0.000000 0.000000 0.000244
1  -0.853095 -0.026367 105.001045  -0.160544 0.014856 -0.020940
2  0.076050 0.018674 0.486566  -0.302366 0.010029 -0.009823
3  0.681924 3.061772 25.766750  -0.611370 -0.004081 -0.024690
4  -0.270205 4.643925 15.082965  -0.000000 -0.000000 -0.000000
5  7.861996 1.690546 20.553331  0.208043 0.021301 0.013767
6  5.961566 5.877569 -14.357299  0.000000 0.017351 -0.000000
7  10.132450 7.521423 -13.339914  -0.000000 0.017349 0.000001
8  7.071618 2.633336 -1.343417  -0.000000 -0.000000 -0.000000
9  -7.215012 2.908784 21.442215  0.450984 0.018974 0.026936
10  -2.914598 -15.412426 -6.310886  -0.165464 0.010385 -0.011601
11  1.915930 -8.833020 13.424089  0.313865 0.017143 0.029193
12  5.659711 -11.449344 9.057117  -0.000000 0.017350 0.000000
13  1.189934 10.695266 -2.939705  0.000000 0.034787 0.000000
14  -2.124495 -24.104879 6.023585  0.000000 0.017350 -0.000000
15  2.759448 -5.211214 -1.249057  -0.000000 0.000000 0.000000
16  -0.160953 2.270952 5.513734  -0.000000 -0.000000 0.000000
17  0.783687 1.087374 11.560627  -0.000000 0.000000 -0.000000
18  -0.017059 -0.034534 -0.654801  0.237523 0.020887 0.009273
19  -0.669090 -0.281066 -16.582533  -0.233230 0.011625 -0.012052
20  -0.054107 -0.368181 -0.390878  0.109679 0.001792 0.002000
21  2.926265 -1.135557 -24.857805  -0.505120 0.018359 -0.022479
22  0.176165 3.421207 -19.465685  -0.000000 0.017350 0.000000
23  0.214476 3.945335 -14.796877  0.000000 0.017350 0.000000
24  -0.127800 3.995609 -4.361938  0.000000 0.000000 0.000000
25  -5.848765 -2.970825 -24.100031  0.452943 0.021299 0.018284
26  0.392179 -8.798158 -12.680977  0.000000 0.017349 -0.000000
27  1.845341 7.302797 -12.204817  0.000000 0.017350 -0.000000
28  -0.506195 5.050752 -3.130172  0.000000 -0.000000 0.000000
29  0.000009 -0.000000 206.122971  0.000000 -0.000000 0.000000
30  0.000000 0.000000 -0.000000  0.000000 -0.000000 0.000000
31  0.000000 0.000000 0.000000  0.000000 0.000000 0.000244
32  0.000000 0.000000 0.000000  0.000000 0.000000 0.000244
33  0.000000 0.000000 0.000000  0.000000 0.000000 0.000244
34  0.000000 0.000000 0.000000  0.000000 0.000000 0.000244
35  0.000000 0.000000 0.000000  0.000000 0.000000 0.000244
time 3
0  0.000000 0.000000 0.000000  0.000000 0.000000 0.000244
1  -0.853095 -0.026367 105.001045  -0.218730 0.013985 -0.022116
2  0.076050 0.018669 0.486575  -0.408234 0.007802 -0.012986
3  0.681924 3.061780 25.766741  -0.825416 -0.011597 -0.033371
4  -0.270205 4.643922 15.082966  0.000000 -0.000000 -0.000000
5  7.861996 1.690560 20.553322  0.280864 0.021435 0.015497
6  5.961566 5.877567 -14.357307  0.000000 0.017351 -0.000000
7  10.132449 7.521427 -13.339929  -0.000000 0.017349 0.000001
8  7.071617 2.633330 -1.343418  0.000000 -0.000000 -0.000000
9  -7.215012 2.908784 21.442215  0.604159 0.019604 0.036038
10  -2.914599 -15.412427 -6.310896  -0.319061 0.003916 -0.022400
11  1.915932 -8.833024 13.424070  0.423773 0.017141 0.039360
12  5.659711 -11.449345 9.057113  -0.000000 0.017350 0.000000
13  1.189935 10.695270 -2.939688  0.000000 0.034787 0.000000
14  -2.124491 -24.104879 6.023575  0.000000 0.017350 -0.000000
15  2.759445 -5.211212 -1.249027  -0.000000 0.000000 0.000000
16  -0.160953 2.270954 5.513746  -0.000000 -0.000000 0.000000
17  0.783687 1.087378 11.560628  -0.000000 0.000000 0.000000
18  -0.017059 -0.034537 -0.654785  0.320735 0.022113 0.012496
19  -0.669091 -0.281067 -16.582535  -0.314806 0.009649 -0.016302
20  -0.054107 -0.368183 -0.390880  0.109679 0.001792 0.002000
21  2.926265 -1.135559 -24.857796  -0.681932 0.012658 -0.030412
22  0.176165 3.421211 -19.465691  0.000000 0.017350 0.000000
23  0.214477 3.945335 -14.796875  0.000000 0.017350 -0.000000
24  -0.127799 3.995609 -4.361931  -0.000000 0.000000 0.000000
25  -5.848765 -2.970826 -24.100018  0.611553 0.022809 0.024671
26  0.392179 -8.798157 -12.680977  -0.000000 0.017349 -0.000000
27  1.845341 7.302795 -12.204818  0.000000 0.017350 -0.000000
28  -0.506195 5.050746 -3.130179  -0.000000 -0.000000 0.000000
29  0.000009 -0.000000 206.122971  0.000000 -0.000000 0.000000
30  0.000000 0.000000 -0.000000  0.000000 -0.000000 0.000000
31  0.000000 0.000000 0.000000  0.000000 0.000000 0.000244
32  0.000000 0.000000 0.000000  0.000000 0.000000 0.000244
33  0.000000 0.000000 0.000000  0.000000 0.000000 0.000244
34  0.000000 0.000000 0.000000  0.000000 0.000000 0.000244
35  0.000000 0.000000 0.000000  0.000000 0.000000 0.000244
time 4
0  0.000000 0.000000 0.000000  0.000000 0.000000 0.000244
1  -0.853095 -0.026367 105.001045  -0.217167 0.014002 -0.022106
2  0.076050 0.018671 0.486572  -0.041947 0.010557 0.001160
3  0.681924 3.061775 25.766737  -0.819956 -0.011324 -0.033199
4  -0.270205 4.643919 15.082963  -0.000000 -0.000000 -0.000000
5  7.861996 1.690553 20.553310  0.279032 0.021461 0.015392
6  5.961566 5.877566 -14.357295  0.000000 0.017351 -0.000000
7  10.132451 7.521423 -13.339918  -0.000000 0.017349 0.000001
8  7.071618 2.633335 -1.343413  -0.000000 -0.000000 -0.000000
9  -7.215013 2.908787 21.442202  0.335721 0.016123 0.020067
10  -2.914598 -15.412425 -6.310908  -0.472769 -0.002582 -0.033207
11  1.915931 -8.833019 13.424078  0.413619 0.017398 0.038579
12  5.659708 -11.449345 9.057114  -0.000000 0.017350 0.000000
13  1.189934 10.695269 -2.939706  0.000000 0.034787 0.000000
14  -2.124494 -24.104879 6.023567  0.000000 0.017350 -0.000000
15  2.759442 -5.211219 -1.249032  -0.000000 0.000000 0.000000
16  -0.160955 2.270952 5.513745  -0.000000 -0.000000 0.000000
17  0.783687 1.087376 11.560610  0.000000 0.000000 -0.000000
18  -0.017059 -0.034537 -0.654786  0.318635 0.022041 0.012459
19  -0.669091 -0.281067 -16.582541  -0.312708 0.009679 -0.016206
20  -0.054107 -0.368184 -0.390873  0.109679 0.001792 0.002000
21  2.926265 -1.135557 -24.857794  -0.677630 0.012862 -0.030251
22  0.176165 3.421206 -19.465679  -0.000000 0.017350 0.000000
23  0.214477 3.945333 -14.796874  0.000000 0.017350 -0.000000
24  -0.127800 3.995607 -4.361932  -0.000000 0.000000 0.000000
25  -5.848765 -2.970825 -24.100027  0.607569 0.022802 0.024518
26  0.392180 -8.798163 -12.680977  0.000000 0.017349 -0.000000
27  1.845341 7.302796 -12.204822  0.000000 0.017350 0.000000
28  -0.506196 5.050750 -3.130176  0.000000 -0.000000 0.000000
29  0.000009 -0.000000 206.122971  0.000000 -0.000000 0.000000
30  0.000000 0.000000 -0.000000  0.000000 -0.000000 0.000000
31  0.000000 0.000000 0.000000  0.000000 0.000000 0.000244
32  0.000000 0.000000 0.000000  0.000000 0.000000 0.000244
33  0.000000 0.000000 0.000000  0.000000 0.000000 0.000244
34  0.000000 0.000000 0.000000  0.000000 0.000000 0.000244
35  0.000000 0.000000 0.000000  0.000000 0.000000 0.000244
time 5
0  0.000000 0.000000 0.000000  0.000000 0.000000 0.000244
1  -0.853095 -0.026367 105.001045  -0.213261 0.014131 -0.022087
2  0.076050 0.018671 0.486577  0.638240 0.015715 0.027556
3  0.681924 3.061759 25.766741  -0.805960 -0.010695 -0.032789
4  -0.270205 4.643920 15.082970  0.000000 -0.000000 -0.000000
5  7.861995 1.690547 20.553328  0.274322 0.021447 0.015073
6  5.961566 5.877562 -14.357299  -0.000000 0.017351 -0.000000
7  10.132450 7.521425 -13.339919  -0.000000 0.017349 0.000001
8  7.071617 2.633337 -1.343412  -0.000000 -0.000000 -0.000000
9  -7.215012 2.908779 21.442223  -0.162763 0.009708 -0.009452
10  -2.914599 -15.412425 -6.310898  -0.590918 -0.007566 -0.041460
11  1.915931 -8.833021 13.424087  0.394133 0.017891 0.036934
12  5.659711 -11.449345 9.057087  -0.000000 0.017350 0.000000
13  1.189935 10.695267 -2.939703  0.000000 0.034787 0.000000
14  -2.124491 -24.104883 6.023589  0.000000 0.017350 -0.000000
15  2.759450 -5.211228 -1.249028  -0.000000 0.000000 0.000000
16  -0.160953 2.270954 5.513700  -0.000000 -0.000000 0.000000
17  0.783687 1.087369 11.560636  0.000000 0.000000 0.000000
18  -0.017059 -0.034536 -0.654786  0.313212 0.022016 0.012216
19  -0.669090 -0.281066 -16.582533  -0.307292 0.009848 -0.015938
20  -0.054107 -0.368183 -0.390864  0.109679 0.001792 0.002000
21  2.926265 -1.135557 -24.857801  -0.666478 0.013335 -0.029827
22  0.176165 3.421207 -19.465691  0.000000 0.017350 0.000000
23  0.214477 3.945336 -14.796873  0.000000 0.017350 -0.000000
24  -0.127800 3.995611 -4.361935  -0.000000 0.000000 0.000000
25  -5.848765 -2.970825 -24.100021  0.597258 0.022839 0.024101
26  0.392179 -8.798157 -12.680967  0.000000 0.017349 -0.000000
27  1.845342 7.302796 -12.204823  -0.000000 0.017350 0.000000
28  -0.506195 5.050749 -3.130177  0.000000 -0.000000 0.000000
29  0.000009 -0.000000 206.122971  0.000000 -0.000000 0.000000
30  0.000000 0.000000 -0.000000  0.000000 -0.000000 0.000000
31  0.000000 0.000000 0.000000  0.000000 0.000000 0.000244
32  0.000000 0.000000 0.000000  0.000000 0.000000 0.000244
33  0.000000 0.000000 0.000000  0.000000 0.000000 0.000244
34  0.000000 0.000000 0.000000  0.000000 0.000000 0.000244
35  0.000000 0.000000 0.000000  0.000000 0.000000 0.000244
time 6
0  0.000000 0.000000 0.000000  0.000000 0.000000 0.000244
1  -0.853095 -0.026367 105.001045  -0.207966 0.014198 -0.021964
2  0.076049 0.018673 0.486573  1.004562 0.018592 0.041827
3  0.681924 3.061774 25.766745  -0.786772 -0.009763 -0.032305
4  -0.270205 4.643920 15.082959  0.000000 -0.000000 -0.000000
5  7.861996 1.690558 20.553320  0.267870 0.021359 0.014724
6  5.961565 5.877563 -14.357296  0.000000 0.017351 0.000000
7  10.132448 7.521429 -13.339919  -0.000000 0.017349 0.000001
8  7.071616 2.633329 -1.343424  -0.000000 -0.000000 -0.000000
9  -7.215014 2.908792 21.442219  -0.431146 0.006277 -0.025410
10  -2.914598 -15.412423 -6.310902  -0.638171 -0.009627 -0.044822
11  1.915931 -8.833021 13.424080  0.381982 0.018126 0.035860
12  5.659712 -11.449347 9.057088  -0.000000 0.017350 0.000000
13  1.189933 10.695268 -2.939677  0.000000 0.034787 0.000000
14  -2.124492 -24.104877 6.023597  0.000000 0.017350 -0.000000
15  2.759448 -5.211224 -1.249047  -0.000000 0.000000 0.000000
16  -0.160953 2.270953 5.513710  -0.000000 -0.000000 0.000000
17  0.783687 1.087378 11.560628  0.000000 0.000000 -0.000000
18  -0.017059 -0.034534 -0.654796  0.305782 0.021917 0.011937
19  -0.669091 -0.281067 -16.582527  -0.299869 0.010129 -0.015585
20  -0.054108 -0.368182 -0.390880  0.109679 0.001792 0.002000
21  2.926265 -1.135558 -24.857809  -0.651249 0.014055 -0.029345
22  0.176165 3.421210 -19.465689  -0.000000 0.017350 0.000000
23  0.214477 3.945331 -14.796876  0.000000 0.017350 0.000000
24  -0.127800 3.995607 -4.361930  -0.000000 0.000000 0.000000
25  -5.848764 -2.970825 -24.100042  0.583174 0.022859 0.023535
26  0.392180 -8.798161 -12.680979  -0.000000 0.017349 -0.000000
27  1.845342 7.302797 -12.204818  0.000000 0.017350 0.000000
28  -0.506197 5.050748 -3.130176  -0.000000 -0.000000 0.000000
29  0.000009 -0.000000 206.122971  0.000000 -0.000000 0.000000
30  0.000000 0.000000 -0.000000  0.000000 -0.000000 0.000000
31  0.000000 0.000000 0.000000  0.000000 0.000000 0.000244
32  0.000000 0.000000 0.000000  0.000000 0.000000 0.000244
33  0.000000 0.000000 0.000000  0.000000 0.000000 0.000244
34  0.000000 0.000000 0.000000  0.000000 0.000000 0.000244
35  0.000000 0.000000 0.000000  0.000000 0.000000 0.000244
time 7
0  0.000000 0.000000 0.000000  0.000000 0.000000 0.000244
1  -0.853095 -0.026367 105.001045  -0.202151 0.014271 -0.021837
2  0.076050 0.018672 0.486563  1.002298 0.018680 0.041730
3  0.681924 3.061762 25.766748  -0.765985 -0.008784 -0.031733
4  -0.270204 4.643919 15.082965  0.000000 -0.000000 -0.000000
5  7.861996 1.690545 20.553326  0.260812 0.021359 0.014380
6  5.961565 5.877578 -14.357300  -0.000000 0.017351 -0.000000
7  10.132449 7.521415 -13.339920  -0.000000 0.017349 0.000001
8  7.071618 2.633332 -1.343417  0.000000 -0.000000 -0.000000
9  -7.215013 2.908776 21.442221  -0.430615 0.006284 -0.025408
10  -2.914598 -15.412429 -6.310892  -0.637264 -0.009497 -0.044772
11  1.915933 -8.833018 13.424088  0.379782 0.018230 0.035501
12  5.659710 -11.449338 9.057083  -0.000000 0.017350 0.000000
13  1.189934 10.695265 -2.939727  0.000000 0.034787 0.000000
14  -2.124490 -24.104879 6.023576  0.000000 0.017350 -0.000000
15  3.153122 -5.979497 -1.427223  -0.000000 0.000000 0.000000
16  -0.160954 2.270952 5.513714  0.000000 -0.000000 0.000000
17  0.783687 1.087363 11.560631  0.000000 0.000000 -0.000000
18  -0.017059 -0.034536 -0.654793  0.297658 0.021918 0.011579
19  -0.669090 -0.281067 -16.582535  -0.291839 0.010328 -0.015215
20  -0.054107 -0.368181 -0.390881  0.109679 0.001792 0.002000
21  2.926265 -1.135557 -24.857786  -0.634695 0.014787 -0.028843
22  0.176165 3.421206 -19.465691  0.000000 0.017350 0.000000
23  0.214477 3.945333 -14.796872  -0.000000 0.017350 -0.000000
24  -0.127799 3.995610 -4.361935  -0.000000 0.000000 0.000000
25  -5.848764 -2.970825 -24.100014  0.567861 0.022911 0.022872
26  0.392178 -8.798158 -12.680962  0.000000 0.017349 -0.000000
27  1.845342 7.302796 -12.204821  -0.000000 0.017350 0.000000
28  -0.506196 5.050747 -3.130172  -0.000000 -0.000000 0.000000
29  0.000009 -0.000000 206.122971  0.000000 -0.000000 0.000000
30  0.000000 0.000000 -0.000000  0.000000 -0.000000 0.000000
31  0.000000 0.000000 0.000000  0.000000 0.000000 0.000244
32  0.000000 0.000000 0.000000  0.000000 0.000000 0.000244
33  0.000000 0.000000 0.000000  0.000000 0.000000 0.000244
34  0.000000 0.000000 0.000000  0.000000 0.000000 0.000244
35  0.000000 0.000000 0.000000  0.000000 0.000000 0.000244
time 8
0  0.000000 0.000000 0.000000  0.000000 0.000000 0.000244
1  -0.853095 -0.026367 105.001045  -0.196860 0.014423 -0.021721
2  0.076050 0.018672 0.486576  0.997476 0.018747 0.041567
3  0.681924 3.061773 25.766756  -0.746767 -0.007905 -0.031299
4  -0.270206 4.643920 15.082967  -0.000000 -0.000000 -0.000000
5  7.861996 1.690562 20.553329  0.254365 0.021278 0.013947
6  5.961567 5.877555 -14.357297  0.000000 0.017351 -0.000000
7  10.132448 7.521425 -13.339923  -0.000000 0.017349 0.000001
8  7.071615 2.633327 -1.343423  -0.000000 -0.000000 -0.000000
9  -7.215012 2.908784 21.442219  -0.429290 0.006337 -0.025235
10  -2.914597 -15.412419 -6.310897  -0.635085 -0.009368 -0.044536
11  1.915934 -8.833016 13.424095  0.378637 0.018182 0.035389
12  5.659710 -11.449344 9.057108  -0.000000 0.017350 0.000000
13  1.189936 10.695264 -2.939718  0.000000 0.034787 0.000000
14  -2.124492 -24.104879 6.023576  0.000000 0.017350 -0.000000
15  4.019192 -7.669700 -1.819225  -0.000000 0.000000 0.000000
16  -0.160955 2.270953 5.513736  -0.000000 -0.000000 0.000000
17  0.783688 1.087372 11.560628  -0.000000 0.000000 -0.000000
18  -0.017059 -0.034536 -0.654790  0.290236 0.021815 0.011302
19  -0.669091 -0.281068 -16.582523  -0.284426 0.010591 -0.014945
20  -0.054107 -0.368181 -0.390873  0.109679 0.001792 0.002000
21  2.926264 -1.135559 -24.857790  -0.619454 0.015410 -0.028315
22  0.176164 3.421205 -19.465691  -0.000000 0.017350 0.000000
23  0.214477 3.945333 -14.796883  0.000000 0.017350 -0.000000
24  -0.127800 3.995610 -4.361933  0.000000 0.000000 0.000000
25  -5.848764 -2.970825 -24.100021  0.553838 0.022916 0.022308
26  0.392178 -8.798159 -12.680967  -0.000000 0.017349 -0.000000
27  1.845341 7.302794 -12.204814  0.000000 0.017350 0.000000
28  -0.506195 5.050750 -3.130174  -0.000000 -0.000000 0.000000
29  0.000009 -0.000000 206.122971  0.000000 -0.000000 0.000000
30  0.000000 0.000000 -0.000000  0.000000 -0.000000 0.000000
31  0.000000 0.000000 0.000000  0.000000 0.000000 0.000244
32  0.000000 0.000000 0.000000  0.000000 0.000000 0.000244
33  0.000000 0.000000 0.000000  0.000000 0.000000 0.000244
34  0.000000 0.000000 0.000000  0.000000 0.000000 0.000244
35  0.000000 0.000000 0.000000  0.000000 0.000000 0.000244
time 9
0  0.000000 0.000000 0.000000  0.000000 0.000000 0.000244
1  -0.853095 -0.026367 105.001045  -0.192957 0.014465 -0.021693
2  0.076050 0.018672 0.486572  0.992658 0.018736 0.041364
3  0.681924 3.061770 25.766750  -0.732796 -0.007147 -0.030913
4  -0.270205 4.643922 15.082981  0.000000 -0.000000 -0.000000
5  7.861996 1.690552 20.553326  0.249664 0.021246 0.013715
6  5.961565 5.877577 -14.357303  0.000000 0.017351 0.000000
7  10.132451 7.521435 -13.339915  -0.000000 0.017349 0.000001
8  7.071613 2.633339 -1.343420  0.000000 -0.000000 -0.000000
9  -7.215013 2.908786 21.442219  -0.427966 0.006457 -0.025165
10  -2.914597 -15.412431 -6.310886  -0.632998 -0.009185 -0.044409
11  1.915931 -8.833015 13.424095  0.378196 0.018206 0.035300
12  5.659708 -11.449343 9.057096  -0.000000 0.017350 0.000000
13  1.189936 10.695266 -2.939719  0.000000 0.034787 0.000000
14  -2.124493 -24.104881 6.023569  -0.000000 0.017350 -0.000000
15  4.885273 -9.359904 -2.211226  -0.000000 0.000000 0.000000
16  -0.160954 2.270954 5.513720  -0.000000 -0.000000 0.000000
17  0.783687 1.087374 11.560628  0.000000 0.000000 -0.000000
18  -0.017059 -0.034535 -0.654792  0.284825 0.021785 0.011059
19  -0.669092 -0.281067 -16.582539  -0.279020 0.010753 -0.014672
20  -0.054107 -0.368181 -0.390873  0.109679 0.001792 0.002000
21  2.926265 -1.135557 -24.857803  -0.608319 0.015944 -0.027895
22  0.176165 3.421208 -19.465689  -0.000000 0.017350 0.000000
23  0.214476 3.945340 -14.796877  -0.000000 0.017350 -0.000000
24  -0.127799 3.995606 -4.361931  0.000000 0.000000 0.000000
25  -5.848765 -2.970824 -24.100021  0.543520 0.022934 0.021894
26  0.392179 -8.798161 -12.680973  0.000000 0.017349 -0.000000
27  1.845342 7.302798 -12.204819  0.000000 0.017350 -0.000000
28  -0.506196 5.050749 -3.130172  -0.000000 -0.000000 0.000000
29  0.000009 -0.000000 206.122971  0.000000 -0.000000 0.000000
30  0.000000 0.000000 -0.000000  0.000000 -0.000000 0.000000
31  0.000000 0.000000 0.000000  0.000000 0.000000 0.000244
32  0.000000 0.000000 0.000000  0.000000 0.000000 0.000244
33  0.000000 0.000000 0.000000  0.000000 0.000000 0.000244
34  0.000000 0.000000 0.000000  0.000000 0.000000 0.000244
35  0.000000 0.000000 0.000000  0.000000 0.000000 0.000244
time 10
0  0.000000 0.000000 0.000000  0.000000 0.000000 0.000244
1  -0.853095 -0.026367 105.001045  -0.191396 0.014482 -0.021682
2  0.076050 0.018674 0.486566  0.990496 0.018705 0.041303
3  0.681925 3.061762 25.766754  -0.727346 -0.006921 -0.030801
4  -0.270205 4.643919 15.082965  -0.000000 -0.000000 -0.000000
5  7.861996 1.690545 20.553335  0.247836 0.021269 0.013610
6  5.961565 5.877574 -14.357301  0.000000 0.017351 -0.000000
7  10.132449 7.521432 -13.339916  -0.000000 0.017349 0.000001
8  7.071616 2.633341 -1.343417  -0.000000 -0.000000 -0.000000
9  -7.215012 2.908772 21.442221  -0.427347 0.006483 -0.025079
10  -2.914598 -15.412425 -6.310899  -0.632090 -0.009112 -0.044249
11  1.915932 -8.833023 13.424098  0.378108 0.018208 0.035300
12  5.659710 -11.449340 9.057109  -0.000000 0.017350 0.000000
13  1.189934 10.695267 -2.939691  0.000000 0.034787 0.000000
14  -2.124493 -24.104883 6.023595  0.000000 0.017350 -0.000000
15  5.278938 -10.128181 -2.389422  -0.000000 0.000000 0.000000
16  -0.160952 2.270951 5.513729  -0.000000 -0.000000 0.000000
17  0.783688 1.087365 11.560636  0.000000 0.000000 -0.000000
18  -0.017059 -0.034532 -0.654803  0.282731 0.021723 0.010939
19  -0.669091 -0.281068 -16.582533  -0.276841 0.010867 -0.014587
20  -0.054107 -0.368180 -0.390877  0.109679 0.001792 0.002000
21  2.926264 -1.135557 -24.857798  -0.603979 0.016113 -0.027804
22  0.176165 3.421207 -19.465689  -0.000000 0.017350 0.000000
23  0.214477 3.945338 -14.796877  0.000000 0.017350 -0.000000
24  -0.127800 3.995606 -4.361932  0.000000 0.000000 0.000000
25  -5.848765 -2.970824 -24.100031  0.539486 0.022918 0.021741
26  0.392180 -8.798156 -12.680978  -0.000000 0.017349 -0.000000
27  1.845342 7.302799 -12.204820  -0.000000 0.017350 0.000000
28  -0.506195 5.050749 -3.130171  0.000000 -0.000000 0.000000
29  0.000009 -0.000000 206.122971  0.000000 -0.000000 0.000000
30  0.000000 0.000000 -0.000000  0.000000 -0.000000 0.000000
31  0.000000 0.000000 0.000000  0.000000 0.000000 0.000244
32  0.000000 0.000000 0.000000  0.000000 0.000000 0.000244
33  0.000000 0.000000 0.000000  0.000000 0.000000 0.000244
34  0.000000 0.000000 0.000000  0.000000 0.000000 0.000244
35  0.000000 0.000000 0.000000  0.000000 0.000000 0.000244
time 11
0  0.000000 0.000000 0.000000  0.000000 0.000000 0.000244
1  -0.853095 -0.026367 105.001045  -0.204146 0.014163 -0.021842
2  0.076050 0.018674 0.486580  1.004562 0.018592 0.041827
3  0.681924 3.061768 25.766743  -0.776042 -0.009252 -0.032215
4  -0.270206 4.643923 15.082986  0.000000 -0.000000 -0.000000
5  7.861995 1.690554 20.553326  0.263339 0.021415 0.014504
6  5.961567 5.877565 -14.357290  -0.000000 0.017351 0.000000
7  10.132450 7.521420 -13.339920  -0.000000 0.017349 0.000001
8  7.071620 2.633330 -1.343418  -0.000000 -0.000000 -0.000000
9  -7.215012 2.908784 21.442215  -0.431146 0.006277 -0.025410
10  -2.914598 -15.412431 -6.310888  -0.638171 -0.009627 -0.044822
11  1.915932 -8.833023 13.424093  0.381982 0.018126 0.035860
12  5.659711 -11.449342 9.057103  -0.000000 0.017350 0.000000
13  1.189935 10.695262 -2.939696  0.000000 0.034787 0.000000
14  -2.124489 -24.104885 6.023582  0.000000 0.017350 -0.000000
15  2.759455 -5.211212 -1.249030  -0.000000 0.000000 0.000000
16  -0.160954 2.270957 5.513742  -0.000000 -0.000000 0.000000
17  0.783687 1.087376 11.560621  -0.000000 0.000000 0.000000
18  -0.017059 -0.034534 -0.654783  0.300190 0.021891 0.011692
19  -0.669090 -0.281067 -16.582520  -0.294283 0.010284 -0.015399
20  -0.054107 -0.368180 -0.390874  0.109679 0.001792 0.002000
21  2.926265 -1.135557 -24.857790  -0.642332 0.014485 -0.029200
22  0.176165 3.421200 -19.465685  0.000000 0.017350 0.000000
23  0.214477 3.945336 -14.796871  -0.000000 0.017350 -0.000000
24  -0.127800 3.995606 -4.361933  0.000000 0.000000 0.000000
25  -5.848764 -2.970824 -24.100016  0.575602 0.022856 0.023151
26  0.392179 -8.798155 -12.680967  0.000000 0.017349 -0.000000
27  1.845343 7.302801 -12.204815  0.000000 0.017350 0.000000
28  -0.506194 5.050748 -3.130177  0.000000 -0.000000 0.000000
29  0.000009 -0.000000 206.122971  0.000000 -0.000000 0.000000
30  0.000000 0.000000 -0.000000  0.000000 -0.000000 0.000000
31  0.000000 0.000000 0.000000  0.000000 0.000000 0.000244
32  0.000000 0.000000 0.000000  0.000000 0.000000 0.000244
33  0.000000 0.000000 0.000000  0.000000 0.000000 0.000244
34  0.000000 0.000000 0.000000  0.000000 0.000000 0.000244
35  0.000000 0.000000 0.000000  0.000000 0.000000 0.000244
time 12
0  0.000000 0.000000 0.000000  0.000000 0.000000 0.000244
1  -0.853095 -0.026367 105.001045  -0.202498 0.014267 -0.021839
2  0.076050 0.018670 0.486570  0.997271 0.018482 0.041517
3  0.681924 3.061763 25.766752  -0.770452 -0.009032 -0.031921
4  -0.270205 4.643920 15.082960  0.000000 -0.000000 -0.000000
5  7.861995 1.690543 20.553333  0.261422 0.021354 0.014387
6  5.961566 5.877579 -14.357292  -0.000000 0.017351 -0.000000
7  10.132446 7.521418 -13.339922  -0.000000 0.017349 0.000001
8  7.071616 2.633340 -1.343414  0.000000 -0.000000 -0.000000
9  -7.215011 2.908768 21.442219  -0.428053 0.006353 -0.025231
10  -2.914598 -15.412429 -6.310894  -0.633539 -0.009415 -0.044516
11  1.915933 -8.833018 13.424079  0.379253 0.018139 0.035564
12  5.659709 -11.449342 9.057092  -0.000000 0.017350 0.000000
13  1.189936 10.695265 -2.939691  0.000000 0.034787 0.000000
14  -2.124492 -24.104881 6.023591  0.000000 0.017350 -0.000000
15  2.759454 -5.211223 -1.249026  -0.000000 0.000000 0.000000
16  -0.160955 2.270955 5.513725  -0.000000 -0.000000 0.000000
17  0.783688 1.087361 11.560633  0.000000 0.000000 0.000000
18  -0.017059 -0.034537 -0.654791  0.298006 0.021831 0.011570
19  -0.669091 -0.281067 -16.582521  -0.292189 0.010312 -0.015303
20  -0.054108 -0.368184 -0.390872  0.109679 0.001792 0.002000
21  2.926265 -1.135557 -24.857794  -0.637695 0.014716 -0.028947
22  0.176165 3.421199 -19.465693  0.000000 0.017350 0.000000
23  0.214477 3.945338 -14.796873  0.000000 0.017350 -0.000000
24  -0.127800 3.995612 -4.361933  0.000000 0.000000 0.000000
25  -5.848765 -2.970825 -24.100023  0.571366 0.022574 0.023005
26  0.392178 -8.798162 -12.680969  -0.000000 0.017349 -0.000000
27  1.845341 7.302797 -12.204820  -0.000000 0.017350 0.000000
28  -0.506195 5.050750 -3.130171  -0.000000 -0.000000 0.000000
29  0.000009 -0.000000 206.122971  0.000000 -0.000000 0.000000
30  0.000000 0.000000 -0.000000  0.000000 -0.000000 0.000000
31  0.000000 0.000000 0.000000  0.000000 0.000000 0.000244
32  0.000000 0.000000 0.000000  0.000000 0.000000 0.000244
33  0.000000 0.000000 0.000000  0.000000 0.000000 0.000244
34  0.000000 0.000000 0.000000  0.000000 0.000000 0.000244
35  0.000000 0.000000 0.000000  0.000000 0.000000 0.000244
time 13
0  0.000000 0.000000 0.000000  0.000000 0.000000 0.000244
1  -0.853095 -0.026367 105.001045  -0.197900 0.014326 -0.021720
2  0.076050 0.018673 0.486574  0.976373 0.018390 0.040653
3  0.681924 3.061760 25.766748  -0.754275 -0.008488 -0.031270
4  -0.270204 4.643923 15.082967  0.000000 -0.000000 -0.000000
5  7.861995 1.690537 20.553326  0.256021 0.021244 0.014136
6  5.961565 5.877566 -14.357291  0.000000 0.017351 0.000000
7  10.132450 7.521413 -13.339920  -0.000000 0.017349 0.000001
8  7.071615 2.633338 -1.343410  0.000000 -0.000000 -0.000000
9  -7.215013 2.908773 21.442213  -0.419135 0.006573 -0.024696
10  -2.914598 -15.412428 -6.310893  -0.620297 -0.008804 -0.043591
11  1.915933 -8.833017 13.424087  0.371246 0.018053 0.034834
12  5.659713 -11.449347 9.057114  -0.000000 0.017350 0.000000
13  1.189936 10.695262 -2.939703  0.000000 0.034787 0.000000
14  -2.124490 -24.104881 6.023561  0.000000 0.017350 -0.000000
15  2.759447 -5.211212 -1.249038  -0.000000 0.000000 0.000000
16  -0.160951 2.270954 5.513738  -0.000000 -0.000000 0.000000
17  0.783687 1.087361 11.560621  0.000000 0.000000 -0.000000
18  -0.017059 -0.034534 -0.654791  0.291720 0.021807 0.011318
19  -0.669091 -0.281067 -16.582537  -0.286082 0.010494 -0.014942
20  -0.054107 -0.368180 -0.390873  0.109679 0.001792 0.002000
21  2.926265 -1.135557 -24.857819  -0.624345 0.015068 -0.028356
22  0.176165 3.421206 -19.465683  -0.000000 0.017350 0.000000
23  0.214477 3.945339 -14.796871  -0.000000 0.017350 -0.000000
24  -0.127799 3.995614 -4.361933  -0.000000 0.000000 0.000000
25  -5.848765 -2.970825 -24.100031  0.559489 0.022260 0.022561
26  0.392180 -8.798159 -12.680971  0.000000 0.017349 -0.000000
27  1.845340 7.302798 -12.204822  -0.000000 0.017350 0.000000
28  -0.506196 5.050748 -3.130173  0.000000 -0.000000 0.000000
29  0.000009 -0.000000 206.122971  0.000000 -0.000000 0.000000
30  0.000000 0.000000 -0.000000  0.000000 -0.000000 0.000000
31  0.000000 0.000000 0.000000  0.000000 0.000000 0.000244
32  0.000000 0.000000 0.000000  0.000000 0.000000 0.000244
33  0.000000 0.000000 0.000000  0.000000 0.000000 0.000244
34  0.000000 0.000000 0.000000  0.000000 0.000000 0.000244
35  0.000000 0.000000 0.000000  0.000000 0.000000 0.000244
time 14
0  0.000000 0.000000 0.000000  0.000000 0.000000 0.000244
1  -0.853095 -0.026367 105.001045  -0.190614 0.014413 -0.021582
2  0.076050 0.018671 0.486573  0.943545 0.018330 0.039297
3  0.681924 3.061784 25.766739  -0.728906 -0.007579 -0.030277
4  -0.270205 4.643921 15.082972  0.000000 -0.000000 -0.000000
5  7.861995 1.690565 20.553310  0.247400 0.021090 0.013670
6  5.961565 5.877565 -14.357299  -0.000000 0.017351 -0.000000
7  10.132451 7.521427 -13.339914  -0.000000 0.017349 0.000001
8  7.071616 2.633339 -1.343423  -0.000000 -0.000000 -0.000000
9  -7.215013 2.908798 21.442207  -0.405024 0.006903 -0.023888
10  -2.914597 -15.412430 -6.310904  -0.599401 -0.007946 -0.042088
11  1.915930 -8.833020 13.424084  0.358765 0.018030 0.033624
12  5.659711 -11.449345 9.057094  -0.000000 0.017350 0.000000
13  1.189934 10.695271 -2.939723  0.000000 0.034787 0.000000
14  -2.124493 -24.104879 6.023580  0.000000 0.017350 -0.000000
15  2.759449 -5.211229 -1.249009  -0.000000 0.000000 0.000000
16  -0.160952 2.270955 5.513726  -0.000000 -0.000000 0.000000
17  0.783687 1.087385 11.560619  -0.000000 0.000000 -0.000000
18  -0.017059 -0.034538 -0.654791  0.281945 0.021642 0.010918
19  -0.669091 -0.281066 -16.582520  -0.276404 0.010711 -0.014475
20  -0.054107 -0.368182 -0.390874  0.109679 0.001792 0.002000
21  2.926264 -1.135558 -24.857798  -0.603336 0.015787 -0.027423
22  0.176165 3.421208 -19.465687  -0.000000 0.017350 0.000000
23  0.214476 3.945341 -14.796872  -0.000000 0.017350 -0.000000
24  -0.127799 3.995604 -4.361932  0.000000 0.000000 0.000000
25  -5.848765 -2.970825 -24.100021  0.540636 0.021921 0.021750
26  0.392179 -8.798161 -12.680976  0.000000 0.017349 -0.000000
27  1.845342 7.302797 -12.204811  0.000000 0.017350 0.000000
28  -0.506195 5.050752 -3.130167  0.000000 -0.000000 0.000000
29  0.000009 -0.000000 206.122971  0.000000 -0.000000 0.000000
30  0.000000 0.000000 -0.000000  0.000000 -0.000000 0.000000
31  0.000000 0.000000 0.000000  0.000000 0.000000 0.000244
32  0.000000 0.000000 0.000000  0.000000 0.000000 0.000244
33  0.000000 0.000000 0.000000  0.000000 0.000000 0.000244
34  0.000000 0.000000 0.000000  0.000000 0.000000 0.000244
35  0.000000 0.000000 0.000000  0.000000 0.000000 0.000244
time 15
0  0.000000 0.000000 0.000000  0.000000 0.000000 0.000244
1  -0.853095 -0.026367 105.001045  -0.181077 0.014531 -0.021341
2  0.076050 0.018672 0.486572  0.900038 0.018234 0.037473
3  0.681923 3.061775 25.766752  -0.695300 -0.006429 -0.028887
4  -0.270206 4.643922 15.082964  0.000000 -0.000000 -0.000000
5  7.861995 1.690551 20.553326  0.236000 0.020972 0.013004
6  5.961566 5.877577 -14.357299  -0.000000 0.017351 -0.000000
7  10.132449 7.521426 -13.339917  -0.000000 0.017349 0.000001
8  7.071617 2.633334 -1.343427  -0.000000 -0.000000 -0.000000
9  -7.215013 2.908777 21.442209  -0.386360 0.007409 -0.022823
10  -2.914596 -15.412427 -6.310891  -0.571826 -0.006756 -0.040123
11  1.915931 -8.833021 13.424094  0.342264 0.018017 0.032110
12  5.659710 -11.449348 9.057077  -0.000000 0.017350 0.000000
13  1.189934 10.695264 -2.939704  0.000000 0.034787 0.000000
14  -2.124492 -24.104879 6.023582  0.000000 0.017350 -0.000000
15  2.759453 -5.211218 -1.249061  -0.000000 0.000000 0.000000
16  -0.160956 2.270951 5.513721  -0.000000 -0.000000 0.000000
17  0.783687 1.087373 11.560625  0.000000 0.000000 0.000000
18  -0.017059 -0.034534 -0.654792  0.268954 0.021405 0.010474
19  -0.669091 -0.281067 -16.582525  -0.263683 0.010979 -0.013733
20  -0.054108 -0.368181 -0.390874  0.109679 0.001792 0.002000
21  2.926265 -1.135558 -24.857800  -0.575548 0.016650 -0.026174
22  0.176165 3.421206 -19.465689  -0.000000 0.017350 0.000000
23  0.214477 3.945333 -14.796880  0.000000 0.017350 -0.000000
24  -0.127799 3.995606 -4.361940  0.000000 0.000000 0.000000
25  -5.848765 -2.970826 -24.100021  0.515669 0.021571 0.020776
26  0.392179 -8.798160 -12.680970  0.000000 0.017349 -0.000000
27  1.845341 7.302797 -12.204820  0.000000 0.017350 0.000000
28  -0.506194 5.050750 -3.130167  -0.000000 -0.000000 0.000000
29  0.000009 -0.000000 206.122971  0.000000 -0.000000 0.000000
30  0.000000 0.000000 -0.000000  0.000000 -0.000000 0.000000
31  0.000000 0.000000 0.000000  0.000000 0.000000 0.000244
32  0.000000 0.000000 0.000000  0.000000 0.000000 0.000244
33  0.000000 0.000000 0.000000  0.000000 0.000000 0.000244
34  0.000000 0.000000 0.000000  0.000000 0.000000 0.000244
35  0.000000 0.000000 0.000000  0.000000 0.000000 0.000244
time 16
0  0.000000 0.000000 0.000000  0.000000 0.000000 0.000244
1  -0.853095 -0.026367 105.001045  -0.169464 0.014670 -0.021085
2  0.076050 0.018672 0.486580  0.847594 0.018176 0.035284
3  0.681924 3.061776 25.766758  -0.654785 -0.005040 -0.027187
4  -0.270205 4.643922 15.082989  0.000000 -0.000000 -0.000000
5  7.861995 1.690548 20.553329  0.222174 0.020785 0.012220
6  5.961567 5.877568 -14.357283  0.000000 0.017351 0.000000
7  10.132451 7.521408 -13.339920  -0.000000 0.017349 0.000001
8  7.071619 2.633331 -1.343420  0.000000 -0.000000 -0.000000
9  -7.215012 2.908782 21.442215  -0.363778 0.007986 -0.021480
10  -2.914599 -15.412427 -6.310903  -0.538450 -0.005419 -0.037816
11  1.915933 -8.833024 13.424090  0.322282 0.017918 0.030198
12  5.659709 -11.449345 9.057095  -0.000000 0.017350 0.000000
13  1.189936 10.695262 -2.939723  0.000000 0.034787 0.000000
14  -2.124493 -24.104876 6.023555  -0.000000 0.017350 -0.000000
15  2.759448 -5.211220 -1.249012  -0.000000 0.000000 0.000000
16  -0.160956 2.270956 5.513725  -0.000000 -0.000000 0.000000
17  0.783687 1.087373 11.560636  -0.000000 0.000000 0.000000
18  -0.017059 -0.034536 -0.654778  0.253274 0.021198 0.009835
19  -0.669091 -0.281068 -16.582541  -0.248276 0.011341 -0.012985
20  -0.054108 -0.368183 -0.390857  0.109679 0.001792 0.002000
21  2.926265 -1.135557 -24.857798  -0.541958 0.017706 -0.024629
22  0.176164 3.421208 -19.465694  0.000000 0.017350 0.000000
23  0.214477 3.945334 -14.796878  0.000000 0.017350 0.000000
24  -0.127800 3.995606 -4.361933  -0.000000 0.000000 0.000000
25  -5.848764 -2.970824 -24.100025  0.485621 0.021209 0.019572
26  0.392179 -8.798154 -12.680960  -0.000000 0.017349 -0.000000
27  1.845343 7.302800 -12.204816  -0.000000 0.017350 0.000000
28  -0.506194 5.050752 -3.130172  -0.000000 -0.000000 0.000000
29  0.000009 -0.000000 206.122971  0.000000 -0.000000 0.000000
30  0.000000 0.000000 -0.000000  0.000000 -0.000000 0.000000
31  0.000000 0.000000 0.000000  0.000000 0.000000 0.000244
32  0.000000 0.000000 0.000000  0.000000 0.000000 0.000244
33  0.000000 0.000000 0.000000  0.000000 0.000000 0.000244
34  0.000000 0.000000 0.000000  0.000000 0.000000 0.000244
35  0.000000 0.000000 0.000000  0.000000 0.000000 0.000244
time 17
0  0.000000 0.000000 0.000000  0.000000 0.000000 0.000244
1  -0.853095 -0.026367 105.001045  -0.156213 0.014908 -0.020821
2  0.076050 0.018673 0.486570  0.787526 0.018083 0.032751
3  0.681925 3.061768 25.766737  -0.608392 -0.003489 -0.025233
4  -0.270204 4.643921 15.082979  0.000000 -0.000000 -0.000000
5  7.861995 1.690549 20.553322  0.206449 0.020513 0.011411
6  5.961565 5.877574 -14.357299  -0.000000 0.017351 -0.000000
7  10.132450 7.521427 -13.339911  -0.000000 0.017349 0.000001
8  7.071615 2.633344 -1.343421  -0.000000 -0.000000 -0.000000
9  -7.215012 2.908784 21.442211  -0.338002 0.008679 -0.019957
10  -2.914598 -15.412428 -6.310900  -0.500328 -0.003804 -0.035111
11  1.915932 -8.833014 13.424065  0.299451 0.017849 0.028096
12  5.659709 -11.449345 9.057110  -0.000000 0.017350 0.000000
13  1.189934 10.695264 -2.939695  0.000000 0.034787 0.000000
14  -2.124493 -24.104885 6.023586  0.000000 0.017350 -0.000000
15  2.759444 -5.211209 -1.249040  -0.000000 0.000000 0.000000
16  -0.160956 2.270954 5.513743  -0.000000 -0.000000 0.000000
17  0.783688 1.087375 11.560623  -0.000000 0.000000 -0.000000
18  -0.017059 -0.034536 -0.654785  0.235349 0.020907 0.009165
19  -0.669091 -0.281068 -16.582527  -0.230711 0.011811 -0.012057
20  -0.054107 -0.368181 -0.390878  0.109679 0.001792 0.002000
21  2.926265 -1.135558 -24.857800  -0.503617 0.018897 -0.022866
22  0.176165 3.421208 -19.465691  -0.000000 0.017350 0.000000
23  0.214477 3.945333 -14.796877  0.000000 0.017350 -0.000000
24  -0.127799 3.995608 -4.361945  0.000000 -0.000000 0.000000
25  -5.848764 -2.970825 -24.100037  0.451254 0.020894 0.018170
26  0.392178 -8.798162 -12.680979  0.000000 0.017349 -0.000000
27  1.845340 7.302799 -12.204815  0.000000 0.017350 0.000000
28  -0.506195 5.050751 -3.130172  0.000000 -0.000000 0.000000
29  0.000009 -0.000000 206.122971  0.000000 -0.000000 0.000000
30  0.000000 0.000000 -0.000000  0.000000 -0.000000 0.000000
31  0.000000 0.000000 0.000000  0.000000 0.000000 0.000244
32  0.000000 0.000000 0.000000  0.000000 0.000000 0.000244
33  0.000000 0.000000 0.000000  0.000000 0.000000 0.000244
34  0.000000 0.000000 0.000000  0.000000 0.000000 0.000244
35  0.000000 0.000000 0.000000  0.000000 0.000000 0.000244
time 18
0  0.000000 0.000000 0.000000  0.000000 0.000000 0.000244
1  -0.853095 -0.026367 105.001045  -0.141670 0.015078 -0.020454
2  0.076050 0.018670 0.486568  0.721460 0.018007 0.030042
3  0.681923 3.061769 25.766743  -0.557395 -0.001764 -0.023108
4  -0.270204 4.643920 15.082970  0.000000 -0.000000 -0.000000
5  7.861995 1.690561 20.553335  0.189174 0.020255 0.010419
6  5.961566 5.877558 -14.357300  -0.000000 0.017351 -0.000000
7  10.132448 7.521430 -13.339927  -0.000000 0.017349 0.000001
8  7.071615 2.633343 -1.343411  -0.000000 -0.000000 -0.000000
9  -7.215014 2.908788 21.442211  -0.309660 0.009384 -0.018239
10  -2.914598 -15.412426 -6.310894  -0.458402 -0.002005 -0.032151
11  1.915932 -8.833020 13.424084  0.274304 0.017799 0.025723
12  5.659707 -11.449346 9.057119  -0.000000 0.017350 0.000000
13  1.189934 10.695269 -2.939702  0.000000 0.034787 0.000000
14  -2.124495 -24.104877 6.023592  0.000000 0.017350 -0.000000
15  2.759446 -5.211214 -1.249048  -0.000000 0.000000 0.000000
16  -0.160957 2.270953 5.513751  -0.000000 -0.000000 0.000000
17  0.783686 1.087378 11.560630  0.000000 0.000000 0.000000
18  -0.017059 -0.034536 -0.654801  0.215531 0.020624 0.008396
19  -0.669090 -0.281067 -16.582523  -0.211340 0.012285 -0.011025
20  -0.054107 -0.368182 -0.390890  0.109679 0.001792 0.002000
21  2.926264 -1.135558 -24.857794  -0.461384 0.020254 -0.020984
22  0.176165 3.421201 -19.465687  0.000000 0.017350 0.000000
23  0.214477 3.945337 -14.796872  -0.000000 0.017350 -0.000000
24  -0.127800 3.995608 -4.361934  0.000000 0.000000 0.000000
25  -5.848765 -2.970825 -24.100021  0.413404 0.020499 0.016647
26  0.392179 -8.798155 -12.680966  -0.000000 0.017349 -0.000000
27  1.845342 7.302796 -12.204819  -0.000000 0.017350 0.000000
28  -0.506195 5.050756 -3.130175  -0.000000 -0.000000 0.000000
29  0.000009 -0.000000 206.122971  0.000000 -0.000000 0.000000
30  0.000000 0.000000 -0.000000  0.000000 -0.000000 0.000000
31  0.000000 0.000000 0.000000  0.000000 0.000000 0.000244
32  0.000000 0.000000 0.000000  0.000000 0.000000 0.000244
33  0.000000 0.000000 0.000000  0.000000 0.000000 0.000244
34  0.000000 0.000000 0.000000  0.000000 0.000000 0.000244
35  0.000000 0.000000 0.000000  0.000000 0.000000 0.000244
time 19
0  0.000000 0.000000 0.000000  0.000000 0.000000 0.000244
1  -0.853095 -0.026367 105.001045  -0.126097 0.015334 -0.020169
2  0.076050 0.018673 0.486573  0.650921 0.017917 0.027091
3  0.681924 3.061769 25.766729  -0.502847 0.000158 -0.020895
4  -0.270204 4.643923 15.082973  0.000000 -0.000000 -0.000000
5  7.861995 1.690555 20.553324  0.170614 0.019986 0.009420
6  5.961565 5.877574 -14.357289  -0.000000 0.017351 -0.000000
7  10.132450 7.521428 -13.339930  -0.000000 0.017349 0.000001
8  7.071617 2.633338 -1.343422  -0.000000 -0.000000 -0.000000
9  -7.215012 2.908784 21.442213  -0.279375 0.010144 -0.016506
10  -2.914598 -15.412422 -6.310905  -0.413504 -0.000084 -0.028999
11  1.915932 -8.833019 13.424079  0.247548 0.017733 0.023170
12  5.659710 -11.449345 9.057096  -0.000000 0.017350 0.000000
13  1.189934 10.695269 -2.939692  0.000000 0.034787 0.000000
14  -2.124496 -24.104879 6.023582  0.000000 0.017350 -0.000000
15  2.759453 -5.211212 -1.249044  -0.000000 0.000000 0.000000
16  -0.160953 2.270954 5.513719  -0.000000 -0.000000 0.000000
17  0.783687 1.087376 11.560620  0.000000 0.000000 -0.000000
18  -0.017059 -0.034534 -0.654787  0.194521 0.020340 0.007535
19  -0.669090 -0.281067 -16.582525  -0.190687 0.012747 -0.009977
20  -0.054107 -0.368182 -0.390860  0.109679 0.001792 0.002000
21  2.926264 -1.135558 -24.857803  -0.416268 0.021688 -0.018873
22  0.176165 3.421205 -19.465691  0.000000 0.017350 0.000000
23  0.214477 3.945338 -14.796873  0.000000 0.017350 -0.000000
24  -0.127800 3.995609 -4.361935  -0.000000 0.000000 0.000000
25  -5.848764 -2.970825 -24.100027  0.372979 0.020107 0.014950
26  0.392179 -8.798161 -12.680975  0.000000 0.017349 -0.000000
27  1.845342 7.302798 -12.204820  -0.000000 0.017350 0.000000
28  -0.506195 5.050750 -3.130168  0.000000 -0.000000 0.000000
29  0.000009 -0.000000 206.122971  0.000000 -0.000000 0.000000
30  0.000000 0.000000 -0.000000  0.000000 -0.000000 0.000000
31  0.000000 0.000000 0.000000  0.000000 0.000000 0.000244
32  0.000000 0.000000 0.000000  0.000000 0.000000 0.000244
33  0.000000 0.000000 0.000000  0.000000 0.000000 0.000244
34  0.000000 0.000000 0.000000  0.000000 0.000000 0.000244
35  0.000000 0.000000 0.000000  0.000000 0.000000 0.000244
time 20
0  0.000000 0.000000 0.000000  0.000000 0.000000 0.000244
1  -0.853095 -0.026367 105.001045  -0.109839 0.015597 -0.019790
2  0.076050 0.018671 0.486570  0.577342 0.017894 0.024044
3  0.681924 3.061763 25.766741  -0.446020 0.002101 -0.018444
4  -0.270206 4.643920 15.082976  0.000000 -0.000000 -0.000000
5  7.861996 1.690552 20.553324  0.151375 0.019625 0.008327
6  5.961565 5.877564 -14.357307  -0.000000 0.017351 0.000000
7  10.132449 7.521432 -13.339922  -0.000000 0.017349 0.000001
8  7.071617 2.633343 -1.343418  0.000000 -0.000000 -0.000000
9  -7.215012 2.908785 21.442226  -0.247761 0.010970 -0.014588
10  -2.914598 -15.412426 -6.310908  -0.366795 0.001902 -0.025724
11  1.915933 -8.833014 13.424068  0.219533 0.017711 0.020536
12  5.659711 -11.449350 9.057085  -0.000000 0.017350 0.000000
13  1.189935 10.695265 -2.939699  0.000000 0.034787 0.000000
14  -2.124494 -24.104876 6.023573  0.000000 0.017350 -0.000000
15  2.759449 -5.211219 -1.249044  -0.000000 0.000000 0.000000
16  -0.160952 2.270952 5.513711  -0.000000 -0.000000 0.000000
17  0.783687 1.087375 11.560636  -0.000000 0.000000 -0.000000
18  -0.017059 -0.034535 -0.654799  0.172492 0.019958 0.006664
19  -0.669090 -0.281067 -16.582533  -0.169101 0.013285 -0.008836
20  -0.054107 -0.368183 -0.390875  0.109679 0.001792 0.002000
21  2.926265 -1.135558 -24.857805  -0.369167 0.023122 -0.016787
22  0.176165 3.421204 -19.465683  -0.000000 0.017350 0.000000
23  0.214477 3.945333 -14.796873  -0.000000 0.017350 -0.000000
24  -0.127799 3.995611 -4.361938  -0.000000 0.000000 0.000000
25  -5.848764 -2.970825 -24.100027  0.330784 0.019751 0.013274
26  0.392179 -8.798157 -12.680968  -0.000000 0.017349 -0.000000
27  1.845341 7.302797 -12.204820  -0.000000 0.017350 0.000000
28  -0.506195 5.050752 -3.130172  0.000000 -0.000000 0.000000
29  0.000009 -0.000000 206.122971  0.000000 -0.000000 0.000000
30  0.000000 0.000000 -0.000000  0.000000 -0.000000 0.000000
31  0.000000 0.000000 0.000000  0.000000 0.000000 0.000244
32  0.000000 0.000000 0.000000  0.000000 0.000000 0.000244
33  0.000000 0.000000 0.000000  0.000000 0.000000 0.000244
34  0.000000 0.000000 0.000000  0.000000 0.000000 0.000244
35  0.000000 0.000000 0.000000  0.000000 0.000000 0.000244
time 21
0  0.000000 0.000000 0.000000  0.000000 0.000000 0.000244
1  -0.853095 -0.026367 105.001045  -0.093243 0.015769 -0.019488
2  0.076050 0.018672 0.486568  0.502242 0.017814 0.020878
3  0.681923 3.061769 25.766741  -0.387972 0.004050 -0.016102
4  -0.270205 4.643921 15.082959  0.000000 -0.000000 -0.000000
5  7.861995 1.690548 20.553322  0.131632 0.019332 0.007243
6  5.961566 5.877575 -14.357304  -0.000000 0.017351 -0.000000
7  10.132451 7.521420 -13.339923  -0.000000 0.017349 0.000001
8  7.071616 2.633325 -1.343420  0.000000 0.000000 -0.000000
9  -7.215013 2.908782 21.442215  -0.215602 0.011818 -0.012740
10  -2.914597 -15.412429 -6.310902  -0.319061 0.003916 -0.022400
11  1.915932 -8.833024 13.424087  0.190956 0.017623 0.017903
12  5.659710 -11.449348 9.057093  -0.000000 0.017350 0.000000
13  1.189935 10.695267 -2.939702  0.000000 0.034787 0.000000
14  -2.124493 -24.104877 6.023576  0.000000 0.017350 -0.000000
15  2.759449 -5.211225 -1.249032  -0.000000 0.000000 0.000000
16  -0.160956 2.270952 5.513736  -0.000000 -0.000000 0.000000
17  0.783687 1.087370 11.560624  -0.000000 0.000000 -0.000000
18  -0.017059 -0.034535 -0.654795  0.150051 0.019646 0.005805
19  -0.669091 -0.281067 -16.582539  -0.147101 0.013802 -0.007682
20  -0.054107 -0.368181 -0.390886  0.109679 0.001792 0.002000
21  2.926265 -1.135558 -24.857800  -0.321133 0.024660 -0.014576
22  0.176165 3.421206 -19.465687  -0.000000 0.017350 0.000000
23  0.214477 3.945336 -14.796881  -0.000000 0.017350 -0.000000
24  -0.127800 3.995609 -4.361935  0.000000 0.000000 0.000000
25  -5.848765 -2.970825 -24.100016  0.287779 0.019436 0.011538
26  0.392177 -8.798155 -12.680975  -0.000000 0.017349 -0.000000
27  1.845341 7.302798 -12.204826  -0.000000 0.017350 0.000000
28  -0.506193 5.050749 -3.130176  -0.000000 -0.000000 0.000000
29  0.000009 -0.000000 206.122971  0.000000 -0.000000 0.000000
30  0.000000 0.000000 -0.000000  0.000000 -0.000000 0.000000
31  0.000000 0.000000 0.000000  0.000000 0.000000 0.000244
32  0.000000 0.000000 0.000000  0.000000 0.000000 0.000244
33  0.000000 0.000000 0.000000  0.000000 0.000000 0.000244
34  0.000000 0.000000 0.000000  0.000000 0.000000 0.000244
35  0.000000 0.000000 0.000000  0.000000 0.000000 0.000244
time 22
0  0.000000 0.000000 0.000000  0.000000 0.000000 0.000244
1  -0.853095 -0.026367 105.001045  -0.076740 0.016026 -0.019101
2  0.076050 0.018674 0.486563  0.427156 0.017711 0.017709
3  0.681924 3.061770 25.766756  -0.329988 0.006033 -0.013693
4  -0.270205 4.643921 15.082986  0.000000 -0.000000 -0.000000
5  7.861996 1.690549 20.553326  0.111990 0.019106 0.006172
6  5.961567 5.877568 -14.357295  -0.000000 0.017351 0.000000
7  10.132448 7.521425 -13.339917  -0.000000 0.017349 0.000001
8  7.071617 2.633329 -1.343426  0.000000 -0.000000 -0.000000
9  -7.215012 2.908784 21.442223  -0.183322 0.012618 -0.010782
10  -2.914597 -15.412426 -6.310896  -0.271330 0.005857 -0.019007
11  1.915932 -8.833021 13.424096  0.162418 0.017642 0.015206
12  5.659707 -11.449341 9.057118  -0.000000 0.017350 0.000000
13  1.189937 10.695264 -2.939710  0.000000 0.034787 0.000000
14  -2.124492 -24.104879 6.023564  0.000000 0.017350 -0.000000
15  2.759446 -5.211218 -1.249025  -0.000000 0.000000 0.000000
16  -0.160955 2.270956 5.513729  -0.000000 -0.000000 0.000000
17  0.783688 1.087373 11.560630  -0.000000 0.000000 0.000000
18  -0.017059 -0.034534 -0.654797  0.127631 0.019318 0.004954
19  -0.669090 -0.281067 -16.582541  -0.125119 0.014381 -0.006523
20  -0.054107 -0.368180 -0.390884  0.109679 0.001792 0.002000
21  2.926265 -1.135558 -24.857792  -0.273108 0.026179 -0.012398
22  0.176165 3.421203 -19.465683  -0.000000 0.017350 0.000000
23  0.214476 3.945337 -14.796879  0.000000 0.017350 -0.000000
24  -0.127800 3.995609 -4.361931  -0.000000 0.000000 0.000000
25  -5.848765 -2.970825 -24.100029  0.244735 0.019056 0.009823
26  0.392178 -8.798159 -12.680962  -0.000000 0.017349 -0.000000
27  1.845341 7.302797 -12.204818  0.000000 0.017350 0.000000
28  -0.506194 5.050753 -3.130163  -0.000000 -0.000000 0.000000
29  0.000009 -0.000000 206.122971  0.000000 -0.000000 0.000000
30  0.000000 0.000000 -0.000000  0.000000 -0.000000 0.000000
31  0.000000 0.000000 0.000000  0.000000 0.000000 0.000244
32  0.000000 0.000000 0.000000  0.000000 0.000000 0.000244
33  0.000000 0.000000 0.000000  0.000000 0.000000 0.000244
34  0.000000 0.000000 0.000000  0.000000 0.000000 0.000244
35  0.000000 0.000000 0.000000  0.000000 0.000000 0.000244
time 23
0  0.000000 0.000000 0.000000  0.000000 0.000000 0.000244
1  -0.853095 -0.026367 105.001045  -0.060500 0.016274 -0.018714
2  0.076050 0.018671 0.486567  0.353558 0.017625 0.014723
3  0.681924 3.061770 25.766739  -0.273150 0.008031 -0.011298
4  -0.270205 4.643921 15.082964  0.000000 -0.000000 -0.000000
5  7.861996 1.690550 20.553316  0.092703 0.018773 0.005105
6  5.961567 5.877564 -14.357292  0.000000 0.017351 0.000000
7  10.132449 7.521429 -13.339916  -0.000000 0.017349 0.000001
8  7.071618 2.633327 -1.343420  -0.000000 -0.000000 -0.000000
9  -7.215012 2.908780 21.442209  -0.151782 0.013434 -0.008899
10  -2.914598 -15.412421 -6.310885  -0.224620 0.007868 -0.015741
11  1.915934 -8.833022 13.424060  0.134435 0.017579 0.012603
12  5.659713 -11.449345 9.057101  -0.000000 0.017350 0.000000
13  1.189935 10.695272 -2.939703  0.000000 0.034787 0.000000
14  -2.124495 -24.104883 6.023591  0.000000 0.017350 -0.000000
15  2.759445 -5.211230 -1.249022  -0.000000 0.000000 0.000000
16  -0.160951 2.270953 5.513721  -0.000000 -0.000000 0.000000
17  0.783687 1.087373 11.560621  0.000000 0.000000 0.000000
18  -0.017059 -0.034536 -0.654801  0.105658 0.018972 0.004115
19  -0.669090 -0.281067 -16.582518  -0.103583 0.014849 -0.005351
20  -0.054107 -0.368182 -0.390892  0.109679 0.001792 0.002000
21  2.926264 -1.135558 -24.857796  -0.226106 0.027591 -0.010257
22  0.176165 3.421205 -19.465691  -0.000000 0.017350 0.000000
23  0.214477 3.945336 -14.796878  -0.000000 0.017350 -0.000000
24  -0.127800 3.995608 -4.361933  -0.000000 0.000000 0.000000
25  -5.848764 -2.970826 -24.100031  0.202587 0.018780 0.008156
26  0.392179 -8.798155 -12.680970  0.000000 0.017349 -0.000000
27  1.845342 7.302800 -12.204823  -0.000000 0.017350 0.000000
28  -0.506194 5.050751 -3.130173  0.000000 -0.000000 0.000000
29  0.000009 -0.000000 206.122971  0.000000 -0.000000 0.000000
30  0.000000 0.000000 -0.000000  0.000000 -0.000000 0.000000
31  0.000000 0.000000 0.000000  0.000000 0.000000 0.000244
32  0.000000 0.000000 0.000000  0.000000 0.000000 0.000244
33  0.000000 0.000000 0.000000  0.000000 0.000000 0.000244
34  0.000000 0.000000 0.000000  0.000000 0.000000 0.000244
35  0.000000 0.000000 0.000000  0.000000 0.000000 0.000244
time 24
0  0.000000 0.000000 0.000000  0.000000 0.000000 0.000244
1  -0.853095 -0.026367 105.001045  -0.044870 0.016510 -0.018416
2  0.076050 0.018672 0.486577  0.282972 0.017596 0.011749
3  0.681923 3.061773 25.766748  -0.218614 0.009859 -0.009071
4  -0.270205 4.643921 15.082973  0.000000 -0.000000 -0.000000
5  7.861995 1.690550 20.553314  0.074204 0.018507 0.004056
6  5.961567 5.877564 -14.357295  -0.000000 0.017351 0.000000
7  10.132449 7.521426 -13.339907  -0.000000 0.017349 0.000001
8  7.071618 2.633332 -1.343416  0.000000 -0.000000 -0.000000
9  -7.215013 2.908781 21.442209  -0.121491 0.014264 -0.007181
10  -2.914598 -15.412426 -6.310904  -0.179761 0.009787 -0.012582
11  1.915933 -8.833018 13.424068  0.107603 0.017522 0.010106
12  5.659709 -11.449345 9.057110  -0.000000 0.017350 0.000000
13  1.189936 10.695268 -2.939711  0.000000 0.034787 0.000000
14  -2.124490 -24.104877 6.023584  0.000000 0.017350 -0.000000
15  2.759449 -5.211219 -1.249037  -0.000000 0.000000 0.000000
16  -0.160953 2.270953 5.513712  -0.000000 -0.000000 0.000000
17  0.783687 1.087371 11.560624  0.000000 0.000000 -0.000000
18  -0.017059 -0.034535 -0.654783  0.084564 0.018608 0.003293
19  -0.669091 -0.281067 -16.582537  -0.082923 0.015374 -0.004266
20  -0.054107 -0.368181 -0.390883  0.109679 0.001792 0.002000
21  2.926265 -1.135558 -24.857801  -0.180961 0.029074 -0.008186
22  0.176165 3.421204 -19.465679  -0.000000 0.017350 0.000000
23  0.214477 3.945336 -14.796880  -0.000000 0.017350 -0.000000
24  -0.127800 3.995609 -4.361937  0.000000 -0.000000 0.000000
25  -5.848765 -2.970825 -24.100023  0.162176 0.018436 0.006521
26  0.392178 -8.798160 -12.680967  0.000000 0.017349 -0.000000
27  1.845342 7.302798 -12.204813  -0.000000 0.017350 0.000000
28  -0.506196 5.050752 -3.130169  0.000000 -0.000000 0.000000
29  0.000009 -0.000000 206.122971  0.000000 -0.000000 0.000000
30  0.000000 0.000000 -0.000000  0.000000 -0.000000 0.000000
31  0.000000 0.000000 0.000000  0.000000 0.000000 0.000244
32  0.000000 0.000000 0.000000  0.000000 0.000000 0.000244
33  0.000000 0.000000 0.000000  0.000000 0.000000 0.000244
34  0.000000 0.000000 0.000000  0.000000 0.000000 0.000244
35  0.000000 0.000000 0.000000  0.000000 0.000000 0.000244
time 25
0  0.000000 0.000000 0.000000  0.000000 0.000000 0.000244
1  -0.853095 -0.026367 105.001045  -0.030365 0.016732 -0.018125
2  0.076050 0.018671 0.486577  0.216910 0.017512 0.009027
3  0.681924 3.061771 25.766752  -0.167616 0.011629 -0.006954
4  -0.270205 4.643920 15.082969  0.000000 -0.000000 -0.000000
5  7.861995 1.690551 20.553318  0.056835 0.018218 0.003108
6  5.961567 5.877566 -14.357300  0.000000 0.017351 -0.000000
7  10.132450 7.521423 -13.339914  -0.000000 0.017349 0.000001
8  7.071616 2.633333 -1.343421  0.000000 -0.000000 -0.000000
9  -7.215013 2.908784 21.442223  -0.093127 0.014954 -0.005450
10  -2.914599 -15.412427 -6.310901  -0.137844 0.011537 -0.009622
11  1.915930 -8.833019 13.424082  0.082433 0.017478 0.007718
12  5.659709 -11.449343 9.057115  -0.000000 0.017350 0.000000
13  1.189935 10.695267 -2.939710  0.000000 0.034787 0.000000
14  -2.124490 -24.104879 6.023577  0.000000 0.017350 -0.000000
15  2.759450 -5.211222 -1.249033  -0.000000 0.000000 0.000000
16  -0.160954 2.270952 5.513746  -0.000000 -0.000000 0.000000
17  0.783687 1.087373 11.560634  -0.000000 0.000000 -0.000000
18  -0.017059 -0.034536 -0.654784  0.064775 0.018315 0.002493
19  -0.669091 -0.281067 -16.582546  -0.063568 0.015787 -0.003266
20  -0.054107 -0.368182 -0.390870  0.109679 0.001792 0.002000
21  2.926264 -1.135557 -24.857779  -0.138675 0.030369 -0.006263
22  0.176165 3.421205 -19.465691  -0.000000 0.017350 0.000000
23  0.214477 3.945336 -14.796879  -0.000000 0.017350 -0.000000
24  -0.127800 3.995609 -4.361938  0.000000 0.000000 0.000000
25  -5.848764 -2.970824 -24.100006  0.124254 0.018201 0.004938
26  0.392178 -8.798162 -12.680969  0.000000 0.017349 -0.000000
27  1.845340 7.302797 -12.204811  -0.000000 0.017350 0.000000
28  -0.506195 5.050751 -3.130175  -0.000000 -0.000000 0.000000
29  0.000009 -0.000000 206.122971  0.000000 -0.000000 0.000000
30  0.000000 0.000000 -0.000000  0.000000 -0.000000 0.000000
31  0.000000 0.000000 0.000000  0.000000 0.000000 0.000244
32  0.000000 0.000000 0.000000  0.000000 0.000000 0.000244
33  0.000000 0.000000 0.000000  0.000000 0.000000 0.000244
34  0.000000 0.000000 0.000000  0.000000 0.000000 0.000244
35  0.000000 0.000000 0.000000  0.000000 0.000000 0.000244
time 26
0  0.000000 0.000000 0.000000  0.000000 0.000000 0.000244
1  -0.853095 -0.026367 105.001045  -0.017069 0.016854 -0.017840
2  0.076050 0.018672 0.486569  0.156889 0.017500 0.006484
3  0.681923 3.061773 25.766748  -0.121220 0.013190 -0.004952
4  -0.270206 4.643920 15.082980  0.000000 -0.000000 -0.000000
5  7.861995 1.690551 20.553318  0.041112 0.017997 0.002269
6  5.961565 5.877567 -14.357306  0.000000 0.017351 0.000000
7  10.132450 7.521428 -13.339907  -0.000000 0.017349 0.000001
8  7.071618 2.633333 -1.343422  0.000000 -0.000000 -0.000000
9  -7.215013 2.908782 21.442207  -0.067373 0.015584 -0.003980
10  -2.914598 -15.412425 -6.310894  -0.099699 0.013136 -0.006964
11  1.915932 -8.833023 13.424078  0.059611 0.017451 0.005529
12  5.659709 -11.449341 9.057102  -0.000000 0.017350 0.000000
13  1.189936 10.695270 -2.939716  0.000000 0.034787 0.000000
14  -2.124492 -24.104889 6.023588  0.000000 0.017350 -0.000000
15  2.759447 -5.211227 -1.249023  -0.000000 0.000000 0.000000
16  -0.160954 2.270952 5.513715  -0.000000 -0.000000 0.000000
17  0.783687 1.087372 11.560622  -0.000000 0.000000 0.000000
18  -0.017059 -0.034536 -0.654793  0.046893 0.018089 0.001806
19  -0.669091 -0.281067 -16.582535  -0.045945 0.016264 -0.002360
20  -0.054107 -0.368182 -0.390885  0.109679 0.001792 0.002000
21  2.926265 -1.135557 -24.857792  -0.100340 0.031579 -0.004525
22  0.176165 3.421205 -19.465687  -0.000000 0.017350 0.000000
23  0.214477 3.945335 -14.796875  -0.000000 0.017350 -0.000000
24  -0.127800 3.995608 -4.361939  0.000000 0.000000 0.000000
25  -5.848765 -2.970824 -24.100021  0.089922 0.017984 0.003574
26  0.392180 -8.798157 -12.680968  0.000000 0.017349 -0.000000
27  1.845341 7.302797 -12.204815  -0.000000 0.017350 0.000000
28  -0.506195 5.050751 -3.130171  -0.000000 -0.000000 0.000000
29  0.000009 -0.000000 206.122971  0.000000 -0.000000 0.000000
30  0.000000 0.000000 -0.000000  0.000000 -0.000000 0.000000
31  0.000000 0.000000 0.000000  0.000000 0.000000 0.000244
32  0.000000 0.000000 0.000000  0.000000 0.000000 0.000244
33  0.000000 0.000000 0.000000  0.000000 0.000000 0.000244
34  0.000000 0.000000 0.000000  0.000000 0.000000 0.000244
35  0.000000 0.000000 0.000000  0.000000 0.000000 0.000244
time 27
0  0.000000 0.000000 0.000000  0.000000 0.000000 0.000244
1  -0.853095 -0.026367 105.001045  -0.005501 0.017043 -0.017570
2  0.076050 0.018672 0.486578  0.104446 0.017409 0.004281
3  0.681924 3.061771 25.766762  -0.080675 0.014554 -0.003266
4  -0.270205 4.643921 15.082970  0.000000 -0.000000 -0.000000
5  7.861995 1.690550 20.553337  0.027377 0.017763 0.001452
6  5.961566 5.877568 -14.357297  0.000000 0.017351 0.000000
7  10.132448 7.521430 -13.339914  -0.000000 0.017349 0.000001
8  7.071616 2.633335 -1.343405  0.000000 -0.000000 -0.000000
9  -7.215012 2.908783 21.442226  -0.044825 0.016173 -0.002607
10  -2.914597 -15.412426 -6.310908  -0.066339 0.014529 -0.004628
11  1.915928 -8.833023 13.424085  0.039648 0.017452 0.003713
12  5.659711 -11.449340 9.057101  -0.000000 0.017350 0.000000
13  1.189934 10.695264 -2.939715  0.000000 0.034787 0.000000
14  -2.124488 -24.104887 6.023565  0.000000 0.017350 -0.000000
15  2.759448 -5.211219 -1.249040  -0.000000 0.000000 0.000000
16  -0.160953 2.270955 5.513712  -0.000000 -0.000000 0.000000
17  0.783688 1.087372 11.560641  0.000000 0.000000 0.000000
18  -0.017059 -0.034536 -0.654790  0.031173 0.017852 0.001142
19  -0.669091 -0.281067 -16.582520  -0.030571 0.016638 -0.001549
20  -0.054107 -0.368182 -0.390882  0.109679 0.001792 0.002000
21  2.926265 -1.135558 -24.857790  -0.066793 0.032634 -0.002991
22  0.176165 3.421205 -19.465683  -0.000000 0.017350 0.000000
23  0.214477 3.945335 -14.796875  -0.000000 0.017350 -0.000000
24  -0.127799 3.995608 -4.361932  0.000000 0.000000 0.000000
25  -5.848765 -2.970826 -24.100021  0.059850 0.017719 0.002344
26  0.392179 -8.798158 -12.680968  0.000000 0.017349 -0.000000
27  1.845341 7.302798 -12.204817  -0.000000 0.017350 0.000000
28  -0.506196 5.050750 -3.130179  0.000000 -0.000000 0.000000
29  0.000009 -0.000000 206.122971  0.000000 -0.000000 0.000000
30  0.000000 0.000000 -0.000000  0.000000 -0.000000 0.000000
31  0.000000 0.000000 0.000000  0.000000 0.000000 0.000244
32  0.000000 0.000000 0.000000  0.000000 0.000000 0.000244
33  0.000000 0.000000 0.000000  0.000000 0.000000 0.000244
34  0.000000 0.000000 0.000000  0.000000 0.000000 0.000244
35  0.000000 0.000000 0.000000  0.000000 0.000000 0.000244
time 28
0  0.000000 0.000000 0.000000  0.000000 0.000000 0.000244
1  -0.853095 -0.026367 105.001045  0.003995 0.017213 -0.017402
2  0.076050 0.018672 0.486565  0.060973 0.017368 0.002516
3  0.681925 3.061772 25.766762  -0.047071 0.015755 -0.001925
4  -0.270205 4.643921 15.082966  0.000000 -0.000000 -0.000000
5  7.861997 1.690550 20.553318  0.015977 0.017603 0.000831
6  5.961566 5.877566 -14.357299  0.000000 0.017351 0.000000
7  10.132449 7.521429 -13.339913  -0.000000 0.017349 0.000001
8  7.071621 2.633331 -1.343422  0.000000 -0.000000 -0.000000
9  -7.215012 2.908783 21.442217  -0.026168 0.016641 -0.001513
10  -2.914599 -15.412425 -6.310913  -0.038695 0.015747 -0.002722
11  1.915930 -8.833020 13.424083  0.023145 0.017413 0.002100
12  5.659710 -11.449340 9.057119  -0.000000 0.017350 0.000000
13  1.189936 10.695268 -2.939717  0.000000 0.034787 0.000000
14  -2.124494 -24.104879 6.023586  0.000000 0.017350 -0.000000
15  2.759444 -5.211217 -1.249030  -0.000000 0.000000 0.000000
16  -0.160955 2.270957 5.513750  -0.000000 -0.000000 0.000000
17  0.783688 1.087372 11.560630  -0.000000 0.000000 0.000000
18  -0.017059 -0.034536 -0.654799  0.018220 0.017603 0.000678
19  -0.669091 -0.281067 -16.582523  -0.017876 0.016911 -0.000928
20  -0.054108 -0.368182 -0.390884  0.109679 0.001792 0.002000
21  2.926265 -1.135558 -24.857792  -0.038965 0.033552 -0.001690
22  0.176165 3.421205 -19.465675  0.000000 0.017350 0.000000
23  0.214477 3.945335 -14.796878  -0.000000 0.017350 -0.000000
24  -0.127800 3.995609 -4.361935  -0.000000 0.000000 0.000000
25  -5.848765 -2.970826 -24.100027  0.034887 0.017588 0.001343
26  0.392179 -8.798157 -12.680964  -0.000000 0.017349 -0.000000
27  1.845342 7.302799 -12.204811  -0.000000 0.017350 0.000000
28  -0.506195 5.050749 -3.130175  0.000000 -0.000000 0.000000
29  0.000009 -0.000000 206.122971  0.000000 -0.000000 0.000000
30  0.000000 0.000000 -0.000000  0.000000 -0.000000 0.000000
31  0.000000 0.000000 0.000000  0.000000 0.000000 0.000244
32  0.000000 0.000000 0.000000  0.000000 0.000000 0.000244
33  0.000000 0.000000 0.000000  0.000000 0.000000 0.000244
34  0.000000 0.000000 0.000000  0.000000 0.000000 0.000244
35  0.000000 0.000000 0.000000  0.000000 0.000000 0.000244
time 29
0  0.000000 0.000000 0.000000  0.000000 0.000000 0.000244
1  -0.853095 -0.026367 105.001045  0.011247 0.017275 -0.017254
2  0.076050 0.018672 0.486566  0.028065 0.017336 0.001107
3  0.681924 3.061771 25.766764  -0.021682 0.016651 -0.000871
4  -0.270205 4.643921 15.082971  0.000000 -0.000000 -0.000000
5  7.861995 1.690551 20.553324  0.007340 0.017435 0.000323
6  5.961567 5.877566 -14.357302  0.000000 0.017351 0.000000
7  10.132448 7.521424 -13.339915  -0.000000 0.017349 0.000001
8  7.071616 2.633332 -1.343418  -0.000000 -0.000000 -0.000000
9  -7.215012 2.908783 21.442213  -0.012005 0.017087 -0.000707
10  -2.914597 -15.412425 -6.310896  -0.017792 0.016564 -0.001183
11  1.915934 -8.833022 13.424072  0.010618 0.017345 0.000955
12  5.659710 -11.449345 9.057094  -0.000000 0.017350 0.000000
13  1.189935 10.695266 -2.939707  0.000000 0.034787 0.000000
14  -2.124492 -24.104879 6.023577  0.000000 0.017350 -0.000000
15  2.759449 -5.211221 -1.248999  -0.000000 0.000000 0.000000
16  -0.160954 2.270954 5.513711  -0.000000 -0.000000 0.000000
17  0.783687 1.087372 11.560630  -0.000000 0.000000 -0.000000
18  -0.017059 -0.034536 -0.654783  0.008375 0.017522 0.000246
19  -0.669090 -0.281067 -16.582541  -0.008204 0.017176 -0.000416
20  -0.054107 -0.368182 -0.390879  0.109679 0.001792 0.002000
21  2.926265 -1.135559 -24.857788  -0.017969 0.034178 -0.000739
22  0.176165 3.421203 -19.465687  -0.000000 0.017350 0.000000
23  0.214476 3.945338 -14.796868  -0.000000 0.017350 -0.000000
24  -0.127799 3.995607 -4.361927  0.000000 0.000000 0.000000
25  -5.848764 -2.970827 -24.100027  0.016061 0.017432 0.000572
26  0.392180 -8.798159 -12.680962  0.000000 0.017349 -0.000000
27  1.845341 7.302797 -12.204809  -0.000000 0.017350 0.000000
28  -0.506194 5.050750 -3.130172  0.000000 -0.000000 0.000000
29  0.000009 -0.000000 206.122971  0.000000 -0.000000 0.000000
30  0.000000 0.000000 -0.000000  0.000000 -0.000000 0.000000
31  0.000000 0.000000 0.000000  0.000000 0.000000 0.000244
32  0.000000 0.000000 0.000000  0.000000 0.000000 0.000244
33  0.000000 0.000000 0.000000  0.000000 0.000000 0.000244
34  0.000000 0.000000 0.000000  0.000000 0.000000 0.000244
35  0.000000 0.000000 0.000000  0.000000 0.000000 0.000244
time 30
0  0.000000 0.000000 0.000000  0.000000 0.000000 0.000244
1  -0.853095 -0.026367 105.001045  0.015822 0.017400 -0.017127
2  0.076050 0.018672 0.486572  0.007253 0.017349 0.000236
3  0.681923 3.061771 25.766748  -0.005620 0.017176 -0.000221
4  -0.270205 4.643921 15.082977  0.000000 -0.000000 -0.000000
5  7.861995 1.690551 20.553308  0.001900 0.017350 0.000103
6  5.961566 5.877566 -14.357297  0.000000 0.017351 0.000000
7  10.132450 7.521427 -13.339909  -0.000000 0.017349 0.000001
8  7.071618 2.633331 -1.343423  -0.000000 0.000000 -0.000000
9  -7.215012 2.908783 21.442209  -0.003109 0.017263 -0.000113
10  -2.914599 -15.412428 -6.310891  -0.004578 0.017178 -0.000298
11  1.915932 -8.833021 13.424086  0.002756 0.017349 0.000196
12  5.659710 -11.449349 9.057105  -0.000000 0.017350 0.000000
13  1.189933 10.695264 -2.939693  0.000000 0.034787 0.000000
14  -2.124495 -24.104877 6.023593  0.000000 0.017350 -0.000000
15  2.759445 -5.211220 -1.249046  -0.000000 0.000000 0.000000
16  -0.160954 2.270948 5.513726  -0.000000 -0.000000 0.000000
17  0.783687 1.087372 11.560626  -0.000000 0.000000 -0.000000
18  -0.017059 -0.034536 -0.654791  0.002158 0.017350 0.000019
19  -0.669090 -0.281067 -16.582529  -0.002073 0.017264 -0.000104
20  -0.054107 -0.368182 -0.390866  0.109679 0.001792 0.002000
21  2.926265 -1.135556 -24.857796  -0.004578 0.034614 -0.000166
22  0.176165 3.421205 -19.465685  -0.000000 0.017350 0.000000
23  0.214477 3.945336 -14.796869  -0.000000 0.017350 -0.000000
24  -0.127800 3.995606 -4.361926  0.000000 0.000000 0.000000
25  -5.848765 -2.970824 -24.100031  0.004144 0.017350 0.000122
26  0.392180 -8.798159 -12.680974  0.000000 0.017349 -0.000000
27  1.845342 7.302797 -12.204815  -0.000000 0.017350 0.000000
28  -0.506195 5.050749 -3.130175  0.000000 -0.000000 0.000000
29  0.000009 -0.000000 206.122971  0.000000 -0.000000 0.000000
30  0.000000 0.000000 -0.000000  0.000000 -0.000000 0.000000
31  0.000000 0.000000 0.000000  0.000000 0.000000 0.000244
32  0.000000 0.000000 0.000000  0.000000 0.000000 0.000244
33  0.000000 0.000000 0.000000  0.000000 0.000000 0.000244
34  0.000000 0.000000 0.000000  0.000000 0.000000 0.000244
35  0.000000 0.000000 0.000000  0.000000 0.000000 0.000244
time 31
0  0.000000 0.000000 0.000000  0.000000 0.000000 0.000244
1  -0.853095 -0.026367 105.001045  0.017462 0.017414 -0.017113
2  0.076050 0.018672 0.486563  0.000000 0.017350 0.000000
3  0.681923 3.061770 25.766768  -0.000008 0.017350 -0.000000
4  -0.270204 4.643921 15.082966  0.000000 -0.000000 -0.000000
5  7.861995 1.690550 20.553318  -0.000000 0.017350 -0.000000
6  5.961565 5.877567 -14.357297  0.000000 0.017351 -0.000000
7  10.132448 7.521424 -13.339914  -0.000000 0.017349 0.000001
8  7.071617 2.633333 -1.343421  -0.000000 -0.000000 -0.000000
9  -7.215013 2.908782 21.442223  0.000000 0.017350 -0.000000
10  -2.914598 -15.412427 -6.310909  0.000000 0.017351 -0.000000
11  1.915929 -8.833021 13.424090  -0.000008 0.017349 -0.000001
12  5.659710 -11.449347 9.057100  -0.000000 0.017350 0.000000
13  1.189936 10.695263 -2.939703  0.000000 0.034787 0.000000
14  -2.124493 -24.104885 6.023572  0.000000 0.017350 -0.000000
15  2.759448 -5.211224 -1.249006  -0.000000 0.000000 0.000000
16  -0.160954 2.270954 5.513734  -0.000000 -0.000000 0.000000
17  0.783687 1.087372 11.560631  0.000000 0.000000 0.000000
18  -0.017059 -0.034536 -0.654792  0.000000 0.017350 0.000000
19  -0.669090 -0.281067 -16.582523  0.000000 0.017350 -0.000000
20  -0.054107 -0.368182 -0.390878  0.109679 0.001792 0.002000
21  2.926265 -1.135557 -24.857801  -0.000000 0.034787 -0.000000
22  0.176164 3.421205 -19.465685  -0.000000 0.017350 0.000000
23  0.214476 3.945335 -14.796871  -0.000000 0.017350 -0.000000
24  -0.127800 3.995609 -4.361937  -0.000000 -0.000000 0.000000
25  -5.848765 -2.970825 -24.100029  0.000000 0.017350 0.000000
26  0.392177 -8.798159 -12.680973  0.000000 0.017349 -0.000000
27  1.845341 7.302798 -12.204811  -0.000000 0.017350 0.000000
28  -0.506195 5.050750 -3.130177  -0.000000 -0.000000 0.000000
29  0.000009 -0.000000 206.122971  0.000000 -0.000000 0.000000
30  0.000000 0.000000 -0.000000  0.000000 -0.000000 0.000000
31  0.000000 0.000000 0.000000  0.000000 0.000000 0.000244
32  0.000000 0.000000 0.000000  0.000000 0.000000 0.000244
33  0.000000 0.000000 0.000000  0.000000 0.000000 0.000244
34  0.000000 0.000000 0.000000  0.000000 0.000000 0.000244
35  0.000000 0.000000 0.000000  0.000000 0.000000 0.000244
end
