version 1
nodes
0 "m3bone_root" -1
1 "bone" 0
2 "bone_20" 1
3 "bone_19" 2
4 "Head Ref" 3
5 "bone_15" 2
6 "bone_14" 5
7 "bone_13" 6
8 "Hand Left Ref" 7
9 "bone_15111" 2
10 "bone_17" 9
11 "bone_18" 10
12 "bone_5" 11
13 "bone_2" 12
14 "bone_24999" 13
15 "Weapon Ref" 14
16 "Hand Right Ref" 11
17 "Chest Ref" 2
18 "bone_25" 1
19 "bone_23" 18
20 "bone_24" 1
21 "bone_7" 20
22 "bone_9" 21
23 "bone_11" 22
24 "Foot Left Ref" 23
25 "bone_6" 20
26 "bone_8" 25
27 "bone_10" 26
28 "Foot Right Ref" 27
29 "OverHead Ref" 0
30 "Origin Ref" 0
31 "_M3_Anim_Data" -1
32 "syamemaru2" -1
33 "syamemaru1" -1
34 "syamemaru3" -1
35 "syamemaru4" -1
end
skeleton
time 0
0  0.000000 0.000000 0.000000  0.000000 0.000000 0.000244
1  -0.853095 -0.026367 105.001045  0.017462 0.017414 -0.017113
2  0.076050 0.018672 0.486563  0.000000 0.017350 0.000000
3  0.681925 3.061767 25.766752  -0.000008 0.017350 -0.000000
4  -0.270204 4.643917 15.082966  0.000000 -0.000000 -0.000000
5  7.861997 1.690549 20.553320  -0.000000 0.017350 -0.000000
6  5.961567 5.877565 -14.357297  0.000000 0.017351 -0.000000
7  10.132454 7.521424 -13.339906  -0.000000 0.017349 0.000001
8  7.071616 2.633330 -1.343420  -0.000000 -0.000000 -0.000000
9  -7.215014 2.908782 21.442223  0.000000 0.017350 -0.000000
10  -2.914597 -15.412416 -6.310909  0.000000 0.017351 -0.000000
11  1.915931 -8.833016 13.424075  -0.000008 0.017349 -0.000001
12  5.659714 -11.449338 9.057100  -0.000000 0.017350 0.000000
13  1.189935 10.695256 -2.939718  0.000000 0.034787 0.000000
14  -2.124489 -24.104866 6.023557  0.000000 0.017350 -0.000000
15  2.792167 -5.421335 -1.263836  -0.000000 0.000000 0.000000
16  -0.160952 2.270948 5.513734  -0.000000 -0.000000 0.000000
17  0.783688 1.087372 11.560631  0.000000 0.000000 0.000000
18  -0.017059 -0.034536 -0.654792  0.000000 0.017350 0.000000
19  -0.669090 -0.281067 -16.582523  0.000000 0.017350 -0.000000
20  -0.054107 -0.368182 -0.390878  0.109679 0.001792 0.002000
21  2.926264 -1.135554 -24.857794  -0.000000 0.034787 -0.000000
22  0.176166 3.421205 -19.465687  -0.000000 0.017350 0.000000
23  0.214476 3.945336 -14.796871  -0.000000 0.017350 -0.000000
24  -0.127800 3.995608 -4.361938  -0.000000 -0.000000 0.000000
25  -5.848765 -2.970825 -24.100021  0.000000 0.017350 0.000000
26  0.392178 -8.798162 -12.680981  0.000000 0.017349 -0.000000
27  1.845343 7.302799 -12.204815  -0.000000 0.017350 0.000000
28  -0.506195 5.050750 -3.130176  -0.000000 -0.000000 0.000000
29  0.000009 -0.000000 206.122971  0.000000 -0.000000 0.000000
30  0.000000 0.000000 -0.000000  0.000000 -0.000000 0.000000
31  0.000000 0.000000 0.000000  0.000000 0.000000 0.000244
32  0.000000 0.000000 0.000000  0.000000 0.000000 0.000244
33  0.000000 0.000000 0.000000  0.000000 0.000000 0.000244
34  0.000000 0.000000 0.000000  0.000000 0.000000 0.000244
35  0.000000 0.000000 0.000000  0.000000 0.000000 0.000244
time 1
0  0.000000 0.000000 0.000000  0.000000 0.000000 0.000244
1  -0.853095 -0.026367 105.001045  0.083790 0.018022 -0.015660
2  0.076050 0.018672 0.486572  -0.051380 0.016448 -0.001718
3  0.681926 3.061767 25.766731  -0.117684 0.014359 -0.005775
4  -0.270205 4.643917 15.082964  0.000000 -0.000000 -0.000000
5  7.861998 1.690550 20.553318  -0.367808 0.001701 -0.010677
6  5.961568 5.877565 -14.357289  -0.405613 0.070469 -0.233786
7  10.132454 7.521433 -13.339909  0.055408 0.241467 -0.043730
8  7.071617 2.633324 -1.343408  -0.000000 0.000000 -0.000000
9  -7.215014 2.908783 21.442219  -0.019776 0.016909 -0.001031
10  -2.914596 -15.412416 -6.310909  0.000000 0.017351 0.000000
11  1.915931 -8.833015 13.424047  -0.000008 0.017349 -0.000001
12  5.659714 -11.449341 9.057111  -0.000000 0.017350 0.000000
13  1.189935 10.695260 -2.939719  0.000000 0.034787 0.000000
14  -2.124488 -24.104866 6.023577  0.000000 0.017350 -0.000000
15  2.945442 -5.727403 -1.333181  -0.000000 0.000000 0.000000
16  -0.160954 2.270947 5.513754  -0.000000 -0.000000 0.000000
17  0.783688 1.087372 11.560623  -0.000000 0.000000 -0.000000
18  -0.017059 -0.034535 -0.654784  -0.055353 0.016356 -0.001834
19  -0.669091 -0.281067 -16.582537  -0.085255 0.015376 -0.004112
20  -0.054107 -0.368181 -0.390874  0.078310 0.001326 0.001434
21  2.926264 -1.135552 -24.857788  -0.222177 0.027126 -0.009106
22  0.176165 3.421205 -19.465691  0.242148 0.013386 0.017194
23  0.214477 3.945333 -14.796874  -0.182974 0.009053 -0.014700
24  -0.127801 3.995609 -4.361932  0.000000 0.000000 0.000000
25  -5.848765 -2.970824 -24.100029  -0.130462 0.014365 -0.003879
26  0.392178 -8.798161 -12.680990  -0.210359 0.010000 -0.008868
27  1.845343 7.302801 -12.204834  -0.078267 0.015340 -0.005352
28  -0.506194 5.050750 -3.130174  0.000000 -0.000000 0.000000
29  0.000009 -0.000000 206.122971  0.000000 -0.000000 0.000000
30  0.000000 0.000000 -0.000000  0.000000 -0.000000 0.000000
31  0.000000 0.000000 0.000000  0.000000 0.000000 0.000244
32  0.000000 0.000000 0.000000  0.000000 0.000000 0.000244
33  0.000000 0.000000 0.000000  0.000000 0.000000 0.000244
34  0.000000 0.000000 0.000000  0.000000 0.000000 0.000244
35  0.000000 0.000000 0.000000  0.000000 0.000000 0.000244
time 2
0  0.000000 0.000000 0.000000  0.000000 0.000000 0.000244
1  -0.853095 -0.026367 105.001045  0.249659 0.019599 -0.011982
2  0.076050 0.018673 0.486576  -0.146739 0.015045 -0.004914
3  0.681926 3.061767 25.766747  -0.336151 0.008764 -0.016459
4  -0.270206 4.643914 15.082994  0.000000 -0.000000 -0.000000
5  7.861998 1.690549 20.553326  -1.064783 -0.028419 -0.030550
6  5.961567 5.877571 -14.357308  -1.174677 0.169099 -0.668005
7  10.132460 7.521418 -13.339909  0.158495 0.657754 -0.125125
8  7.071609 2.633337 -1.343421  -0.000000 0.000000 0.000000
9  -7.215014 2.908782 21.442217  -0.069271 0.015679 -0.003653
10  -2.914597 -15.412415 -6.310906  0.000000 0.017351 -0.000000
11  1.915934 -8.833015 13.424065  -0.000008 0.017349 -0.000001
12  5.659714 -11.449336 9.057106  -0.000000 0.017350 0.000000
13  1.189936 10.695260 -2.939713  0.000000 0.034787 0.000000
14  -2.124485 -24.104872 6.023559  0.000000 0.017350 -0.000000
15  3.333192 -6.468426 -1.508716  -0.000000 0.000000 0.000000
16  -0.160953 2.270950 5.513729  -0.000000 -0.000000 0.000000
17  0.783688 1.087373 11.560631  -0.000000 0.000000 0.000000
18  -0.017059 -0.034532 -0.654781  -0.158340 0.014565 -0.005225
19  -0.669090 -0.281068 -16.582529  -0.263068 0.011096 -0.012874
20  -0.054107 -0.368180 -0.390874  0.020112 0.000342 0.000349
21  2.926264 -1.135553 -24.857784  -0.634908 0.013079 -0.026013
22  0.176166 3.421202 -19.465687  0.692005 0.006016 0.049243
23  0.214477 3.945337 -14.796880  -0.522965 -0.006327 -0.042005
24  -0.127801 3.995609 -4.361937  0.000000 -0.000000 0.000000
25  -5.848764 -2.970822 -24.100008  -0.372771 0.008860 -0.011245
26  0.392180 -8.798159 -12.680974  -0.601147 -0.003722 -0.025416
27  1.845342 7.302801 -12.204814  -0.223693 0.011573 -0.015285
28  -0.506194 5.050752 -3.130169  -0.000000 -0.000000 0.000000
29  0.000009 -0.000000 206.122971  0.000000 -0.000000 0.000000
30  0.000000 0.000000 -0.000000  0.000000 -0.000000 0.000000
31  0.000000 0.000000 0.000000  0.000000 0.000000 0.000244
32  0.000000 0.000000 0.000000  0.000000 0.000000 0.000244
33  0.000000 0.000000 0.000000  0.000000 0.000000 0.000244
34  0.000000 0.000000 0.000000  0.000000 0.000000 0.000244
35  0.000000 0.000000 0.000000  0.000000 0.000000 0.000244
time 3
0  0.000000 0.000000 0.000000  0.000000 0.000000 0.000244
1  -0.853095 -0.026367 105.001045  0.465332 0.021769 -0.007261
2  0.076050 0.018673 0.486584  -0.198129 0.014262 -0.006622
3  0.681926 3.061770 25.766743  -0.453868 0.005761 -0.022238
4  -0.270205 4.643919 15.082967  -0.000000 -0.000000 -0.000000
5  7.861998 1.690552 20.553318  -1.480676 -0.047824 -0.041334
6  5.961567 5.877554 -14.357294  -1.635075 0.222184 -0.901863
7  10.132460 7.521422 -13.339916  0.213958 0.881827 -0.168951
8  7.071598 2.633333 -1.343422  0.000000 0.000000 -0.000000
9  -7.215014 2.908784 21.442209  -0.133599 0.014152 -0.007003
10  -2.914597 -15.412415 -6.310900  -0.000000 0.017351 -0.000000
11  1.915933 -8.833013 13.424058  -0.000008 0.017349 -0.000001
12  5.659715 -11.449336 9.057099  -0.000000 0.017350 0.000000
13  1.189937 10.695256 -2.939713  -0.000000 0.034787 0.000000
14  -2.124487 -24.104864 6.023570  0.000000 0.017350 -0.000000
15  3.861369 -7.468683 -1.747754  -0.000000 0.000000 0.000000
16  -0.160951 2.270948 5.513728  -0.000000 -0.000000 0.000000
17  0.783688 1.087374 11.560630  0.000000 0.000000 -0.000000
18  -0.017059 -0.034539 -0.654792  -0.213749 0.013572 -0.007012
19  -0.669090 -0.281070 -16.582529  -0.415850 0.007034 -0.020186
20  -0.054107 -0.368183 -0.390876  -0.011135 -0.000087 -0.000086
21  2.926264 -1.135549 -24.857786  -0.857099 0.005484 -0.035152
22  0.176166 3.421206 -19.465693  0.934184 0.002050 0.066492
23  0.214477 3.945332 -14.796884  -0.706051 -0.014672 -0.056790
24  -0.127800 3.995610 -4.361933  -0.000000 0.000000 0.000000
25  -5.848764 -2.970821 -24.100010  -0.503227 0.005803 -0.015217
26  0.392178 -8.798162 -12.680984  -0.811490 -0.011082 -0.034323
27  1.845342 7.302805 -12.204819  -0.302078 0.009517 -0.020657
28  -0.506194 5.050743 -3.130174  0.000000 -0.000000 0.000000
29  0.000009 -0.000000 206.122971  0.000000 -0.000000 0.000000
30  0.000000 0.000000 -0.000000  0.000000 -0.000000 0.000000
31  0.000000 0.000000 0.000000  0.000000 0.000000 0.000244
32  0.000000 0.000000 0.000000  0.000000 0.000000 0.000244
33  0.000000 0.000000 0.000000  0.000000 0.000000 0.000244
34  0.000000 0.000000 0.000000  0.000000 0.000000 0.000244
35  0.000000 0.000000 0.000000  0.000000 0.000000 0.000244
time 4
0  0.000000 0.000000 0.000000  0.000000 0.000000 0.000244
1  -0.853095 -0.026367 105.001045  0.680933 0.023853 -0.002448
2  0.076050 0.018671 0.486569  -0.194572 0.014282 -0.006511
3  0.681926 3.061766 25.766748  -0.446165 0.006008 -0.021898
4  -0.270205 4.643918 15.082951  0.000000 -0.000000 -0.000000
5  7.861997 1.690553 20.553328  -1.531492 -0.051708 -0.041202
6  5.961568 5.877556 -14.357297  -1.693486 0.157593 -0.896358
7  10.132450 7.521420 -13.339912  0.210612 0.867312 -0.167028
8  7.071611 2.633333 -1.343416  0.000000 -0.000000 0.000000
9  -7.215014 2.908784 21.442215  -0.197887 0.012582 -0.010444
10  -2.914595 -15.412420 -6.310904  0.000000 0.017351 -0.000000
11  1.915932 -8.833015 13.424041  -0.000008 0.017349 -0.000001
12  5.659712 -11.449340 9.057106  -0.000000 0.017350 0.000000
13  1.189934 10.695260 -2.939718  0.000000 0.034787 0.000000
14  -2.124486 -24.104862 6.023555  -0.000000 0.017350 -0.000000
15  4.435902 -8.552511 -2.007811  -0.000000 0.000000 0.000000
16  -0.160955 2.270954 5.513741  -0.000000 -0.000000 0.000000
17  0.783688 1.087372 11.560623  0.000000 0.000000 0.000000
18  -0.017059 -0.034544 -0.654803  -0.130900 0.015553 -0.004220
19  -0.669090 -0.281065 -16.582539  -0.510558 0.003350 -0.024426
20  -0.054107 -0.368177 -0.390883  -0.009063 -0.000087 -0.000086
21  2.926264 -1.135552 -24.857790  -0.686524 0.014005 -0.029298
22  0.176166 3.421204 -19.465691  0.917782 0.002783 0.065507
23  0.214477 3.945334 -14.796874  -0.693843 -0.013810 -0.055963
24  -0.127801 3.995610 -4.361930  0.000000 0.000000 0.000000
25  -5.848765 -2.970822 -24.100016  -0.210685 0.010891 -0.004537
26  0.392180 -8.798165 -12.680983  -0.797239 -0.010330 -0.033865
27  1.845342 7.302800 -12.204819  -0.296927 0.009706 -0.020304
28  -0.506195 5.050752 -3.130177  0.000000 -0.000000 -0.000000
29  0.000009 -0.000000 206.122971  0.000000 -0.000000 0.000000
30  0.000000 0.000000 -0.000000  0.000000 -0.000000 0.000000
31  0.000000 0.000000 0.000000  0.000000 0.000000 0.000244
32  0.000000 0.000000 0.000000  0.000000 0.000000 0.000244
33  0.000000 0.000000 0.000000  0.000000 0.000000 0.000244
34  0.000000 0.000000 0.000000  0.000000 0.000000 0.000244
35  0.000000 0.000000 0.000000  0.000000 0.000000 0.000244
time 5
0  0.000000 0.000000 0.000000  0.000000 0.000000 0.000244
1  -0.853095 -0.026367 105.001045  0.846805 0.025429 0.001140
2  0.076050 0.018677 0.486573  -0.186593 0.014410 -0.006290
3  0.681926 3.061768 25.766756  -0.429101 0.006613 -0.021142
4  -0.270204 4.643918 15.082959  0.000000 -0.000000 -0.000000
5  7.861998 1.690553 20.553328  -1.550165 -0.053187 -0.040973
6  5.961569 5.877570 -14.357291  -1.714784 0.037916 -0.886082
7  10.132454 7.521424 -13.339904  0.203427 0.835200 -0.162683
8  7.071610 2.633331 -1.343416  -0.000000 -0.000000 0.000000
9  -7.215014 2.908789 21.442228  -0.247407 0.011421 -0.013076
10  -2.914598 -15.412412 -6.310881  0.000000 0.017351 0.000000
11  1.915931 -8.833014 13.424059  -0.000008 0.017349 -0.000001
12  5.659712 -11.449335 9.057117  -0.000000 0.017350 0.000000
13  1.189933 10.695258 -2.939718  -0.000000 0.034787 0.000000
14  -2.124483 -24.104866 6.023566  0.000000 0.017350 -0.000000
15  4.962738 -9.544230 -2.246270  -0.000000 0.000000 0.000000
16  -0.160956 2.270954 5.513741  -0.000000 -0.000000 0.000000
17  0.783688 1.087375 11.560635  0.000000 0.000000 -0.000000
18  -0.017059 -0.034537 -0.654792  0.022884 0.019240 0.000911
19  -0.669091 -0.281054 -16.582535  -0.580356 -0.000122 -0.027260
20  -0.054107 -0.368178 -0.390869  -0.004402 0.000000 0.000000
21  2.926264 -1.135558 -24.857788  -0.369886 0.029995 -0.018522
22  0.176166 3.421202 -19.465685  0.881837 0.004491 0.063310
23  0.214477 3.945348 -14.796873  -0.667135 -0.011947 -0.054243
24  -0.127800 3.995610 -4.361938  0.000000 0.000000 0.000000
25  -5.848764 -2.970827 -24.100014  0.332560 0.020205 0.015208
26  0.392180 -8.798163 -12.680984  -0.765793 -0.008832 -0.033016
27  1.845342 7.302799 -12.204822  -0.285585 0.010090 -0.019590
28  -0.506194 5.050751 -3.130171  0.000000 -0.000000 0.000000
29  0.000009 -0.000000 206.122971  0.000000 -0.000000 0.000000
30  0.000000 0.000000 -0.000000  0.000000 -0.000000 0.000000
31  0.000000 0.000000 0.000000  0.000000 0.000000 0.000244
32  0.000000 0.000000 0.000000  0.000000 0.000000 0.000244
33  0.000000 0.000000 0.000000  0.000000 0.000000 0.000244
34  0.000000 0.000000 0.000000  0.000000 0.000000 0.000244
35  0.000000 0.000000 0.000000  0.000000 0.000000 0.000244
time 6
0  0.000000 0.000000 0.000000  0.000000 0.000000 0.000244
1  -0.853095 -0.026367 105.001045  0.913143 0.026115 0.002633
2  0.076050 0.018674 0.486573  -0.178617 0.014544 -0.005982
3  0.681925 3.061759 25.766747  -0.412157 0.007271 -0.020480
4  -0.270205 4.643914 15.082947  0.000000 -0.000000 -0.000000
5  7.861997 1.690545 20.553322  -1.552829 -0.053303 -0.040842
6  5.961567 5.877555 -14.357291  -1.717819 -0.026424 -0.880539
7  10.132460 7.521429 -13.339914  0.196131 0.803193 -0.158474
8  7.071620 2.633334 -1.343418  -0.000000 -0.000000 -0.000000
9  -7.215014 2.908777 21.442211  -0.267169 0.010994 -0.014106
10  -2.914595 -15.412408 -6.310895  0.000000 0.017351 -0.000000
11  1.915931 -8.833008 13.424055  -0.000008 0.017349 -0.000001
12  5.659714 -11.449337 9.057106  -0.000000 0.017350 0.000000
13  1.189934 10.695255 -2.939722  0.000000 0.034787 0.000000
14  -2.124487 -24.104864 6.023570  0.000000 0.017350 -0.000000
15  5.347815 -10.268086 -2.420568  -0.000000 0.000000 0.000000
16  -0.160953 2.270944 5.513731  0.000000 -0.000000 0.000000
17  0.783689 1.087361 11.560624  -0.000000 0.000000 0.000000
18  -0.017059 -0.034534 -0.654788  0.105747 0.021240 0.003717
19  -0.669091 -0.281060 -16.582533  -0.607512 -0.001647 -0.028341
20  -0.054107 -0.368182 -0.390878  0.000173 0.000000 0.000000
21  2.926264 -1.135548 -24.857786  -0.199316 0.038550 -0.012705
22  0.176166 3.421203 -19.465687  0.845718 0.006126 0.061072
23  0.214477 3.945326 -14.796875  -0.640459 -0.010050 -0.052512
24  -0.127801 3.995610 -4.361928  0.000000 0.000000 0.000000
25  -5.848765 -2.970814 -24.100014  0.625116 0.025299 0.025866
26  0.392180 -8.798165 -12.680978  -0.734361 -0.007283 -0.032159
27  1.845343 7.302806 -12.204818  -0.274252 0.010552 -0.018884
28  -0.506193 5.050750 -3.130170  -0.000000 -0.000000 0.000000
29  0.000009 -0.000000 206.122971  0.000000 -0.000000 0.000000
30  0.000000 0.000000 -0.000000  0.000000 -0.000000 0.000000
31  0.000000 0.000000 0.000000  0.000000 0.000000 0.000244
32  0.000000 0.000000 0.000000  0.000000 0.000000 0.000244
33  0.000000 0.000000 0.000000  0.000000 0.000000 0.000244
34  0.000000 0.000000 0.000000  0.000000 0.000000 0.000244
35  0.000000 0.000000 0.000000  0.000000 0.000000 0.000244
time 7
0  0.000000 0.000000 0.000000  0.000000 0.000000 0.000244
1  -0.853095 -0.026367 105.001045  0.913143 0.026115 0.002633
2  0.076050 0.018674 0.486573  -0.175063 0.014648 -0.005878
3  0.681925 3.061767 25.766752  -0.404400 0.007504 -0.020131
4  -0.270204 4.643924 15.082970  -0.000000 -0.000000 -0.000000
5  7.861997 1.690545 20.553326  -1.552829 -0.053303 -0.040842
6  5.961568 5.877576 -14.357300  -1.717819 -0.026424 -0.880539
7  10.132454 7.521420 -13.339903  0.192859 0.788624 -0.156509
8  7.071625 2.633325 -1.343418  -0.000000 -0.000000 -0.000000
9  -7.215014 2.908779 21.442211  -0.267168 0.010994 -0.014106
10  -2.914597 -15.412412 -6.310895  -0.000000 0.017351 -0.000000
11  1.915931 -8.833012 13.424059  -0.000008 0.017349 -0.000001
12  5.659715 -11.449340 9.057099  -0.000000 0.017350 0.000000
13  1.189932 10.695255 -2.939703  -0.000000 0.034787 0.000000
14  -2.124486 -24.104864 6.023543  -0.000000 0.017350 -0.000000
15  5.497081 -10.548424 -2.488145  -0.000000 0.000000 0.000000
16  -0.160951 2.270950 5.513717  -0.000000 -0.000000 0.000000
17  0.783688 1.087370 11.560633  -0.000000 0.000000 0.000000
18  -0.017059 -0.034534 -0.654788  0.105747 0.021240 0.003717
19  -0.669091 -0.281060 -16.582533  -0.607512 -0.001647 -0.028341
20  -0.054107 -0.368182 -0.390878  0.002331 0.000086 0.000086
21  2.926263 -1.135553 -24.857786  -0.199316 0.038550 -0.012705
22  0.176166 3.421213 -19.465687  0.829372 0.006850 0.060081
23  0.214477 3.945342 -14.796877  -0.628299 -0.009191 -0.051749
24  -0.127801 3.995603 -4.361928  -0.000000 0.000000 0.000000
25  -5.848764 -2.970823 -24.100014  0.625116 0.025299 0.025866
26  0.392180 -8.798162 -12.680978  -0.720053 -0.006598 -0.031736
27  1.845342 7.302795 -12.204810  -0.269112 0.010721 -0.018611
28  -0.506195 5.050747 -3.130181  -0.000000 -0.000000 0.000000
29  0.000009 -0.000000 206.122971  0.000000 -0.000000 0.000000
30  0.000000 0.000000 -0.000000  0.000000 -0.000000 0.000000
31  0.000000 0.000000 0.000000  0.000000 0.000000 0.000244
32  0.000000 0.000000 0.000000  0.000000 0.000000 0.000244
33  0.000000 0.000000 0.000000  0.000000 0.000000 0.000244
34  0.000000 0.000000 0.000000  0.000000 0.000000 0.000244
35  0.000000 0.000000 0.000000  0.000000 0.000000 0.000244
time 8
0  0.000000 0.000000 0.000000  0.000000 0.000000 0.000244
1  -0.853095 -0.026367 105.001045  0.913143 0.026115 0.002633
2  0.076050 0.018674 0.486573  -0.175063 0.014648 -0.005878
3  0.681925 3.061767 25.766752  -0.404400 0.007504 -0.020131
4  -0.270204 4.643924 15.082970  -0.000000 -0.000000 -0.000000
5  7.861997 1.690545 20.553326  -1.552829 -0.053303 -0.040842
6  5.961568 5.877576 -14.357300  -1.717819 -0.026424 -0.880539
7  10.132454 7.521420 -13.339903  0.192859 0.788624 -0.156509
8  7.071625 2.633325 -1.343418  -0.000000 -0.000000 -0.000000
9  -7.215014 2.908779 21.442211  -0.267168 0.010994 -0.014106
10  -2.914597 -15.412412 -6.310895  -0.000000 0.017351 -0.000000
11  1.915931 -8.833012 13.424059  -0.000008 0.017349 -0.000001
12  5.659715 -11.449340 9.057099  -0.000000 0.017350 0.000000
13  1.189932 10.695255 -2.939703  -0.000000 0.034787 0.000000
14  -2.124486 -24.104864 6.023543  -0.000000 0.017350 -0.000000
15  4.777222 -9.203622 -2.162317  -0.000000 0.000000 0.000000
16  -0.160951 2.270950 5.513717  -0.000000 -0.000000 0.000000
17  0.783688 1.087370 11.560633  -0.000000 0.000000 0.000000
18  -0.017059 -0.034534 -0.654788  0.105747 0.021240 0.003717
19  -0.669091 -0.281060 -16.582533  -0.607512 -0.001647 -0.028341
20  -0.054107 -0.368182 -0.390878  0.002331 0.000086 0.000086
21  2.926263 -1.135553 -24.857786  -0.199316 0.038550 -0.012705
22  0.176166 3.421213 -19.465687  0.829372 0.006850 0.060081
23  0.214477 3.945342 -14.796877  -0.628299 -0.009191 -0.051749
24  -0.127801 3.995603 -4.361928  -0.000000 0.000000 0.000000
25  -5.848764 -2.970823 -24.100014  0.625116 0.025299 0.025866
26  0.392180 -8.798162 -12.680978  -0.720053 -0.006598 -0.031736
27  1.845342 7.302795 -12.204810  -0.269112 0.010721 -0.018611
28  -0.506195 5.050747 -3.130181  -0.000000 -0.000000 0.000000
29  0.000009 -0.000000 206.122971  0.000000 -0.000000 0.000000
30  0.000000 0.000000 -0.000000  0.000000 -0.000000 0.000000
31  0.000000 0.000000 0.000000  0.000000 0.000000 0.000244
32  0.000000 0.000000 0.000000  0.000000 0.000000 0.000244
33  0.000000 0.000000 0.000000  0.000000 0.000000 0.000244
34  0.000000 0.000000 0.000000  0.000000 0.000000 0.000244
35  0.000000 0.000000 0.000000  0.000000 0.000000 0.000244
time 9
0  0.000000 0.000000 0.000000  0.000000 0.000000 0.000244
1  -0.853095 -0.026367 105.001045  0.913143 0.026115 0.002633
2  0.076050 0.018674 0.486573  -0.175063 0.014648 -0.005878
3  0.681925 3.061767 25.766752  -0.404400 0.007504 -0.020131
4  -0.270204 4.643924 15.082970  -0.000000 -0.000000 -0.000000
5  7.861997 1.690545 20.553326  -1.552829 -0.053303 -0.040842
6  5.961568 5.877576 -14.357300  -1.717819 -0.026424 -0.880539
7  10.132454 7.521420 -13.339903  0.192859 0.788624 -0.156509
8  7.071625 2.633325 -1.343418  -0.000000 -0.000000 -0.000000
9  -7.215014 2.908779 21.442211  -0.267168 0.010994 -0.014106
10  -2.914597 -15.412412 -6.310895  -0.000000 0.017351 -0.000000
11  1.915931 -8.833012 13.424059  -0.000008 0.017349 -0.000001
12  5.659715 -11.449340 9.057099  -0.000000 0.017350 0.000000
13  1.189932 10.695255 -2.939703  -0.000000 0.034787 0.000000
14  -2.124486 -24.104864 6.023543  -0.000000 0.017350 -0.000000
15  2.792168 -5.421352 -1.263829  -0.000000 0.000000 0.000000
16  -0.160951 2.270950 5.513717  -0.000000 -0.000000 0.000000
17  0.783688 1.087370 11.560633  -0.000000 0.000000 0.000000
18  -0.017059 -0.034534 -0.654788  0.105747 0.021240 0.003717
19  -0.669091 -0.281060 -16.582533  -0.607512 -0.001647 -0.028341
20  -0.054107 -0.368182 -0.390878  0.002331 0.000086 0.000086
21  2.926263 -1.135553 -24.857786  -0.199316 0.038550 -0.012705
22  0.176166 3.421213 -19.465687  0.829372 0.006850 0.060081
23  0.214477 3.945342 -14.796877  -0.628299 -0.009191 -0.051749
24  -0.127801 3.995603 -4.361928  -0.000000 0.000000 0.000000
25  -5.848764 -2.970823 -24.100014  0.625116 0.025299 0.025866
26  0.392180 -8.798162 -12.680978  -0.720053 -0.006598 -0.031736
27  1.845342 7.302795 -12.204810  -0.269112 0.010721 -0.018611
28  -0.506195 5.050747 -3.130181  -0.000000 -0.000000 0.000000
29  0.000009 -0.000000 206.122971  0.000000 -0.000000 0.000000
30  0.000000 0.000000 -0.000000  0.000000 -0.000000 0.000000
31  0.000000 0.000000 0.000000  0.000000 0.000000 0.000244
32  0.000000 0.000000 0.000000  0.000000 0.000000 0.000244
33  0.000000 0.000000 0.000000  0.000000 0.000000 0.000244
34  0.000000 0.000000 0.000000  0.000000 0.000000 0.000244
35  0.000000 0.000000 0.000000  0.000000 0.000000 0.000244
time 10
0  0.000000 0.000000 0.000000  0.000000 0.000000 0.000244
1  -0.853095 -0.026367 105.001045  0.913143 0.026115 0.002633
2  0.076050 0.018674 0.486573  -0.175063 0.014648 -0.005878
3  0.681925 3.061767 25.766752  -0.404400 0.007504 -0.020131
4  -0.270204 4.643924 15.082970  -0.000000 -0.000000 -0.000000
5  7.861997 1.690545 20.553326  -1.552829 -0.053303 -0.040842
6  5.961568 5.877576 -14.357300  -1.717819 -0.026424 -0.880539
7  10.132454 7.521420 -13.339903  0.192859 0.788624 -0.156509
8  7.071625 2.633325 -1.343418  -0.000000 -0.000000 -0.000000
9  -7.215014 2.908779 21.442211  -0.267168 0.010994 -0.014106
10  -2.914597 -15.412412 -6.310895  -0.000000 0.017351 -0.000000
11  1.915931 -8.833012 13.424059  -0.000008 0.017349 -0.000001
12  5.659715 -11.449340 9.057099  -0.000000 0.017350 0.000000
13  1.189932 10.695255 -2.939703  -0.000000 0.034787 0.000000
14  -2.124486 -24.104864 6.023543  -0.000000 0.017350 -0.000000
15  4.297318 -8.279063 -1.945109  -0.000000 0.000000 0.000000
16  -0.160951 2.270950 5.513717  -0.000000 -0.000000 0.000000
17  0.783688 1.087370 11.560633  -0.000000 0.000000 0.000000
18  -0.017059 -0.034534 -0.654788  0.105747 0.021240 0.003717
19  -0.669091 -0.281060 -16.582533  -0.607512 -0.001647 -0.028341
20  -0.054107 -0.368182 -0.390878  0.002331 0.000086 0.000086
21  2.926263 -1.135553 -24.857786  -0.199316 0.038550 -0.012705
22  0.176166 3.421213 -19.465687  0.829372 0.006850 0.060081
23  0.214477 3.945342 -14.796877  -0.628299 -0.009191 -0.051749
24  -0.127801 3.995603 -4.361928  -0.000000 0.000000 0.000000
25  -5.848764 -2.970823 -24.100014  0.625116 0.025299 0.025866
26  0.392180 -8.798162 -12.680978  -0.720053 -0.006598 -0.031736
27  1.845342 7.302795 -12.204810  -0.269112 0.010721 -0.018611
28  -0.506195 5.050747 -3.130181  -0.000000 -0.000000 0.000000
29  0.000009 -0.000000 206.122971  0.000000 -0.000000 0.000000
30  0.000000 0.000000 -0.000000  0.000000 -0.000000 0.000000
31  0.000000 0.000000 0.000000  0.000000 0.000000 0.000244
32  0.000000 0.000000 0.000000  0.000000 0.000000 0.000244
33  0.000000 0.000000 0.000000  0.000000 0.000000 0.000244
34  0.000000 0.000000 0.000000  0.000000 0.000000 0.000244
35  0.000000 0.000000 0.000000  0.000000 0.000000 0.000244
time 11
0  0.000000 0.000000 0.000000  0.000000 0.000000 0.000244
1  -0.853095 -0.026367 105.001045  0.913143 0.026115 0.002633
2  0.076050 0.018674 0.486573  -0.175063 0.014648 -0.005878
3  0.681925 3.061767 25.766752  -0.404400 0.007504 -0.020131
4  -0.270204 4.643924 15.082970  -0.000000 -0.000000 -0.000000
5  7.861997 1.690545 20.553326  -1.552829 -0.053303 -0.040842
6  5.961568 5.877576 -14.357300  -1.717819 -0.026424 -0.880539
7  10.132454 7.521420 -13.339903  0.192859 0.788624 -0.156509
8  7.071625 2.633325 -1.343418  -0.000000 -0.000000 -0.000000
9  -7.215014 2.908779 21.442211  -0.267168 0.010994 -0.014106
10  -2.914597 -15.412412 -6.310895  -0.000000 0.017351 -0.000000
11  1.915931 -8.833012 13.424059  -0.000008 0.017349 -0.000001
12  5.659715 -11.449340 9.057099  -0.000000 0.017350 0.000000
13  1.189932 10.695255 -2.939703  -0.000000 0.034787 0.000000
14  -2.124486 -24.104864 6.023543  -0.000000 0.017350 -0.000000
15  6.107866 -11.683112 -2.764591  -0.000000 0.000000 0.000000
16  -0.160951 2.270950 5.513717  -0.000000 -0.000000 0.000000
17  0.783688 1.087370 11.560633  -0.000000 0.000000 0.000000
18  -0.017059 -0.034534 -0.654788  0.105747 0.021240 0.003717
19  -0.669091 -0.281060 -16.582533  -0.607512 -0.001647 -0.028341
20  -0.054107 -0.368182 -0.390878  0.002331 0.000086 0.000086
21  2.926263 -1.135553 -24.857786  -0.199316 0.038550 -0.012705
22  0.176166 3.421213 -19.465687  0.829372 0.006850 0.060081
23  0.214477 3.945342 -14.796877  -0.628299 -0.009191 -0.051749
24  -0.127801 3.995603 -4.361928  -0.000000 0.000000 0.000000
25  -5.848764 -2.970823 -24.100014  0.625116 0.025299 0.025866
26  0.392180 -8.798162 -12.680978  -0.720053 -0.006598 -0.031736
27  1.845342 7.302795 -12.204810  -0.269112 0.010721 -0.018611
28  -0.506195 5.050747 -3.130181  -0.000000 -0.000000 0.000000
29  0.000009 -0.000000 206.122971  0.000000 -0.000000 0.000000
30  0.000000 0.000000 -0.000000  0.000000 -0.000000 0.000000
31  0.000000 0.000000 0.000000  0.000000 0.000000 0.000244
32  0.000000 0.000000 0.000000  0.000000 0.000000 0.000244
33  0.000000 0.000000 0.000000  0.000000 0.000000 0.000244
34  0.000000 0.000000 0.000000  0.000000 0.000000 0.000244
35  0.000000 0.000000 0.000000  0.000000 0.000000 0.000244
time 12
0  0.000000 0.000000 0.000000  0.000000 0.000000 0.000244
1  -0.853095 -0.026367 105.001045  0.913143 0.026115 0.002633
2  0.076050 0.018674 0.486573  -0.175063 0.014648 -0.005878
3  0.681925 3.061767 25.766752  -0.404400 0.007504 -0.020131
4  -0.270204 4.643924 15.082970  -0.000000 -0.000000 -0.000000
5  7.861997 1.690545 20.553326  -1.552829 -0.053303 -0.040842
6  5.961568 5.877576 -14.357300  -1.717819 -0.026424 -0.880539
7  10.132454 7.521420 -13.339903  0.192859 0.788624 -0.156509
8  7.071625 2.633325 -1.343418  -0.000000 -0.000000 -0.000000
9  -7.215014 2.908779 21.442211  -0.267168 0.010994 -0.014106
10  -2.914597 -15.412412 -6.310895  -0.000000 0.017351 -0.000000
11  1.915931 -8.833012 13.424059  -0.000008 0.017349 -0.000001
12  5.659715 -11.449340 9.057099  -0.000000 0.017350 0.000000
13  1.189932 10.695255 -2.939703  -0.000000 0.034787 0.000000
14  -2.124486 -24.104864 6.023543  -0.000000 0.017350 -0.000000
15  1.930522 -3.803374 -0.873839  -0.000000 0.000000 0.000000
16  -0.160951 2.270950 5.513717  -0.000000 -0.000000 0.000000
17  0.783688 1.087370 11.560633  -0.000000 0.000000 0.000000
18  -0.017059 -0.034534 -0.654788  0.105747 0.021240 0.003717
19  -0.669091 -0.281060 -16.582533  -0.607512 -0.001647 -0.028341
20  -0.054107 -0.368182 -0.390878  0.002331 0.000086 0.000086
21  2.926263 -1.135553 -24.857786  -0.199316 0.038550 -0.012705
22  0.176166 3.421213 -19.465687  0.829372 0.006850 0.060081
23  0.214477 3.945342 -14.796877  -0.628299 -0.009191 -0.051749
24  -0.127801 3.995603 -4.361928  -0.000000 0.000000 0.000000
25  -5.848764 -2.970823 -24.100014  0.625116 0.025299 0.025866
26  0.392180 -8.798162 -12.680978  -0.720053 -0.006598 -0.031736
27  1.845342 7.302795 -12.204810  -0.269112 0.010721 -0.018611
28  -0.506195 5.050747 -3.130181  -0.000000 -0.000000 0.000000
29  0.000009 -0.000000 206.122971  0.000000 -0.000000 0.000000
30  0.000000 0.000000 -0.000000  0.000000 -0.000000 0.000000
31  0.000000 0.000000 0.000000  0.000000 0.000000 0.000244
32  0.000000 0.000000 0.000000  0.000000 0.000000 0.000244
33  0.000000 0.000000 0.000000  0.000000 0.000000 0.000244
34  0.000000 0.000000 0.000000  0.000000 0.000000 0.000244
35  0.000000 0.000000 0.000000  0.000000 0.000000 0.000244
time 13
0  0.000000 0.000000 0.000000  0.000000 0.000000 0.000244
1  -0.853095 -0.026367 105.001045  0.913143 0.026115 0.002633
2  0.076050 0.018674 0.486573  -0.175063 0.014648 -0.005878
3  0.681925 3.061767 25.766752  -0.404400 0.007504 -0.020131
4  -0.270204 4.643924 15.082970  -0.000000 -0.000000 -0.000000
5  7.861997 1.690545 20.553326  -1.552829 -0.053303 -0.040842
6  5.961568 5.877576 -14.357300  -1.717819 -0.026424 -0.880539
7  10.132454 7.521420 -13.339903  0.192859 0.788624 -0.156509
8  7.071625 2.633325 -1.343418  -0.000000 -0.000000 -0.000000
9  -7.215014 2.908779 21.442211  -0.267168 0.010994 -0.014106
10  -2.914597 -15.412412 -6.310895  -0.000000 0.017351 -0.000000
11  1.915931 -8.833012 13.424059  -0.000008 0.017349 -0.000001
12  5.659715 -11.449340 9.057099  -0.000000 0.017350 0.000000
13  1.189932 10.695255 -2.939703  -0.000000 0.034787 0.000000
14  -2.124486 -24.104864 6.023543  -0.000000 0.017350 -0.000000
15  2.792168 -5.421352 -1.263829  -0.000000 0.000000 0.000000
16  -0.160951 2.270950 5.513717  -0.000000 -0.000000 0.000000
17  0.783688 1.087370 11.560633  -0.000000 0.000000 0.000000
18  -0.017059 -0.034534 -0.654788  0.105747 0.021240 0.003717
19  -0.669091 -0.281060 -16.582533  -0.607512 -0.001647 -0.028341
20  -0.054107 -0.368182 -0.390878  0.002331 0.000086 0.000086
21  2.926263 -1.135553 -24.857786  -0.199316 0.038550 -0.012705
22  0.176166 3.421213 -19.465687  0.829372 0.006850 0.060081
23  0.214477 3.945342 -14.796877  -0.628299 -0.009191 -0.051749
24  -0.127801 3.995603 -4.361928  -0.000000 0.000000 0.000000
25  -5.848764 -2.970823 -24.100014  0.625116 0.025299 0.025866
26  0.392180 -8.798162 -12.680978  -0.720053 -0.006598 -0.031736
27  1.845342 7.302795 -12.204810  -0.269112 0.010721 -0.018611
28  -0.506195 5.050747 -3.130181  -0.000000 -0.000000 0.000000
29  0.000009 -0.000000 206.122971  0.000000 -0.000000 0.000000
30  0.000000 0.000000 -0.000000  0.000000 -0.000000 0.000000
31  0.000000 0.000000 0.000000  0.000000 0.000000 0.000244
32  0.000000 0.000000 0.000000  0.000000 0.000000 0.000244
33  0.000000 0.000000 0.000000  0.000000 0.000000 0.000244
34  0.000000 0.000000 0.000000  0.000000 0.000000 0.000244
35  0.000000 0.000000 0.000000  0.000000 0.000000 0.000244
time 14
0  0.000000 0.000000 0.000000  0.000000 0.000000 0.000244
1  -0.853095 -0.026367 105.001045  0.905165 0.025970 0.002454
2  0.076050 0.018678 0.486571  -0.173503 0.014652 -0.005867
3  0.681926 3.061773 25.766754  -0.400788 0.007575 -0.019948
4  -0.270205 4.643909 15.082957  0.000000 -0.000000 -0.000000
5  7.861998 1.690550 20.553324  -1.541474 -0.052713 -0.040528
6  5.961568 5.877563 -14.357293  -1.702507 -0.026364 -0.873955
7  10.132454 7.521429 -13.339900  0.192275 0.781713 -0.155115
8  7.071620 2.633335 -1.343417  -0.000000 -0.000000 0.000000
9  -7.215014 2.908784 21.442223  -0.264817 0.011022 -0.014008
10  -2.914597 -15.412409 -6.310886  0.000000 0.017351 0.000000
11  1.915932 -8.833010 13.424067  -0.000008 0.017349 -0.000001
12  5.659711 -11.449338 9.057099  -0.000000 0.017350 0.000000
13  1.189934 10.695257 -2.939707  -0.000000 0.034787 0.000000
14  -2.124489 -24.104858 6.023570  -0.000000 0.017350 -0.000000
15  2.792171 -5.421341 -1.263822  0.000000 0.000000 0.000000
16  -0.160955 2.270949 5.513728  0.000000 -0.000000 0.000000
17  0.783689 1.087373 11.560629  0.000000 0.000000 0.000000
18  -0.017059 -0.034531 -0.654798  0.104794 0.021160 0.003617
19  -0.669091 -0.281058 -16.582535  -0.602088 -0.001493 -0.028098
20  -0.054107 -0.368174 -0.390885  0.003280 0.000086 0.000086
21  2.926264 -1.135557 -24.857796  -0.197577 0.038484 -0.012577
22  0.176166 3.421208 -19.465694  0.822015 0.007006 0.059556
23  0.214476 3.945346 -14.796876  -0.622676 -0.008969 -0.051255
24  -0.127802 3.995615 -4.361923  0.000000 0.000000 0.000000
25  -5.848764 -2.970826 -24.100025  0.619580 0.025233 0.025661
26  0.392181 -8.798169 -12.680976  -0.713602 -0.006375 -0.031433
27  1.845341 7.302795 -12.204823  -0.266759 0.010766 -0.018428
28  -0.506194 5.050752 -3.130169  -0.000000 -0.000000 0.000000
29  0.000009 -0.000000 206.122971  0.000000 -0.000000 0.000000
30  0.000000 0.000000 -0.000000  0.000000 -0.000000 0.000000
31  0.000000 0.000000 0.000000  0.000000 0.000000 0.000244
32  0.000000 0.000000 0.000000  0.000000 0.000000 0.000244
33  0.000000 0.000000 0.000000  0.000000 0.000000 0.000244
34  0.000000 0.000000 0.000000  0.000000 0.000000 0.000244
35  0.000000 0.000000 0.000000  0.000000 0.000000 0.000244
time 15
0  0.000000 0.000000 0.000000  0.000000 0.000000 0.000244
1  -0.853095 -0.026367 105.001045  0.882470 0.025799 0.001970
2  0.076050 0.018672 0.486565  -0.168999 0.014658 -0.005920
3  0.681926 3.061763 25.766748  -0.390486 0.007778 -0.019401
4  -0.270204 4.643917 15.082968  0.000000 -0.000000 -0.000000
5  7.861998 1.690545 20.553324  -1.509205 -0.050950 -0.039444
6  5.961569 5.877570 -14.357307  -1.658901 -0.025936 -0.855119
7  10.132447 7.521434 -13.339893  0.190443 0.762191 -0.151185
8  7.071620 2.633329 -1.343420  0.000000 -0.000000 0.000000
9  -7.215013 2.908777 21.442211  -0.258024 0.011114 -0.013628
10  -2.914596 -15.412411 -6.310896  -0.000000 0.017351 0.000000
11  1.915933 -8.833013 13.424041  -0.000008 0.017349 -0.000001
12  5.659713 -11.449344 9.057100  -0.000000 0.017350 0.000000
13  1.189933 10.695267 -2.939679  0.000000 0.034787 0.000000
14  -2.124487 -24.104866 6.023573  -0.000000 0.017350 -0.000000
15  2.792170 -5.421345 -1.263860  -0.000000 0.000000 0.000000
16  -0.160953 2.270952 5.513732  -0.000000 -0.000000 0.000000
17  0.783689 1.087364 11.560630  0.000000 0.000000 0.000000
18  -0.017059 -0.034543 -0.654792  0.102114 0.021079 0.003584
19  -0.669090 -0.281069 -16.582531  -0.586653 -0.001052 -0.027365
20  -0.054107 -0.368176 -0.390875  0.005956 0.000086 0.000087
21  2.926264 -1.135542 -24.857792  -0.192452 0.038455 -0.012212
22  0.176166 3.421186 -19.465681  0.800945 0.007196 0.058075
23  0.214476 3.945335 -14.796871  -0.606742 -0.008312 -0.049954
24  -0.127800 3.995608 -4.361927  0.000000 0.000000 0.000000
25  -5.848765 -2.970811 -24.100018  0.603723 0.025043 0.024977
26  0.392180 -8.798168 -12.680978  -0.695398 -0.005765 -0.030597
27  1.845342 7.302798 -12.204817  -0.259879 0.010971 -0.017974
28  -0.506195 5.050748 -3.130177  -0.000000 -0.000000 0.000000
29  0.000009 -0.000000 206.122971  0.000000 -0.000000 0.000000
30  0.000000 0.000000 -0.000000  0.000000 -0.000000 0.000000
31  0.000000 0.000000 0.000000  0.000000 0.000000 0.000244
32  0.000000 0.000000 0.000000  0.000000 0.000000 0.000244
33  0.000000 0.000000 0.000000  0.000000 0.000000 0.000244
34  0.000000 0.000000 0.000000  0.000000 0.000000 0.000244
35  0.000000 0.000000 0.000000  0.000000 0.000000 0.000244
time 16
0  0.000000 0.000000 0.000000  0.000000 0.000000 0.000244
1  -0.853095 -0.026367 105.001045  0.846805 0.025429 0.001140
2  0.076050 0.018677 0.486573  -0.162069 0.014679 -0.005869
3  0.681926 3.061767 25.766752  -0.374394 0.007977 -0.018643
4  -0.270204 4.643922 15.082960  0.000000 -0.000000 -0.000000
5  7.861998 1.690550 20.553326  -1.458110 -0.048132 -0.037817
6  5.961568 5.877570 -14.357305  -1.590653 -0.025283 -0.825280
7  10.132454 7.521419 -13.339903  0.187344 0.731464 -0.144947
8  7.071623 2.633332 -1.343418  0.000000 0.000000 -0.000000
9  -7.215014 2.908782 21.442217  -0.247406 0.011250 -0.013055
10  -2.914595 -15.412417 -6.310898  -0.000000 0.017351 0.000000
11  1.915933 -8.833018 13.424062  -0.000008 0.017349 -0.000001
12  5.659714 -11.449337 9.057102  -0.000000 0.017350 0.000000
13  1.189933 10.695263 -2.939708  -0.000000 0.034787 0.000000
14  -2.124488 -24.104864 6.023557  0.000000 0.017350 -0.000000
15  2.792167 -5.421349 -1.263835  -0.000000 0.000000 0.000000
16  -0.160953 2.270954 5.513721  -0.000000 -0.000000 0.000000
17  0.783688 1.087368 11.560627  0.000000 0.000000 -0.000000
18  -0.017059 -0.034537 -0.654792  0.097964 0.020918 0.003445
19  -0.669091 -0.281057 -16.582531  -0.562536 -0.000220 -0.026262
20  -0.054107 -0.368178 -0.390869  0.010272 0.000172 0.000174
21  2.926263 -1.135554 -24.857788  -0.184549 0.038276 -0.011692
22  0.176166 3.421192 -19.465683  0.767936 0.007664 0.055702
23  0.214477 3.945340 -14.796876  -0.581746 -0.007233 -0.047937
24  -0.127800 3.995609 -4.361940  0.000000 0.000000 0.000000
25  -5.848765 -2.970826 -24.100018  0.578793 0.024673 0.023920
26  0.392180 -8.798172 -12.680980  -0.666741 -0.004792 -0.029400
27  1.845343 7.302798 -12.204815  -0.249173 0.011238 -0.017240
28  -0.506192 5.050740 -3.130181  -0.000000 -0.000000 0.000000
29  0.000009 -0.000000 206.122971  0.000000 -0.000000 0.000000
30  0.000000 0.000000 -0.000000  0.000000 -0.000000 0.000000
31  0.000000 0.000000 0.000000  0.000000 0.000000 0.000244
32  0.000000 0.000000 0.000000  0.000000 0.000000 0.000244
33  0.000000 0.000000 0.000000  0.000000 0.000000 0.000244
34  0.000000 0.000000 0.000000  0.000000 0.000000 0.000244
35  0.000000 0.000000 0.000000  0.000000 0.000000 0.000244
time 17
0  0.000000 0.000000 0.000000  0.000000 0.000000 0.000244
1  -0.853095 -0.026367 105.001045  0.800162 0.024959 0.000152
2  0.076050 0.018681 0.486574  -0.152891 0.014705 -0.005801
3  0.681926 3.061767 25.766748  -0.353327 0.008355 -0.017538
4  -0.270205 4.643916 15.082965  0.000000 -0.000000 -0.000000
5  7.861997 1.690551 20.553324  -1.390555 -0.044403 -0.035706
6  5.961567 5.877568 -14.357294  -1.500513 -0.024074 -0.785972
7  10.132456 7.521436 -13.339904  0.183060 0.691291 -0.136745
8  7.071622 2.633331 -1.343417  -0.000000 -0.000000 -0.000000
9  -7.215014 2.908781 21.442209  -0.233491 0.011421 -0.012290
10  -2.914596 -15.412417 -6.310892  -0.000000 0.017351 0.000000
11  1.915931 -8.833014 13.424054  -0.000008 0.017349 -0.000001
12  5.659716 -11.449338 9.057112  -0.000000 0.017350 0.000000
13  1.189934 10.695260 -2.939720  -0.000000 0.034787 0.000000
14  -2.124486 -24.104876 6.023563  0.000000 0.017350 -0.000000
15  2.792169 -5.421334 -1.263819  -0.000000 0.000000 0.000000
16  -0.160951 2.270947 5.513724  -0.000000 -0.000000 0.000000
17  0.783688 1.087372 11.560630  -0.000000 0.000000 -0.000000
18  -0.017059 -0.034524 -0.654787  0.092430 0.020677 0.003203
19  -0.669090 -0.281067 -16.582539  -0.530805 0.000687 -0.024786
20  -0.054107 -0.368178 -0.390877  0.015882 0.000257 0.000261
21  2.926263 -1.135552 -24.857786  -0.174132 0.038030 -0.011033
22  0.176166 3.421195 -19.465693  0.724693 0.008170 0.052489
23  0.214476 3.945332 -14.796878  -0.549040 -0.005818 -0.045176
24  -0.127801 3.995602 -4.361931  0.000000 -0.000000 0.000000
25  -5.848764 -2.970821 -24.100012  0.546238 0.024248 0.022570
26  0.392180 -8.798165 -12.680978  -0.629143 -0.003569 -0.027705
27  1.845341 7.302800 -12.204809  -0.235169 0.011556 -0.016228
28  -0.506195 5.050754 -3.130172  -0.000000 -0.000000 0.000000
29  0.000009 -0.000000 206.122971  0.000000 -0.000000 0.000000
30  0.000000 0.000000 -0.000000  0.000000 -0.000000 0.000000
31  0.000000 0.000000 0.000000  0.000000 0.000000 0.000244
32  0.000000 0.000000 0.000000  0.000000 0.000000 0.000244
33  0.000000 0.000000 0.000000  0.000000 0.000000 0.000244
34  0.000000 0.000000 0.000000  0.000000 0.000000 0.000244
35  0.000000 0.000000 0.000000  0.000000 0.000000 0.000244
time 18
0  0.000000 0.000000 0.000000  0.000000 0.000000 0.000244
1  -0.853095 -0.026367 105.001045  0.744232 0.024436 -0.001119
2  0.076050 0.018676 0.486572  -0.141985 0.014731 -0.005807
3  0.681926 3.061762 25.766756  -0.328098 0.008759 -0.016324
4  -0.270205 4.643916 15.082950  0.000000 -0.000000 -0.000000
5  7.861997 1.690551 20.553326  -1.308820 -0.040026 -0.033168
6  5.961567 5.877569 -14.357299  -1.393289 -0.022924 -0.738426
7  10.132459 7.521424 -13.339903  0.177574 0.643139 -0.126952
8  7.071620 2.633328 -1.343420  -0.000000 0.000000 -0.000000
9  -7.215014 2.908781 21.442219  -0.216808 0.011693 -0.011432
10  -2.914597 -15.412414 -6.310897  -0.000000 0.017351 0.000000
11  1.915932 -8.833018 13.424046  -0.000008 0.017349 -0.000001
12  5.659713 -11.449336 9.057107  0.000000 0.017350 0.000000
13  1.189934 10.695257 -2.939707  0.000000 0.034787 0.000000
14  -2.124488 -24.104864 6.023570  0.000000 0.017350 -0.000000
15  2.792172 -5.421341 -1.263813  -0.000000 0.000000 0.000000
16  -0.160952 2.270948 5.513723  0.000000 -0.000000 0.000000
17  0.783688 1.087371 11.560635  0.000000 0.000000 -0.000000
18  -0.017059 -0.034534 -0.654787  0.085774 0.020522 0.002954
19  -0.669090 -0.281070 -16.582542  -0.492891 0.001955 -0.023011
20  -0.054107 -0.368177 -0.390878  0.022529 0.000427 0.000436
21  2.926263 -1.135551 -24.857782  -0.161726 0.037796 -0.010252
22  0.176166 3.421204 -19.465687  0.672922 0.008840 0.048727
23  0.214477 3.945337 -14.796879  -0.509793 -0.004165 -0.042001
24  -0.127800 3.995601 -4.361941  -0.000000 0.000000 0.000000
25  -5.848765 -2.970821 -24.100008  0.507225 0.023813 0.020976
26  0.392179 -8.798166 -12.680978  -0.584200 -0.002051 -0.025704
27  1.845342 7.302804 -12.204823  -0.218397 0.011985 -0.015034
28  -0.506194 5.050756 -3.130171  -0.000000 -0.000000 0.000000
29  0.000009 -0.000000 206.122971  0.000000 -0.000000 0.000000
30  0.000000 0.000000 -0.000000  0.000000 -0.000000 0.000000
31  0.000000 0.000000 0.000000  0.000000 0.000000 0.000244
32  0.000000 0.000000 0.000000  0.000000 0.000000 0.000244
33  0.000000 0.000000 0.000000  0.000000 0.000000 0.000244
34  0.000000 0.000000 0.000000  0.000000 0.000000 0.000244
35  0.000000 0.000000 0.000000  0.000000 0.000000 0.000244
time 19
0  0.000000 0.000000 0.000000  0.000000 0.000000 0.000244
1  -0.853095 -0.026367 105.001045  0.680933 0.023853 -0.002448
2  0.076050 0.018671 0.486569  -0.129612 0.014766 -0.005716
3  0.681926 3.061761 25.766735  -0.299517 0.009270 -0.014930
4  -0.270204 4.643917 15.082948  0.000000 -0.000000 -0.000000
5  7.861997 1.690542 20.553310  -1.215254 -0.035008 -0.030231
6  5.961568 5.877565 -14.357287  -1.272024 -0.021495 -0.684192
7  10.132457 7.521421 -13.339902  0.170792 0.588619 -0.115908
8  7.071614 2.633330 -1.343415  0.000000 -0.000000 -0.000000
9  -7.215014 2.908775 21.442205  -0.197884 0.011980 -0.010384
10  -2.914596 -15.412418 -6.310911  0.000000 0.017351 0.000000
11  1.915931 -8.833015 13.424058  -0.000008 0.017349 -0.000001
12  5.659716 -11.449343 9.057106  -0.000000 0.017350 0.000000
13  1.189934 10.695251 -2.939722  0.000000 0.034787 0.000000
14  -2.124487 -24.104860 6.023566  -0.000000 0.017350 -0.000000
15  2.792168 -5.421340 -1.263820  -0.000000 0.000000 0.000000
16  -0.160952 2.270950 5.513742  0.000000 -0.000000 0.000000
17  0.783688 1.087376 11.560629  -0.000000 0.000000 -0.000000
18  -0.017059 -0.034544 -0.654803  0.078340 0.020195 0.002692
19  -0.669091 -0.281054 -16.582521  -0.450018 0.003247 -0.021021
20  -0.054107 -0.368177 -0.390883  0.030126 0.000510 0.000526
21  2.926264 -1.135553 -24.857801  -0.147593 0.037567 -0.009357
22  0.176166 3.421203 -19.465693  0.614367 0.009605 0.044525
23  0.214476 3.945339 -14.796869  -0.465421 -0.002336 -0.038303
24  -0.127800 3.995610 -4.361940  -0.000000 -0.000000 0.000000
25  -5.848764 -2.970817 -24.100018  0.463082 0.023247 0.019140
26  0.392181 -8.798168 -12.680980  -0.533383 -0.000344 -0.023530
27  1.845341 7.302802 -12.204818  -0.199384 0.012420 -0.013734
28  -0.506194 5.050751 -3.130180  -0.000000 -0.000000 0.000000
29  0.000009 -0.000000 206.122971  0.000000 -0.000000 0.000000
30  0.000000 0.000000 -0.000000  0.000000 -0.000000 0.000000
31  0.000000 0.000000 0.000000  0.000000 0.000000 0.000244
32  0.000000 0.000000 0.000000  0.000000 0.000000 0.000244
33  0.000000 0.000000 0.000000  0.000000 0.000000 0.000244
34  0.000000 0.000000 0.000000  0.000000 0.000000 0.000244
35  0.000000 0.000000 0.000000  0.000000 0.000000 0.000244
time 20
0  0.000000 0.000000 0.000000  0.000000 0.000000 0.000244
1  -0.853095 -0.026367 105.001045  0.612176 0.023170 -0.003994
2  0.076050 0.018671 0.486566  -0.116206 0.014809 -0.005531
3  0.681926 3.061759 25.766743  -0.268469 0.009868 -0.013353
4  -0.270204 4.643919 15.082980  0.000000 -0.000000 -0.000000
5  7.861998 1.690545 20.553318  -1.112031 -0.029533 -0.027081
6  5.961567 5.877556 -14.357280  -1.140159 -0.019727 -0.624454
7  10.132453 7.521438 -13.339907  0.162921 0.529389 -0.103900
8  7.071624 2.633327 -1.343416  -0.000000 -0.000000 0.000000
9  -7.215014 2.908778 21.442217  -0.177331 0.012342 -0.009330
10  -2.914597 -15.412409 -6.310905  0.000000 0.017351 -0.000000
11  1.915934 -8.833014 13.424062  -0.000008 0.017349 -0.000001
12  5.659712 -11.449332 9.057097  -0.000000 0.017350 0.000000
13  1.189934 10.695265 -2.939725  -0.000000 0.034787 0.000000
14  -2.124490 -24.104868 6.023559  0.000000 0.017350 -0.000000
15  2.792168 -5.421339 -1.263841  -0.000000 0.000000 0.000000
16  -0.160954 2.270956 5.513730  -0.000000 -0.000000 0.000000
17  0.783688 1.087367 11.560619  -0.000000 0.000000 0.000000
18  -0.017059 -0.034539 -0.654795  0.070218 0.019953 0.002428
19  -0.669091 -0.281074 -16.582541  -0.403300 0.004694 -0.018845
20  -0.054107 -0.368179 -0.390879  0.038414 0.000677 0.000704
21  2.926264 -1.135558 -24.857786  -0.132341 0.037252 -0.008352
22  0.176166 3.421198 -19.465700  0.550607 0.010354 0.039881
23  0.214476 3.945339 -14.796873  -0.417135 -0.000299 -0.034348
24  -0.127801 3.995612 -4.361932  -0.000000 0.000000 -0.000000
25  -5.848765 -2.970828 -24.100021  0.415021 0.022580 0.017193
26  0.392180 -8.798162 -12.680979  -0.478027 0.001444 -0.021053
27  1.845343 7.302796 -12.204813  -0.178654 0.012935 -0.012338
28  -0.506194 5.050756 -3.130172  0.000000 -0.000000 0.000000
29  0.000009 -0.000000 206.122971  0.000000 -0.000000 0.000000
30  0.000000 0.000000 -0.000000  0.000000 -0.000000 0.000000
31  0.000000 0.000000 0.000000  0.000000 0.000000 0.000244
32  0.000000 0.000000 0.000000  0.000000 0.000000 0.000244
33  0.000000 0.000000 0.000000  0.000000 0.000000 0.000244
34  0.000000 0.000000 0.000000  0.000000 0.000000 0.000244
35  0.000000 0.000000 0.000000  0.000000 0.000000 0.000244
time 21
0  0.000000 0.000000 0.000000  0.000000 0.000000 0.000244
1  -0.853095 -0.026367 105.001045  0.539680 0.022422 -0.005621
2  0.076050 0.018673 0.486576  -0.102027 0.014853 -0.005339
3  0.681926 3.061767 25.766727  -0.235748 0.010439 -0.011667
4  -0.270204 4.643919 15.082970  0.000000 -0.000000 -0.000000
5  7.861998 1.690554 20.553316  -1.001592 -0.023831 -0.023762
6  5.961568 5.877571 -14.357295  -1.001182 -0.017785 -0.560675
7  10.132456 7.521417 -13.339902  0.153813 0.467013 -0.091288
8  7.071623 2.633329 -1.343417  -0.000000 0.000000 0.000000
9  -7.215014 2.908785 21.442205  -0.155756 0.012695 -0.008177
10  -2.914596 -15.412422 -6.310907  -0.000000 0.017351 0.000000
11  1.915930 -8.833020 13.424053  -0.000008 0.017349 -0.000001
12  5.659712 -11.449336 9.057093  -0.000000 0.017350 0.000000
13  1.189936 10.695251 -2.939731  0.000000 0.034787 0.000000
14  -2.124487 -24.104872 6.023561  -0.000000 0.017350 -0.000000
15  2.792174 -5.421343 -1.263872  -0.000000 0.000000 0.000000
16  -0.160953 2.270955 5.513710  -0.000000 -0.000000 0.000000
17  0.783688 1.087374 11.560616  -0.000000 0.000000 -0.000000
18  -0.017059 -0.034528 -0.654779  0.061664 0.019623 0.002160
19  -0.669090 -0.281070 -16.582525  -0.354172 0.006246 -0.016551
20  -0.054108 -0.368178 -0.390871  0.047047 0.000756 0.000881
21  2.926263 -1.135558 -24.857790  -0.116145 0.036928 -0.007336
22  0.176166 3.421201 -19.465689  0.483509 0.011273 0.035053
23  0.214477 3.945333 -14.796869  -0.366284 0.001885 -0.030109
24  -0.127801 3.995606 -4.361937  -0.000000 0.000000 0.000000
25  -5.848765 -2.970829 -24.100023  0.364392 0.021985 0.015023
26  0.392179 -8.798165 -12.680980  -0.419775 0.003392 -0.018462
27  1.845342 7.302794 -12.204821  -0.156905 0.013520 -0.010847
28  -0.506192 5.050753 -3.130172  0.000000 -0.000000 0.000000
29  0.000009 -0.000000 206.122971  0.000000 -0.000000 0.000000
30  0.000000 0.000000 -0.000000  0.000000 -0.000000 0.000000
31  0.000000 0.000000 0.000000  0.000000 0.000000 0.000244
32  0.000000 0.000000 0.000000  0.000000 0.000000 0.000244
33  0.000000 0.000000 0.000000  0.000000 0.000000 0.000244
34  0.000000 0.000000 0.000000  0.000000 0.000000 0.000244
35  0.000000 0.000000 0.000000  0.000000 0.000000 0.000244
time 22
0  0.000000 0.000000 0.000000  0.000000 0.000000 0.000244
1  -0.853095 -0.026367 105.001045  0.465332 0.021769 -0.007261
2  0.076050 0.018673 0.486584  -0.087508 0.014981 -0.005149
3  0.681925 3.061769 25.766752  -0.202222 0.011125 -0.010066
4  -0.270205 4.643917 15.082952  0.000000 -0.000000 -0.000000
5  7.861997 1.690548 20.553318  -0.886089 -0.017998 -0.020411
6  5.961568 5.877562 -14.357288  -0.858582 -0.015525 -0.494148
7  10.132454 7.521420 -13.339911  0.143579 0.402986 -0.078245
8  7.071618 2.633330 -1.343417  0.000000 -0.000000 -0.000000
9  -7.215014 2.908778 21.442205  -0.133595 0.013112 -0.007020
10  -2.914597 -15.412417 -6.310909  0.000000 0.017351 0.000000
11  1.915931 -8.833013 13.424057  -0.000008 0.017349 -0.000001
12  5.659713 -11.449335 9.057114  -0.000000 0.017350 0.000000
13  1.189936 10.695253 -2.939753  -0.000000 0.034787 0.000000
14  -2.124490 -24.104866 6.023565  0.000000 0.017350 -0.000000
15  2.792173 -5.421355 -1.263835  -0.000000 0.000000 0.000000
16  -0.160953 2.270950 5.513725  -0.000000 -0.000000 0.000000
17  0.783688 1.087370 11.560627  0.000000 0.000000 0.000000
18  -0.017059 -0.034539 -0.654792  0.052852 0.019294 0.001805
19  -0.669091 -0.281066 -16.582529  -0.303772 0.007880 -0.014130
20  -0.054107 -0.368183 -0.390876  0.055941 0.000923 0.000976
21  2.926264 -1.135557 -24.857796  -0.099611 0.036677 -0.006323
22  0.176166 3.421207 -19.465689  0.414669 0.012111 0.030069
23  0.214476 3.945335 -14.796877  -0.314093 0.004041 -0.025810
24  -0.127801 3.995608 -4.361936  -0.000000 0.000000 0.000000
25  -5.848765 -2.970820 -24.100012  0.312515 0.021303 0.012881
26  0.392180 -8.798162 -12.680980  -0.360038 0.005371 -0.015805
27  1.845342 7.302802 -12.204824  -0.134566 0.013998 -0.009249
28  -0.506194 5.050748 -3.130175  0.000000 -0.000000 0.000000
29  0.000009 -0.000000 206.122971  0.000000 -0.000000 0.000000
30  0.000000 0.000000 -0.000000  0.000000 -0.000000 0.000000
31  0.000000 0.000000 0.000000  0.000000 0.000000 0.000244
32  0.000000 0.000000 0.000000  0.000000 0.000000 0.000244
33  0.000000 0.000000 0.000000  0.000000 0.000000 0.000244
34  0.000000 0.000000 0.000000  0.000000 0.000000 0.000244
35  0.000000 0.000000 0.000000  0.000000 0.000000 0.000244
time 23
0  0.000000 0.000000 0.000000  0.000000 0.000000 0.000244
1  -0.853095 -0.026367 105.001045  0.390931 0.021025 -0.008861
2  0.076050 0.018672 0.486563  -0.072993 0.015111 -0.004871
3  0.681925 3.061769 25.766745  -0.168578 0.011768 -0.008358
4  -0.270206 4.643919 15.082966  -0.000000 -0.000000 -0.000000
5  7.861997 1.690551 20.553310  -0.767904 -0.012081 -0.016997
6  5.961568 5.877566 -14.357306  -0.716107 -0.012982 -0.426296
7  10.132454 7.521421 -13.339905  0.132122 0.338924 -0.065234
8  7.071618 2.633324 -1.343424  0.000000 -0.000000 -0.000000
9  -7.215014 2.908784 21.442209  -0.111362 0.013506 -0.005854
10  -2.914597 -15.412418 -6.310889  0.000000 0.017351 -0.000000
11  1.915934 -8.833014 13.424043  -0.000008 0.017349 -0.000001
12  5.659711 -11.449337 9.057119  -0.000000 0.017350 0.000000
13  1.189934 10.695252 -2.939714  0.000000 0.034787 0.000000
14  -2.124488 -24.104862 6.023563  0.000000 0.017350 -0.000000
15  2.792172 -5.421346 -1.263839  0.000000 0.000000 0.000000
16  -0.160956 2.270950 5.513742  -0.000000 -0.000000 0.000000
17  0.783688 1.087373 11.560614  0.000000 0.000000 0.000000
18  -0.017059 -0.034532 -0.654791  0.044042 0.018961 0.001540
19  -0.669091 -0.281064 -16.582521  -0.253302 0.009459 -0.011820
20  -0.054107 -0.368180 -0.390881  0.064836 0.001085 0.001158
21  2.926264 -1.135557 -24.857798  -0.083083 0.036328 -0.005226
22  0.176166 3.421202 -19.465677  0.345801 0.012976 0.025049
23  0.214477 3.945341 -14.796873  -0.261940 0.006303 -0.021552
24  -0.127801 3.995610 -4.361934  0.000000 0.000000 0.000000
25  -5.848765 -2.970824 -24.100019  0.260680 0.020696 0.010810
26  0.392180 -8.798156 -12.680979  -0.300271 0.007350 -0.013159
27  1.845342 7.302801 -12.204813  -0.112245 0.014608 -0.007737
28  -0.506195 5.050750 -3.130171  0.000000 -0.000000 0.000000
29  0.000009 -0.000000 206.122971  0.000000 -0.000000 0.000000
30  0.000000 0.000000 -0.000000  0.000000 -0.000000 0.000000
31  0.000000 0.000000 0.000000  0.000000 0.000000 0.000244
32  0.000000 0.000000 0.000000  0.000000 0.000000 0.000244
33  0.000000 0.000000 0.000000  0.000000 0.000000 0.000244
34  0.000000 0.000000 0.000000  0.000000 0.000000 0.000244
35  0.000000 0.000000 0.000000  0.000000 0.000000 0.000244
time 24
0  0.000000 0.000000 0.000000  0.000000 0.000000 0.000244
1  -0.853095 -0.026367 105.001045  0.318475 0.020302 -0.010466
2  0.076050 0.018669 0.486556  -0.058826 0.015239 -0.004507
3  0.681926 3.061766 25.766745  -0.135847 0.012519 -0.006735
4  -0.270206 4.643919 15.082976  0.000000 -0.000000 -0.000000
5  7.861997 1.690554 20.553335  -0.649289 -0.006345 -0.013712
6  5.961567 5.877558 -14.357293  -0.577122 -0.010116 -0.358494
7  10.132457 7.521410 -13.339899  0.119610 0.276564 -0.052577
8  7.071618 2.633330 -1.343419  0.000000 -0.000000 0.000000
9  -7.215014 2.908787 21.442230  -0.089748 0.013960 -0.004688
10  -2.914596 -15.412415 -6.310898  -0.000000 0.017351 -0.000000
11  1.915934 -8.833015 13.424042  -0.000008 0.017349 -0.000001
12  5.659715 -11.449343 9.057099  -0.000000 0.017350 0.000000
13  1.189934 10.695258 -2.939719  0.000000 0.034787 0.000000
14  -2.124489 -24.104866 6.023579  0.000000 0.017350 -0.000000
15  2.792171 -5.421346 -1.263839  0.000000 0.000000 0.000000
16  -0.160952 2.270944 5.513721  -0.000000 -0.000000 0.000000
17  0.783688 1.087376 11.560637  -0.000000 0.000000 -0.000000
18  -0.017059 -0.034537 -0.654803  0.035491 0.018626 0.001194
19  -0.669091 -0.281067 -16.582535  -0.204119 0.010997 -0.009543
20  -0.054107 -0.368186 -0.390894  0.073559 0.001246 0.001342
21  2.926264 -1.135555 -24.857777  -0.066995 0.036047 -0.004231
22  0.176166 3.421205 -19.465683  0.278741 0.013821 0.020156
23  0.214476 3.945341 -14.796879  -0.211087 0.008401 -0.017382
24  -0.127800 3.995609 -4.361933  0.000000 0.000000 0.000000
25  -5.848765 -2.970823 -24.099998  0.210062 0.020001 0.008705
26  0.392179 -8.798162 -12.680979  -0.241987 0.009318 -0.010611
27  1.845343 7.302800 -12.204818  -0.090454 0.015099 -0.006213
28  -0.506193 5.050752 -3.130176  -0.000000 -0.000000 0.000000
29  0.000009 -0.000000 206.122971  0.000000 -0.000000 0.000000
30  0.000000 0.000000 -0.000000  0.000000 -0.000000 0.000000
31  0.000000 0.000000 0.000000  0.000000 0.000000 0.000244
32  0.000000 0.000000 0.000000  0.000000 0.000000 0.000244
33  0.000000 0.000000 0.000000  0.000000 0.000000 0.000244
34  0.000000 0.000000 0.000000  0.000000 0.000000 0.000244
35  0.000000 0.000000 0.000000  0.000000 0.000000 0.000244
time 25
0  0.000000 0.000000 0.000000  0.000000 0.000000 0.000244
1  -0.853095 -0.026367 105.001045  0.249659 0.019599 -0.011982
2  0.076050 0.018673 0.486576  -0.045354 0.015447 -0.004149
3  0.681926 3.061766 25.766743  -0.104795 0.013212 -0.005188
4  -0.270205 4.643918 15.082962  -0.000000 -0.000000 -0.000000
5  7.861998 1.690548 20.553318  -0.532546 -0.001000 -0.010553
6  5.961568 5.877563 -14.357302  -0.445174 -0.007019 -0.292137
7  10.132458 7.521425 -13.339900  0.105842 0.217316 -0.040531
8  7.071620 2.633330 -1.343416  -0.000000 -0.000000 0.000000
9  -7.215014 2.908782 21.442219  -0.069268 0.014385 -0.003608
10  -2.914594 -15.412414 -6.310892  -0.000000 0.017351 -0.000000
11  1.915929 -8.833017 13.424032  -0.000008 0.017349 -0.000001
12  5.659715 -11.449343 9.057104  -0.000000 0.017350 0.000000
13  1.189936 10.695255 -2.939722  -0.000000 0.034787 0.000000
14  -2.124490 -24.104864 6.023580  0.000000 0.017350 -0.000000
15  2.792169 -5.421328 -1.263817  -0.000000 0.000000 0.000000
16  -0.160951 2.270947 5.513720  -0.000000 -0.000000 0.000000
17  0.783688 1.087370 11.560622  0.000000 0.000000 0.000000
18  -0.017059 -0.034532 -0.654781  0.027373 0.018374 0.000942
19  -0.669091 -0.281069 -16.582542  -0.157481 0.012412 -0.007300
20  -0.054107 -0.368180 -0.390874  0.081852 0.001323 0.001436
21  2.926264 -1.135555 -24.857780  -0.051603 0.035751 -0.003255
22  0.176165 3.421201 -19.465681  0.214950 0.014644 0.015558
23  0.214477 3.945338 -14.796871  -0.162876 0.010424 -0.013409
24  -0.127801 3.995612 -4.361937  -0.000000 0.000000 0.000000
25  -5.848764 -2.970828 -24.100010  0.162008 0.019376 0.006683
26  0.392179 -8.798159 -12.680979  -0.186679 0.011200 -0.008158
27  1.845343 7.302797 -12.204814  -0.069711 0.015639 -0.004778
28  -0.506193 5.050752 -3.130173  0.000000 -0.000000 0.000000
29  0.000009 -0.000000 206.122971  0.000000 -0.000000 0.000000
30  0.000000 0.000000 -0.000000  0.000000 -0.000000 0.000000
31  0.000000 0.000000 0.000000  0.000000 0.000000 0.000244
32  0.000000 0.000000 0.000000  0.000000 0.000000 0.000244
33  0.000000 0.000000 0.000000  0.000000 0.000000 0.000244
34  0.000000 0.000000 0.000000  0.000000 0.000000 0.000244
35  0.000000 0.000000 0.000000  0.000000 0.000000 0.000244
time 26
0  0.000000 0.000000 0.000000  0.000000 0.000000 0.000244
1  -0.853095 -0.026367 105.001045  0.186428 0.019025 -0.013394
2  0.076050 0.018670 0.486567  -0.033004 0.015652 -0.003625
3  0.681926 3.061766 25.766737  -0.076272 0.013937 -0.003728
4  -0.270206 4.643920 15.082977  -0.000000 -0.000000 -0.000000
5  7.861998 1.690550 20.553326  -0.420009 0.004017 -0.007652
6  5.961569 5.877562 -14.357290  -0.323855 -0.003688 -0.228521
7  10.132452 7.521429 -13.339915  0.090995 0.162856 -0.029501
8  7.071619 2.633329 -1.343418  -0.000000 -0.000000 0.000000
9  -7.215014 2.908782 21.442207  -0.050349 0.014871 -0.002620
10  -2.914595 -15.412413 -6.310896  0.000000 0.017351 -0.000000
11  1.915931 -8.833017 13.424063  -0.000008 0.017349 -0.000001
12  5.659716 -11.449341 9.057096  -0.000000 0.017350 0.000000
13  1.189934 10.695258 -2.939701  0.000000 0.034787 0.000000
14  -2.124489 -24.104866 6.023556  0.000000 0.017350 -0.000000
15  2.792170 -5.421346 -1.263847  -0.000000 0.000000 0.000000
16  -0.160952 2.270951 5.513723  0.000000 -0.000000 0.000000
17  0.783688 1.087372 11.560628  0.000000 0.000000 0.000000
18  -0.017059 -0.034537 -0.654783  0.019947 0.018121 0.000699
19  -0.669091 -0.281065 -16.582525  -0.114558 0.013790 -0.005287
20  -0.054107 -0.368183 -0.390874  0.089369 0.001483 0.001622
21  2.926264 -1.135556 -24.857788  -0.037598 0.035439 -0.002393
22  0.176166 3.421204 -19.465683  0.156401 0.015389 0.011336
23  0.214477 3.945338 -14.796879  -0.118473 0.012307 -0.009723
24  -0.127800 3.995612 -4.361933  0.000000 0.000000 0.000000
25  -5.848764 -2.970823 -24.100014  0.117855 0.018825 0.004829
26  0.392179 -8.798159 -12.680982  -0.135750 0.012830 -0.005977
27  1.845342 7.302798 -12.204813  -0.050703 0.016146 -0.003432
28  -0.506194 5.050750 -3.130167  0.000000 -0.000000 0.000000
29  0.000009 -0.000000 206.122971  0.000000 -0.000000 0.000000
30  0.000000 0.000000 -0.000000  0.000000 -0.000000 0.000000
31  0.000000 0.000000 0.000000  0.000000 0.000000 0.000244
32  0.000000 0.000000 0.000000  0.000000 0.000000 0.000244
33  0.000000 0.000000 0.000000  0.000000 0.000000 0.000244
34  0.000000 0.000000 0.000000  0.000000 0.000000 0.000244
35  0.000000 0.000000 0.000000  0.000000 0.000000 0.000244
time 27
0  0.000000 0.000000 0.000000  0.000000 0.000000 0.000244
1  -0.853095 -0.026367 105.001045  0.130478 0.018516 -0.014621
2  0.076050 0.018672 0.486572  -0.022037 0.015935 -0.003111
3  0.681925 3.061768 25.766741  -0.051046 0.014700 -0.002534
4  -0.270205 4.643918 15.082973  0.000000 -0.000000 -0.000000
5  7.861998 1.690549 20.553314  -0.313952 0.008457 -0.005096
6  5.961568 5.877564 -14.357293  -0.216725 -0.000050 -0.169072
7  10.132453 7.521432 -13.339917  0.075059 0.114653 -0.019742
8  7.071619 2.633332 -1.343434  0.000000 0.000000 -0.000000
9  -7.215014 2.908782 21.442211  -0.033679 0.015424 -0.001727
10  -2.914596 -15.412415 -6.310906  -0.000000 0.017351 -0.000000
11  1.915933 -8.833017 13.424053  -0.000008 0.017349 -0.000001
12  5.659713 -11.449344 9.057103  -0.000000 0.017350 0.000000
13  1.189933 10.695261 -2.939713  0.000000 0.034787 0.000000
14  -2.124487 -24.104872 6.023573  0.000000 0.017350 -0.000000
15  2.792168 -5.421342 -1.263866  -0.000000 0.000000 0.000000
16  -0.160952 2.270947 5.513719  -0.000000 -0.000000 0.000000
17  0.783688 1.087371 11.560618  -0.000000 0.000000 -0.000000
18  -0.017059 -0.034537 -0.654790  0.013298 0.017865 0.000464
19  -0.669091 -0.281066 -16.582533  -0.076610 0.014982 -0.003511
20  -0.054107 -0.368182 -0.390876  0.096109 0.001559 0.001717
21  2.926263 -1.135552 -24.857782  -0.025150 0.035202 -0.001565
22  0.176166 3.421204 -19.465689  0.104642 0.016026 0.007581
23  0.214477 3.945334 -14.796871  -0.079221 0.013995 -0.006515
24  -0.127801 3.995609 -4.361930  0.000000 -0.000000 0.000000
25  -5.848765 -2.970824 -24.100027  0.078861 0.018359 0.003230
26  0.392180 -8.798162 -12.680989  -0.090867 0.014337 -0.003936
27  1.845341 7.302800 -12.204822  -0.033944 0.016537 -0.002266
28  -0.506193 5.050748 -3.130176  -0.000000 -0.000000 0.000000
29  0.000009 -0.000000 206.122971  0.000000 -0.000000 0.000000
30  0.000000 0.000000 -0.000000  0.000000 -0.000000 0.000000
31  0.000000 0.000000 0.000000  0.000000 0.000000 0.000244
32  0.000000 0.000000 0.000000  0.000000 0.000000 0.000244
33  0.000000 0.000000 0.000000  0.000000 0.000000 0.000244
34  0.000000 0.000000 0.000000  0.000000 0.000000 0.000244
35  0.000000 0.000000 0.000000  0.000000 0.000000 0.000244
time 28
0  0.000000 0.000000 0.000000  0.000000 0.000000 0.000244
1  -0.853095 -0.026367 105.001045  0.083790 0.018022 -0.015660
2  0.076050 0.018672 0.486572  -0.012881 0.016212 -0.002435
3  0.681926 3.061768 25.766743  -0.029886 0.015431 -0.001440
4  -0.270205 4.643917 15.082976  0.000000 -0.000000 -0.000000
5  7.861998 1.690550 20.553322  -0.216582 0.012094 -0.002965
6  5.961566 5.877564 -14.357295  -0.127148 0.003929 -0.115088
7  10.132454 7.521428 -13.339909  0.057882 0.074443 -0.011583
8  7.071618 2.633331 -1.343421  -0.000000 0.000000 -0.000000
9  -7.215014 2.908783 21.442221  -0.019776 0.015873 -0.001020
10  -2.914596 -15.412416 -6.310898  0.000000 0.017351 0.000000
11  1.915933 -8.833015 13.424063  -0.000008 0.017349 -0.000001
12  5.659714 -11.449341 9.057100  -0.000000 0.017350 0.000000
13  1.189936 10.695255 -2.939713  0.000000 0.034787 0.000000
14  -2.124488 -24.104868 6.023585  0.000000 0.017350 -0.000000
15  2.792167 -5.421349 -1.263823  -0.000000 0.000000 0.000000
16  -0.160953 2.270950 5.513727  -0.000000 -0.000000 0.000000
17  0.783688 1.087373 11.560631  -0.000000 0.000000 -0.000000
18  -0.017059 -0.034535 -0.654784  0.007771 0.017608 0.000241
19  -0.669091 -0.281066 -16.582529  -0.044993 0.015926 -0.002085
20  -0.054107 -0.368181 -0.390874  0.101727 0.001723 0.001816
21  2.926263 -1.135552 -24.857790  -0.014691 0.035041 -0.000862
22  0.176167 3.421206 -19.465683  0.061420 0.016618 0.004397
23  0.214476 3.945335 -14.796868  -0.046473 0.015367 -0.003811
24  -0.127801 3.995607 -4.361928  0.000000 0.000000 0.000000
25  -5.848765 -2.970822 -24.100019  0.046289 0.017915 0.001883
26  0.392179 -8.798160 -12.680980  -0.053283 0.015567 -0.002315
27  1.845341 7.302797 -12.204824  -0.019866 0.016906 -0.001376
28  -0.506193 5.050751 -3.130171  -0.000000 -0.000000 0.000000
29  0.000009 -0.000000 206.122971  0.000000 -0.000000 0.000000
30  0.000000 0.000000 -0.000000  0.000000 -0.000000 0.000000
31  0.000000 0.000000 0.000000  0.000000 0.000000 0.000244
32  0.000000 0.000000 0.000000  0.000000 0.000000 0.000244
33  0.000000 0.000000 0.000000  0.000000 0.000000 0.000244
34  0.000000 0.000000 0.000000  0.000000 0.000000 0.000244
35  0.000000 0.000000 0.000000  0.000000 0.000000 0.000244
time 29
0  0.000000 0.000000 0.000000  0.000000 0.000000 0.000244
1  -0.853095 -0.026367 105.001045  0.048202 0.017665 -0.016412
2  0.076050 0.018672 0.486574  -0.005970 0.016568 -0.001690
3  0.681926 3.061767 25.766743  -0.013824 0.016051 -0.000629
4  -0.270205 4.643917 15.082969  0.000000 -0.000000 -0.000000
5  7.861997 1.690549 20.553322  -0.130271 0.014965 -0.001322
6  5.961568 5.877563 -14.357303  -0.058841 0.008107 -0.068040
7  10.132454 7.521426 -13.339904  0.039687 0.043794 -0.005347
8  7.071619 2.633330 -1.343414  -0.000000 -0.000000 -0.000000
9  -7.215014 2.908782 21.442219  -0.009153 0.016398 -0.000420
10  -2.914596 -15.412415 -6.310898  0.000000 0.017351 0.000000
11  1.915932 -8.833016 13.424043  -0.000008 0.017349 -0.000001
12  5.659715 -11.449336 9.057076  -0.000000 0.017350 0.000000
13  1.189936 10.695260 -2.939697  0.000000 0.034787 0.000000
14  -2.124489 -24.104870 6.023569  0.000000 0.017350 -0.000000
15  2.792169 -5.421348 -1.263827  -0.000000 0.000000 0.000000
16  -0.160952 2.270949 5.513712  -0.000000 -0.000000 0.000000
17  0.783688 1.087372 11.560624  -0.000000 0.000000 -0.000000
18  -0.017059 -0.034536 -0.654788  0.003626 0.017522 0.000118
19  -0.669090 -0.281066 -16.582523  -0.020811 0.016737 -0.000951
20  -0.054107 -0.368182 -0.390884  0.105962 0.001714 0.001906
21  2.926263 -1.135554 -24.857779  -0.006827 0.034873 -0.000378
22  0.176166 3.421204 -19.465696  0.028418 0.016977 0.002054
23  0.214477 3.945333 -14.796877  -0.021508 0.016469 -0.001731
24  -0.127800 3.995609 -4.361932  0.000000 0.000000 0.000000
25  -5.848765 -2.970827 -24.100016  0.021415 0.017601 0.000879
26  0.392180 -8.798161 -12.680983  -0.024611 0.016561 -0.001067
27  1.845343 7.302798 -12.204824  -0.009155 0.017088 -0.000596
28  -0.506194 5.050750 -3.130171  0.000000 -0.000000 0.000000
29  0.000009 -0.000000 206.122971  0.000000 -0.000000 0.000000
30  0.000000 0.000000 -0.000000  0.000000 -0.000000 0.000000
31  0.000000 0.000000 0.000000  0.000000 0.000000 0.000244
32  0.000000 0.000000 0.000000  0.000000 0.000000 0.000244
33  0.000000 0.000000 0.000000  0.000000 0.000000 0.000244
34  0.000000 0.000000 0.000000  0.000000 0.000000 0.000244
35  0.000000 0.000000 0.000000  0.000000 0.000000 0.000244
time 30
0  0.000000 0.000000 0.000000  0.000000 0.000000 0.000244
1  -0.853095 -0.026367 105.001045  0.025406 0.017480 -0.016871
2  0.076050 0.018672 0.486578  -0.001475 0.016918 -0.000876
3  0.681926 3.061768 25.766750  -0.003548 0.016745 -0.000116
4  -0.270204 4.643918 15.082965  0.000000 -0.000000 -0.000000
5  7.861998 1.690550 20.553324  -0.057327 0.016741 -0.000394
6  5.961568 5.877564 -14.357298  -0.015291 0.012554 -0.029187
7  10.132454 7.521425 -13.339899  0.020356 0.024270 -0.001392
8  7.071616 2.633331 -1.343404  -0.000000 0.000000 -0.000000
9  -7.215014 2.908783 21.442226  -0.002331 0.016832 -0.000106
10  -2.914598 -15.412417 -6.310890  0.000000 0.017351 -0.000000
11  1.915929 -8.833016 13.424049  -0.000008 0.017349 -0.000001
12  5.659714 -11.449340 9.057099  -0.000000 0.017350 0.000000
13  1.189934 10.695258 -2.939734  0.000000 0.034787 0.000000
14  -2.124485 -24.104866 6.023589  0.000000 0.017350 -0.000000
15  2.792170 -5.421345 -1.263836  -0.000000 0.000000 0.000000
16  -0.160953 2.270948 5.513727  -0.000000 -0.000000 0.000000
17  0.783689 1.087372 11.560633  -0.000000 0.000000 -0.000000
18  -0.017059 -0.034536 -0.654790  0.000863 0.017350 0.000007
19  -0.669090 -0.281067 -16.582531  -0.005354 0.017177 -0.000219
20  -0.054107 -0.368182 -0.390872  0.108642 0.001793 0.001999
21  2.926264 -1.135555 -24.857790  -0.001727 0.034787 -0.000030
22  0.176165 3.421205 -19.465687  0.007341 0.017262 0.000495
23  0.214477 3.945335 -14.796878  -0.005528 0.017090 -0.000393
24  -0.127801 3.995610 -4.361930  -0.000000 0.000000 0.000000
25  -5.848764 -2.970824 -24.100023  0.005526 0.017436 0.000221
26  0.392181 -8.798162 -12.680983  -0.006390 0.017176 -0.000228
27  1.845343 7.302799 -12.204822  -0.002332 0.017264 -0.000106
28  -0.506195 5.050750 -3.130172  0.000000 -0.000000 0.000000
29  0.000009 -0.000000 206.122971  0.000000 -0.000000 0.000000
30  0.000000 0.000000 -0.000000  0.000000 -0.000000 0.000000
31  0.000000 0.000000 0.000000  0.000000 0.000000 0.000244
32  0.000000 0.000000 0.000000  0.000000 0.000000 0.000244
33  0.000000 0.000000 0.000000  0.000000 0.000000 0.000244
34  0.000000 0.000000 0.000000  0.000000 0.000000 0.000244
35  0.000000 0.000000 0.000000  0.000000 0.000000 0.000244
time 31
0  0.000000 0.000000 0.000000  0.000000 0.000000 0.000244
1  -0.853095 -0.026367 105.001045  0.017462 0.017414 -0.017113
2  0.076050 0.018672 0.486563  0.000000 0.017350 0.000000
3  0.681925 3.061767 25.766752  -0.000008 0.017350 -0.000000
4  -0.270204 4.643917 15.082966  0.000000 -0.000000 -0.000000
5  7.861997 1.690549 20.553320  -0.000000 0.017350 -0.000000
6  5.961567 5.877565 -14.357297  0.000000 0.017351 -0.000000
7  10.132454 7.521424 -13.339906  -0.000000 0.017349 0.000001
8  7.071616 2.633330 -1.343420  -0.000000 -0.000000 -0.000000
9  -7.215014 2.908782 21.442223  0.000000 0.017350 -0.000000
10  -2.914597 -15.412416 -6.310909  0.000000 0.017351 -0.000000
11  1.915931 -8.833016 13.424075  -0.000008 0.017349 -0.000001
12  5.659714 -11.449338 9.057100  -0.000000 0.017350 0.000000
13  1.189935 10.695256 -2.939718  0.000000 0.034787 0.000000
14  -2.124489 -24.104866 6.023557  0.000000 0.017350 -0.000000
15  2.792169 -5.421335 -1.263836  -0.000000 0.000000 0.000000
16  -0.160952 2.270948 5.513734  -0.000000 -0.000000 0.000000
17  0.783688 1.087372 11.560631  0.000000 0.000000 0.000000
18  -0.017059 -0.034536 -0.654792  0.000000 0.017350 0.000000
19  -0.669090 -0.281067 -16.582523  0.000000 0.017350 -0.000000
20  -0.054107 -0.368182 -0.390878  0.109679 0.001792 0.002000
21  2.926264 -1.135554 -24.857794  -0.000000 0.034787 -0.000000
22  0.176166 3.421205 -19.465687  -0.000000 0.017350 0.000000
23  0.214476 3.945336 -14.796871  -0.000000 0.017350 -0.000000
24  -0.127800 3.995608 -4.361938  -0.000000 -0.000000 0.000000
25  -5.848765 -2.970825 -24.100021  0.000000 0.017350 0.000000
26  0.392178 -8.798162 -12.680981  0.000000 0.017349 -0.000000
27  1.845343 7.302799 -12.204815  -0.000000 0.017350 0.000000
28  -0.506195 5.050750 -3.130176  -0.000000 -0.000000 0.000000
29  0.000009 -0.000000 206.122971  0.000000 -0.000000 0.000000
30  0.000000 0.000000 -0.000000  0.000000 -0.000000 0.000000
31  0.000000 0.000000 0.000000  0.000000 0.000000 0.000244
32  0.000000 0.000000 0.000000  0.000000 0.000000 0.000244
33  0.000000 0.000000 0.000000  0.000000 0.000000 0.000244
34  0.000000 0.000000 0.000000  0.000000 0.000000 0.000244
35  0.000000 0.000000 0.000000  0.000000 0.000000 0.000244
end
