version 1
nodes
0 "m3bone_root" -1
1 "bone" 0
2 "bone_20" 1
3 "bone_19" 2
4 "Head Ref" 3
5 "bone_15" 2
6 "bone_14" 5
7 "bone_13" 6
8 "Hand Left Ref" 7
9 "bone_15111" 2
10 "bone_17" 9
11 "bone_18" 10
12 "bone_5" 11
13 "bone_2" 12
14 "bone_24999" 13
15 "Weapon Ref" 14
16 "Hand Right Ref" 11
17 "Chest Ref" 2
18 "bone_25" 1
19 "bone_23" 18
20 "bone_24" 1
21 "bone_7" 20
22 "bone_9" 21
23 "bone_11" 22
24 "Foot Left Ref" 23
25 "bone_6" 20
26 "bone_8" 25
27 "bone_10" 26
28 "Foot Right Ref" 27
29 "OverHead Ref" 0
30 "Origin Ref" 0
31 "_M3_Anim_Data" -1
32 "syamemaru2" -1
33 "syamemaru1" -1
34 "syamemaru3" -1
35 "syamemaru4" -1
end
skeleton
time 0
0  0.000000 0.000000 0.000000  0.000000 0.000000 0.000244
1  -0.853095 -0.026367 105.001045  0.017462 0.017414 -0.017113
2  0.076050 0.018672 0.486563  0.000000 0.017350 0.000000
3  0.681925 3.061767 25.766752  -0.000008 0.017350 -0.000000
4  -0.270204 4.643917 15.082966  0.000000 -0.000000 -0.000000
5  7.861997 1.690549 20.553320  -0.000000 0.017350 -0.000000
6  5.961566 5.877565 -14.357297  0.000000 0.017351 -0.000000
7  10.132455 7.521424 -13.339898  -0.000000 0.017349 0.000001
8  7.071621 2.633330 -1.343427  -0.000000 -0.000000 -0.000000
9  -7.215014 2.908782 21.442223  0.000000 0.017350 -0.000000
10  -2.914597 -15.412416 -6.310909  0.000000 0.017351 -0.000000
11  1.915931 -8.833016 13.424075  -0.000008 0.017349 -0.000001
12  5.659714 -11.449338 9.057100  -0.000000 0.017350 0.000000
13  1.189935 10.695256 -2.939718  0.000000 0.034787 0.000000
14  -2.124489 -24.104866 6.023557  0.000000 0.017350 -0.000000
15  2.792167 -5.421335 -1.263836  -0.000000 0.000000 0.000000
16  -0.160952 2.270948 5.513734  -0.000000 -0.000000 0.000000
17  0.783688 1.087372 11.560631  0.000000 0.000000 0.000000
18  -0.017059 -0.034536 -0.654792  0.000000 0.017350 0.000000
19  -0.669090 -0.281067 -16.582523  0.000000 0.017350 -0.000000
20  -0.054107 -0.368182 -0.390878  0.109679 0.001792 0.002000
21  2.926265 -1.135554 -24.857801  -0.000000 0.034787 -0.000000
22  0.176164 3.421208 -19.465683  -0.000000 0.017350 0.000000
23  0.214477 3.945336 -14.796876  -0.000000 0.017350 -0.000000
24  -0.127801 3.995607 -4.361934  -0.000000 -0.000000 0.000000
25  -5.848767 -2.970824 -24.100029  0.000000 0.017350 0.000000
26  0.392179 -8.798162 -12.680981  0.000000 0.017349 -0.000000
27  1.845341 7.302800 -12.204823  -0.000000 0.017350 0.000000
28  -0.506195 5.050749 -3.130173  -0.000000 -0.000000 0.000000
29  0.000009 -0.000000 206.122971  0.000000 -0.000000 0.000000
30  0.000000 0.000000 -0.000000  0.000000 -0.000000 0.000000
31  0.000000 0.000000 0.000000  0.000000 0.000000 0.000244
32  0.000000 0.000000 0.000000  0.000000 0.000000 0.000244
33  0.000000 0.000000 0.000000  0.000000 0.000000 0.000244
34  0.000000 0.000000 0.000000  0.000000 0.000000 0.000244
35  0.000000 0.000000 0.000000  0.000000 0.000000 0.000244
time 1
0  0.000000 0.000000 0.000000  0.000000 0.000000 0.000244
1  -0.853095 -0.026371 105.117310  0.017462 0.017414 -0.017113
2  0.076050 0.018672 0.486563  -0.003280 0.017263 -0.000028
3  0.681926 3.061767 25.766737  -0.006916 0.017176 -0.000319
4  -0.270206 4.643918 15.082965  0.000000 -0.000000 -0.000000
5  7.861997 1.690550 20.553329  0.007772 0.017434 0.000413
6  5.961567 5.877565 -14.357310  0.000000 0.017351 0.000000
7  10.132453 7.521425 -13.339900  -0.000000 0.017349 0.000001
8  7.071624 2.633332 -1.343433  0.000000 -0.000000 -0.000000
9  -7.215014 2.908783 21.442215  -0.009499 0.017089 -0.000427
10  -2.914598 -15.412414 -6.310900  0.000000 0.017351 -0.000000
11  1.915935 -8.833016 13.424045  -0.000008 0.017349 -0.000001
12  5.659713 -11.449341 9.057090  -0.000000 0.017350 0.000000
13  1.189934 10.695257 -2.939721  0.000000 0.034787 0.000000
14  -2.124486 -24.104872 6.023561  0.000000 0.017350 -0.000000
15  2.821125 -5.476149 -1.276945  -0.000000 0.000000 0.000000
16  -0.160954 2.270947 5.513721  -0.000000 -0.000000 0.000000
17  0.783688 1.087372 11.560634  -0.000000 0.000000 0.000000
18  -0.017059 -0.034536 -0.654800  0.001640 0.017436 0.000014
19  -0.669090 -0.281067 -16.582527  0.008981 0.017435 0.000424
20  -0.054107 -0.368182 -0.390885  0.109679 0.001792 0.002000
21  2.926265 -1.135554 -24.857786  0.004492 0.034873 0.000165
22  0.176165 3.421206 -19.465689  0.000000 0.017350 0.000000
23  0.214477 3.945335 -14.796879  -0.000000 0.017350 -0.000000
24  -0.127802 3.995607 -4.361926  -0.000000 0.000000 0.000000
25  -5.848767 -2.970824 -24.100021  -0.006216 0.017263 -0.000140
26  0.392178 -8.798159 -12.680979  0.000000 0.017349 -0.000000
27  1.845342 7.302801 -12.204823  -0.000000 0.017350 0.000000
28  -0.506196 5.050750 -3.130172  0.000000 -0.000000 0.000000
29  0.000009 -0.000000 206.122971  0.000000 -0.000000 0.000000
30  0.000000 0.000000 -0.000000  0.000000 -0.000000 0.000000
31  0.000000 0.000000 0.000000  0.000000 0.000000 0.000244
32  0.000000 0.000000 0.000000  0.000000 0.000000 0.000244
33  0.000000 0.000000 0.000000  0.000000 0.000000 0.000244
34  0.000000 0.000000 0.000000  0.000000 0.000000 0.000244
35  0.000000 0.000000 0.000000  0.000000 0.000000 0.000244
time 2
0  0.000000 0.000000 0.000000  0.000000 0.000000 0.000244
1  -0.853095 -0.026367 105.436127  0.017462 0.017414 -0.017113
2  0.076050 0.018672 0.486571  -0.012261 0.017175 -0.000364
3  0.681925 3.061768 25.766754  -0.026087 0.016730 -0.001255
4  -0.270206 4.643917 15.082967  0.000000 -0.000000 -0.000000
5  7.861997 1.690550 20.553320  0.029277 0.017674 0.001554
6  5.961567 5.877565 -14.357309  0.000000 0.017351 -0.000000
7  10.132454 7.521427 -13.339902  -0.000000 0.017349 0.000001
8  7.071621 2.633331 -1.343411  0.000000 -0.000000 -0.000000
9  -7.215015 2.908783 21.442217  -0.035666 0.016459 -0.001675
10  -2.914597 -15.412416 -6.310897  0.000000 0.017351 -0.000000
11  1.915933 -8.833012 13.424055  -0.000008 0.017349 -0.000001
12  5.659713 -11.449340 9.057101  -0.000000 0.017350 0.000000
13  1.189937 10.695260 -2.939703  0.000000 0.034787 0.000000
14  -2.124485 -24.104866 6.023543  0.000000 0.017350 -0.000000
15  2.900540 -5.626445 -1.312906  -0.000000 0.000000 0.000000
16  -0.160955 2.270951 5.513714  -0.000000 -0.000000 0.000000
17  0.783688 1.087372 11.560623  -0.000000 0.000000 0.000000
18  -0.017059 -0.034536 -0.654792  0.006130 0.017522 0.000140
19  -0.669090 -0.281067 -16.582535  0.033768 0.017668 0.001766
20  -0.054107 -0.368182 -0.390878  0.109679 0.001792 0.002000
21  2.926265 -1.135555 -24.857794  0.016850 0.035040 0.000900
22  0.176165 3.421206 -19.465681  0.000000 0.017350 0.000000
23  0.214477 3.945335 -14.796873  -0.000000 0.017350 -0.000000
24  -0.127801 3.995605 -4.361928  -0.000000 0.000000 0.000000
25  -5.848766 -2.970825 -24.100029  -0.023399 0.016911 -0.000716
26  0.392179 -8.798160 -12.680981  -0.000000 0.017349 -0.000000
27  1.845341 7.302799 -12.204822  -0.000000 0.017350 -0.000000
28  -0.506194 5.050750 -3.130167  0.000000 -0.000000 0.000000
29  0.000009 -0.000000 206.122971  0.000000 -0.000000 0.000000
30  0.000000 0.000000 -0.000000  0.000000 -0.000000 0.000000
31  0.000000 0.000000 0.000000  0.000000 0.000000 0.000244
32  0.000000 0.000000 0.000000  0.000000 0.000000 0.000244
33  0.000000 0.000000 0.000000  0.000000 0.000000 0.000244
34  0.000000 0.000000 0.000000  0.000000 0.000000 0.000244
35  0.000000 0.000000 0.000000  0.000000 0.000000 0.000244
time 3
0  0.000000 0.000000 0.000000  0.000000 0.000000 0.000244
1  -0.853095 -0.026371 105.912460  0.017462 0.017414 -0.017113
2  0.076050 0.018672 0.486571  -0.025731 0.016909 -0.000822
3  0.681926 3.061768 25.766733  -0.054763 0.016074 -0.002686
4  -0.270204 4.643918 15.082989  -0.000000 -0.000000 -0.000000
5  7.861998 1.690550 20.553318  0.061327 0.018033 0.003317
6  5.961567 5.877567 -14.357296  0.000000 0.017351 -0.000000
7  10.132453 7.521424 -13.339909  -0.000000 0.017349 0.000001
8  7.071622 2.633330 -1.343428  0.000000 -0.000000 -0.000000
9  -7.215014 2.908783 21.442211  -0.074884 0.015499 -0.003604
10  -2.914596 -15.412415 -6.310897  0.000000 0.017351 0.000000
11  1.915934 -8.833013 13.424059  -0.000008 0.017349 -0.000001
12  5.659713 -11.449336 9.057098  -0.000000 0.017350 0.000000
13  1.189934 10.695258 -2.939724  0.000000 0.034787 0.000000
14  -2.124485 -24.104860 6.023573  0.000000 0.017350 -0.000000
15  3.019176 -5.850997 -1.366585  -0.000000 0.000000 0.000000
16  -0.160955 2.270951 5.513728  -0.000000 -0.000000 0.000000
17  0.783688 1.087372 11.560616  -0.000000 0.000000 -0.000000
18  -0.017059 -0.034536 -0.654792  0.012952 0.017692 0.000460
19  -0.669091 -0.281067 -16.582535  0.070745 0.017916 0.003830
20  -0.054108 -0.368182 -0.390878  0.109679 0.001792 0.002000
21  2.926265 -1.135554 -24.857786  0.035257 0.035365 0.001832
22  0.176165 3.421208 -19.465689  -0.000000 0.017350 0.000000
23  0.214477 3.945334 -14.796878  0.000000 0.017350 -0.000000
24  -0.127801 3.995608 -4.361928  0.000000 0.000000 0.000000
25  -5.848767 -2.970824 -24.100021  -0.049134 0.016452 -0.001613
26  0.392179 -8.798160 -12.680974  -0.000000 0.017349 -0.000000
27  1.845341 7.302799 -12.204821  -0.000000 0.017350 0.000000
28  -0.506195 5.050751 -3.130164  0.000000 -0.000000 0.000000
29  0.000009 -0.000000 206.122971  0.000000 -0.000000 0.000000
30  0.000000 0.000000 -0.000000  0.000000 -0.000000 0.000000
31  0.000000 0.000000 0.000000  0.000000 0.000000 0.000244
32  0.000000 0.000000 0.000000  0.000000 0.000000 0.000244
33  0.000000 0.000000 0.000000  0.000000 0.000000 0.000244
34  0.000000 0.000000 0.000000  0.000000 0.000000 0.000244
35  0.000000 0.000000 0.000000  0.000000 0.000000 0.000244
time 4
0  0.000000 0.000000 0.000000  0.000000 0.000000 0.000244
1  -0.853094 -0.026368 106.501328  0.017462 0.017414 -0.017113
2  0.076050 0.018672 0.486571  -0.042311 0.016634 -0.001388
3  0.681926 3.061768 25.766752  -0.090189 0.015268 -0.004405
4  -0.270204 4.643918 15.082957  0.000000 -0.000000 -0.000000
5  7.861999 1.690550 20.553326  0.101002 0.018390 0.005510
6  5.961566 5.877563 -14.357292  0.000000 0.017351 -0.000000
7  10.132454 7.521425 -13.339899  -0.000000 0.017349 0.000001
8  7.071624 2.633331 -1.343415  0.000000 -0.000000 -0.000000
9  -7.215014 2.908782 21.442244  -0.123212 0.014246 -0.005981
10  -2.914595 -15.412416 -6.310897  -0.000000 0.017351 -0.000000
11  1.915932 -8.833014 13.424063  -0.000008 0.017349 -0.000001
12  5.659714 -11.449335 9.057101  -0.000000 0.017350 0.000000
13  1.189935 10.695259 -2.939705  0.000000 0.034787 0.000000
14  -2.124489 -24.104870 6.023586  0.000000 0.017350 -0.000000
15  3.165836 -6.128596 -1.432965  -0.000000 0.000000 0.000000
16  -0.160952 2.270957 5.513717  -0.000000 -0.000000 0.000000
17  0.783688 1.087372 11.560627  -0.000000 0.000000 -0.000000
18  -0.017059 -0.034536 -0.654792  0.021328 0.017861 0.000708
19  -0.669090 -0.281067 -16.582527  0.116483 0.018312 0.006256
20  -0.054108 -0.368182 -0.390878  0.109679 0.001792 0.002000
21  2.926265 -1.135555 -24.857786  0.058078 0.035748 0.003111
22  0.176165 3.421206 -19.465687  0.000000 0.017350 0.000000
23  0.214477 3.945335 -14.796877  -0.000000 0.017350 -0.000000
24  -0.127800 3.995605 -4.361931  -0.000000 0.000000 0.000000
25  -5.848767 -2.970824 -24.100021  -0.080838 0.015876 -0.002629
26  0.392178 -8.798161 -12.680988  -0.000000 0.017349 -0.000000
27  1.845340 7.302800 -12.204823  -0.000000 0.017350 0.000000
28  -0.506195 5.050751 -3.130165  0.000000 -0.000000 0.000000
29  0.000009 -0.000000 206.122971  0.000000 -0.000000 0.000000
30  0.000000 0.000000 -0.000000  0.000000 -0.000000 0.000000
31  0.000000 0.000000 0.000000  0.000000 0.000000 0.000244
32  0.000000 0.000000 0.000000  0.000000 0.000000 0.000244
33  0.000000 0.000000 0.000000  0.000000 0.000000 0.000244
34  0.000000 0.000000 0.000000  0.000000 0.000000 0.000244
35  0.000000 0.000000 0.000000  0.000000 0.000000 0.000244
time 5
0  0.000000 0.000000 0.000000  0.000000 0.000000 0.000244
1  -0.853094 -0.026369 107.157692  0.017462 0.017414 -0.017113
2  0.076050 0.018672 0.486563  -0.060882 0.016345 -0.002052
3  0.681926 3.061768 25.766760  -0.129623 0.014377 -0.006383
4  -0.270206 4.643914 15.082968  -0.000000 -0.000000 -0.000000
5  7.861998 1.690550 20.553328  0.145222 0.018894 0.007952
6  5.961565 5.877568 -14.357303  0.000000 0.017351 -0.000000
7  10.132455 7.521428 -13.339889  -0.000000 0.017349 0.000001
8  7.071622 2.633327 -1.343420  0.000000 -0.000000 -0.000000
9  -7.215015 2.908783 21.442244  -0.177155 0.012928 -0.008601
10  -2.914597 -15.412416 -6.310893  0.000000 0.017351 0.000000
11  1.915932 -8.833011 13.424054  -0.000008 0.017349 -0.000001
12  5.659714 -11.449333 9.057084  -0.000000 0.017350 0.000000
13  1.189936 10.695264 -2.939740  0.000000 0.034787 0.000000
14  -2.124483 -24.104864 6.023556  0.000000 0.017350 -0.000000
15  3.329324 -6.438047 -1.506927  -0.000000 0.000000 0.000000
16  -0.160953 2.270955 5.513706  -0.000000 -0.000000 0.000000
17  0.783688 1.087373 11.560635  -0.000000 0.000000 0.000000
18  -0.017059 -0.034536 -0.654792  0.030654 0.018113 0.001055
19  -0.669090 -0.281067 -16.582541  0.167399 0.018726 0.009107
20  -0.054108 -0.368182 -0.390878  0.109679 0.001792 0.002000
21  2.926265 -1.135554 -24.857794  0.083501 0.036187 0.004450
22  0.176164 3.421208 -19.465679  -0.000000 0.017350 0.000000
23  0.214477 3.945335 -14.796870  0.000000 0.017350 -0.000000
24  -0.127801 3.995605 -4.361925  0.000000 0.000000 0.000000
25  -5.848766 -2.970824 -24.100029  -0.116194 0.015255 -0.003827
26  0.392180 -8.798161 -12.680977  -0.000000 0.017349 -0.000000
27  1.845341 7.302800 -12.204818  -0.000000 0.017350 0.000000
28  -0.506196 5.050750 -3.130161  0.000000 -0.000000 0.000000
29  0.000009 -0.000000 206.122971  0.000000 -0.000000 0.000000
30  0.000000 0.000000 -0.000000  0.000000 -0.000000 0.000000
31  0.000000 0.000000 0.000000  0.000000 0.000000 0.000244
32  0.000000 0.000000 0.000000  0.000000 0.000000 0.000244
33  0.000000 0.000000 0.000000  0.000000 0.000000 0.000244
34  0.000000 0.000000 0.000000  0.000000 0.000000 0.000244
35  0.000000 0.000000 0.000000  0.000000 0.000000 0.000244
time 6
0  0.000000 0.000000 0.000000  0.000000 0.000000 0.000244
1  -0.853094 -0.026369 107.836571  0.017462 0.017414 -0.017113
2  0.076050 0.018672 0.486563  -0.080061 0.016049 -0.002630
3  0.681926 3.061767 25.766750  -0.170406 0.013401 -0.008422
4  -0.270205 4.643918 15.082953  -0.000000 -0.000000 -0.000000
5  7.861997 1.690549 20.553318  0.190903 0.019378 0.010440
6  5.961567 5.877564 -14.357297  0.000000 0.017351 -0.000000
7  10.132455 7.521430 -13.339896  -0.000000 0.017349 0.000001
8  7.071624 2.633330 -1.343437  0.000000 -0.000000 -0.000000
9  -7.215014 2.908782 21.442211  -0.232964 0.011535 -0.011344
10  -2.914596 -15.412416 -6.310888  0.000000 0.017351 0.000000
11  1.915932 -8.833018 13.424047  -0.000008 0.017349 -0.000001
12  5.659711 -11.449345 9.057109  -0.000000 0.017350 0.000000
13  1.189935 10.695261 -2.939733  -0.000000 0.034787 0.000000
14  -2.124487 -24.104868 6.023565  -0.000000 0.017350 -0.000000
15  3.498406 -6.758058 -1.583459  0.000000 0.000000 0.000000
16  -0.160954 2.270947 5.513716  -0.000000 -0.000000 0.000000
17  0.783688 1.087372 11.560617  -0.000000 0.000000 -0.000000
18  -0.017059 -0.034536 -0.654792  0.040327 0.018361 0.001406
19  -0.669091 -0.281067 -16.582531  0.220162 0.019177 0.011933
20  -0.054107 -0.368182 -0.390885  0.109679 0.001792 0.002000
21  2.926265 -1.135555 -24.857794  0.109804 0.036591 0.005902
22  0.176165 3.421204 -19.465685  -0.000000 0.017350 0.000000
23  0.214477 3.945333 -14.796876  -0.000000 0.017350 -0.000000
24  -0.127801 3.995606 -4.361921  0.000000 0.000000 0.000000
25  -5.848766 -2.970825 -24.100021  -0.152797 0.014507 -0.005006
26  0.392180 -8.798160 -12.680984  -0.000000 0.017349 -0.000000
27  1.845342 7.302800 -12.204832  -0.000000 0.017350 0.000000
28  -0.506195 5.050750 -3.130169  0.000000 -0.000000 0.000000
29  0.000009 -0.000000 206.122971  0.000000 -0.000000 0.000000
30  0.000000 0.000000 -0.000000  0.000000 -0.000000 0.000000
31  0.000000 0.000000 0.000000  0.000000 0.000000 0.000244
32  0.000000 0.000000 0.000000  0.000000 0.000000 0.000244
33  0.000000 0.000000 0.000000  0.000000 0.000000 0.000244
34  0.000000 0.000000 0.000000  0.000000 0.000000 0.000244
35  0.000000 0.000000 0.000000  0.000000 0.000000 0.000244
time 7
0  0.000000 0.000000 0.000000  0.000000 0.000000 0.000244
1  -0.853094 -0.026374 108.492950  0.017462 0.017414 -0.017113
2  0.076050 0.018672 0.486563  -0.098556 0.015740 -0.003283
3  0.681925 3.061769 25.766743  -0.209868 0.012451 -0.010339
4  -0.270205 4.643919 15.082956  0.000000 -0.000000 -0.000000
5  7.861997 1.690550 20.553331  0.235121 0.019863 0.012863
6  5.961567 5.877567 -14.357300  0.000000 0.017351 0.000000
7  10.132453 7.521427 -13.339897  -0.000000 0.017349 0.000001
8  7.071622 2.633328 -1.343428  0.000000 -0.000000 -0.000000
9  -7.215015 2.908784 21.442215  -0.286858 0.010196 -0.013944
10  -2.914597 -15.412416 -6.310891  0.000000 0.017351 0.000000
11  1.915933 -8.833006 13.424044  -0.000008 0.017349 -0.000001
12  5.659717 -11.449344 9.057119  -0.000000 0.017350 0.000000
13  1.189932 10.695261 -2.939699  -0.000000 0.034787 0.000000
14  -2.124487 -24.104868 6.023562  0.000000 0.017350 -0.000000
15  3.661885 -7.067497 -1.657466  0.000000 0.000000 0.000000
16  -0.160951 2.270946 5.513739  -0.000000 -0.000000 0.000000
17  0.783688 1.087373 11.560621  -0.000000 0.000000 0.000000
18  -0.017059 -0.034536 -0.654792  0.049656 0.018607 0.001757
19  -0.669091 -0.281067 -16.582539  0.271164 0.019601 0.014697
20  -0.054107 -0.368182 -0.390885  0.109679 0.001792 0.002000
21  2.926264 -1.135555 -24.857792  0.135261 0.037057 0.007269
22  0.176164 3.421207 -19.465670  -0.000000 0.017350 0.000000
23  0.214477 3.945336 -14.796872  -0.000000 0.017350 -0.000000
24  -0.127801 3.995606 -4.361924  -0.000000 0.000000 0.000000
25  -5.848767 -2.970824 -24.100027  -0.188237 0.013897 -0.006167
26  0.392179 -8.798160 -12.680974  -0.000000 0.017349 -0.000000
27  1.845340 7.302801 -12.204819  -0.000000 0.017350 0.000000
28  -0.506195 5.050751 -3.130169  0.000000 -0.000000 0.000000
29  0.000009 -0.000000 206.122971  0.000000 -0.000000 0.000000
30  0.000000 0.000000 -0.000000  0.000000 -0.000000 0.000000
31  0.000000 0.000000 0.000000  0.000000 0.000000 0.000244
32  0.000000 0.000000 0.000000  0.000000 0.000000 0.000244
33  0.000000 0.000000 0.000000  0.000000 0.000000 0.000244
34  0.000000 0.000000 0.000000  0.000000 0.000000 0.000244
35  0.000000 0.000000 0.000000  0.000000 0.000000 0.000244
time 8
0  0.000000 0.000000 0.000000  0.000000 0.000000 0.000244
1  -0.853093 -0.026371 109.081810  0.017462 0.017414 -0.017113
2  0.076050 0.018672 0.486563  -0.115157 0.015515 -0.003834
3  0.681926 3.061770 25.766737  -0.245323 0.011637 -0.012133
4  -0.270205 4.643917 15.082972  0.000000 -0.000000 -0.000000
5  7.861997 1.690549 20.553324  0.274833 0.020234 0.014998
6  5.961567 5.877562 -14.357297  0.000000 0.017351 -0.000000
7  10.132452 7.521425 -13.339886  -0.000000 0.017349 0.000001
8  7.071621 2.633329 -1.343415  0.000000 -0.000000 -0.000000
9  -7.215014 2.908782 21.442221  -0.335269 0.008970 -0.016313
10  -2.914596 -15.412418 -6.310898  0.000000 0.017351 -0.000000
11  1.915932 -8.833017 13.424057  -0.000008 0.017349 -0.000001
12  5.659713 -11.449325 9.057109  -0.000000 0.017350 0.000000
13  1.189936 10.695266 -2.939723  -0.000000 0.034787 0.000000
14  -2.124485 -24.104868 6.023566  -0.000000 0.017350 -0.000000
15  3.808549 -7.345103 -1.723863  0.000000 0.000000 0.000000
16  -0.160953 2.270965 5.513715  0.000000 -0.000000 0.000000
17  0.783688 1.087372 11.560628  0.000000 0.000000 0.000000
18  -0.017059 -0.034536 -0.654800  0.058035 0.018767 0.002013
19  -0.669090 -0.281067 -16.582531  0.316835 0.019984 0.017179
20  -0.054107 -0.368182 -0.390885  0.109679 0.001792 0.002000
21  2.926265 -1.135556 -24.857794  0.158140 0.037427 0.008508
22  0.176164 3.421208 -19.465670  0.000000 0.017350 0.000000
23  0.214477 3.945336 -14.796877  -0.000000 0.017350 -0.000000
24  -0.127801 3.995606 -4.361933  -0.000000 0.000000 0.000000
25  -5.848767 -2.970826 -24.100021  -0.220001 0.013274 -0.007198
26  0.392178 -8.798159 -12.680974  -0.000000 0.017349 -0.000000
27  1.845341 7.302797 -12.204823  -0.000000 0.017350 0.000000
28  -0.506197 5.050750 -3.130169  0.000000 -0.000000 0.000000
29  0.000009 -0.000000 206.122971  0.000000 -0.000000 0.000000
30  0.000000 0.000000 -0.000000  0.000000 -0.000000 0.000000
31  0.000000 0.000000 0.000000  0.000000 0.000000 0.000244
32  0.000000 0.000000 0.000000  0.000000 0.000000 0.000244
33  0.000000 0.000000 0.000000  0.000000 0.000000 0.000244
34  0.000000 0.000000 0.000000  0.000000 0.000000 0.000244
35  0.000000 0.000000 0.000000  0.000000 0.000000 0.000244
time 9
0  0.000000 0.000000 0.000000  0.000000 0.000000 0.000244
1  -0.853093 -0.026375 109.558151  0.017462 0.017414 -0.017113
2  0.076050 0.018672 0.486563  -0.128651 0.015294 -0.004272
3  0.681926 3.061768 25.766731  -0.273967 0.010943 -0.013533
4  -0.270205 4.643916 15.082964  0.000000 -0.000000 -0.000000
5  7.861997 1.690549 20.553329  0.306875 0.020548 0.016804
6  5.961567 5.877563 -14.357302  -0.000000 0.017351 -0.000000
7  10.132454 7.521425 -13.339894  -0.000000 0.017349 0.000001
8  7.071622 2.633332 -1.343422  0.000000 0.000000 -0.000000
9  -7.215014 2.908782 21.442213  -0.374384 0.007973 -0.018202
10  -2.914597 -15.412421 -6.310887  -0.000000 0.017351 -0.000000
11  1.915933 -8.833012 13.424035  -0.000008 0.017349 -0.000001
12  5.659713 -11.449342 9.057113  -0.000000 0.017350 0.000000
13  1.189936 10.695266 -2.939728  -0.000000 0.034787 0.000000
14  -2.124485 -24.104864 6.023542  0.000000 0.017350 -0.000000
15  3.927192 -7.569650 -1.777576  -0.000000 0.000000 0.000000
16  -0.160956 2.270946 5.513751  0.000000 -0.000000 0.000000
17  0.783688 1.087372 11.560624  0.000000 0.000000 0.000000
18  -0.017059 -0.034536 -0.654799  0.064860 0.018927 0.002255
19  -0.669091 -0.281067 -16.582523  0.353810 0.020324 0.019242
20  -0.054107 -0.368182 -0.390885  0.109679 0.001792 0.002000
21  2.926265 -1.135553 -24.857784  0.176528 0.037810 0.009500
22  0.176164 3.421208 -19.465681  0.000000 0.017350 0.000000
23  0.214478 3.945335 -14.796876  0.000000 0.017350 -0.000000
24  -0.127801 3.995605 -4.361926  0.000000 0.000000 0.000000
25  -5.848766 -2.970823 -24.100019  -0.245642 0.012839 -0.008021
26  0.392179 -8.798159 -12.680984  -0.000000 0.017349 -0.000000
27  1.845342 7.302802 -12.204823  -0.000000 0.017350 0.000000
28  -0.506196 5.050751 -3.130169  0.000000 -0.000000 0.000000
29  0.000009 -0.000000 206.122971  0.000000 -0.000000 0.000000
30  0.000000 0.000000 -0.000000  0.000000 -0.000000 0.000000
31  0.000000 0.000000 0.000000  0.000000 0.000000 0.000244
32  0.000000 0.000000 0.000000  0.000000 0.000000 0.000244
33  0.000000 0.000000 0.000000  0.000000 0.000000 0.000244
34  0.000000 0.000000 0.000000  0.000000 0.000000 0.000244
35  0.000000 0.000000 0.000000  0.000000 0.000000 0.000244
time 10
0  0.000000 0.000000 0.000000  0.000000 0.000000 0.000244
1  -0.853093 -0.026371 109.876961  0.017462 0.017414 -0.017113
2  0.076050 0.018672 0.486571  -0.137650 0.015085 -0.004587
3  0.681926 3.061768 25.766750  -0.293153 0.010503 -0.014552
4  -0.270204 4.643915 15.082971  0.000000 -0.000000 -0.000000
5  7.861998 1.690550 20.553322  0.328398 0.020821 0.017975
6  5.961566 5.877565 -14.357310  0.000000 0.017351 0.000000
7  10.132453 7.521426 -13.339890  -0.000000 0.017349 0.000001
8  7.071621 2.633339 -1.343418  0.000000 -0.000000 -0.000000
9  -7.215014 2.908784 21.442219  -0.400599 0.007324 -0.019455
10  -2.914595 -15.412415 -6.310897  0.000000 0.017351 0.000000
11  1.915933 -8.833002 13.424052  -0.000008 0.017349 -0.000001
12  5.659714 -11.449335 9.057119  -0.000000 0.017350 0.000000
13  1.189935 10.695258 -2.939719  -0.000000 0.034787 0.000000
14  -2.124485 -24.104868 6.023572  -0.000000 0.017350 -0.000000
15  4.006598 -7.719922 -1.813511  0.000000 0.000000 0.000000
16  -0.160952 2.270955 5.513736  -0.000000 -0.000000 0.000000
17  0.783689 1.087372 11.560629  0.000000 0.000000 0.000000
18  -0.017059 -0.034536 -0.654792  0.069353 0.019088 0.002476
19  -0.669090 -0.281067 -16.582546  0.378585 0.020499 0.020539
20  -0.054107 -0.368182 -0.390878  0.109679 0.001792 0.002000
21  2.926265 -1.135554 -24.857786  0.188939 0.037967 0.010188
22  0.176164 3.421206 -19.465675  0.000000 0.017350 0.000000
23  0.214477 3.945333 -14.796876  0.000000 0.017350 -0.000000
24  -0.127801 3.995610 -4.361929  -0.000000 0.000000 0.000000
25  -5.848766 -2.970824 -24.100021  -0.262788 0.012531 -0.008621
26  0.392180 -8.798160 -12.680978  0.000000 0.017349 -0.000000
27  1.845341 7.302800 -12.204827  -0.000000 0.017350 0.000000
28  -0.506196 5.050753 -3.130171  0.000000 -0.000000 0.000000
29  0.000009 -0.000000 206.122971  0.000000 -0.000000 0.000000
30  0.000000 0.000000 -0.000000  0.000000 -0.000000 0.000000
31  0.000000 0.000000 0.000000  0.000000 0.000000 0.000244
32  0.000000 0.000000 0.000000  0.000000 0.000000 0.000244
33  0.000000 0.000000 0.000000  0.000000 0.000000 0.000244
34  0.000000 0.000000 0.000000  0.000000 0.000000 0.000244
35  0.000000 0.000000 0.000000  0.000000 0.000000 0.000244
time 11
0  0.000000 0.000000 0.000000  0.000000 0.000000 0.000244
1  -0.853093 -0.026375 109.993225  0.017462 0.017414 -0.017113
2  0.076050 0.018672 0.486563  -0.140939 0.015071 -0.004698
3  0.681925 3.061768 25.766745  -0.300136 0.010414 -0.014845
4  -0.270206 4.643917 15.082973  0.000000 -0.000000 -0.000000
5  7.861997 1.690551 20.553314  0.336193 0.020878 0.018340
6  5.961566 5.877563 -14.357307  0.000000 0.017351 -0.000000
7  10.132451 7.521428 -13.339892  -0.000000 0.017349 0.000001
8  7.071621 2.633333 -1.343422  0.000000 -0.000000 -0.000000
9  -7.215014 2.908783 21.442215  -0.410117 0.007144 -0.019913
10  -2.914597 -15.412416 -6.310895  -0.000000 0.017351 -0.000000
11  1.915933 -8.833009 13.424045  -0.000008 0.017349 -0.000001
12  5.659714 -11.449358 9.057114  0.000000 0.017350 0.000000
13  1.189934 10.695257 -2.939705  -0.000000 0.034787 0.000000
14  -2.124485 -24.104856 6.023545  0.000000 0.017350 -0.000000
15  4.035562 -7.774753 -1.826611  -0.000000 0.000000 0.000000
16  -0.160953 2.270938 5.513730  0.000000 -0.000000 0.000000
17  0.783688 1.087373 11.560629  0.000000 0.000000 -0.000000
18  -0.017059 -0.034536 -0.654792  0.070994 0.019086 0.002492
19  -0.669091 -0.281066 -16.582525  0.387650 0.020594 0.021020
20  -0.054107 -0.368182 -0.390878  0.109679 0.001792 0.002000
21  2.926265 -1.135554 -24.857792  0.193456 0.038099 0.010463
22  0.176165 3.421210 -19.465687  0.000000 0.017350 0.000000
23  0.214477 3.945335 -14.796878  -0.000000 0.017350 -0.000000
24  -0.127801 3.995607 -4.361933  0.000000 0.000000 0.000000
25  -5.848766 -2.970824 -24.100027  -0.269059 0.012395 -0.008820
26  0.392178 -8.798160 -12.680971  0.000000 0.017349 -0.000000
27  1.845340 7.302801 -12.204829  -0.000000 0.017350 0.000000
28  -0.506195 5.050749 -3.130170  0.000000 -0.000000 0.000000
29  0.000009 -0.000000 206.122971  0.000000 -0.000000 0.000000
30  0.000000 0.000000 -0.000000  0.000000 -0.000000 0.000000
31  0.000000 0.000000 0.000000  0.000000 0.000000 0.000244
32  0.000000 0.000000 0.000000  0.000000 0.000000 0.000244
33  0.000000 0.000000 0.000000  0.000000 0.000000 0.000244
34  0.000000 0.000000 0.000000  0.000000 0.000000 0.000244
35  0.000000 0.000000 0.000000  0.000000 0.000000 0.000244
time 12
0  0.000000 0.000000 0.000000  0.000000 0.000000 0.000244
1  -0.853093 -0.026372 109.920464  0.017462 0.017414 -0.017113
2  0.076050 0.018672 0.486563  -0.138862 0.015076 -0.004683
3  0.681926 3.061769 25.766741  -0.295771 0.010471 -0.014651
4  -0.270205 4.643918 15.082972  0.000000 -0.000000 -0.000000
5  7.861998 1.690551 20.553322  0.331288 0.020866 0.018104
6  5.961567 5.877563 -14.357306  -0.000000 0.017351 -0.000000
7  10.132456 7.521425 -13.339904  -0.000000 0.017349 0.000001
8  7.071620 2.633336 -1.343427  -0.000000 -0.000000 -0.000000
9  -7.215013 2.908783 21.442228  -0.404123 0.007255 -0.019637
10  -2.914596 -15.412416 -6.310890  0.000000 0.017351 0.000000
11  1.915931 -8.833014 13.424047  -0.000008 0.017349 -0.000001
12  5.659715 -11.449337 9.057106  -0.000000 0.017350 0.000000
13  1.189934 10.695260 -2.939700  0.000000 0.034787 0.000000
14  -2.124486 -24.104866 6.023558  0.000000 0.017350 -0.000000
15  4.017432 -7.740452 -1.818401  -0.000000 0.000000 0.000000
16  -0.160953 2.270943 5.513749  -0.000000 -0.000000 0.000000
17  0.783688 1.087372 11.560632  -0.000000 0.000000 0.000000
18  -0.017059 -0.034536 -0.654792  0.069958 0.019087 0.002482
19  -0.669090 -0.281067 -16.582541  0.382017 0.020516 0.020760
20  -0.054107 -0.368182 -0.390885  0.109679 0.001792 0.002000
21  2.926265 -1.135555 -24.857786  0.190590 0.038037 0.010314
22  0.176164 3.421206 -19.465670  -0.000000 0.017350 0.000000
23  0.214477 3.945332 -14.796877  -0.000000 0.017350 -0.000000
24  -0.127801 3.995612 -4.361926  -0.000000 0.000000 0.000000
25  -5.848766 -2.970824 -24.100021  -0.265140 0.012509 -0.008722
26  0.392179 -8.798159 -12.680974  0.000000 0.017349 -0.000000
27  1.845342 7.302801 -12.204833  0.000000 0.017350 0.000000
28  -0.506195 5.050750 -3.130166  0.000000 -0.000000 0.000000
29  0.000009 -0.000000 206.122971  0.000000 -0.000000 0.000000
30  0.000000 0.000000 -0.000000  0.000000 -0.000000 0.000000
31  0.000000 0.000000 0.000000  0.000000 0.000000 0.000244
32  0.000000 0.000000 0.000000  0.000000 0.000000 0.000244
33  0.000000 0.000000 0.000000  0.000000 0.000000 0.000244
34  0.000000 0.000000 0.000000  0.000000 0.000000 0.000244
35  0.000000 0.000000 0.000000  0.000000 0.000000 0.000244
time 13
0  0.000000 0.000000 0.000000  0.000000 0.000000 0.000244
1  -0.853093 -0.026371 109.716690  0.017462 0.017414 -0.017113
2  0.076050 0.018672 0.486556  -0.133150 0.015187 -0.004473
3  0.681926 3.061768 25.766748  -0.283469 0.010732 -0.014000
4  -0.270204 4.643912 15.082971  0.000000 -0.000000 -0.000000
5  7.861997 1.690547 20.553349  0.317545 0.020731 0.017394
6  5.961566 5.877564 -14.357301  0.000000 0.017351 0.000000
7  10.132452 7.521430 -13.339887  -0.000000 0.017349 0.000001
8  7.071621 2.633326 -1.343424  0.000000 -0.000000 -0.000000
9  -7.215014 2.908781 21.442244  -0.387395 0.007654 -0.018830
10  -2.914595 -15.412418 -6.310896  -0.000000 0.017351 -0.000000
11  1.915933 -8.832998 13.424047  -0.000008 0.017349 -0.000001
12  5.659715 -11.449344 9.057104  -0.000000 0.017350 0.000000
13  1.189933 10.695252 -2.939705  0.000000 0.034787 0.000000
14  -2.124485 -24.104860 6.023530  0.000000 0.017350 -0.000000
15  3.966687 -7.644373 -1.795451  0.000000 0.000000 0.000000
16  -0.160952 2.270948 5.513732  0.000000 -0.000000 0.000000
17  0.783688 1.087371 11.560635  0.000000 0.000000 0.000000
18  -0.017059 -0.034536 -0.654799  0.067106 0.019008 0.002365
19  -0.669090 -0.281065 -16.582521  0.366191 0.020466 0.019855
20  -0.054107 -0.368182 -0.390885  0.109679 0.001792 0.002000
21  2.926265 -1.135553 -24.857786  0.182690 0.037843 0.009882
22  0.176165 3.421206 -19.465685  0.000000 0.017350 0.000000
23  0.214477 3.945331 -14.796882  -0.000000 0.017350 -0.000000
24  -0.127801 3.995613 -4.361925  0.000000 0.000000 0.000000
25  -5.848767 -2.970823 -24.100014  -0.254169 0.012686 -0.008321
26  0.392179 -8.798160 -12.680987  0.000000 0.017349 -0.000000
27  1.845341 7.302799 -12.204827  -0.000000 0.017350 0.000000
28  -0.506195 5.050750 -3.130173  0.000000 -0.000000 0.000000
29  0.000009 -0.000000 206.122971  0.000000 -0.000000 0.000000
30  0.000000 0.000000 -0.000000  0.000000 -0.000000 0.000000
31  0.000000 0.000000 0.000000  0.000000 0.000000 0.000244
32  0.000000 0.000000 0.000000  0.000000 0.000000 0.000244
33  0.000000 0.000000 0.000000  0.000000 0.000000 0.000244
34  0.000000 0.000000 0.000000  0.000000 0.000000 0.000244
35  0.000000 0.000000 0.000000  0.000000 0.000000 0.000244
time 14
0  0.000000 0.000000 0.000000  0.000000 0.000000 0.000244
1  -0.853093 -0.026371 109.403770  0.017462 0.017414 -0.017113
2  0.076050 0.018672 0.486563  -0.124239 0.015309 -0.004152
3  0.681926 3.061768 25.766743  -0.264646 0.011234 -0.013077
4  -0.270205 4.643910 15.082977  0.000000 -0.000000 -0.000000
5  7.861998 1.690551 20.553322  0.296477 0.020443 0.016232
6  5.961567 5.877561 -14.357307  0.000000 0.017351 -0.000000
7  10.132454 7.521432 -13.339896  -0.000000 0.017349 0.000001
8  7.071622 2.633327 -1.343415  0.000000 -0.000000 -0.000000
9  -7.215014 2.908782 21.442234  -0.361740 0.008367 -0.017588
10  -2.914596 -15.412416 -6.310899  0.000000 0.017351 0.000000
11  1.915932 -8.833007 13.424045  -0.000008 0.017349 -0.000001
12  5.659715 -11.449332 9.057094  -0.000000 0.017350 0.000000
13  1.189936 10.695277 -2.939746  0.000000 0.034787 0.000000
14  -2.124489 -24.104870 6.023590  -0.000000 0.017350 -0.000000
15  3.888747 -7.496860 -1.760156  -0.000000 0.000000 0.000000
16  -0.160952 2.270945 5.513726  0.000000 -0.000000 0.000000
17  0.783688 1.087372 11.560631  0.000000 0.000000 -0.000000
18  -0.017059 -0.034536 -0.654799  0.062614 0.018929 0.002234
19  -0.669090 -0.281067 -16.582533  0.341881 0.020186 0.018552
20  -0.054107 -0.368182 -0.390885  0.109679 0.001792 0.002000
21  2.926265 -1.135555 -24.857786  0.170542 0.037681 0.009200
22  0.176164 3.421209 -19.465677  -0.000000 0.017350 0.000000
23  0.214477 3.945333 -14.796874  -0.000000 0.017350 -0.000000
24  -0.127801 3.995609 -4.361928  -0.000000 0.000000 0.000000
25  -5.848767 -2.970824 -24.100021  -0.237294 0.012978 -0.007806
26  0.392178 -8.798160 -12.680966  -0.000000 0.017349 -0.000000
27  1.845342 7.302798 -12.204828  -0.000000 0.017350 0.000000
28  -0.506195 5.050750 -3.130165  0.000000 -0.000000 0.000000
29  0.000009 -0.000000 206.122971  0.000000 -0.000000 0.000000
30  0.000000 0.000000 -0.000000  0.000000 -0.000000 0.000000
31  0.000000 0.000000 0.000000  0.000000 0.000000 0.000244
32  0.000000 0.000000 0.000000  0.000000 0.000000 0.000244
33  0.000000 0.000000 0.000000  0.000000 0.000000 0.000244
34  0.000000 0.000000 0.000000  0.000000 0.000000 0.000244
35  0.000000 0.000000 0.000000  0.000000 0.000000 0.000244
time 15
0  0.000000 0.000000 0.000000  0.000000 0.000000 0.000244
1  -0.853093 -0.026374 109.003525  0.017462 0.017414 -0.017113
2  0.076050 0.018672 0.486563  -0.112995 0.015524 -0.003731
3  0.681926 3.061769 25.766741  -0.240626 0.011772 -0.011944
4  -0.270206 4.643914 15.082966  0.000000 -0.000000 -0.000000
5  7.861998 1.690550 20.553314  0.269515 0.020212 0.014762
6  5.961568 5.877563 -14.357297  0.000000 0.017351 0.000000
7  10.132454 7.521428 -13.339891  -0.000000 0.017349 0.000001
8  7.071620 2.633333 -1.343431  0.000000 -0.000000 -0.000000
9  -7.215014 2.908784 21.442219  -0.328792 0.009165 -0.015958
10  -2.914595 -15.412417 -6.310892  0.000000 0.017351 0.000000
11  1.915934 -8.833007 13.424035  -0.000008 0.017349 -0.000001
12  5.659716 -11.449327 9.057098  -0.000000 0.017350 0.000000
13  1.189932 10.695266 -2.939714  -0.000000 0.034787 0.000000
14  -2.124487 -24.104862 6.023546  0.000000 0.017350 -0.000000
15  3.789058 -7.308186 -1.715050  0.000000 0.000000 0.000000
16  -0.160952 2.270953 5.513746  -0.000000 -0.000000 0.000000
17  0.783688 1.087373 11.560616  0.000000 0.000000 0.000000
18  -0.017059 -0.034536 -0.654799  0.056912 0.018768 0.002002
19  -0.669091 -0.281068 -16.582529  0.310801 0.019990 0.016850
20  -0.054107 -0.368182 -0.390885  0.109679 0.001792 0.002000
21  2.926265 -1.135554 -24.857792  0.155106 0.037446 0.008365
22  0.176165 3.421210 -19.465672  -0.000000 0.017350 0.000000
23  0.214477 3.945337 -14.796870  -0.000000 0.017350 -0.000000
24  -0.127800 3.995602 -4.361934  -0.000000 0.000000 0.000000
25  -5.848766 -2.970824 -24.100027  -0.215745 0.013384 -0.007093
26  0.392178 -8.798159 -12.680972  -0.000000 0.017349 -0.000000
27  1.845342 7.302800 -12.204813  -0.000000 0.017350 0.000000
28  -0.506195 5.050751 -3.130171  0.000000 -0.000000 0.000000
29  0.000009 -0.000000 206.122971  0.000000 -0.000000 0.000000
30  0.000000 0.000000 -0.000000  0.000000 -0.000000 0.000000
31  0.000000 0.000000 0.000000  0.000000 0.000000 0.000244
32  0.000000 0.000000 0.000000  0.000000 0.000000 0.000244
33  0.000000 0.000000 0.000000  0.000000 0.000000 0.000244
34  0.000000 0.000000 0.000000  0.000000 0.000000 0.000244
35  0.000000 0.000000 0.000000  0.000000 0.000000 0.000244
time 16
0  0.000000 0.000000 0.000000  0.000000 0.000000 0.000244
1  -0.853094 -0.026370 108.537788  0.017462 0.017414 -0.017113
2  0.076050 0.018672 0.486563  -0.099853 0.015738 -0.003293
3  0.681925 3.061767 25.766745  -0.212560 0.012419 -0.010527
4  -0.270206 4.643912 15.082966  0.000000 -0.000000 -0.000000
5  7.861997 1.690549 20.553326  0.238164 0.019833 0.012979
6  5.961566 5.877567 -14.357296  0.000000 0.017351 0.000000
7  10.132453 7.521428 -13.339892  -0.000000 0.017349 0.000001
8  7.071620 2.633331 -1.343415  0.000000 -0.000000 -0.000000
9  -7.215015 2.908782 21.442221  -0.290522 0.010060 -0.014121
10  -2.914594 -15.412414 -6.310903  -0.000000 0.017351 -0.000000
11  1.915931 -8.833009 13.424051  -0.000008 0.017349 -0.000001
12  5.659717 -11.449341 9.057109  -0.000000 0.017350 0.000000
13  1.189934 10.695250 -2.939696  -0.000000 0.034787 0.000000
14  -2.124486 -24.104856 6.023551  0.000000 0.017350 -0.000000
15  3.673052 -7.088627 -1.662542  0.000000 0.000000 0.000000
16  -0.160951 2.270947 5.513742  -0.000000 -0.000000 0.000000
17  0.783687 1.087372 11.560628  0.000000 0.000000 0.000000
18  -0.017059 -0.034536 -0.654792  0.050260 0.018606 0.001763
19  -0.669090 -0.281066 -16.582523  0.274652 0.019637 0.014914
20  -0.054107 -0.368182 -0.390878  0.109679 0.001792 0.002000
21  2.926265 -1.135554 -24.857786  0.136994 0.037131 0.007394
22  0.176165 3.421206 -19.465683  -0.000000 0.017350 0.000000
23  0.214477 3.945335 -14.796877  -0.000000 0.017350 -0.000000
24  -0.127801 3.995610 -4.361929  -0.000000 0.000000 0.000000
25  -5.848767 -2.970823 -24.100014  -0.190666 0.013881 -0.006270
26  0.392180 -8.798162 -12.680984  -0.000000 0.017349 -0.000000
27  1.845341 7.302799 -12.204826  -0.000000 0.017350 0.000000
28  -0.506194 5.050750 -3.130167  0.000000 -0.000000 0.000000
29  0.000009 -0.000000 206.122971  0.000000 -0.000000 0.000000
30  0.000000 0.000000 -0.000000  0.000000 -0.000000 0.000000
31  0.000000 0.000000 0.000000  0.000000 0.000000 0.000244
32  0.000000 0.000000 0.000000  0.000000 0.000000 0.000244
33  0.000000 0.000000 0.000000  0.000000 0.000000 0.000244
34  0.000000 0.000000 0.000000  0.000000 0.000000 0.000244
35  0.000000 0.000000 0.000000  0.000000 0.000000 0.000244
time 17
0  0.000000 0.000000 0.000000  0.000000 0.000000 0.000244
1  -0.853094 -0.026373 108.028381  0.017462 0.017414 -0.017113
2  0.076050 0.018672 0.486563  -0.085419 0.015948 -0.002842
3  0.681925 3.061768 25.766731  -0.181933 0.013134 -0.008999
4  -0.270205 4.643916 15.082971  -0.000000 -0.000000 -0.000000
5  7.861997 1.690549 20.553324  0.203836 0.019515 0.011107
6  5.961568 5.877563 -14.357285  0.000000 0.017351 -0.000000
7  10.132453 7.521427 -13.339895  -0.000000 0.017349 0.000001
8  7.071621 2.633333 -1.343415  -0.000000 -0.000000 -0.000000
9  -7.215014 2.908782 21.442221  -0.248704 0.011188 -0.012098
10  -2.914595 -15.412417 -6.310896  0.000000 0.017351 0.000000
11  1.915933 -8.833013 13.424065  -0.000008 0.017349 -0.000001
12  5.659715 -11.449339 9.057078  -0.000000 0.017350 0.000000
13  1.189934 10.695253 -2.939710  -0.000000 0.034787 0.000000
14  -2.124487 -24.104858 6.023542  -0.000000 0.017350 -0.000000
15  3.546177 -6.848507 -1.605113  -0.000000 0.000000 0.000000
16  -0.160952 2.270948 5.513729  0.000000 -0.000000 0.000000
17  0.783688 1.087373 11.560623  -0.000000 0.000000 -0.000000
18  -0.017059 -0.034536 -0.654799  0.043091 0.018444 0.001520
19  -0.669090 -0.281067 -16.582531  0.235029 0.019360 0.012716
20  -0.054108 -0.368182 -0.390885  0.109679 0.001792 0.002000
21  2.926265 -1.135555 -24.857784  0.117249 0.036726 0.006307
22  0.176164 3.421211 -19.465672  -0.000000 0.017350 0.000000
23  0.214477 3.945338 -14.796876  -0.000000 0.017350 -0.000000
24  -0.127800 3.995605 -4.361931  0.000000 0.000000 0.000000
25  -5.848766 -2.970824 -24.100021  -0.163190 0.014374 -0.005333
26  0.392179 -8.798160 -12.680980  0.000000 0.017349 -0.000000
27  1.845342 7.302799 -12.204834  -0.000000 0.017350 0.000000
28  -0.506195 5.050751 -3.130167  0.000000 -0.000000 0.000000
29  0.000009 -0.000000 206.122971  0.000000 -0.000000 0.000000
30  0.000000 0.000000 -0.000000  0.000000 -0.000000 0.000000
31  0.000000 0.000000 0.000000  0.000000 0.000000 0.000244
32  0.000000 0.000000 0.000000  0.000000 0.000000 0.000244
33  0.000000 0.000000 0.000000  0.000000 0.000000 0.000244
34  0.000000 0.000000 0.000000  0.000000 0.000000 0.000244
35  0.000000 0.000000 0.000000  0.000000 0.000000 0.000244
time 18
0  0.000000 0.000000 0.000000  0.000000 0.000000 0.000244
1  -0.853094 -0.026369 107.497131  0.017462 0.017414 -0.017113
2  0.076050 0.018672 0.486571  -0.070470 0.016243 -0.002300
3  0.681925 3.061769 25.766748  -0.150050 0.013895 -0.007450
4  -0.270205 4.643915 15.082974  0.000000 -0.000000 -0.000000
5  7.861997 1.690550 20.553347  0.168094 0.019153 0.009150
6  5.961567 5.877566 -14.357297  0.000000 0.017351 -0.000000
7  10.132454 7.521425 -13.339911  -0.000000 0.017349 0.000001
8  7.071622 2.633332 -1.343418  -0.000000 -0.000000 -0.000000
9  -7.215016 2.908783 21.442238  -0.205083 0.012254 -0.009938
10  -2.914596 -15.412414 -6.310901  0.000000 0.017351 -0.000000
11  1.915931 -8.833013 13.424061  -0.000008 0.017349 -0.000001
12  5.659716 -11.449334 9.057098  -0.000000 0.017350 0.000000
13  1.189937 10.695263 -2.939730  -0.000000 0.034787 0.000000
14  -2.124485 -24.104868 6.023551  0.000000 0.017350 -0.000000
15  3.413863 -6.598054 -1.545244  0.000000 0.000000 0.000000
16  -0.160952 2.270953 5.513723  -0.000000 -0.000000 0.000000
17  0.783687 1.087373 11.560644  -0.000000 0.000000 -0.000000
18  -0.017059 -0.034536 -0.654792  0.035490 0.018195 0.001186
19  -0.669090 -0.281067 -16.582525  0.193764 0.019011 0.010520
20  -0.054107 -0.368182 -0.390878  0.109679 0.001792 0.002000
21  2.926265 -1.135555 -24.857786  0.096651 0.036391 0.005217
22  0.176165 3.421209 -19.465683  -0.000000 0.017350 0.000000
23  0.214477 3.945335 -14.796874  -0.000000 0.017350 -0.000000
24  -0.127801 3.995609 -4.361920  -0.000000 0.000000 0.000000
25  -5.848766 -2.970824 -24.100021  -0.134533 0.014845 -0.004374
26  0.392178 -8.798160 -12.680988  -0.000000 0.017349 -0.000000
27  1.845342 7.302800 -12.204835  -0.000000 0.017350 -0.000000
28  -0.506195 5.050750 -3.130167  0.000000 -0.000000 0.000000
29  0.000009 -0.000000 206.122971  0.000000 -0.000000 0.000000
30  0.000000 0.000000 -0.000000  0.000000 -0.000000 0.000000
31  0.000000 0.000000 0.000000  0.000000 0.000000 0.000244
32  0.000000 0.000000 0.000000  0.000000 0.000000 0.000244
33  0.000000 0.000000 0.000000  0.000000 0.000000 0.000244
34  0.000000 0.000000 0.000000  0.000000 0.000000 0.000244
35  0.000000 0.000000 0.000000  0.000000 0.000000 0.000244
time 19
0  0.000000 0.000000 0.000000  0.000000 0.000000 0.000244
1  -0.853094 -0.026369 106.965897  0.017462 0.017414 -0.017113
2  0.076050 0.018672 0.486563  -0.055439 0.016442 -0.001838
3  0.681926 3.061768 25.766754  -0.118117 0.014616 -0.005793
4  -0.270205 4.643917 15.082968  -0.000000 -0.000000 -0.000000
5  7.861997 1.690550 20.553343  0.132322 0.018727 0.007210
6  5.961567 5.877565 -14.357295  0.000000 0.017351 -0.000000
7  10.132452 7.521425 -13.339891  -0.000000 0.017349 0.000001
8  7.071623 2.633332 -1.343423  0.000000 -0.000000 -0.000000
9  -7.215014 2.908783 21.442226  -0.161385 0.013309 -0.007831
10  -2.914598 -15.412414 -6.310882  0.000000 0.017351 -0.000000
11  1.915932 -8.833012 13.424032  -0.000008 0.017349 -0.000001
12  5.659716 -11.449331 9.057106  -0.000000 0.017350 0.000000
13  1.189933 10.695257 -2.939691  -0.000000 0.034787 0.000000
14  -2.124487 -24.104866 6.023571  0.000000 0.017350 -0.000000
15  3.281552 -6.347606 -1.485339  -0.000000 0.000000 0.000000
16  -0.160951 2.270955 5.513726  -0.000000 -0.000000 0.000000
17  0.783688 1.087373 11.560627  -0.000000 0.000000 -0.000000
18  -0.017059 -0.034536 -0.654792  0.027891 0.018029 0.000942
19  -0.669090 -0.281067 -16.582529  0.152582 0.018673 0.008267
20  -0.054107 -0.368182 -0.390885  0.109679 0.001792 0.002000
21  2.926265 -1.135555 -24.857786  0.076062 0.036041 0.004050
22  0.176165 3.421204 -19.465694  -0.000000 0.017350 0.000000
23  0.214477 3.945333 -14.796877  -0.000000 0.017350 -0.000000
24  -0.127800 3.995603 -4.361926  0.000000 0.000000 0.000000
25  -5.848766 -2.970825 -24.100021  -0.105903 0.015378 -0.003408
26  0.392179 -8.798161 -12.680975  -0.000000 0.017349 -0.000000
27  1.845342 7.302801 -12.204829  -0.000000 0.017350 0.000000
28  -0.506196 5.050751 -3.130163  0.000000 -0.000000 0.000000
29  0.000009 -0.000000 206.122971  0.000000 -0.000000 0.000000
30  0.000000 0.000000 -0.000000  0.000000 -0.000000 0.000000
31  0.000000 0.000000 0.000000  0.000000 0.000000 0.000244
32  0.000000 0.000000 0.000000  0.000000 0.000000 0.000244
33  0.000000 0.000000 0.000000  0.000000 0.000000 0.000244
34  0.000000 0.000000 0.000000  0.000000 0.000000 0.000244
35  0.000000 0.000000 0.000000  0.000000 0.000000 0.000244
time 20
0  0.000000 0.000000 0.000000  0.000000 0.000000 0.000244
1  -0.853094 -0.026372 106.456482  0.017462 0.017414 -0.017113
2  0.076050 0.018672 0.486563  -0.041016 0.016721 -0.001379
3  0.681926 3.061768 25.766739  -0.087510 0.015277 -0.004298
4  -0.270204 4.643917 15.082975  0.000000 -0.000000 -0.000000
5  7.861997 1.690550 20.553324  0.097976 0.018407 0.005310
6  5.961567 5.877566 -14.357296  0.000000 0.017351 -0.000000
7  10.132457 7.521425 -13.339895  -0.000000 0.017349 0.000001
8  7.071623 2.633331 -1.343416  0.000000 -0.000000 -0.000000
9  -7.215014 2.908783 21.442225  -0.119579 0.014354 -0.005788
10  -2.914596 -15.412414 -6.310905  -0.000000 0.017351 0.000000
11  1.915933 -8.833009 13.424043  -0.000008 0.017349 -0.000001
12  5.659716 -11.449342 9.057098  -0.000000 0.017350 0.000000
13  1.189936 10.695256 -2.939733  0.000000 0.034787 0.000000
14  -2.124486 -24.104866 6.023570  0.000000 0.017350 -0.000000
15  3.154669 -6.107460 -1.427930  0.000000 0.000000 0.000000
16  -0.160951 2.270946 5.513734  -0.000000 -0.000000 0.000000
17  0.783688 1.087373 11.560630  -0.000000 0.000000 0.000000
18  -0.017059 -0.034536 -0.654792  0.020637 0.017861 0.000702
19  -0.669090 -0.281067 -16.582527  0.113024 0.018327 0.006138
20  -0.054107 -0.368182 -0.390878  0.109679 0.001792 0.002000
21  2.926265 -1.135555 -24.857794  0.056349 0.035753 0.002994
22  0.176165 3.421207 -19.465683  0.000000 0.017350 0.000000
23  0.214477 3.945336 -14.796873  -0.000000 0.017350 -0.000000
24  -0.127801 3.995606 -4.361923  -0.000000 0.000000 0.000000
25  -5.848767 -2.970824 -24.100029  -0.078418 0.015882 -0.002523
26  0.392179 -8.798160 -12.680981  -0.000000 0.017349 -0.000000
27  1.845342 7.302801 -12.204839  -0.000000 0.017350 -0.000000
28  -0.506196 5.050750 -3.130166  0.000000 -0.000000 0.000000
29  0.000009 -0.000000 206.122971  0.000000 -0.000000 0.000000
30  0.000000 0.000000 -0.000000  0.000000 -0.000000 0.000000
31  0.000000 0.000000 0.000000  0.000000 0.000000 0.000244
32  0.000000 0.000000 0.000000  0.000000 0.000000 0.000244
33  0.000000 0.000000 0.000000  0.000000 0.000000 0.000244
34  0.000000 0.000000 0.000000  0.000000 0.000000 0.000244
35  0.000000 0.000000 0.000000  0.000000 0.000000 0.000244
time 21
0  0.000000 0.000000 0.000000  0.000000 0.000000 0.000244
1  -0.853095 -0.026368 105.990753  0.017462 0.017414 -0.017113
2  0.076050 0.018672 0.486571  -0.027890 0.016907 -0.000926
3  0.681926 3.061768 25.766745  -0.059427 0.015976 -0.002893
4  -0.270205 4.643915 15.082970  0.000000 -0.000000 -0.000000
5  7.861997 1.690550 20.553326  0.066598 0.018016 0.003623
6  5.961567 5.877565 -14.357290  0.000000 0.017351 -0.000000
7  10.132453 7.521426 -13.339899  -0.000000 0.017349 0.000001
8  7.071621 2.633331 -1.343415  0.000000 -0.000000 -0.000000
9  -7.215015 2.908783 21.442236  -0.081279 0.015305 -0.003905
10  -2.914596 -15.412416 -6.310891  -0.000000 0.017351 0.000000
11  1.915929 -8.833014 13.424059  -0.000008 0.017349 -0.000001
12  5.659713 -11.449331 9.057101  -0.000000 0.017350 0.000000
13  1.189935 10.695263 -2.939731  0.000000 0.034787 0.000000
14  -2.124490 -24.104868 6.023572  -0.000000 0.017350 -0.000000
15  3.038671 -5.887907 -1.375405  -0.000000 0.000000 0.000000
16  -0.160954 2.270952 5.513733  -0.000000 -0.000000 0.000000
17  0.783688 1.087373 11.560623  -0.000000 0.000000 0.000000
18  -0.017059 -0.034536 -0.654792  0.014074 0.017692 0.000470
19  -0.669090 -0.281067 -16.582527  0.076795 0.017981 0.004146
20  -0.054107 -0.368182 -0.390878  0.109679 0.001792 0.002000
21  2.926265 -1.135554 -24.857794  0.038283 0.035445 0.002060
22  0.176165 3.421207 -19.465679  0.000000 0.017350 0.000000
23  0.214477 3.945338 -14.796875  -0.000000 0.017350 -0.000000
24  -0.127801 3.995605 -4.361926  -0.000000 0.000000 0.000000
25  -5.848766 -2.970824 -24.100021  -0.053280 0.016360 -0.001731
26  0.392179 -8.798161 -12.680996  0.000000 0.017349 -0.000000
27  1.845341 7.302801 -12.204822  -0.000000 0.017350 0.000000
28  -0.506195 5.050750 -3.130170  0.000000 -0.000000 0.000000
29  0.000009 -0.000000 206.122971  0.000000 -0.000000 0.000000
30  0.000000 0.000000 -0.000000  0.000000 -0.000000 0.000000
31  0.000000 0.000000 0.000000  0.000000 0.000000 0.000244
32  0.000000 0.000000 0.000000  0.000000 0.000000 0.000244
33  0.000000 0.000000 0.000000  0.000000 0.000000 0.000244
34  0.000000 0.000000 0.000000  0.000000 0.000000 0.000244
35  0.000000 0.000000 0.000000  0.000000 0.000000 0.000244
time 22
0  0.000000 0.000000 0.000000  0.000000 0.000000 0.000244
1  -0.853095 -0.026367 105.590492  0.017462 0.017414 -0.017113
2  0.076050 0.018672 0.486571  -0.016578 0.017087 -0.000487
3  0.681925 3.061768 25.766756  -0.035414 0.016546 -0.001675
4  -0.270204 4.643917 15.082971  0.000000 -0.000000 -0.000000
5  7.861997 1.690550 20.553333  0.039643 0.017742 0.002165
6  5.961567 5.877565 -14.357295  0.000000 0.017351 0.000000
7  10.132451 7.521425 -13.339897  -0.000000 0.017349 0.000001
8  7.071621 2.633331 -1.343426  0.000000 -0.000000 -0.000000
9  -7.215014 2.908783 21.442232  -0.048362 0.016177 -0.002291
10  -2.914596 -15.412416 -6.310906  0.000000 0.017351 -0.000000
11  1.915933 -8.833014 13.424031  -0.000008 0.017349 -0.000001
12  5.659715 -11.449339 9.057096  -0.000000 0.017350 0.000000
13  1.189934 10.695253 -2.939715  0.000000 0.034787 0.000000
14  -2.124487 -24.104862 6.023557  0.000000 0.017350 -0.000000
15  2.938986 -5.699229 -1.330281  -0.000000 0.000000 0.000000
16  -0.160950 2.270950 5.513702  -0.000000 -0.000000 0.000000
17  0.783688 1.087373 11.560642  -0.000000 0.000000 0.000000
18  -0.017059 -0.034536 -0.654792  0.008375 0.017522 0.000246
19  -0.669091 -0.281067 -16.582527  0.045776 0.017730 0.002478
20  -0.054107 -0.368182 -0.390878  0.109679 0.001792 0.002000
21  2.926265 -1.135555 -24.857794  0.022812 0.035122 0.001178
22  0.176165 3.421206 -19.465683  0.000000 0.017350 0.000000
23  0.214477 3.945334 -14.796879  -0.000000 0.017350 -0.000000
24  -0.127801 3.995608 -4.361926  -0.000000 0.000000 0.000000
25  -5.848766 -2.970825 -24.100021  -0.031776 0.016731 -0.001043
26  0.392180 -8.798160 -12.680976  -0.000000 0.017349 -0.000000
27  1.845341 7.302800 -12.204825  -0.000000 0.017350 0.000000
28  -0.506194 5.050749 -3.130172  0.000000 -0.000000 0.000000
29  0.000009 -0.000000 206.122971  0.000000 -0.000000 0.000000
30  0.000000 0.000000 -0.000000  0.000000 -0.000000 0.000000
31  0.000000 0.000000 0.000000  0.000000 0.000000 0.000244
32  0.000000 0.000000 0.000000  0.000000 0.000000 0.000244
33  0.000000 0.000000 0.000000  0.000000 0.000000 0.000244
34  0.000000 0.000000 0.000000  0.000000 0.000000 0.000244
35  0.000000 0.000000 0.000000  0.000000 0.000000 0.000244
time 23
0  0.000000 0.000000 0.000000  0.000000 0.000000 0.000244
1  -0.853095 -0.026367 105.277573  0.017462 0.017414 -0.017113
2  0.076050 0.018672 0.486563  -0.007771 0.017263 -0.000240
3  0.681926 3.061768 25.766756  -0.016588 0.016999 -0.000746
4  -0.270205 4.643918 15.082963  0.000000 -0.000000 -0.000000
5  7.861998 1.690550 20.553320  0.018567 0.017514 0.000939
6  5.961566 5.877565 -14.357289  0.000000 0.017351 0.000000
7  10.132454 7.521425 -13.339897  -0.000000 0.017349 0.000001
8  7.071622 2.633332 -1.343430  -0.000000 -0.000000 -0.000000
9  -7.215014 2.908783 21.442211  -0.022711 0.016821 -0.001054
10  -2.914596 -15.412416 -6.310896  0.000000 0.017351 -0.000000
11  1.915935 -8.833016 13.424053  -0.000008 0.017349 -0.000001
12  5.659714 -11.449345 9.057085  -0.000000 0.017350 0.000000
13  1.189938 10.695262 -2.939722  0.000000 0.034787 0.000000
14  -2.124488 -24.104862 6.023570  0.000000 0.017350 -0.000000
15  2.861047 -5.551700 -1.295019  -0.000000 0.000000 0.000000
16  -0.160952 2.270950 5.513725  -0.000000 -0.000000 0.000000
17  0.783689 1.087372 11.560616  -0.000000 0.000000 -0.000000
18  -0.017059 -0.034536 -0.654792  0.003885 0.017436 0.000120
19  -0.669091 -0.281067 -16.582542  0.021418 0.017511 0.001137
20  -0.054107 -0.368182 -0.390886  0.109679 0.001792 0.002000
21  2.926265 -1.135555 -24.857794  0.010714 0.034958 0.000533
22  0.176165 3.421206 -19.465681  -0.000000 0.017350 0.000000
23  0.214477 3.945335 -14.796871  -0.000000 0.017350 -0.000000
24  -0.127800 3.995605 -4.361925  -0.000000 0.000000 0.000000
25  -5.848767 -2.970825 -24.100021  -0.014851 0.017088 -0.000472
26  0.392178 -8.798161 -12.680970  -0.000000 0.017349 -0.000000
27  1.845341 7.302799 -12.204823  -0.000000 0.017350 0.000000
28  -0.506195 5.050750 -3.130168  0.000000 -0.000000 0.000000
29  0.000009 -0.000000 206.122971  0.000000 -0.000000 0.000000
30  0.000000 0.000000 -0.000000  0.000000 -0.000000 0.000000
31  0.000000 0.000000 0.000000  0.000000 0.000000 0.000244
32  0.000000 0.000000 0.000000  0.000000 0.000000 0.000244
33  0.000000 0.000000 0.000000  0.000000 0.000000 0.000244
34  0.000000 0.000000 0.000000  0.000000 0.000000 0.000244
35  0.000000 0.000000 0.000000  0.000000 0.000000 0.000244
time 24
0  0.000000 0.000000 0.000000  0.000000 0.000000 0.000244
1  -0.853095 -0.026371 105.073807  0.017462 0.017414 -0.017113
2  0.076050 0.018672 0.486571  -0.001985 0.017350 -0.000017
3  0.681925 3.061767 25.766745  -0.004325 0.017263 -0.000210
4  -0.270206 4.643918 15.082992  0.000000 -0.000000 -0.000000
5  7.861997 1.690550 20.553316  0.004836 0.017435 0.000215
6  5.961566 5.877565 -14.357309  0.000000 0.017351 0.000000
7  10.132454 7.521425 -13.339915  -0.000000 0.017349 0.000001
8  7.071622 2.633331 -1.343431  -0.000000 -0.000000 -0.000000
9  -7.215014 2.908782 21.442205  -0.005958 0.017176 -0.000224
10  -2.914595 -15.412415 -6.310896  0.000000 0.017351 -0.000000
11  1.915933 -8.833017 13.424057  -0.000008 0.017349 -0.000001
12  5.659711 -11.449340 9.057086  -0.000000 0.017350 0.000000
13  1.189934 10.695259 -2.939688  0.000000 0.034787 0.000000
14  -2.124489 -24.104870 6.023564  0.000000 0.017350 -0.000000
15  2.810292 -5.455643 -1.272026  -0.000000 0.000000 0.000000
16  -0.160956 2.270951 5.513714  -0.000000 -0.000000 0.000000
17  0.783688 1.087372 11.560620  -0.000000 0.000000 0.000000
18  -0.017059 -0.034536 -0.654784  0.000950 0.017350 0.000008
19  -0.669090 -0.281067 -16.582537  0.005613 0.017436 0.000222
20  -0.054107 -0.368182 -0.390870  0.109679 0.001792 0.002000
21  2.926265 -1.135555 -24.857794  0.002765 0.034787 0.000134
22  0.176165 3.421206 -19.465672  0.000000 0.017350 0.000000
23  0.214476 3.945336 -14.796872  -0.000000 0.017350 -0.000000
24  -0.127800 3.995607 -4.361925  -0.000000 0.000000 0.000000
25  -5.848767 -2.970824 -24.100029  -0.003886 0.017263 -0.000120
26  0.392179 -8.798161 -12.680973  -0.000000 0.017349 -0.000000
27  1.845342 7.302800 -12.204824  -0.000000 0.017350 0.000000
28  -0.506195 5.050750 -3.130172  0.000000 -0.000000 0.000000
29  0.000009 -0.000000 206.122971  0.000000 -0.000000 0.000000
30  0.000000 0.000000 -0.000000  0.000000 -0.000000 0.000000
31  0.000000 0.000000 0.000000  0.000000 0.000000 0.000244
32  0.000000 0.000000 0.000000  0.000000 0.000000 0.000244
33  0.000000 0.000000 0.000000  0.000000 0.000000 0.000244
34  0.000000 0.000000 0.000000  0.000000 0.000000 0.000244
35  0.000000 0.000000 0.000000  0.000000 0.000000 0.000244
time 25
0  0.000000 0.000000 0.000000  0.000000 0.000000 0.000244
1  -0.853095 -0.026367 105.001045  0.017462 0.017414 -0.017113
2  0.076050 0.018672 0.486563  0.000000 0.017350 0.000000
3  0.681925 3.061767 25.766752  -0.000008 0.017350 -0.000000
4  -0.270204 4.643917 15.082966  0.000000 -0.000000 -0.000000
5  7.861997 1.690549 20.553320  -0.000000 0.017350 -0.000000
6  5.961566 5.877565 -14.357297  0.000000 0.017351 -0.000000
7  10.132455 7.521424 -13.339898  -0.000000 0.017349 0.000001
8  7.071621 2.633330 -1.343427  -0.000000 -0.000000 -0.000000
9  -7.215014 2.908782 21.442223  0.000000 0.017350 -0.000000
10  -2.914597 -15.412416 -6.310909  0.000000 0.017351 -0.000000
11  1.915931 -8.833016 13.424075  -0.000008 0.017349 -0.000001
12  5.659714 -11.449338 9.057100  -0.000000 0.017350 0.000000
13  1.189935 10.695256 -2.939718  0.000000 0.034787 0.000000
14  -2.124489 -24.104866 6.023557  0.000000 0.017350 -0.000000
15  2.792169 -5.421335 -1.263836  -0.000000 0.000000 0.000000
16  -0.160952 2.270948 5.513734  -0.000000 -0.000000 0.000000
17  0.783688 1.087372 11.560631  0.000000 0.000000 0.000000
18  -0.017059 -0.034536 -0.654792  0.000000 0.017350 0.000000
19  -0.669090 -0.281067 -16.582523  0.000000 0.017350 -0.000000
20  -0.054107 -0.368182 -0.390878  0.109679 0.001792 0.002000
21  2.926265 -1.135554 -24.857801  -0.000000 0.034787 -0.000000
22  0.176164 3.421208 -19.465683  -0.000000 0.017350 0.000000
23  0.214477 3.945336 -14.796876  -0.000000 0.017350 -0.000000
24  -0.127801 3.995607 -4.361934  -0.000000 -0.000000 0.000000
25  -5.848767 -2.970824 -24.100029  0.000000 0.017350 0.000000
26  0.392179 -8.798162 -12.680981  0.000000 0.017349 -0.000000
27  1.845341 7.302800 -12.204823  -0.000000 0.017350 0.000000
28  -0.506195 5.050749 -3.130173  -0.000000 -0.000000 0.000000
29  0.000009 -0.000000 206.122971  0.000000 -0.000000 0.000000
30  0.000000 0.000000 -0.000000  0.000000 -0.000000 0.000000
31  0.000000 0.000000 0.000000  0.000000 0.000000 0.000244
32  0.000000 0.000000 0.000000  0.000000 0.000000 0.000244
33  0.000000 0.000000 0.000000  0.000000 0.000000 0.000244
34  0.000000 0.000000 0.000000  0.000000 0.000000 0.000244
35  0.000000 0.000000 0.000000  0.000000 0.000000 0.000244
end
