version 1
nodes
0 "m3bone_root" -1
1 "bone" 0
2 "bone_20" 1
3 "bone_19" 2
4 "Head Ref" 3
5 "bone_15" 2
6 "bone_14" 5
7 "bone_13" 6
8 "Hand Left Ref" 7
9 "bone_15111" 2
10 "bone_17" 9
11 "bone_18" 10
12 "bone_5" 11
13 "bone_2" 12
14 "bone_24999" 13
15 "Weapon Ref" 14
16 "Hand Right Ref" 11
17 "Chest Ref" 2
18 "bone_25" 1
19 "bone_23" 18
20 "bone_24" 1
21 "bone_7" 20
22 "bone_9" 21
23 "bone_11" 22
24 "Foot Left Ref" 23
25 "bone_6" 20
26 "bone_8" 25
27 "bone_10" 26
28 "Foot Right Ref" 27
29 "OverHead Ref" 0
30 "Origin Ref" 0
31 "_M3_Anim_Data" -1
32 "syamemaru2" -1
33 "syamemaru1" -1
34 "syamemaru3" -1
35 "syamemaru4" -1
end
skeleton
time 0
0  0.000000 0.000000 0.000000  0.000000 0.000000 0.000244
1  -0.853095 -0.026367 105.001045  0.706363 0.026636 -0.002877
2  0.076050 0.018674 0.486588  -0.000425 0.075428 0.066594
3  0.681926 3.061764 25.766729  -0.431589 0.027460 -0.052156
4  -0.270206 4.643925 15.082953  0.000000 -0.000000 -0.000000
5  7.861996 1.690540 20.553307  0.259883 -0.484326 -0.688602
6  5.961561 5.877548 -14.357304  -0.000279 0.140512 0.127699
7  10.132450 7.521417 -13.339900  -0.519634 0.079582 -0.031712
8  7.071620 2.633332 -1.343446  0.000000 -0.000000 -0.000000
9  -7.215013 2.908786 21.442209  -0.422272 0.027401 -0.050549
10  -2.914596 -15.412419 -6.310910  0.000000 0.017351 0.000000
11  1.915929 -8.833017 13.424094  -0.000008 0.017349 -0.000001
12  5.659711 -11.449348 9.057088  -0.000000 0.017350 0.000000
13  1.189932 10.695270 -2.939717  -0.000000 0.034787 0.000000
14  -2.124492 -24.104868 6.023597  -0.000000 0.017350 -0.000000
15  2.792172 -5.421341 -1.263818  0.000000 0.000000 0.000000
16  -0.160958 2.270953 5.513753  -0.000000 -0.000000 0.000000
17  0.783688 1.087371 11.560612  -0.000000 0.000000 0.000000
18  -0.017059 -0.034571 -0.654779  0.000000 0.017350 0.000000
19  -0.669091 -0.281065 -16.582520  0.000000 0.017350 -0.000000
20  -0.054107 -0.368186 -0.390870  0.000000 0.000000 0.000000
21  2.926264 -1.135566 -24.857803  0.000000 0.034787 -0.000000
22  0.176165 3.421191 -19.465694  -0.000000 0.017350 0.000000
23  0.214477 3.945334 -14.796874  0.000000 0.017350 -0.000000
24  -0.127801 3.995612 -4.361928  0.000000 0.000000 0.000000
25  -5.848764 -2.970827 -24.100027  0.000000 0.017350 0.000000
26  0.392180 -8.798152 -12.680974  0.000000 0.017349 -0.000000
27  1.845342 7.302802 -12.204829  -0.000000 0.017350 -0.000000
28  -0.506194 5.050751 -3.130165  -0.000000 -0.000000 0.000000
29  0.000009 -0.000000 206.122971  0.000000 -0.000000 0.000000
30  0.000000 0.000000 -0.000000  0.000000 -0.000000 0.000000
31  0.000000 0.000000 0.000000  0.000000 0.000000 0.000244
32  0.000000 0.000000 0.000000  0.000000 0.000000 0.000244
33  0.000000 0.000000 0.000000  0.000000 0.000000 0.000244
34  0.000000 0.000000 0.000000  0.000000 0.000000 0.000244
35  0.000000 0.000000 0.000000  0.000000 0.000000 0.000244
time 1
0  0.000000 0.000000 0.000000  0.000000 0.000000 0.000244
1  -0.853095 -0.026367 105.429047  0.706363 0.026636 -0.002877
2  0.076050 0.018666 0.486588  -0.002725 0.076628 0.066421
3  0.681925 3.061753 25.766733  -0.431589 0.027460 -0.052156
4  -0.270208 4.643929 15.082965  -0.000000 -0.000000 -0.000000
5  7.861995 1.690531 20.553318  0.254541 -0.476715 -0.673593
6  5.961565 5.877561 -14.357303  -0.000279 0.140512 0.127699
7  10.132446 7.521424 -13.339911  -0.519634 0.079582 -0.031711
8  7.071620 2.633333 -1.343430  -0.000000 -0.000000 -0.000000
9  -7.215014 2.908776 21.442217  -0.422272 0.027401 -0.050549
10  -2.914595 -15.412412 -6.310905  -0.000000 0.017351 -0.000000
11  1.915930 -8.833014 13.424099  -0.000008 0.017349 -0.000001
12  5.659712 -11.449344 9.057090  -0.000000 0.017350 0.000000
13  1.189935 10.695259 -2.939707  -0.000000 0.034787 0.000000
14  -2.124490 -24.104877 6.023570  0.000000 0.017350 -0.000000
15  2.792164 -5.421345 -1.263837  0.000000 0.000000 0.000000
16  -0.160954 2.270947 5.513743  -0.000000 -0.000000 0.000000
17  0.783688 1.087363 11.560622  -0.000000 0.000000 -0.000000
18  -0.017059 -0.034571 -0.654779  0.003539 0.017522 0.000031
19  -0.669091 -0.281066 -16.582527  0.005267 0.017436 0.000218
20  -0.054107 -0.368194 -0.390870  0.000000 0.000000 0.000000
21  2.926264 -1.135574 -24.857803  0.009851 0.034958 0.000517
22  0.176165 3.421199 -19.465689  0.000000 0.017350 0.000000
23  0.214476 3.945331 -14.796866  0.000000 0.017350 -0.000000
24  -0.127801 3.995611 -4.361933  0.000000 0.000000 0.000000
25  -5.848764 -2.970830 -24.100027  -0.013815 0.017088 -0.000463
26  0.392180 -8.798168 -12.680965  0.000000 0.017349 -0.000000
27  1.845342 7.302803 -12.204818  0.000000 0.017350 -0.000000
28  -0.506194 5.050744 -3.130159  0.000000 -0.000000 0.000000
29  0.000009 -0.000000 206.122971  0.000000 -0.000000 0.000000
30  0.000000 0.000000 -0.000000  0.000000 -0.000000 0.000000
31  0.000000 0.000000 0.000000  0.000000 0.000000 0.000244
32  0.000000 0.000000 0.000000  0.000000 0.000000 0.000244
33  0.000000 0.000000 0.000000  0.000000 0.000000 0.000244
34  0.000000 0.000000 0.000000  0.000000 0.000000 0.000244
35  0.000000 0.000000 0.000000  0.000000 0.000000 0.000244
time 2
0  0.000000 0.000000 0.000000  0.000000 0.000000 0.000244
1  -0.853095 -0.026368 106.557434  0.706363 0.026636 -0.002877
2  0.076050 0.018665 0.486573  -0.008682 0.077515 0.065844
3  0.681926 3.061750 25.766712  -0.431589 0.027460 -0.052156
4  -0.270207 4.643929 15.082952  0.000000 -0.000000 -0.000000
5  7.861996 1.690533 20.553308  0.240232 -0.456521 -0.634033
6  5.961562 5.877556 -14.357297  -0.000279 0.140512 0.127699
7  10.132445 7.521435 -13.339906  -0.519634 0.079582 -0.031711
8  7.071615 2.633328 -1.343441  -0.000000 -0.000000 -0.000000
9  -7.215012 2.908776 21.442200  -0.422272 0.027401 -0.050549
10  -2.914594 -15.412415 -6.310909  -0.000000 0.017351 0.000000
11  1.915926 -8.833010 13.424108  -0.000008 0.017349 -0.000001
12  5.659711 -11.449344 9.057101  -0.000000 0.017350 0.000000
13  1.189933 10.695269 -2.939717  -0.000000 0.034787 0.000000
14  -2.124491 -24.104860 6.023591  -0.000000 0.017350 -0.000000
15  2.792170 -5.421329 -1.263832  -0.000000 0.000000 0.000000
16  -0.160955 2.270950 5.513757  0.000000 -0.000000 0.000000
17  0.783688 1.087361 11.560609  -0.000000 0.000000 -0.000000
18  -0.017059 -0.034580 -0.654786  0.012865 0.017866 0.000374
19  -0.669091 -0.281070 -16.582527  0.019432 0.017772 0.001036
20  -0.054107 -0.368194 -0.390877  0.000000 0.000000 0.000000
21  2.926264 -1.135570 -24.857803  0.035950 0.035449 0.001932
22  0.176165 3.421205 -19.465679  0.000000 0.017350 0.000000
23  0.214477 3.945332 -14.796876  0.000000 0.017350 -0.000000
24  -0.127801 3.995618 -4.361932  0.000000 0.000000 0.000000
25  -5.848764 -2.970828 -24.100025  -0.050343 0.016276 -0.001705
26  0.392179 -8.798152 -12.680963  -0.000000 0.017349 -0.000000
27  1.845342 7.302806 -12.204824  -0.000000 0.017350 0.000000
28  -0.506195 5.050751 -3.130159  -0.000000 -0.000000 0.000000
29  0.000009 -0.000000 206.122971  0.000000 -0.000000 0.000000
30  0.000000 0.000000 -0.000000  0.000000 -0.000000 0.000000
31  0.000000 0.000000 0.000000  0.000000 0.000000 0.000244
32  0.000000 0.000000 0.000000  0.000000 0.000000 0.000244
33  0.000000 0.000000 0.000000  0.000000 0.000000 0.000244
34  0.000000 0.000000 0.000000  0.000000 0.000000 0.000244
35  0.000000 0.000000 0.000000  0.000000 0.000000 0.000244
time 3
0  0.000000 0.000000 0.000000  0.000000 0.000000 0.000244
1  -0.853095 -0.026370 108.152740  0.706363 0.026636 -0.002877
2  0.076050 0.018680 0.486582  -0.017158 0.078135 0.065167
3  0.681926 3.061766 25.766714  -0.431589 0.027460 -0.052156
4  -0.270206 4.643930 15.082958  0.000000 -0.000000 -0.000000
5  7.861995 1.690551 20.553295  0.220137 -0.428005 -0.578033
6  5.961563 5.877559 -14.357296  -0.000279 0.140512 0.127699
7  10.132452 7.521426 -13.339906  -0.519634 0.079582 -0.031711
8  7.071613 2.633332 -1.343435  -0.000000 -0.000000 0.000000
9  -7.215013 2.908791 21.442194  -0.422272 0.027401 -0.050549
10  -2.914596 -15.412413 -6.310910  -0.000000 0.017351 0.000000
11  1.915931 -8.833019 13.424090  -0.000008 0.017349 -0.000001
12  5.659709 -11.449347 9.057076  -0.000000 0.017350 0.000000
13  1.189935 10.695267 -2.939713  -0.000000 0.034787 0.000000
14  -2.124488 -24.104864 6.023592  0.000000 0.017350 -0.000000
15  2.792166 -5.421334 -1.263837  0.000000 0.000000 0.000000
16  -0.160956 2.270948 5.513733  -0.000000 -0.000000 -0.000000
17  0.783688 1.087383 11.560603  -0.000000 0.000000 -0.000000
18  -0.017059 -0.034565 -0.654785  0.026163 0.018377 0.000758
19  -0.669091 -0.281064 -16.582531  0.039297 0.018176 0.002084
20  -0.054107 -0.368180 -0.390869  0.000000 0.000000 0.000000
21  2.926263 -1.135565 -24.857801  0.072864 0.036137 0.003909
22  0.176165 3.421199 -19.465698  -0.000000 0.017350 0.000000
23  0.214477 3.945331 -14.796873  -0.000000 0.017350 -0.000000
24  -0.127800 3.995618 -4.361942  -0.000000 0.000000 0.000000
25  -5.848765 -2.970821 -24.100025  -0.102013 0.015122 -0.003451
26  0.392180 -8.798157 -12.680970  -0.000000 0.017349 -0.000000
27  1.845342 7.302802 -12.204822  0.000000 0.017350 -0.000000
28  -0.506195 5.050745 -3.130170  -0.000000 -0.000000 0.000000
29  0.000009 -0.000000 206.122971  0.000000 -0.000000 0.000000
30  0.000000 0.000000 -0.000000  0.000000 -0.000000 0.000000
31  0.000000 0.000000 0.000000  0.000000 0.000000 0.000244
32  0.000000 0.000000 0.000000  0.000000 0.000000 0.000244
33  0.000000 0.000000 0.000000  0.000000 0.000000 0.000244
34  0.000000 0.000000 0.000000  0.000000 0.000000 0.000244
35  0.000000 0.000000 0.000000  0.000000 0.000000 0.000244
time 4
0  0.000000 0.000000 0.000000  0.000000 0.000000 0.000244
1  -0.853095 -0.026375 109.981506  0.706363 0.026636 -0.002877
2  0.076050 0.018676 0.486585  -0.026861 0.078529 0.064268
3  0.681925 3.061767 25.766741  -0.431589 0.027460 -0.052156
4  -0.270205 4.643928 15.082934  0.000000 -0.000000 -0.000000
5  7.861995 1.690540 20.553320  0.197010 -0.395392 -0.513918
6  5.961565 5.877544 -14.357300  -0.000279 0.140512 0.127699
7  10.132448 7.521439 -13.339906  -0.519634 0.079582 -0.031711
8  7.071613 2.633328 -1.343421  -0.000000 -0.000000 0.000000
9  -7.215013 2.908787 21.442217  -0.422272 0.027401 -0.050549
10  -2.914596 -15.412418 -6.310906  0.000000 0.017351 -0.000000
11  1.915928 -8.833010 13.424094  -0.000008 0.017349 -0.000001
12  5.659712 -11.449347 9.057079  -0.000000 0.017350 0.000000
13  1.189937 10.695267 -2.939746  -0.000000 0.034787 0.000000
14  -2.124491 -24.104858 6.023573  0.000000 0.017350 -0.000000
15  2.792170 -5.421333 -1.263853  -0.000000 0.000000 0.000000
16  -0.160957 2.270947 5.513751  0.000000 -0.000000 0.000000
17  0.783688 1.087379 11.560637  0.000000 0.000000 0.000000
18  -0.017059 -0.034569 -0.654782  0.041362 0.018970 0.001169
19  -0.669091 -0.281069 -16.582533  0.062192 0.018636 0.003343
20  -0.054107 -0.368184 -0.390873  0.000000 0.000000 0.000000
21  2.926264 -1.135575 -24.857800  0.115172 0.036910 0.006192
22  0.176165 3.421205 -19.465698  -0.000000 0.017350 0.000000
23  0.214477 3.945339 -14.796865  0.000000 0.017350 -0.000000
24  -0.127801 3.995612 -4.361933  -0.000000 0.000000 0.000000
25  -5.848764 -2.970833 -24.100021  -0.161284 0.013756 -0.005528
26  0.392180 -8.798159 -12.680965  -0.000000 0.017349 -0.000000
27  1.845340 7.302809 -12.204824  -0.000000 0.017350 -0.000000
28  -0.506194 5.050748 -3.130169  -0.000000 -0.000000 0.000000
29  0.000009 -0.000000 206.122971  0.000000 -0.000000 0.000000
30  0.000000 0.000000 -0.000000  0.000000 -0.000000 0.000000
31  0.000000 0.000000 0.000000  0.000000 0.000000 0.000244
32  0.000000 0.000000 0.000000  0.000000 0.000000 0.000244
33  0.000000 0.000000 0.000000  0.000000 0.000000 0.000244
34  0.000000 0.000000 0.000000  0.000000 0.000000 0.000244
35  0.000000 0.000000 0.000000  0.000000 0.000000 0.000244
time 5
0  0.000000 0.000000 0.000000  0.000000 0.000000 0.000244
1  -0.853095 -0.026373 111.810272  0.706363 0.026636 -0.002877
2  0.076050 0.018670 0.486591  -0.036478 0.078828 0.063458
3  0.681926 3.061763 25.766720  -0.431589 0.027460 -0.052156
4  -0.270206 4.643926 15.082943  0.000000 -0.000000 -0.000000
5  7.861996 1.690545 20.553303  0.173910 -0.362727 -0.449759
6  5.961560 5.877554 -14.357309  -0.000279 0.140512 0.127699
7  10.132448 7.521438 -13.339891  -0.519634 0.079582 -0.031711
8  7.071615 2.633333 -1.343441  0.000000 -0.000000 0.000000
9  -7.215013 2.908791 21.442202  -0.422272 0.027401 -0.050549
10  -2.914596 -15.412416 -6.310923  -0.000000 0.017351 -0.000000
11  1.915926 -8.833011 13.424105  -0.000008 0.017349 -0.000001
12  5.659709 -11.449350 9.057096  -0.000000 0.017350 0.000000
13  1.189935 10.695266 -2.939747  0.000000 0.034787 0.000000
14  -2.124488 -24.104870 6.023557  -0.000000 0.017350 -0.000000
15  2.792168 -5.421337 -1.263835  0.000000 0.000000 0.000000
16  -0.160956 2.270944 5.513748  -0.000000 -0.000000 0.000000
17  0.783688 1.087383 11.560615  0.000000 0.000000 0.000000
18  -0.017059 -0.034575 -0.654775  0.056564 0.019555 0.001676
19  -0.669091 -0.281067 -16.582525  0.085010 0.019157 0.004616
20  -0.054107 -0.368190 -0.390867  0.000000 0.000000 0.000000
21  2.926264 -1.135569 -24.857792  0.157533 0.037694 0.008431
22  0.176165 3.421214 -19.465694  -0.000000 0.017350 0.000000
23  0.214476 3.945344 -14.796873  -0.000000 0.017350 -0.000000
24  -0.127801 3.995606 -4.361925  0.000000 0.000000 0.000000
25  -5.848765 -2.970830 -24.100016  -0.220520 0.012452 -0.007545
26  0.392181 -8.798152 -12.680966  0.000000 0.017349 -0.000000
27  1.845341 7.302810 -12.204817  -0.000000 0.017350 0.000000
28  -0.506195 5.050748 -3.130163  0.000000 -0.000000 0.000000
29  0.000009 -0.000000 206.122971  0.000000 -0.000000 0.000000
30  0.000000 0.000000 -0.000000  0.000000 -0.000000 0.000000
31  0.000000 0.000000 0.000000  0.000000 0.000000 0.000244
32  0.000000 0.000000 0.000000  0.000000 0.000000 0.000244
33  0.000000 0.000000 0.000000  0.000000 0.000000 0.000244
34  0.000000 0.000000 0.000000  0.000000 0.000000 0.000244
35  0.000000 0.000000 0.000000  0.000000 0.000000 0.000244
time 6
0  0.000000 0.000000 0.000000  0.000000 0.000000 0.000244
1  -0.853095 -0.026375 113.405579  0.706363 0.026636 -0.002877
2  0.076050 0.018677 0.486584  -0.044887 0.078913 0.062784
3  0.681927 3.061761 25.766726  -0.431589 0.027460 -0.052156
4  -0.270206 4.643928 15.082965  0.000000 -0.000000 -0.000000
5  7.861997 1.690542 20.553314  0.153749 -0.334252 -0.393783
6  5.961559 5.877551 -14.357304  -0.000279 0.140512 0.127699
7  10.132447 7.521440 -13.339904  -0.519634 0.079582 -0.031712
8  7.071616 2.633333 -1.343431  0.000000 -0.000000 -0.000000
9  -7.215013 2.908794 21.442219  -0.422272 0.027401 -0.050549
10  -2.914596 -15.412416 -6.310921  0.000000 0.017351 0.000000
11  1.915926 -8.833014 13.424098  -0.000008 0.017349 -0.000001
12  5.659713 -11.449349 9.057104  -0.000000 0.017350 -0.000000
13  1.189935 10.695267 -2.939732  0.000000 0.034787 0.000000
14  -2.124490 -24.104870 6.023565  -0.000000 0.017350 -0.000000
15  2.792170 -5.421335 -1.263823  0.000000 0.000000 0.000000
16  -0.160953 2.270950 5.513759  -0.000000 -0.000000 0.000000
17  0.783689 1.087377 11.560624  -0.000000 0.000000 0.000000
18  -0.017059 -0.034568 -0.654775  0.069868 0.020055 0.001997
19  -0.669091 -0.281067 -16.582525  0.104898 0.019582 0.005696
20  -0.054107 -0.368183 -0.390866  0.000000 0.000000 0.000000
21  2.926264 -1.135567 -24.857800  0.194413 0.038438 0.010515
22  0.176165 3.421212 -19.465689  0.000000 0.017350 0.000000
23  0.214477 3.945326 -14.796876  0.000000 0.017350 -0.000000
24  -0.127801 3.995613 -4.361934  0.000000 0.000000 0.000000
25  -5.848764 -2.970824 -24.100029  -0.272106 0.011347 -0.009394
26  0.392181 -8.798159 -12.680964  0.000000 0.017349 -0.000000
27  1.845341 7.302803 -12.204825  0.000000 0.017350 0.000000
28  -0.506194 5.050745 -3.130166  -0.000000 -0.000000 0.000000
29  0.000009 -0.000000 206.122971  0.000000 -0.000000 0.000000
30  0.000000 0.000000 -0.000000  0.000000 -0.000000 0.000000
31  0.000000 0.000000 0.000000  0.000000 0.000000 0.000244
32  0.000000 0.000000 0.000000  0.000000 0.000000 0.000244
33  0.000000 0.000000 0.000000  0.000000 0.000000 0.000244
34  0.000000 0.000000 0.000000  0.000000 0.000000 0.000244
35  0.000000 0.000000 0.000000  0.000000 0.000000 0.000244
time 7
0  0.000000 0.000000 0.000000  0.000000 0.000000 0.000244
1  -0.853095 -0.026376 114.533974  0.706363 0.026636 -0.002877
2  0.076050 0.018676 0.486585  -0.050872 0.079005 0.062204
3  0.681925 3.061749 25.766718  -0.431589 0.027460 -0.052156
4  -0.270205 4.643928 15.082954  0.000000 -0.000000 -0.000000
5  7.861996 1.690521 20.553289  0.139488 -0.314045 -0.354245
6  5.961559 5.877553 -14.357295  -0.000279 0.140512 0.127699
7  10.132447 7.521432 -13.339906  -0.519634 0.079582 -0.031712
8  7.071616 2.633330 -1.343425  0.000000 -0.000000 -0.000000
9  -7.215014 2.908777 21.442204  -0.422272 0.027401 -0.050549
10  -2.914595 -15.412413 -6.310903  -0.000000 0.017351 -0.000000
11  1.915927 -8.833011 13.424101  -0.000008 0.017349 -0.000001
12  5.659714 -11.449347 9.057074  -0.000000 0.017350 0.000000
13  1.189932 10.695263 -2.939725  -0.000000 0.034787 0.000000
14  -2.124484 -24.104870 6.023582  -0.000000 0.017350 -0.000000
15  2.792170 -5.421338 -1.263826  0.000000 0.000000 0.000000
16  -0.160954 2.270951 5.513741  -0.000000 -0.000000 0.000000
17  0.783687 1.087365 11.560607  0.000000 0.000000 -0.000000
18  -0.017059 -0.034569 -0.654782  0.079201 0.020469 0.002280
19  -0.669091 -0.281069 -16.582531  0.118999 0.019850 0.006457
20  -0.054107 -0.368184 -0.390873  0.000000 0.000000 0.000000
21  2.926264 -1.135575 -24.857792  0.220570 0.038898 0.011865
22  0.176164 3.421209 -19.465689  -0.000000 0.017350 0.000000
23  0.214476 3.945338 -14.796879  0.000000 0.017350 -0.000000
24  -0.127801 3.995612 -4.361933  0.000000 0.000000 0.000000
25  -5.848764 -2.970833 -24.100014  -0.308662 0.010574 -0.010643
26  0.392181 -8.798160 -12.680968  0.000000 0.017349 -0.000000
27  1.845341 7.302804 -12.204826  0.000000 0.017350 0.000000
28  -0.506194 5.050748 -3.130166  0.000000 -0.000000 0.000000
29  0.000009 -0.000000 206.122971  0.000000 -0.000000 0.000000
30  0.000000 0.000000 -0.000000  0.000000 -0.000000 0.000000
31  0.000000 0.000000 0.000000  0.000000 0.000000 0.000244
32  0.000000 0.000000 0.000000  0.000000 0.000000 0.000244
33  0.000000 0.000000 0.000000  0.000000 0.000000 0.000244
34  0.000000 0.000000 0.000000  0.000000 0.000000 0.000244
35  0.000000 0.000000 0.000000  0.000000 0.000000 0.000244
time 8
0  0.000000 0.000000 0.000000  0.000000 0.000000 0.000244
1  -0.853095 -0.026376 114.961975  0.706363 0.026636 -0.002877
2  0.076050 0.018668 0.486585  -0.053127 0.078986 0.062031
3  0.681925 3.061747 25.766726  -0.431589 0.027460 -0.052156
4  -0.270206 4.643929 15.082951  0.000000 -0.000000 -0.000000
5  7.861996 1.690528 20.553303  0.134119 -0.306375 -0.339209
6  5.961559 5.877550 -14.357301  -0.000279 0.140512 0.127699
7  10.132449 7.521424 -13.339882  -0.519634 0.079582 -0.031711
8  7.071615 2.633328 -1.343436  -0.000000 -0.000000 -0.000000
9  -7.215014 2.908776 21.442213  -0.422272 0.027401 -0.050549
10  -2.914594 -15.412419 -6.310919  0.000000 0.017351 -0.000000
11  1.915929 -8.833013 13.424103  -0.000008 0.017349 -0.000001
12  5.659710 -11.449348 9.057112  -0.000000 0.017350 0.000000
13  1.189932 10.695264 -2.939725  0.000000 0.034787 0.000000
14  -2.124490 -24.104860 6.023597  -0.000000 0.017350 -0.000000
15  2.792167 -5.421338 -1.263824  0.000000 0.000000 0.000000
16  -0.160955 2.270948 5.513752  -0.000000 -0.000000 0.000000
17  0.783687 1.087366 11.560615  0.000000 0.000000 -0.000000
18  -0.017059 -0.034569 -0.654781  0.082744 0.020548 0.002406
19  -0.669091 -0.281066 -16.582535  0.124365 0.019989 0.006780
20  -0.054107 -0.368192 -0.390873  0.000000 0.000000 0.000000
21  2.926264 -1.135571 -24.857792  0.230489 0.039143 0.012440
22  0.176164 3.421221 -19.465689  -0.000000 0.017350 0.000000
23  0.214477 3.945333 -14.796880  -0.000000 0.017350 -0.000000
24  -0.127801 3.995610 -4.361936  0.000000 0.000000 0.000000
25  -5.848764 -2.970829 -24.100014  -0.322560 0.010260 -0.011114
26  0.392178 -8.798154 -12.680966  0.000000 0.017349 -0.000000
27  1.845339 7.302806 -12.204825  -0.000000 0.017350 -0.000000
28  -0.506193 5.050753 -3.130161  -0.000000 -0.000000 0.000000
29  0.000009 -0.000000 206.122971  0.000000 -0.000000 0.000000
30  0.000000 0.000000 -0.000000  0.000000 -0.000000 0.000000
31  0.000000 0.000000 0.000000  0.000000 0.000000 0.000244
32  0.000000 0.000000 0.000000  0.000000 0.000000 0.000244
33  0.000000 0.000000 0.000000  0.000000 0.000000 0.000244
34  0.000000 0.000000 0.000000  0.000000 0.000000 0.000244
35  0.000000 0.000000 0.000000  0.000000 0.000000 0.000244
time 9
0  0.000000 0.000000 0.000000  0.000000 0.000000 0.000244
1  -0.853095 -0.026376 114.605003  0.706363 0.026636 -0.002877
2  0.076050 0.018676 0.486585  -0.050874 0.078918 0.062206
3  0.681927 3.061748 25.766726  -0.431589 0.027460 -0.052156
4  -0.270207 4.643932 15.082980  0.000000 -0.000000 -0.000000
5  7.861996 1.690536 20.553312  0.139488 -0.314045 -0.354245
6  5.961560 5.877549 -14.357301  -0.000279 0.140512 0.127699
7  10.132450 7.521430 -13.339893  -0.519634 0.079582 -0.031711
8  7.071615 2.633333 -1.343446  -0.000000 -0.000000 -0.000000
9  -7.215012 2.908776 21.442209  -0.422272 0.027401 -0.050549
10  -2.914594 -15.412420 -6.310910  -0.000000 0.017351 0.000000
11  1.915930 -8.833017 13.424091  -0.000008 0.017349 -0.000001
12  5.659711 -11.449345 9.057061  -0.000000 0.017350 0.000000
13  1.189935 10.695260 -2.939741  0.000000 0.034787 0.000000
14  -2.124490 -24.104866 6.023604  0.000000 0.017350 -0.000000
15  2.792167 -5.421330 -1.263820  -0.000000 0.000000 0.000000
16  -0.160957 2.270951 5.513714  -0.000000 -0.000000 0.000000
17  0.783689 1.087369 11.560627  0.000000 0.000000 0.000000
18  -0.017059 -0.034569 -0.654782  0.079201 0.020469 0.002280
19  -0.669091 -0.281076 -16.582539  0.118999 0.019850 0.006457
20  -0.054107 -0.368184 -0.390873  0.000000 0.000000 0.000000
21  2.926264 -1.135575 -24.857800  0.220570 0.038898 0.011865
22  0.176164 3.421209 -19.465693  -0.000000 0.017350 0.000000
23  0.214476 3.945334 -14.796881  0.000000 0.017350 -0.000000
24  -0.127801 3.995612 -4.361935  0.000000 0.000000 0.000000
25  -5.848764 -2.970833 -24.100021  -0.308662 0.010574 -0.010643
26  0.392179 -8.798158 -12.680968  0.000000 0.017349 -0.000000
27  1.845341 7.302806 -12.204826  0.000000 0.017350 0.000000
28  -0.506194 5.050744 -3.130166  0.000000 -0.000000 0.000000
29  0.000009 -0.000000 206.122971  0.000000 -0.000000 0.000000
30  0.000000 0.000000 -0.000000  0.000000 -0.000000 0.000000
31  0.000000 0.000000 0.000000  0.000000 0.000000 0.000244
32  0.000000 0.000000 0.000000  0.000000 0.000000 0.000244
33  0.000000 0.000000 0.000000  0.000000 0.000000 0.000244
34  0.000000 0.000000 0.000000  0.000000 0.000000 0.000244
35  0.000000 0.000000 0.000000  0.000000 0.000000 0.000244
time 10
0  0.000000 0.000000 0.000000  0.000000 0.000000 0.000244
1  -0.853095 -0.026375 113.649132  0.706363 0.026636 -0.002877
2  0.076050 0.018676 0.486577  -0.044897 0.078568 0.062791
3  0.681927 3.061759 25.766708  -0.431589 0.027460 -0.052156
4  -0.270207 4.643926 15.082955  0.000000 -0.000000 -0.000000
5  7.861997 1.690540 20.553303  0.153749 -0.334252 -0.393783
6  5.961565 5.877561 -14.357306  -0.000279 0.140512 0.127699
7  10.132448 7.521427 -13.339907  -0.519634 0.079582 -0.031711
8  7.071612 2.633328 -1.343436  0.000000 -0.000000 -0.000000
9  -7.215012 2.908789 21.442205  -0.422272 0.027401 -0.050549
10  -2.914595 -15.412417 -6.310902  -0.000000 0.017351 0.000000
11  1.915929 -8.833013 13.424103  -0.000008 0.017349 -0.000001
12  5.659711 -11.449344 9.057060  -0.000000 0.017350 0.000000
13  1.189935 10.695268 -2.939723  0.000000 0.034787 0.000000
14  -2.124493 -24.104864 6.023573  -0.000000 0.017350 -0.000000
15  2.792164 -5.421337 -1.263831  -0.000000 0.000000 0.000000
16  -0.160955 2.270949 5.513722  -0.000000 -0.000000 0.000000
17  0.783689 1.087379 11.560613  0.000000 0.000000 -0.000000
18  -0.017059 -0.034569 -0.654782  0.069868 0.020055 0.001997
19  -0.669091 -0.281059 -16.582525  0.104898 0.019582 0.005696
20  -0.054108 -0.368183 -0.390873  0.000000 0.000000 0.000000
21  2.926264 -1.135575 -24.857800  0.194413 0.038438 0.010515
22  0.176165 3.421212 -19.465685  0.000000 0.017350 0.000000
23  0.214477 3.945323 -14.796872  0.000000 0.017350 -0.000000
24  -0.127801 3.995606 -4.361933  0.000000 0.000000 0.000000
25  -5.848764 -2.970832 -24.100021  -0.272106 0.011347 -0.009394
26  0.392181 -8.798162 -12.680964  0.000000 0.017349 -0.000000
27  1.845342 7.302803 -12.204814  0.000000 0.017350 0.000000
28  -0.506194 5.050748 -3.130166  -0.000000 -0.000000 0.000000
29  0.000009 -0.000000 206.122971  0.000000 -0.000000 0.000000
30  0.000000 0.000000 -0.000000  0.000000 -0.000000 0.000000
31  0.000000 0.000000 0.000000  0.000000 0.000000 0.000244
32  0.000000 0.000000 0.000000  0.000000 0.000000 0.000244
33  0.000000 0.000000 0.000000  0.000000 0.000000 0.000244
34  0.000000 0.000000 0.000000  0.000000 0.000000 0.000244
35  0.000000 0.000000 0.000000  0.000000 0.000000 0.000244
time 11
0  0.000000 0.000000 0.000000  0.000000 0.000000 0.000244
1  -0.853095 -0.026374 112.266930  0.706363 0.026636 -0.002877
2  0.076050 0.018670 0.486584  -0.036415 0.078048 0.063473
3  0.681927 3.061752 25.766729  -0.431589 0.027460 -0.052156
4  -0.270205 4.643927 15.082940  0.000000 -0.000000 -0.000000
5  7.861998 1.690523 20.553301  0.173910 -0.362727 -0.449759
6  5.961560 5.877567 -14.357286  -0.000279 0.140512 0.127699
7  10.132447 7.521429 -13.339889  -0.519634 0.079582 -0.031711
8  7.071614 2.633331 -1.343440  0.000000 -0.000000 0.000000
9  -7.215012 2.908781 21.442219  -0.422272 0.027401 -0.050549
10  -2.914596 -15.412416 -6.310912  0.000000 0.017351 0.000000
11  1.915930 -8.833013 13.424099  -0.000008 0.017349 -0.000001
12  5.659712 -11.449353 9.057066  -0.000000 0.017350 0.000000
13  1.189935 10.695263 -2.939717  0.000000 0.034787 0.000000
14  -2.124492 -24.104864 6.023571  -0.000000 0.017350 -0.000000
15  2.792173 -5.421335 -1.263839  -0.000000 0.000000 0.000000
16  -0.160956 2.270946 5.513725  -0.000000 -0.000000 0.000000
17  0.783689 1.087365 11.560622  -0.000000 0.000000 0.000000
18  -0.017059 -0.034568 -0.654783  0.056564 0.019555 0.001676
19  -0.669092 -0.281067 -16.582525  0.085010 0.019157 0.004616
20  -0.054107 -0.368190 -0.390874  0.000000 0.000000 0.000000
21  2.926264 -1.135577 -24.857792  0.157533 0.037694 0.008431
22  0.176165 3.421210 -19.465694  -0.000000 0.017350 0.000000
23  0.214476 3.945344 -14.796877  -0.000000 0.017350 -0.000000
24  -0.127801 3.995610 -4.361928  0.000000 0.000000 0.000000
25  -5.848764 -2.970835 -24.100016  -0.220520 0.012452 -0.007545
26  0.392180 -8.798156 -12.680959  0.000000 0.017349 -0.000000
27  1.845341 7.302806 -12.204817  -0.000000 0.017350 0.000000
28  -0.506195 5.050750 -3.130167  0.000000 -0.000000 0.000000
29  0.000009 -0.000000 206.122971  0.000000 -0.000000 0.000000
30  0.000000 0.000000 -0.000000  0.000000 -0.000000 0.000000
31  0.000000 0.000000 0.000000  0.000000 0.000000 0.000244
32  0.000000 0.000000 0.000000  0.000000 0.000000 0.000244
33  0.000000 0.000000 0.000000  0.000000 0.000000 0.000244
34  0.000000 0.000000 0.000000  0.000000 0.000000 0.000244
35  0.000000 0.000000 0.000000  0.000000 0.000000 0.000244
time 12
0  0.000000 0.000000 0.000000  0.000000 0.000000 0.000244
1  -0.853095 -0.026372 110.630959  0.706363 0.026636 -0.002877
2  0.076050 0.018671 0.486575  -0.026720 0.077487 0.064286
3  0.681927 3.061741 25.766710  -0.431589 0.027460 -0.052156
4  -0.270206 4.643927 15.082973  0.000000 -0.000000 -0.000000
5  7.861996 1.690530 20.553307  0.197010 -0.395392 -0.513918
6  5.961560 5.877553 -14.357298  -0.000279 0.140512 0.127699
7  10.132444 7.521422 -13.339887  -0.519634 0.079582 -0.031711
8  7.071613 2.633330 -1.343423  -0.000000 -0.000000 0.000000
9  -7.215013 2.908779 21.442205  -0.422272 0.027401 -0.050549
10  -2.914597 -15.412415 -6.310910  -0.000000 0.017351 0.000000
11  1.915930 -8.833015 13.424100  -0.000008 0.017349 -0.000001
12  5.659708 -11.449347 9.057070  -0.000000 0.017350 0.000000
13  1.189932 10.695265 -2.939745  -0.000000 0.034787 0.000000
14  -2.124489 -24.104868 6.023607  0.000000 0.017350 -0.000000
15  2.792167 -5.421334 -1.263829  0.000000 0.000000 0.000000
16  -0.160959 2.270950 5.513727  0.000000 -0.000000 0.000000
17  0.783688 1.087363 11.560611  -0.000000 0.000000 0.000000
18  -0.017059 -0.034567 -0.654791  0.041362 0.018970 0.001169
19  -0.669091 -0.281067 -16.582542  0.062192 0.018636 0.003343
20  -0.054107 -0.368189 -0.390883  0.000000 0.000000 0.000000
21  2.926263 -1.135569 -24.857792  0.115172 0.036910 0.006192
22  0.176165 3.421193 -19.465687  -0.000000 0.017350 0.000000
23  0.214477 3.945335 -14.796869  0.000000 0.017350 -0.000000
24  -0.127801 3.995624 -4.361938  -0.000000 0.000000 0.000000
25  -5.848765 -2.970826 -24.100016  -0.161284 0.013756 -0.005528
26  0.392178 -8.798151 -12.680971  -0.000000 0.017349 -0.000000
27  1.845341 7.302813 -12.204826  -0.000000 0.017350 -0.000000
28  -0.506194 5.050745 -3.130167  -0.000000 -0.000000 0.000000
29  0.000009 -0.000000 206.122971  0.000000 -0.000000 0.000000
30  0.000000 0.000000 -0.000000  0.000000 -0.000000 0.000000
31  0.000000 0.000000 0.000000  0.000000 0.000000 0.000244
32  0.000000 0.000000 0.000000  0.000000 0.000000 0.000244
33  0.000000 0.000000 0.000000  0.000000 0.000000 0.000244
34  0.000000 0.000000 0.000000  0.000000 0.000000 0.000244
35  0.000000 0.000000 0.000000  0.000000 0.000000 0.000244
time 13
0  0.000000 0.000000 0.000000  0.000000 0.000000 0.000244
1  -0.853095 -0.026371 108.913826  0.706363 0.026636 -0.002877
2  0.076050 0.018672 0.486582  -0.017113 0.076837 0.065178
3  0.681927 3.061750 25.766726  -0.431589 0.027460 -0.052156
4  -0.270206 4.643926 15.082946  0.000000 -0.000000 -0.000000
5  7.861996 1.690538 20.553314  0.220137 -0.428005 -0.578033
6  5.961561 5.877554 -14.357312  -0.000279 0.140512 0.127699
7  10.132449 7.521432 -13.339897  -0.519634 0.079582 -0.031711
8  7.071614 2.633331 -1.343437  -0.000000 -0.000000 0.000000
9  -7.215012 2.908780 21.442213  -0.422272 0.027401 -0.050549
10  -2.914595 -15.412417 -6.310914  -0.000000 0.017351 0.000000
11  1.915929 -8.833007 13.424100  -0.000008 0.017349 -0.000001
12  5.659711 -11.449346 9.057086  -0.000000 0.017350 0.000000
13  1.189934 10.695266 -2.939727  -0.000000 0.034787 0.000000
14  -2.124491 -24.104870 6.023593  0.000000 0.017350 -0.000000
15  2.792170 -5.421335 -1.263845  -0.000000 0.000000 0.000000
16  -0.160956 2.270946 5.513738  0.000000 -0.000000 0.000000
17  0.783689 1.087365 11.560621  0.000000 0.000000 0.000000
18  -0.017059 -0.034573 -0.654785  0.026163 0.018377 0.000758
19  -0.669091 -0.281069 -16.582523  0.039297 0.018176 0.002084
20  -0.054107 -0.368188 -0.390868  0.000000 0.000000 0.000000
21  2.926264 -1.135568 -24.857801  0.072864 0.036137 0.003909
22  0.176165 3.421206 -19.465694  -0.000000 0.017350 0.000000
23  0.214477 3.945335 -14.796881  -0.000000 0.017350 -0.000000
24  -0.127801 3.995606 -4.361938  -0.000000 0.000000 0.000000
25  -5.848764 -2.970826 -24.100025  -0.102013 0.015122 -0.003451
26  0.392181 -8.798161 -12.680985  -0.000000 0.017349 -0.000000
27  1.845342 7.302806 -12.204825  0.000000 0.017350 -0.000000
28  -0.506195 5.050749 -3.130162  -0.000000 -0.000000 0.000000
29  0.000009 -0.000000 206.122971  0.000000 -0.000000 0.000000
30  0.000000 0.000000 -0.000000  0.000000 -0.000000 0.000000
31  0.000000 0.000000 0.000000  0.000000 0.000000 0.000244
32  0.000000 0.000000 0.000000  0.000000 0.000000 0.000244
33  0.000000 0.000000 0.000000  0.000000 0.000000 0.000244
34  0.000000 0.000000 0.000000  0.000000 0.000000 0.000244
35  0.000000 0.000000 0.000000  0.000000 0.000000 0.000244
time 14
0  0.000000 0.000000 0.000000  0.000000 0.000000 0.000244
1  -0.853095 -0.026369 107.288071  0.706363 0.026636 -0.002877
2  0.076050 0.018665 0.486581  -0.008637 0.076217 0.065850
3  0.681926 3.061748 25.766726  -0.431589 0.027460 -0.052156
4  -0.270207 4.643926 15.082934  -0.000000 -0.000000 -0.000000
5  7.861995 1.690533 20.553314  0.240232 -0.456521 -0.634033
6  5.961559 5.877565 -14.357299  -0.000279 0.140512 0.127699
7  10.132445 7.521433 -13.339900  -0.519634 0.079582 -0.031712
8  7.071615 2.633329 -1.343433  0.000000 0.000000 0.000000
9  -7.215013 2.908772 21.442205  -0.422272 0.027401 -0.050549
10  -2.914594 -15.412418 -6.310910  -0.000000 0.017351 0.000000
11  1.915931 -8.833012 13.424104  -0.000008 0.017349 -0.000001
12  5.659712 -11.449351 9.057095  -0.000000 0.017350 0.000000
13  1.189935 10.695266 -2.939728  -0.000000 0.034787 0.000000
14  -2.124485 -24.104858 6.023574  0.000000 0.017350 -0.000000
15  2.792169 -5.421342 -1.263837  -0.000000 0.000000 0.000000
16  -0.160954 2.270949 5.513754  0.000000 -0.000000 0.000000
17  0.783688 1.087371 11.560621  0.000000 0.000000 -0.000000
18  -0.017059 -0.034580 -0.654778  0.012865 0.017866 0.000374
19  -0.669091 -0.281073 -16.582527  0.019432 0.017772 0.001036
20  -0.054107 -0.368195 -0.390869  0.000000 0.000000 0.000000
21  2.926264 -1.135578 -24.857803  0.035950 0.035449 0.001932
22  0.176165 3.421197 -19.465691  0.000000 0.017350 0.000000
23  0.214476 3.945336 -14.796872  0.000000 0.017350 -0.000000
24  -0.127800 3.995626 -4.361930  0.000000 0.000000 0.000000
25  -5.848764 -2.970836 -24.100025  -0.050343 0.016276 -0.001705
26  0.392179 -8.798152 -12.680966  -0.000000 0.017349 -0.000000
27  1.845342 7.302806 -12.204828  -0.000000 0.017350 0.000000
28  -0.506194 5.050747 -3.130162  -0.000000 -0.000000 0.000000
29  0.000009 -0.000000 206.122971  0.000000 -0.000000 0.000000
30  0.000000 0.000000 -0.000000  0.000000 -0.000000 0.000000
31  0.000000 0.000000 0.000000  0.000000 0.000000 0.000244
32  0.000000 0.000000 0.000000  0.000000 0.000000 0.000244
33  0.000000 0.000000 0.000000  0.000000 0.000000 0.000244
34  0.000000 0.000000 0.000000  0.000000 0.000000 0.000244
35  0.000000 0.000000 0.000000  0.000000 0.000000 0.000244
time 15
0  0.000000 0.000000 0.000000  0.000000 0.000000 0.000244
1  -0.853095 -0.026368 105.926285  0.706363 0.026636 -0.002877
2  0.076050 0.018666 0.486580  -0.002667 0.075762 0.066423
3  0.681926 3.061743 25.766726  -0.431589 0.027460 -0.052156
4  -0.270208 4.643929 15.082960  0.000000 -0.000000 -0.000000
5  7.861996 1.690532 20.553310  0.254541 -0.476715 -0.673593
6  5.961557 5.877560 -14.357289  -0.000279 0.140512 0.127699
7  10.132441 7.521442 -13.339891  -0.519634 0.079582 -0.031711
8  7.071615 2.633332 -1.343418  0.000000 -0.000000 0.000000
9  -7.215013 2.908768 21.442209  -0.422272 0.027401 -0.050549
10  -2.914596 -15.412416 -6.310911  -0.000000 0.017351 0.000000
11  1.915932 -8.833015 13.424087  -0.000008 0.017349 -0.000001
12  5.659711 -11.449347 9.057088  -0.000000 0.017350 0.000000
13  1.189931 10.695258 -2.939737  -0.000000 0.034787 0.000000
14  -2.124486 -24.104862 6.023570  0.000000 0.017350 -0.000000
15  2.792168 -5.421333 -1.263818  0.000000 0.000000 0.000000
16  -0.160953 2.270942 5.513739  0.000000 -0.000000 0.000000
17  0.783688 1.087363 11.560615  0.000000 0.000000 0.000000
18  -0.017059 -0.034579 -0.654786  0.003539 0.017522 0.000031
19  -0.669091 -0.281070 -16.582535  0.005267 0.017436 0.000218
20  -0.054107 -0.368194 -0.390877  0.000000 0.000000 0.000000
21  2.926264 -1.135563 -24.857803  0.009851 0.034958 0.000517
22  0.176165 3.421202 -19.465689  0.000000 0.017350 0.000000
23  0.214476 3.945323 -14.796863  0.000000 0.017350 -0.000000
24  -0.127800 3.995622 -4.361929  0.000000 0.000000 0.000000
25  -5.848764 -2.970819 -24.100027  -0.013815 0.017088 -0.000463
26  0.392179 -8.798172 -12.680977  0.000000 0.017349 -0.000000
27  1.845341 7.302803 -12.204822  0.000000 0.017350 -0.000000
28  -0.506193 5.050744 -3.130166  0.000000 -0.000000 0.000000
29  0.000009 -0.000000 206.122971  0.000000 -0.000000 0.000000
30  0.000000 0.000000 -0.000000  0.000000 -0.000000 0.000000
31  0.000000 0.000000 0.000000  0.000000 0.000000 0.000244
32  0.000000 0.000000 0.000000  0.000000 0.000000 0.000244
33  0.000000 0.000000 0.000000  0.000000 0.000000 0.000244
34  0.000000 0.000000 0.000000  0.000000 0.000000 0.000244
35  0.000000 0.000000 0.000000  0.000000 0.000000 0.000244
time 16
0  0.000000 0.000000 0.000000  0.000000 0.000000 0.000244
1  -0.853095 -0.026367 105.001045  0.706363 0.026636 -0.002877
2  0.076050 0.018674 0.486588  -0.000425 0.075428 0.066594
3  0.681926 3.061764 25.766729  -0.431589 0.027460 -0.052156
4  -0.270206 4.643925 15.082953  0.000000 -0.000000 -0.000000
5  7.861996 1.690540 20.553307  0.259883 -0.484326 -0.688602
6  5.961561 5.877548 -14.357304  -0.000279 0.140512 0.127699
7  10.132450 7.521417 -13.339900  -0.519634 0.079582 -0.031712
8  7.071620 2.633332 -1.343446  0.000000 -0.000000 -0.000000
9  -7.215013 2.908786 21.442209  -0.422272 0.027401 -0.050549
10  -2.914596 -15.412419 -6.310910  0.000000 0.017351 0.000000
11  1.915929 -8.833017 13.424094  -0.000008 0.017349 -0.000001
12  5.659711 -11.449348 9.057088  -0.000000 0.017350 0.000000
13  1.189932 10.695270 -2.939717  -0.000000 0.034787 0.000000
14  -2.124492 -24.104868 6.023597  -0.000000 0.017350 -0.000000
15  2.792172 -5.421341 -1.263818  0.000000 0.000000 0.000000
16  -0.160958 2.270953 5.513753  -0.000000 -0.000000 0.000000
17  0.783688 1.087371 11.560612  -0.000000 0.000000 0.000000
18  -0.017059 -0.034571 -0.654779  0.000000 0.017350 0.000000
19  -0.669091 -0.281065 -16.582520  0.000000 0.017350 -0.000000
20  -0.054107 -0.368186 -0.390870  0.000000 0.000000 0.000000
21  2.926264 -1.135566 -24.857803  0.000000 0.034787 -0.000000
22  0.176165 3.421191 -19.465694  -0.000000 0.017350 0.000000
23  0.214477 3.945334 -14.796874  0.000000 0.017350 -0.000000
24  -0.127801 3.995612 -4.361928  0.000000 0.000000 0.000000
25  -5.848764 -2.970827 -24.100027  0.000000 0.017350 0.000000
26  0.392180 -8.798152 -12.680974  0.000000 0.017349 -0.000000
27  1.845342 7.302802 -12.204829  -0.000000 0.017350 -0.000000
28  -0.506194 5.050751 -3.130165  -0.000000 -0.000000 0.000000
29  0.000009 -0.000000 206.122971  0.000000 -0.000000 0.000000
30  0.000000 0.000000 -0.000000  0.000000 -0.000000 0.000000
31  0.000000 0.000000 0.000000  0.000000 0.000000 0.000244
32  0.000000 0.000000 0.000000  0.000000 0.000000 0.000244
33  0.000000 0.000000 0.000000  0.000000 0.000000 0.000244
34  0.000000 0.000000 0.000000  0.000000 0.000000 0.000244
35  0.000000 0.000000 0.000000  0.000000 0.000000 0.000244
end
